<svg height="360" viewBox="0 0 696 270" width="928" xmlns="http://www.w3.org/2000/svg" xmlns:xlink="http://www.w3.org/1999/xlink"><defs><style>*{stroke-linecap:butt;stroke-linejoin:round}</style></defs><g id="figure_1"><path d="M0 270.016h696.09V0H0z" fill="#fff" id="patch_1"/><g id="axes_1"><g id="matplotlib.axis_1"><g id="xtick_1"><path clip-path="url(#pc47d77ee3d)" d="M99.49 232.46V10.7" fill="none" stroke="#b0b0b0" stroke-linecap="square" stroke-width=".8" id="line2d_1"/><g id="line2d_2"><defs><path d="M0 0v3.5" id="m6347a1dde0" stroke="silver" stroke-width=".8"/></defs><use x="99.489" xlink:href="#m6347a1dde0" y="232.46" fill="silver" stroke="silver" stroke-width=".8"/></g><g id="text_1"><defs><path d="M31.781 66.406q-7.61 0-11.453-7.5Q16.5 51.422 16.5 36.375q0-14.984 3.828-22.484 3.844-7.5 11.453-7.5 7.672 0 11.5 7.5 3.844 7.5 3.844 22.484 0 15.047-3.844 22.531-3.828 7.5-11.5 7.5zm0 7.813q12.266 0 18.735-9.703 6.468-9.688 6.468-28.141 0-18.406-6.468-28.11-6.47-9.687-18.735-9.687-12.25 0-18.718 9.688-6.47 9.703-6.47 28.109 0 18.453 6.47 28.14Q19.53 74.22 31.78 74.22z" id="DejaVuSans-30"/><path d="M10.688 12.406H21V0H10.687z" id="DejaVuSans-2e"/><path d="M44.281 53.078v-8.5q-3.797 1.953-7.906 2.922-4.094.984-8.5.984-6.688 0-10.031-2.047-3.344-2.046-3.344-6.156 0-3.125 2.39-4.906 2.391-1.781 9.626-3.39l3.078-.688q9.562-2.047 13.593-5.781 4.032-3.735 4.032-10.422 0-7.625-6.032-12.078-6.03-4.438-16.578-4.438-4.39 0-9.156.86Q10.688.296 5.422 2v9.281q4.984-2.594 9.812-3.89 4.829-1.282 9.579-1.282 6.343 0 9.75 2.172 3.421 2.172 3.421 6.125 0 3.656-2.468 5.61-2.453 1.953-10.813 3.765l-3.125.735q-8.344 1.75-12.062 5.39-3.704 3.64-3.704 9.985 0 7.718 5.47 11.906Q16.75 56 26.811 56q4.97 0 9.36-.734 4.406-.72 8.11-2.188z" id="DejaVuSans-73"/></defs><g transform="matrix(.1 0 0 -.1 88.933 247.058)"><use xlink:href="#DejaVuSans-30"/><use x="63.623" xlink:href="#DejaVuSans-2e"/><use x="95.41" xlink:href="#DejaVuSans-30"/><use x="159.033" xlink:href="#DejaVuSans-73"/></g></g></g><g id="xtick_2"><path clip-path="url(#pc47d77ee3d)" d="M178.358 232.46V10.7" fill="none" stroke="#b0b0b0" stroke-linecap="square" stroke-width=".8" id="line2d_3"/><use x="178.358" xlink:href="#m6347a1dde0" y="232.46" fill="silver" stroke="silver" stroke-width=".8" id="line2d_4"/><g id="text_2"><defs><path d="M19.188 8.297h34.421V0H7.33v8.297q5.609 5.812 15.296 15.594 9.703 9.797 12.188 12.64 4.734 5.313 6.609 9 1.89 3.688 1.89 7.25 0 5.813-4.078 9.469-4.078 3.672-10.625 3.672-4.64 0-9.797-1.61-5.14-1.609-11-4.89v9.969Q13.767 71.78 18.938 73q5.188 1.219 9.485 1.219 11.328 0 18.062-5.672 6.735-5.656 6.735-15.125 0-4.5-1.688-8.531-1.672-4.016-6.125-9.485-1.218-1.422-7.765-8.187-6.532-6.766-18.453-18.922z" id="DejaVuSans-32"/></defs><g transform="matrix(.1 0 0 -.1 164.62 247.058)"><use xlink:href="#DejaVuSans-32"/><use x="63.623" xlink:href="#DejaVuSans-30"/><use x="127.246" xlink:href="#DejaVuSans-2e"/><use x="159.033" xlink:href="#DejaVuSans-30"/><use x="222.656" xlink:href="#DejaVuSans-73"/></g></g></g><g id="xtick_3"><path clip-path="url(#pc47d77ee3d)" d="M257.228 232.46V10.7" fill="none" stroke="#b0b0b0" stroke-linecap="square" stroke-width=".8" id="line2d_5"/><use x="257.228" xlink:href="#m6347a1dde0" y="232.46" fill="silver" stroke="silver" stroke-width=".8" id="line2d_6"/><g id="text_3"><defs><path d="M37.797 64.313L12.89 25.39h24.906zm-2.594 8.593H47.61V25.391h10.407v-8.203H47.609V0h-9.812v17.188H4.89v9.515z" id="DejaVuSans-34"/></defs><g transform="matrix(.1 0 0 -.1 243.49 247.058)"><use xlink:href="#DejaVuSans-34"/><use x="63.623" xlink:href="#DejaVuSans-30"/><use x="127.246" xlink:href="#DejaVuSans-2e"/><use x="159.033" xlink:href="#DejaVuSans-30"/><use x="222.656" xlink:href="#DejaVuSans-73"/></g></g></g><g id="xtick_4"><path clip-path="url(#pc47d77ee3d)" d="M336.097 232.46V10.7" fill="none" stroke="#b0b0b0" stroke-linecap="square" stroke-width=".8" id="line2d_7"/><use x="336.097" xlink:href="#m6347a1dde0" y="232.46" fill="silver" stroke="silver" stroke-width=".8" id="line2d_8"/><g id="text_4"><defs><path d="M33.016 40.375q-6.641 0-10.532-4.547-3.875-4.531-3.875-12.437 0-7.86 3.875-12.438 3.891-4.562 10.532-4.562 6.64 0 10.515 4.562 3.875 4.578 3.875 12.438 0 7.906-3.875 12.437-3.875 4.547-10.515 4.547zm19.578 30.922v-8.984q-3.719 1.75-7.5 2.671-3.782.938-7.5.938-9.766 0-14.922-6.594-5.14-6.594-5.875-19.922 2.875 4.25 7.219 6.516 4.359 2.266 9.578 2.266 10.984 0 17.36-6.672 6.374-6.657 6.374-18.125 0-11.235-6.64-18.032-6.641-6.78-17.672-6.78-12.657 0-19.344 9.687-6.688 9.703-6.688 28.109 0 17.281 8.204 27.563 8.203 10.28 22.015 10.28 3.719 0 7.5-.734t7.89-2.187z" id="DejaVuSans-36"/></defs><g transform="matrix(.1 0 0 -.1 322.36 247.058)"><use xlink:href="#DejaVuSans-36"/><use x="63.623" xlink:href="#DejaVuSans-30"/><use x="127.246" xlink:href="#DejaVuSans-2e"/><use x="159.033" xlink:href="#DejaVuSans-30"/><use x="222.656" xlink:href="#DejaVuSans-73"/></g></g></g><g id="xtick_5"><path clip-path="url(#pc47d77ee3d)" d="M414.966 232.46V10.7" fill="none" stroke="#b0b0b0" stroke-linecap="square" stroke-width=".8" id="line2d_9"/><use x="414.966" xlink:href="#m6347a1dde0" y="232.46" fill="silver" stroke="silver" stroke-width=".8" id="line2d_10"/><g id="text_5"><defs><path d="M31.781 34.625q-7.031 0-11.062-3.766-4.016-3.765-4.016-10.343 0-6.594 4.016-10.36Q24.75 6.391 31.78 6.391q7.032 0 11.078 3.78 4.063 3.798 4.063 10.345 0 6.578-4.031 10.343-4.016 3.766-11.11 3.766zm-9.86 4.188q-6.343 1.562-9.89 5.906Q8.5 49.079 8.5 55.329q0 8.733 6.219 13.812 6.234 5.078 17.062 5.078 10.89 0 17.094-5.078 6.203-5.079 6.203-13.813 0-6.25-3.547-10.61-3.531-4.343-9.828-5.906 7.125-1.656 11.094-6.5 3.984-4.828 3.984-11.796 0-10.61-6.468-16.282-6.47-5.656-18.532-5.656-12.047 0-18.531 5.656-6.469 5.672-6.469 16.282 0 6.968 4 11.797 4.016 4.843 11.14 6.5zM18.314 54.39q0-5.657 3.53-8.828 3.548-3.172 9.938-3.172 6.36 0 9.938 3.172 3.593 3.171 3.593 8.828 0 5.672-3.593 8.843-3.578 3.172-9.938 3.172-6.39 0-9.937-3.172-3.532-3.172-3.532-8.843z" id="DejaVuSans-38"/></defs><g transform="matrix(.1 0 0 -.1 401.229 247.058)"><use xlink:href="#DejaVuSans-38"/><use x="63.623" xlink:href="#DejaVuSans-30"/><use x="127.246" xlink:href="#DejaVuSans-2e"/><use x="159.033" xlink:href="#DejaVuSans-30"/><use x="222.656" xlink:href="#DejaVuSans-73"/></g></g></g><g id="xtick_6"><path clip-path="url(#pc47d77ee3d)" d="M493.835 232.46V10.7" fill="none" stroke="#b0b0b0" stroke-linecap="square" stroke-width=".8" id="line2d_11"/><use x="493.835" xlink:href="#m6347a1dde0" y="232.46" fill="silver" stroke="silver" stroke-width=".8" id="line2d_12"/><g id="text_6"><defs><path d="M12.406 8.297h16.11v55.625l-17.532-3.516v8.985l17.438 3.515h9.86V8.296H54.39V0H12.406z" id="DejaVuSans-31"/></defs><g transform="matrix(.1 0 0 -.1 476.917 247.058)"><use xlink:href="#DejaVuSans-31"/><use x="63.623" xlink:href="#DejaVuSans-30"/><use x="127.246" xlink:href="#DejaVuSans-30"/><use x="190.869" xlink:href="#DejaVuSans-2e"/><use x="222.656" xlink:href="#DejaVuSans-30"/><use x="286.279" xlink:href="#DejaVuSans-73"/></g></g></g><g id="xtick_7"><path clip-path="url(#pc47d77ee3d)" d="M572.705 232.46V10.7" fill="none" stroke="#b0b0b0" stroke-linecap="square" stroke-width=".8" id="line2d_13"/><use x="572.705" xlink:href="#m6347a1dde0" y="232.46" fill="silver" stroke="silver" stroke-width=".8" id="line2d_14"/><g transform="matrix(.1 0 0 -.1 555.786 247.058)" id="text_7"><use xlink:href="#DejaVuSans-31"/><use x="63.623" xlink:href="#DejaVuSans-32"/><use x="127.246" xlink:href="#DejaVuSans-30"/><use x="190.869" xlink:href="#DejaVuSans-2e"/><use x="222.656" xlink:href="#DejaVuSans-30"/><use x="286.279" xlink:href="#DejaVuSans-73"/></g></g><g id="xtick_8"><path clip-path="url(#pc47d77ee3d)" d="M651.574 232.46V10.7" fill="none" stroke="#b0b0b0" stroke-linecap="square" stroke-width=".8" id="line2d_15"/><use x="651.574" xlink:href="#m6347a1dde0" y="232.46" fill="silver" stroke="silver" stroke-width=".8" id="line2d_16"/><g transform="matrix(.1 0 0 -.1 634.655 247.058)" id="text_8"><use xlink:href="#DejaVuSans-31"/><use x="63.623" xlink:href="#DejaVuSans-34"/><use x="127.246" xlink:href="#DejaVuSans-30"/><use x="190.869" xlink:href="#DejaVuSans-2e"/><use x="222.656" xlink:href="#DejaVuSans-30"/><use x="286.279" xlink:href="#DejaVuSans-73"/></g></g><g id="text_9"><defs><path d="M-.297 72.906h61.672v-8.312H35.5V0h-9.906v64.594H-.296z" id="DejaVuSans-54"/><path d="M9.422 54.688h8.984V0H9.422zm0 21.296h8.984v-11.39H9.422z" id="DejaVuSans-69"/><path d="M52 44.188q3.375 6.062 8.063 8.937Q64.75 56 71.093 56q8.548 0 13.188-5.984 4.64-5.97 4.64-17V0h-9.03v32.719q0 7.86-2.797 11.656-2.781 3.813-8.485 3.813-6.984 0-11.046-4.641-4.047-4.625-4.047-12.64V0h-9.032v32.719q0 7.906-2.78 11.687-2.782 3.782-8.595 3.782-6.89 0-10.953-4.657-4.047-4.656-4.047-12.625V0H9.08v54.688h9.03v-8.5q3.078 5.03 7.375 7.421Q29.781 56 35.687 56q5.97 0 10.141-3.031Q50 49.953 52 44.187z" id="DejaVuSans-6d"/><path d="M56.203 29.594v-4.39H14.891q.593-9.282 5.593-14.142 5-4.859 13.938-4.859 5.172 0 10.031 1.266 4.86 1.265 9.656 3.812v-8.5Q49.266.734 44.187-.344 39.11-1.422 33.892-1.422q-13.094 0-20.735 7.61-7.64 7.625-7.64 20.625 0 13.421 7.25 21.296Q20.016 56 32.328 56q11.031 0 17.453-7.11 6.422-7.093 6.422-19.296zm-8.984 2.64q-.094 7.36-4.125 11.75-4.032 4.407-10.672 4.407-7.516 0-12.031-4.25-4.516-4.25-5.203-11.97z" id="DejaVuSans-65"/></defs><g transform="matrix(.1 0 0 -.1 366.102 260.737)"><use xlink:href="#DejaVuSans-54"/><use x="61.037" xlink:href="#DejaVuSans-69"/><use x="88.82" xlink:href="#DejaVuSans-6d"/><use x="186.232" xlink:href="#DejaVuSans-65"/></g></g></g><g id="matplotlib.axis_2"><g id="ytick_1"><path clip-path="url(#pc47d77ee3d)" d="M71.59 222.38h613.8" fill="none" stroke="#b0b0b0" stroke-linecap="square" stroke-width=".8" id="line2d_17"/><g id="line2d_18"><defs><path d="M0 0h-3.5" id="m315b31287f" stroke="silver" stroke-width=".8"/></defs><use x="71.589" xlink:href="#m315b31287f" y="222.38" fill="silver" stroke="silver" stroke-width=".8"/></g><g id="text_10"><defs><path d="M9.813 72.906h14.703l18.593-49.61 18.703 49.61h14.704V0H66.89v64.016l-18.797-50h-9.907l-18.796 50V0H9.813z" id="DejaVuSans-4d"/><path d="M19.672 34.813V8.108H35.5q7.953 0 11.781 3.297 3.844 3.297 3.844 10.078 0 6.844-3.844 10.078-3.828 3.25-11.781 3.25zm0 29.984V42.828h14.61q7.218 0 10.75 2.703 3.546 2.719 3.546 8.282 0 5.515-3.547 8.25-3.531 2.734-10.75 2.734zm-9.86 8.11h25.204q11.28 0 17.375-4.688Q58.5 63.53 58.5 54.89q0-6.703-3.125-10.657-3.125-3.953-9.188-4.922 7.282-1.562 11.313-6.53 4.031-4.954 4.031-12.376 0-9.765-6.64-15.093Q48.25 0 35.984 0H9.812z" id="DejaVuSans-42"/></defs><g transform="matrix(.1 0 0 -.1 20.878 226.18)"><use xlink:href="#DejaVuSans-30"/><use x="63.623" xlink:href="#DejaVuSans-2e"/><use x="95.41" xlink:href="#DejaVuSans-30"/><use x="159.033" xlink:href="#DejaVuSans-30"/><use x="222.656" xlink:href="#DejaVuSans-20"/><use x="254.443" xlink:href="#DejaVuSans-4d"/><use x="340.723" xlink:href="#DejaVuSans-69"/><use x="368.506" xlink:href="#DejaVuSans-42"/></g></g></g><g id="ytick_2"><path clip-path="url(#pc47d77ee3d)" d="M71.59 176.728h613.8" fill="none" stroke="#b0b0b0" stroke-linecap="square" stroke-width=".8" id="line2d_19"/><use x="71.589" xlink:href="#m315b31287f" y="176.728" fill="silver" stroke="silver" stroke-width=".8" id="line2d_20"/><g transform="matrix(.1 0 0 -.1 20.878 180.527)" id="text_11"><use xlink:href="#DejaVuSans-30"/><use x="63.623" xlink:href="#DejaVuSans-2e"/><use x="95.41" xlink:href="#DejaVuSans-34"/><use x="159.033" xlink:href="#DejaVuSans-38"/><use x="222.656" xlink:href="#DejaVuSans-20"/><use x="254.443" xlink:href="#DejaVuSans-4d"/><use x="340.723" xlink:href="#DejaVuSans-69"/><use x="368.506" xlink:href="#DejaVuSans-42"/></g></g><g id="ytick_3"><path clip-path="url(#pc47d77ee3d)" d="M71.59 131.075h613.8" fill="none" stroke="#b0b0b0" stroke-linecap="square" stroke-width=".8" id="line2d_21"/><use x="71.589" xlink:href="#m315b31287f" y="131.075" fill="silver" stroke="silver" stroke-width=".8" id="line2d_22"/><g id="text_12"><defs><path d="M10.984 1.516V10.5q3.72-1.766 7.516-2.688 3.813-.921 7.484-.921 9.766 0 14.907 6.562 5.156 6.563 5.89 19.953-2.828-4.203-7.187-6.453-4.344-2.25-9.61-2.25-10.937 0-17.312 6.61-6.375 6.625-6.375 18.109 0 11.219 6.64 18 6.641 6.797 17.672 6.797 12.657 0 19.313-9.703 6.672-9.688 6.672-28.141 0-17.234-8.188-27.516Q40.234-1.42 26.422-1.42q-3.719 0-7.531.734-3.797.734-7.907 2.203zM30.61 32.422q6.641 0 10.516 4.531 3.89 4.547 3.89 12.469 0 7.86-3.89 12.422-3.875 4.562-10.516 4.562-6.64 0-10.515-4.562-3.875-4.563-3.875-12.422 0-7.922 3.875-12.469 3.875-4.531 10.515-4.531z" id="DejaVuSans-39"/><path d="M10.797 72.906h38.719v-8.312H19.828v-17.86q2.14.735 4.281 1.094 2.157.36 4.313.36 12.203 0 19.328-6.688 7.14-6.688 7.14-18.11 0-11.765-7.328-18.296-7.328-6.516-20.656-6.516-4.593 0-9.36.781-4.75.782-9.827 2.344v9.922q4.39-2.39 9.078-3.563 4.687-1.171 9.906-1.171 8.453 0 13.375 4.437 4.938 4.438 4.938 12.063 0 7.609-4.938 12.047-4.922 4.453-13.375 4.453-3.953 0-7.89-.875-3.922-.875-8.016-2.735z" id="DejaVuSans-35"/></defs><g transform="matrix(.1 0 0 -.1 20.878 134.875)"><use xlink:href="#DejaVuSans-30"/><use x="63.623" xlink:href="#DejaVuSans-2e"/><use x="95.41" xlink:href="#DejaVuSans-39"/><use x="159.033" xlink:href="#DejaVuSans-35"/><use x="222.656" xlink:href="#DejaVuSans-20"/><use x="254.443" xlink:href="#DejaVuSans-4d"/><use x="340.723" xlink:href="#DejaVuSans-69"/><use x="368.506" xlink:href="#DejaVuSans-42"/></g></g></g><g id="ytick_4"><path clip-path="url(#pc47d77ee3d)" d="M71.59 85.423h613.8" fill="none" stroke="#b0b0b0" stroke-linecap="square" stroke-width=".8" id="line2d_23"/><use x="71.589" xlink:href="#m315b31287f" y="85.423" fill="silver" stroke="silver" stroke-width=".8" id="line2d_24"/><g id="text_13"><defs><path d="M40.578 39.313Q47.656 37.797 51.625 33q3.984-4.781 3.984-11.813 0-10.78-7.422-16.703-7.421-5.906-21.093-5.906-4.578 0-9.438.906-4.86.907-10.031 2.72v9.515q4.094-2.39 8.969-3.61 4.89-1.218 10.218-1.218 9.266 0 14.125 3.656 4.86 3.656 4.86 10.64 0 6.454-4.516 10.079-4.515 3.64-12.562 3.64h-8.5v8.11h8.89q7.266 0 11.125 2.906 3.86 2.906 3.86 8.375 0 5.61-3.985 8.61-3.968 3.015-11.39 3.015-4.063 0-8.703-.89-4.641-.876-10.203-2.72v8.782q5.624 1.562 10.53 2.344 4.907.78 9.25.78 11.235 0 17.766-5.109 6.547-5.093 6.547-13.78 0-6.063-3.468-10.235-3.47-4.172-9.86-5.782z" id="DejaVuSans-33"/></defs><g transform="matrix(.1 0 0 -.1 20.878 89.222)"><use xlink:href="#DejaVuSans-31"/><use x="63.623" xlink:href="#DejaVuSans-2e"/><use x="95.41" xlink:href="#DejaVuSans-34"/><use x="159.033" xlink:href="#DejaVuSans-33"/><use x="222.656" xlink:href="#DejaVuSans-20"/><use x="254.443" xlink:href="#DejaVuSans-4d"/><use x="340.723" xlink:href="#DejaVuSans-69"/><use x="368.506" xlink:href="#DejaVuSans-42"/></g></g></g><g id="ytick_5"><path clip-path="url(#pc47d77ee3d)" d="M71.59 39.77h613.8" fill="none" stroke="#b0b0b0" stroke-linecap="square" stroke-width=".8" id="line2d_25"/><use x="71.589" xlink:href="#m315b31287f" y="39.771" fill="silver" stroke="silver" stroke-width=".8" id="line2d_26"/><g transform="matrix(.1 0 0 -.1 20.878 43.57)" id="text_14"><use xlink:href="#DejaVuSans-31"/><use x="63.623" xlink:href="#DejaVuSans-2e"/><use x="95.41" xlink:href="#DejaVuSans-39"/><use x="159.033" xlink:href="#DejaVuSans-31"/><use x="222.656" xlink:href="#DejaVuSans-20"/><use x="254.443" xlink:href="#DejaVuSans-4d"/><use x="340.723" xlink:href="#DejaVuSans-69"/><use x="368.506" xlink:href="#DejaVuSans-42"/></g></g><g id="text_15"><defs><path d="M34.281 27.484q-10.89 0-15.093-2.484-4.204-2.484-4.204-8.5 0-4.781 3.157-7.594 3.156-2.797 8.562-2.797 7.485 0 12 5.297 4.516 5.297 4.516 14.078v2zm17.922 3.72V0H43.22v8.297Q40.14 3.328 35.547.953q-4.594-2.375-11.234-2.375-8.391 0-13.36 4.719Q6 8.016 6 15.922q0 9.219 6.172 13.906 6.187 4.688 18.437 4.688h12.61v.89q0 6.203-4.078 9.594-4.078 3.39-11.453 3.39-4.688 0-9.141-1.124-4.438-1.125-8.531-3.375v8.312q4.921 1.906 9.562 2.844 4.64.953 9.031.953 11.875 0 17.735-6.156 5.86-6.14 5.86-18.64z" id="DejaVuSans-61"/><path d="M54.89 33.016V0h-8.984v32.719q0 7.765-3.031 11.61-3.031 3.858-9.078 3.858-7.281 0-11.484-4.64-4.204-4.625-4.204-12.64V0H9.08v54.688h9.03v-8.5q3.235 4.937 7.594 7.374Q30.078 56 35.797 56q9.422 0 14.25-5.828 4.844-5.828 4.844-17.156z" id="DejaVuSans-6e"/><path d="M45.406 46.39v29.594h8.985V0h-8.985v8.203Q42.578 3.328 38.25.953q-4.313-2.375-10.375-2.375-9.906 0-16.14 7.906-6.22 7.922-6.22 20.813 0 12.89 6.22 20.797Q17.968 56 27.874 56q6.063 0 10.375-2.375 4.328-2.36 7.156-7.234zm-30.61-19.093q0-9.906 4.079-15.547 4.078-5.64 11.203-5.64 7.125 0 11.219 5.64 4.11 5.64 4.11 15.547 0 9.906-4.11 15.547-4.094 5.64-11.219 5.64-7.125 0-11.203-5.64-4.078-5.64-4.078-15.547z" id="DejaVuSans-64"/><path d="M4.203 54.688h8.985l11.234-42.672 11.172 42.672h10.593l11.235-42.672 11.187 42.672h8.985L63.28 0H52.688L40.922 44.828 29.109 0H18.5z" id="DejaVuSans-77"/><path d="M18.313 70.219V54.688h18.5v-6.985h-18.5V18.016q0-6.688 1.828-8.594 1.828-1.906 7.453-1.906h9.218V0h-9.218q-10.407 0-14.36 3.875-3.953 3.89-3.953 14.14v29.688H2.687v6.984h6.594V70.22z" id="DejaVuSans-74"/><path d="M54.89 33.016V0h-8.984v32.719q0 7.765-3.031 11.61-3.031 3.858-9.078 3.858-7.281 0-11.484-4.64-4.204-4.625-4.204-12.64V0H9.08v75.984h9.03V46.188q3.235 4.937 7.594 7.374Q30.078 56 35.797 56q9.422 0 14.25-5.828 4.844-5.828 4.844-17.156z" id="DejaVuSans-68"/></defs><g transform="matrix(0 -.1 -.1 0 14.798 148.199)"><use xlink:href="#DejaVuSans-42"/><use x="68.604" xlink:href="#DejaVuSans-61"/><use x="129.883" xlink:href="#DejaVuSans-6e"/><use x="193.262" xlink:href="#DejaVuSans-64"/><use x="256.738" xlink:href="#DejaVuSans-77"/><use x="338.525" xlink:href="#DejaVuSans-69"/><use x="366.309" xlink:href="#DejaVuSans-64"/><use x="429.785" xlink:href="#DejaVuSans-74"/><use x="468.994" xlink:href="#DejaVuSans-68"/></g></g></g><path clip-path="url(#pc47d77ee3d)" d="M99.49 222.38l2.76-.004 1.577-.124 7.492-.072 3.155-.11 2.76-.05.395-.13v-1.036l1.183-.13v-.13l1.972-.101v-2.004l1.183-.046V216.5l.394-.13v-2.593l5.127-.031v-.13l3.154-.114 1.578-.005.394-.13v-2.205l2.366 2.076 1.183-.13v-.13l1.578-.002v-1.878l1.183 1.407v-.594l.394-.13v-.13l1.183-.13v-.259l1.972-.294v-.13l1.577-.07v-.389l1.183-.017v-.26l10.648-.13v-.67l.788-.13v-.13l.789-.129v-2.204l.789-.13v-.389l.788-.13v-4.408l.789-.13v-.907l.394-.13v-1.555l.395-.08 5.126-.13V198l6.704-.093v-.7l1.972-.026v-.72l3.549-.142 3.55-.018v-.329l1.97-.145 3.944-.02v-.413l5.521-.13v-.223l1.972-.018v-.849l1.183-.13v-.388l.394-.093 6.31-.085v-.478l5.126-.142v-.263l1.578-.02v-.598l7.887-.251 29.576-.114v-.006l71.77-.182v-.566l9.07-.234.395-.032 24.055-.129v-.013l32.336-.128v-.003l7.493-.073h0" fill="none" stroke="#1f77b4" stroke-linecap="square" stroke-width="1.5" id="line2d_27"/><path clip-path="url(#pc47d77ee3d)" d="M99.49 222.38l4.731-.004v-.124l9.07-.072 1.183-.105 4.732-.028v-1.123l1.183-.13v-2.074l.395-.13v-.13l1.183-.13v-2.722l16.562-.16v-1.11l1.183-.13v-1.945l.395-.13v-.389l1.183-.13v-4.019l.394-.13v-.907l1.183-.13v-4.537l.395-.055 9.858-.031v-2.892l1.578-.13v-1.944l3.943-.098 1.577-.022v-4.951l6.31-.033v-5.163l5.915-.199v-5.03l5.915-.2v-6.3l7.887-.27v-4.517l5.521-.035v-2.147l.394-.097v-4.187l1.972-.129 6.31-.03v-4.77l10.647-.064.394-.13v-2.118l1.183-.13v-2.074l5.916-.218v-5.575l6.31-.033v-4.712l5.126-.033v-4.706l5.126-.033v-1.037l.395-.069v-3.601l6.31-.034v-4.542l6.703-.033v-2.145l.394-.099v-2.63l5.127-.033v-4.873l5.126-.033v-4.871l11.436-.076.395-.13v-4.521l2.366 2.148 1.577-.26v-.13l1.578-.13v-.258l1.183-.1v-.519l1.577-.13v-.621l4.732-.033.394-.13v-4.75l35.886-.055v-1.11l1.183-.13v-.39l.394-.129v-1.945l1.183-.13v-.648l5.521-.222V95.69l5.521-.033v-4.804l11.83-.034v-1.111l1.578-.13v-2.463l1.183-.13v-.648l65.067-.141v-1.11l1.577-.13v-2.462l1.578-.13v-.778l4.732-.205v-2.016l.394-.099v-2.634l8.676-.056.394-.13v-4.642l5.521-.092 1.578-.023v-4.322l5.915-.033v-4.541l7.492-.034v-4.03l1.578-.13v-.26l2.76-.127 2.76-.027V53.64l23.661-.033v-1.11l1.578-.13v-2.463l1.183-.13v-.648l5.915-.22v-4.414l8.281-.033v-1.037l.395-.073v-2.79l1.183-.13v-.39l17.745-.156v-1.11l1.183-.13v-1.425l.395-.13v-.907l1.183-.13v-.648l26.42-.136.395-.13v-.978l1.578-.13v-2.463l1.183-.13v-.778l11.041-.074v-1.108l1.578-.13v-2.463l1.183-.13v-.389l.394-.13v-.518l7.887-.067v-4.772l2.76-.086 81.63-.011h0" fill="none" stroke="#ff7f0e" stroke-linecap="square" stroke-width="1.5" id="line2d_28"/><g id="legend_1"><path d="M78.59 48.056h199.32q2 0 2-2V17.7q0-2-2-2H78.59q-2 0-2 2v28.356q0 2 2 2z" fill="#fff" opacity=".8" stroke="#ccc" id="patch_2"/><path d="M80.59 23.798h20" fill="none" stroke="#1f77b4" stroke-linecap="square" stroke-width="1.5" id="line2d_29"/><g id="text_16"><defs><path d="M30.61 48.39q-7.22 0-11.422-5.64-4.204-5.64-4.204-15.453 0-9.813 4.172-15.453 4.188-5.64 11.453-5.64 7.188 0 11.375 5.655 4.203 5.672 4.203 15.438 0 9.719-4.203 15.406-4.187 5.688-11.375 5.688zm0 7.61q11.718 0 18.406-7.625 6.703-7.61 6.703-21.078 0-13.422-6.703-21.078-6.688-7.64-18.407-7.64-11.765 0-18.437 7.64-6.656 7.656-6.656 21.078 0 13.469 6.656 21.078Q18.844 56 30.609 56z" id="DejaVuSans-6f"/><path d="M45.406 27.984q0 9.766-4.031 15.125-4.016 5.375-11.297 5.375-7.219 0-11.25-5.375-4.031-5.359-4.031-15.125 0-9.718 4.031-15.093t11.25-5.375q7.281 0 11.297 5.375 4.031 5.375 4.031 15.093zm8.985-21.203q0-13.953-6.203-20.765Q42-20.797 29.203-20.797q-4.734 0-8.937.703-4.203.703-8.157 2.172v8.735q3.954-2.141 7.813-3.157 3.86-1.031 7.86-1.031 8.843 0 13.234 4.61 4.39 4.609 4.39 13.937v4.453q-2.781-4.844-7.125-7.234Q33.938 0 27.875 0 17.828 0 11.672 7.656q-6.156 7.672-6.156 20.328 0 12.688 6.156 20.344Q17.828 56 27.875 56q6.063 0 10.406-2.39 4.344-2.391 7.125-7.22v8.297h8.985z" id="DejaVuSans-67"/><path d="M4.89 30.906h40.235v-7.031H4.891z" id="DejaVuSans-2013"/><path d="M11.719 12.406h10.297V4l-8-15.625H7.719l4 15.625z" id="DejaVuSans-2c"/><path d="M8.203 72.906h46.875v-4.203L28.61 0H18.312L43.22 64.594H8.203z" id="DejaVuSans-37"/></defs><g transform="matrix(.1 0 0 -.1 108.59 27.298)"><use xlink:href="#DejaVuSans-4d"/><use x="86.279" xlink:href="#DejaVuSans-69"/><use x="114.063" xlink:href="#DejaVuSans-74"/><use x="153.271" xlink:href="#DejaVuSans-6f"/><use x="214.453" xlink:href="#DejaVuSans-67"/><use x="277.93" xlink:href="#DejaVuSans-65"/><use x="339.453" xlink:href="#DejaVuSans-6e"/><use x="402.832" xlink:href="#DejaVuSans-20"/><use x="434.619" xlink:href="#DejaVuSans-2013"/><use x="484.619" xlink:href="#DejaVuSans-20"/><use x="516.406" xlink:href="#DejaVuSans-30"/><use x="580.029" xlink:href="#DejaVuSans-2e"/><use x="611.816" xlink:href="#DejaVuSans-33"/><use x="675.439" xlink:href="#DejaVuSans-34"/><use x="739.063" xlink:href="#DejaVuSans-20"/><use x="770.85" xlink:href="#DejaVuSans-4d"/><use x="857.129" xlink:href="#DejaVuSans-69"/><use x="884.912" xlink:href="#DejaVuSans-42"/><use x="953.516" xlink:href="#DejaVuSans-2c"/><use x="985.303" xlink:href="#DejaVuSans-20"/><use x="1017.09" xlink:href="#DejaVuSans-37"/><use x="1080.713" xlink:href="#DejaVuSans-34"/><use x="1144.336" xlink:href="#DejaVuSans-2e"/><use x="1176.123" xlink:href="#DejaVuSans-32"/><use x="1239.746" xlink:href="#DejaVuSans-73"/></g></g><path d="M80.59 38.477h20" fill="none" stroke="#ff7f0e" stroke-linecap="square" stroke-width="1.5" id="line2d_31"/><g id="text_17"><defs><path d="M53.516 70.516V60.89q-5.61 2.687-10.594 4-4.984 1.328-9.625 1.328-8.047 0-12.422-3.125t-4.375-8.89q0-4.845 2.906-7.313 2.907-2.453 11.016-3.97l5.953-1.218q11.031-2.11 16.281-7.406 5.25-5.297 5.25-14.172 0-10.61-7.11-16.078-7.093-5.469-20.812-5.469-5.172 0-11.015 1.172Q13.14.922 6.89 3.219v10.156q6-3.36 11.765-5.078 5.766-1.703 11.328-1.703 8.438 0 13.032 3.312 4.593 3.328 4.593 9.485 0 5.359-3.297 8.39-3.296 3.032-10.812 4.547L27.484 33.5q-11.03 2.188-15.968 6.875-4.922 4.688-4.922 13.047 0 9.672 6.812 15.234 6.813 5.563 18.766 5.563 5.14 0 10.453-.938 5.328-.922 10.89-2.765z" id="DejaVuSans-53"/><path d="M9.813 72.906h9.859v-29.89h35.844v29.89h9.859V0h-9.86v34.719H19.673V0h-9.86z" id="DejaVuSans-48"/><path d="M19.672 64.797v-27.39h12.406q6.89 0 10.64 3.562 3.766 3.562 3.766 10.156 0 6.547-3.765 10.11-3.75 3.562-10.64 3.562zm-9.86 8.11h22.266q12.266 0 18.531-5.548 6.282-5.546 6.282-16.234 0-10.797-6.282-16.313-6.265-5.515-18.53-5.515H19.671V0h-9.86z" id="DejaVuSans-50"/><path d="M18.11 8.203v-29H9.077v75.484h9.031v-8.296q2.844 4.875 7.157 7.234Q29.594 56 35.594 56q9.968 0 16.187-7.906 6.235-7.907 6.235-20.797T51.78 6.484q-6.218-7.906-16.187-7.906-6 0-10.328 2.375-4.313 2.375-7.157 7.25zm30.578 19.094q0 9.906-4.079 15.547-4.078 5.64-11.203 5.64-7.14 0-11.218-5.64-4.079-5.64-4.079-15.547 0-9.906 4.078-15.547 4.079-5.64 11.22-5.64 7.124 0 11.202 5.64t4.078 15.547z" id="DejaVuSans-70"/><path d="M9.422 75.984h8.984V0H9.422z" id="DejaVuSans-6c"/></defs><g transform="matrix(.1 0 0 -.1 108.59 41.977)"><use xlink:href="#DejaVuSans-53"/><use x="63.477" xlink:href="#DejaVuSans-53"/><use x="126.953" xlink:href="#DejaVuSans-48"/><use x="202.148" xlink:href="#DejaVuSans-20"/><use x="233.936" xlink:href="#DejaVuSans-50"/><use x="294.207" xlink:href="#DejaVuSans-69"/><use x="321.99" xlink:href="#DejaVuSans-70"/><use x="385.467" xlink:href="#DejaVuSans-65"/><use x="446.99" xlink:href="#DejaVuSans-6c"/><use x="474.773" xlink:href="#DejaVuSans-69"/><use x="502.557" xlink:href="#DejaVuSans-6e"/><use x="565.936" xlink:href="#DejaVuSans-69"/><use x="593.719" xlink:href="#DejaVuSans-6e"/><use x="657.098" xlink:href="#DejaVuSans-67"/><use x="720.574" xlink:href="#DejaVuSans-20"/><use x="752.361" xlink:href="#DejaVuSans-2013"/><use x="802.361" xlink:href="#DejaVuSans-20"/><use x="834.148" xlink:href="#DejaVuSans-32"/><use x="897.771" xlink:href="#DejaVuSans-2e"/><use x="929.559" xlink:href="#DejaVuSans-31"/><use x="993.182" xlink:href="#DejaVuSans-31"/><use x="1056.805" xlink:href="#DejaVuSans-20"/><use x="1088.592" xlink:href="#DejaVuSans-4d"/><use x="1174.871" xlink:href="#DejaVuSans-69"/><use x="1202.654" xlink:href="#DejaVuSans-42"/><use x="1271.258" xlink:href="#DejaVuSans-2c"/><use x="1303.045" xlink:href="#DejaVuSans-20"/><use x="1334.832" xlink:href="#DejaVuSans-31"/><use x="1398.455" xlink:href="#DejaVuSans-34"/><use x="1462.078" xlink:href="#DejaVuSans-31"/><use x="1525.701" xlink:href="#DejaVuSans-2e"/><use x="1557.488" xlink:href="#DejaVuSans-35"/><use x="1621.111" xlink:href="#DejaVuSans-73"/></g></g></g></g></g><defs><clipPath id="pc47d77ee3d"><path d="M71.589 10.7h613.8v221.76h-613.8z"/></clipPath></defs></svg>