<svg height="581.782" viewBox="0 0 640.289 436.336" width="853.719" xmlns="http://www.w3.org/2000/svg" xmlns:xlink="http://www.w3.org/1999/xlink"><defs><style>*{stroke-linecap:butt;stroke-linejoin:round}</style></defs><g id="figure_1"><path d="M0 436.336h640.29V0H0z" fill="#fff" id="patch_1"/><g id="axes_1"><g id="matplotlib.axis_1"><g id="xtick_1"><path clip-path="url(#p84a90af7d1)" d="M96.953 146.999V10.7" fill="none" stroke="#b0b0b0" stroke-linecap="square" stroke-width=".8" id="line2d_1"/><g id="line2d_2"><defs><path d="M0 0v3.5" id="m8a2061c7d3" stroke="silver" stroke-width=".8"/></defs><use x="96.953" xlink:href="#m8a2061c7d3" y="146.999" fill="silver" stroke="silver" stroke-width=".8"/></g></g><g id="xtick_2"><path clip-path="url(#p84a90af7d1)" d="M161.574 146.999V10.7" fill="none" stroke="#b0b0b0" stroke-linecap="square" stroke-width=".8" id="line2d_3"/><use x="161.574" xlink:href="#m8a2061c7d3" y="146.999" fill="silver" stroke="silver" stroke-width=".8" id="line2d_4"/></g><g id="xtick_3"><path clip-path="url(#p84a90af7d1)" d="M226.195 146.999V10.7" fill="none" stroke="#b0b0b0" stroke-linecap="square" stroke-width=".8" id="line2d_5"/><use x="226.195" xlink:href="#m8a2061c7d3" y="146.999" fill="silver" stroke="silver" stroke-width=".8" id="line2d_6"/></g><g id="xtick_4"><path clip-path="url(#p84a90af7d1)" d="M290.817 146.999V10.7" fill="none" stroke="#b0b0b0" stroke-linecap="square" stroke-width=".8" id="line2d_7"/><use x="290.817" xlink:href="#m8a2061c7d3" y="146.999" fill="silver" stroke="silver" stroke-width=".8" id="line2d_8"/></g><g id="xtick_5"><path clip-path="url(#p84a90af7d1)" d="M355.438 146.999V10.7" fill="none" stroke="#b0b0b0" stroke-linecap="square" stroke-width=".8" id="line2d_9"/><use x="355.438" xlink:href="#m8a2061c7d3" y="146.999" fill="silver" stroke="silver" stroke-width=".8" id="line2d_10"/></g><g id="xtick_6"><path clip-path="url(#p84a90af7d1)" d="M420.06 146.999V10.7" fill="none" stroke="#b0b0b0" stroke-linecap="square" stroke-width=".8" id="line2d_11"/><use x="420.059" xlink:href="#m8a2061c7d3" y="146.999" fill="silver" stroke="silver" stroke-width=".8" id="line2d_12"/></g><g id="xtick_7"><path clip-path="url(#p84a90af7d1)" d="M484.68 146.999V10.7" fill="none" stroke="#b0b0b0" stroke-linecap="square" stroke-width=".8" id="line2d_13"/><use x="484.681" xlink:href="#m8a2061c7d3" y="146.999" fill="silver" stroke="silver" stroke-width=".8" id="line2d_14"/></g><g id="xtick_8"><path clip-path="url(#p84a90af7d1)" d="M549.302 146.999V10.7" fill="none" stroke="#b0b0b0" stroke-linecap="square" stroke-width=".8" id="line2d_15"/><use x="549.302" xlink:href="#m8a2061c7d3" y="146.999" fill="silver" stroke="silver" stroke-width=".8" id="line2d_16"/></g><g id="xtick_9"><path clip-path="url(#p84a90af7d1)" d="M613.923 146.999V10.7" fill="none" stroke="#b0b0b0" stroke-linecap="square" stroke-width=".8" id="line2d_17"/><use x="613.923" xlink:href="#m8a2061c7d3" y="146.999" fill="silver" stroke="silver" stroke-width=".8" id="line2d_18"/></g></g><g id="matplotlib.axis_2"><g id="ytick_1"><path clip-path="url(#p84a90af7d1)" d="M71.59 140.803h558" fill="none" stroke="#b0b0b0" stroke-linecap="square" stroke-width=".8" id="line2d_19"/><g id="line2d_20"><defs><path d="M0 0h-3.5" id="m7f37620cfc" stroke="silver" stroke-width=".8"/></defs><use x="71.589" xlink:href="#m7f37620cfc" y="140.803" fill="silver" stroke="silver" stroke-width=".8"/></g><g id="text_1"><defs><path d="M31.781 66.406q-7.61 0-11.453-7.5Q16.5 51.422 16.5 36.375q0-14.984 3.828-22.484 3.844-7.5 11.453-7.5 7.672 0 11.5 7.5 3.844 7.5 3.844 22.484 0 15.047-3.844 22.531-3.828 7.5-11.5 7.5zm0 7.813q12.266 0 18.735-9.703 6.468-9.688 6.468-28.141 0-18.406-6.468-28.11-6.47-9.687-18.735-9.687-12.25 0-18.718 9.688-6.47 9.703-6.47 28.109 0 18.453 6.47 28.14Q19.53 74.22 31.78 74.22z" id="DejaVuSans-30"/><path d="M10.688 12.406H21V0H10.687z" id="DejaVuSans-2e"/><path d="M9.813 72.906h14.703l18.593-49.61 18.703 49.61h14.704V0H66.89v64.016l-18.797-50h-9.907l-18.796 50V0H9.813z" id="DejaVuSans-4d"/><path d="M9.422 54.688h8.984V0H9.422zm0 21.296h8.984v-11.39H9.422z" id="DejaVuSans-69"/><path d="M19.672 34.813V8.108H35.5q7.953 0 11.781 3.297 3.844 3.297 3.844 10.078 0 6.844-3.844 10.078-3.828 3.25-11.781 3.25zm0 29.984V42.828h14.61q7.218 0 10.75 2.703 3.546 2.719 3.546 8.282 0 5.515-3.547 8.25-3.531 2.734-10.75 2.734zm-9.86 8.11h25.204q11.28 0 17.375-4.688Q58.5 63.53 58.5 54.89q0-6.703-3.125-10.657-3.125-3.953-9.188-4.922 7.282-1.562 11.313-6.53 4.031-4.954 4.031-12.376 0-9.765-6.64-15.093Q48.25 0 35.984 0H9.812z" id="DejaVuSans-42"/></defs><g transform="matrix(.1 0 0 -.1 20.878 144.603)"><use xlink:href="#DejaVuSans-30"/><use x="63.623" xlink:href="#DejaVuSans-2e"/><use x="95.41" xlink:href="#DejaVuSans-30"/><use x="159.033" xlink:href="#DejaVuSans-30"/><use x="222.656" xlink:href="#DejaVuSans-20"/><use x="254.443" xlink:href="#DejaVuSans-4d"/><use x="340.723" xlink:href="#DejaVuSans-69"/><use x="368.506" xlink:href="#DejaVuSans-42"/></g></g></g><g id="ytick_2"><path clip-path="url(#p84a90af7d1)" d="M71.59 103.003h558" fill="none" stroke="#b0b0b0" stroke-linecap="square" stroke-width=".8" id="line2d_21"/><use x="71.589" xlink:href="#m7f37620cfc" y="103.003" fill="silver" stroke="silver" stroke-width=".8" id="line2d_22"/><g id="text_2"><defs><path d="M12.406 8.297h16.11v55.625l-17.532-3.516v8.985l17.438 3.515h9.86V8.296H54.39V0H12.406z" id="DejaVuSans-31"/><path d="M10.984 1.516V10.5q3.72-1.766 7.516-2.688 3.813-.921 7.484-.921 9.766 0 14.907 6.562 5.156 6.563 5.89 19.953-2.828-4.203-7.187-6.453-4.344-2.25-9.61-2.25-10.937 0-17.312 6.61-6.375 6.625-6.375 18.109 0 11.219 6.64 18 6.641 6.797 17.672 6.797 12.657 0 19.313-9.703 6.672-9.688 6.672-28.141 0-17.234-8.188-27.516Q40.234-1.42 26.422-1.42q-3.719 0-7.531.734-3.797.734-7.907 2.203zM30.61 32.422q6.641 0 10.516 4.531 3.89 4.547 3.89 12.469 0 7.86-3.89 12.422-3.875 4.562-10.516 4.562-6.64 0-10.515-4.562-3.875-4.563-3.875-12.422 0-7.922 3.875-12.469 3.875-4.531 10.515-4.531z" id="DejaVuSans-39"/></defs><g transform="matrix(.1 0 0 -.1 20.878 106.802)"><use xlink:href="#DejaVuSans-31"/><use x="63.623" xlink:href="#DejaVuSans-2e"/><use x="95.41" xlink:href="#DejaVuSans-39"/><use x="159.033" xlink:href="#DejaVuSans-31"/><use x="222.656" xlink:href="#DejaVuSans-20"/><use x="254.443" xlink:href="#DejaVuSans-4d"/><use x="340.723" xlink:href="#DejaVuSans-69"/><use x="368.506" xlink:href="#DejaVuSans-42"/></g></g></g><g id="ytick_3"><path clip-path="url(#p84a90af7d1)" d="M71.59 65.202h558" fill="none" stroke="#b0b0b0" stroke-linecap="square" stroke-width=".8" id="line2d_23"/><use x="71.589" xlink:href="#m7f37620cfc" y="65.202" fill="silver" stroke="silver" stroke-width=".8" id="line2d_24"/><g id="text_3"><defs><path d="M40.578 39.313Q47.656 37.797 51.625 33q3.984-4.781 3.984-11.813 0-10.78-7.422-16.703-7.421-5.906-21.093-5.906-4.578 0-9.438.906-4.86.907-10.031 2.72v9.515q4.094-2.39 8.969-3.61 4.89-1.218 10.218-1.218 9.266 0 14.125 3.656 4.86 3.656 4.86 10.64 0 6.454-4.516 10.079-4.515 3.64-12.562 3.64h-8.5v8.11h8.89q7.266 0 11.125 2.906 3.86 2.906 3.86 8.375 0 5.61-3.985 8.61-3.968 3.015-11.39 3.015-4.063 0-8.703-.89-4.641-.876-10.203-2.72v8.782q5.624 1.562 10.53 2.344 4.907.78 9.25.78 11.235 0 17.766-5.109 6.547-5.093 6.547-13.78 0-6.063-3.468-10.235-3.47-4.172-9.86-5.782z" id="DejaVuSans-33"/><path d="M31.781 34.625q-7.031 0-11.062-3.766-4.016-3.765-4.016-10.343 0-6.594 4.016-10.36Q24.75 6.391 31.78 6.391q7.032 0 11.078 3.78 4.063 3.798 4.063 10.345 0 6.578-4.031 10.343-4.016 3.766-11.11 3.766zm-9.86 4.188q-6.343 1.562-9.89 5.906Q8.5 49.079 8.5 55.329q0 8.733 6.219 13.812 6.234 5.078 17.062 5.078 10.89 0 17.094-5.078 6.203-5.079 6.203-13.813 0-6.25-3.547-10.61-3.531-4.343-9.828-5.906 7.125-1.656 11.094-6.5 3.984-4.828 3.984-11.796 0-10.61-6.468-16.282-6.47-5.656-18.532-5.656-12.047 0-18.531 5.656-6.469 5.672-6.469 16.282 0 6.968 4 11.797 4.016 4.843 11.14 6.5zM18.314 54.39q0-5.657 3.53-8.828 3.548-3.172 9.938-3.172 6.36 0 9.938 3.172 3.593 3.171 3.593 8.828 0 5.672-3.593 8.843-3.578 3.172-9.938 3.172-6.39 0-9.937-3.172-3.532-3.172-3.532-8.843z" id="DejaVuSans-38"/></defs><g transform="matrix(.1 0 0 -.1 20.878 69.002)"><use xlink:href="#DejaVuSans-33"/><use x="63.623" xlink:href="#DejaVuSans-2e"/><use x="95.41" xlink:href="#DejaVuSans-38"/><use x="159.033" xlink:href="#DejaVuSans-31"/><use x="222.656" xlink:href="#DejaVuSans-20"/><use x="254.443" xlink:href="#DejaVuSans-4d"/><use x="340.723" xlink:href="#DejaVuSans-69"/><use x="368.506" xlink:href="#DejaVuSans-42"/></g></g></g><g id="ytick_4"><path clip-path="url(#p84a90af7d1)" d="M71.59 27.402h558" fill="none" stroke="#b0b0b0" stroke-linecap="square" stroke-width=".8" id="line2d_25"/><use x="71.589" xlink:href="#m7f37620cfc" y="27.402" fill="silver" stroke="silver" stroke-width=".8" id="line2d_26"/><g id="text_4"><defs><path d="M10.797 72.906h38.719v-8.312H19.828v-17.86q2.14.735 4.281 1.094 2.157.36 4.313.36 12.203 0 19.328-6.688 7.14-6.688 7.14-18.11 0-11.765-7.328-18.296-7.328-6.516-20.656-6.516-4.593 0-9.36.781-4.75.782-9.827 2.344v9.922q4.39-2.39 9.078-3.563 4.687-1.171 9.906-1.171 8.453 0 13.375 4.437 4.938 4.438 4.938 12.063 0 7.609-4.938 12.047-4.922 4.453-13.375 4.453-3.953 0-7.89-.875-3.922-.875-8.016-2.735z" id="DejaVuSans-35"/><path d="M8.203 72.906h46.875v-4.203L28.61 0H18.312L43.22 64.594H8.203z" id="DejaVuSans-37"/><path d="M19.188 8.297h34.421V0H7.33v8.297q5.609 5.812 15.296 15.594 9.703 9.797 12.188 12.64 4.734 5.313 6.609 9 1.89 3.688 1.89 7.25 0 5.813-4.078 9.469-4.078 3.672-10.625 3.672-4.64 0-9.797-1.61-5.14-1.609-11-4.89v9.969Q13.767 71.78 18.938 73q5.188 1.219 9.485 1.219 11.328 0 18.062-5.672 6.735-5.656 6.735-15.125 0-4.5-1.688-8.531-1.672-4.016-6.125-9.485-1.218-1.422-7.765-8.187-6.532-6.766-18.453-18.922z" id="DejaVuSans-32"/></defs><g transform="matrix(.1 0 0 -.1 20.878 31.201)"><use xlink:href="#DejaVuSans-35"/><use x="63.623" xlink:href="#DejaVuSans-2e"/><use x="95.41" xlink:href="#DejaVuSans-37"/><use x="159.033" xlink:href="#DejaVuSans-32"/><use x="222.656" xlink:href="#DejaVuSans-20"/><use x="254.443" xlink:href="#DejaVuSans-4d"/><use x="340.723" xlink:href="#DejaVuSans-69"/><use x="368.506" xlink:href="#DejaVuSans-42"/></g></g></g><g id="text_5"><defs><path d="M34.281 27.484q-10.89 0-15.093-2.484-4.204-2.484-4.204-8.5 0-4.781 3.157-7.594 3.156-2.797 8.562-2.797 7.485 0 12 5.297 4.516 5.297 4.516 14.078v2zm17.922 3.72V0H43.22v8.297Q40.14 3.328 35.547.953q-4.594-2.375-11.234-2.375-8.391 0-13.36 4.719Q6 8.016 6 15.922q0 9.219 6.172 13.906 6.187 4.688 18.437 4.688h12.61v.89q0 6.203-4.078 9.594-4.078 3.39-11.453 3.39-4.688 0-9.141-1.124-4.438-1.125-8.531-3.375v8.312q4.921 1.906 9.562 2.844 4.64.953 9.031.953 11.875 0 17.735-6.156 5.86-6.14 5.86-18.64z" id="DejaVuSans-61"/><path d="M54.89 33.016V0h-8.984v32.719q0 7.765-3.031 11.61-3.031 3.858-9.078 3.858-7.281 0-11.484-4.64-4.204-4.625-4.204-12.64V0H9.08v54.688h9.03v-8.5q3.235 4.937 7.594 7.374Q30.078 56 35.797 56q9.422 0 14.25-5.828 4.844-5.828 4.844-17.156z" id="DejaVuSans-6e"/><path d="M45.406 46.39v29.594h8.985V0h-8.985v8.203Q42.578 3.328 38.25.953q-4.313-2.375-10.375-2.375-9.906 0-16.14 7.906-6.22 7.922-6.22 20.813 0 12.89 6.22 20.797Q17.968 56 27.874 56q6.063 0 10.375-2.375 4.328-2.36 7.156-7.234zm-30.61-19.093q0-9.906 4.079-15.547 4.078-5.64 11.203-5.64 7.125 0 11.219 5.64 4.11 5.64 4.11 15.547 0 9.906-4.11 15.547-4.094 5.64-11.219 5.64-7.125 0-11.203-5.64-4.078-5.64-4.078-15.547z" id="DejaVuSans-64"/><path d="M4.203 54.688h8.985l11.234-42.672 11.172 42.672h10.593l11.235-42.672 11.187 42.672h8.985L63.28 0H52.688L40.922 44.828 29.109 0H18.5z" id="DejaVuSans-77"/><path d="M18.313 70.219V54.688h18.5v-6.985h-18.5V18.016q0-6.688 1.828-8.594 1.828-1.906 7.453-1.906h9.218V0h-9.218q-10.407 0-14.36 3.875-3.953 3.89-3.953 14.14v29.688H2.687v6.984h6.594V70.22z" id="DejaVuSans-74"/><path d="M54.89 33.016V0h-8.984v32.719q0 7.765-3.031 11.61-3.031 3.858-9.078 3.858-7.281 0-11.484-4.64-4.204-4.625-4.204-12.64V0H9.08v75.984h9.03V46.188q3.235 4.937 7.594 7.374Q30.078 56 35.797 56q9.422 0 14.25-5.828 4.844-5.828 4.844-17.156z" id="DejaVuSans-68"/></defs><g transform="matrix(0 -.1 -.1 0 14.798 105.468)"><use xlink:href="#DejaVuSans-42"/><use x="68.604" xlink:href="#DejaVuSans-61"/><use x="129.883" xlink:href="#DejaVuSans-6e"/><use x="193.262" xlink:href="#DejaVuSans-64"/><use x="256.738" xlink:href="#DejaVuSans-77"/><use x="338.525" xlink:href="#DejaVuSans-69"/><use x="366.309" xlink:href="#DejaVuSans-64"/><use x="429.785" xlink:href="#DejaVuSans-74"/><use x="468.994" xlink:href="#DejaVuSans-68"/></g></g></g><path clip-path="url(#p84a90af7d1)" d="M158.338 140.803v-.063l9.694-.004v-1.28l6.462-.01v-1.28l6.462-.01v-1.284l3.23-.006v-1.28l6.463-.01v-1.285l3.231-.005v-1.284l3.231-.006v-1.28l6.462-.01v-1.284l3.231-.006v-1.28l6.463-.01v-1.284l3.23-.006v-1.284l3.232-.006v-1.28l6.462-.01v-1.284l3.23-.006v-1.28l6.463-.01v-1.285l3.231-.006v-1.281l3.231-.009v-.31l3.231-.31v-.665l3.231-.005v-1.284l3.231-.006v-1.28l6.462-.01v-1.284l3.232-.006v-1.28l6.462-.01v-1.284l3.23-.006v-1.28l6.463-.01v-1.285l3.23-.005v-1.284l3.232-.006v-1.28l6.462-.01v-1.284l3.231-.006v-1.28l6.462-.01v-1.286l3.231-.004v-1.284l3.231-.006v-1.28l6.463-.01V99.46l3.23-.005v-1.28l6.463-.01v-1.286l3.23-.005V95.59l3.232-.006v-1.28l6.462-.01V93.01l3.231-.006v-1.28l6.462-.01V90.43l3.231-.005V89.14l3.231-.006v-1.28l6.462-.01V86.56l3.232-.006v-1.28l6.462-.01v-1.286l3.23-.004V82.69l3.232-.006v-1.28l6.462-.01V80.11l3.231-.006v-1.28l6.462-.01v-1.286l3.231-.004v-1.285l3.231-.006v-1.28l6.462-.01v-1.285l3.231-.005V72.37l3.232-.006v-1.28l6.462-.01V69.79l3.23-.006v-1.28l6.463-.01v-1.285l3.23-.005V65.92l6.463-.006v-1.285l3.231-.005v-1.284l3.231-.006v-1.28l6.462-.01v-1.284l3.231-.006V59.47l6.462-.007v-1.286l3.232-.004v-1.284l3.23-.006v-1.28l6.463-.01v-1.286l3.23-.004v-1.285l3.232-.006v-1.28l6.462-.01v-1.284l3.231-.006v-1.284l3.231-.006v-1.28l6.462-.01v-1.284l3.231-.006V45.28l3.231-.008v-1.28l6.463-.01v-1.284l3.23-.006v-1.28l6.463-.01v-1.284l3.23-.006V38.83l3.232-.008v-1.28l6.462-.01v-1.284l3.231-.006V34.96l6.462-.01v-1.285l3.231-.004v-1.285l3.231-.005v-1.28l6.462-.01v-1.285l3.232-.006v-1.28l6.462-.01v-1.285l3.23-.005v-1.284l3.232-.006v-1.28l6.462-.01v-1.284l3.231-.006V22.06l6.462-.008v-1.285l3.231-.005v-1.284l3.231-.006v-1.28l6.462-.01v-1.284l3.231-.002h0" fill="none" stroke="#1f77b4" stroke-linecap="square" id="line2d_27"/><path clip-path="url(#p84a90af7d1)" d="M135.721 140.803h0l12.924-.078v-.303l3.231-.095v-.76l3.231-.087v-.24l3.231-.018v-.185l9.694-.106 35.541-.12v-.011l6.462-.019h0" fill="none" stroke="#ff7f0e" stroke-linecap="square" id="line2d_28"/><g id="legend_1"><path d="M78.59 48.056h192.957q2 0 2-2V17.7q0-2-2-2H78.589q-2 0-2 2v28.356q0 2 2 2z" fill="#fff" opacity=".8" stroke="#ccc" id="patch_2"/><path d="M80.59 23.798h20" fill="none" stroke="#1f77b4" stroke-linecap="square" id="line2d_29"/><g id="text_6"><defs><path d="M53.516 70.516V60.89q-5.61 2.687-10.594 4-4.984 1.328-9.625 1.328-8.047 0-12.422-3.125t-4.375-8.89q0-4.845 2.906-7.313 2.907-2.453 11.016-3.97l5.953-1.218q11.031-2.11 16.281-7.406 5.25-5.297 5.25-14.172 0-10.61-7.11-16.078-7.093-5.469-20.812-5.469-5.172 0-11.015 1.172Q13.14.922 6.89 3.219v10.156q6-3.36 11.765-5.078 5.766-1.703 11.328-1.703 8.438 0 13.032 3.312 4.593 3.328 4.593 9.485 0 5.359-3.297 8.39-3.296 3.032-10.812 4.547L27.484 33.5q-11.03 2.188-15.968 6.875-4.922 4.688-4.922 13.047 0 9.672 6.812 15.234 6.813 5.563 18.766 5.563 5.14 0 10.453-.938 5.328-.922 10.89-2.765z" id="DejaVuSans-53"/><path d="M9.813 72.906h9.859v-29.89h35.844v29.89h9.859V0h-9.86v34.719H19.673V0h-9.86z" id="DejaVuSans-48"/><path d="M19.672 64.797v-27.39h12.406q6.89 0 10.64 3.562 3.766 3.562 3.766 10.156 0 6.547-3.765 10.11-3.75 3.562-10.64 3.562zm-9.86 8.11h22.266q12.266 0 18.531-5.548 6.282-5.546 6.282-16.234 0-10.797-6.282-16.313-6.265-5.515-18.53-5.515H19.671V0h-9.86z" id="DejaVuSans-50"/><path d="M18.11 8.203v-29H9.077v75.484h9.031v-8.296q2.844 4.875 7.157 7.234Q29.594 56 35.594 56q9.968 0 16.187-7.906 6.235-7.907 6.235-20.797T51.78 6.484q-6.218-7.906-16.187-7.906-6 0-10.328 2.375-4.313 2.375-7.157 7.25zm30.578 19.094q0 9.906-4.079 15.547-4.078 5.64-11.203 5.64-7.14 0-11.218-5.64-4.079-5.64-4.079-15.547 0-9.906 4.078-15.547 4.079-5.64 11.22-5.64 7.124 0 11.202 5.64t4.078 15.547z" id="DejaVuSans-70"/><path d="M56.203 29.594v-4.39H14.891q.593-9.282 5.593-14.142 5-4.859 13.938-4.859 5.172 0 10.031 1.266 4.86 1.265 9.656 3.812v-8.5Q49.266.734 44.187-.344 39.11-1.422 33.892-1.422q-13.094 0-20.735 7.61-7.64 7.625-7.64 20.625 0 13.421 7.25 21.296Q20.016 56 32.328 56q11.031 0 17.453-7.11 6.422-7.093 6.422-19.296zm-8.984 2.64q-.094 7.36-4.125 11.75-4.032 4.407-10.672 4.407-7.516 0-12.031-4.25-4.516-4.25-5.203-11.97z" id="DejaVuSans-65"/><path d="M9.422 75.984h8.984V0H9.422z" id="DejaVuSans-6c"/><path d="M45.406 27.984q0 9.766-4.031 15.125-4.016 5.375-11.297 5.375-7.219 0-11.25-5.375-4.031-5.359-4.031-15.125 0-9.718 4.031-15.093t11.25-5.375q7.281 0 11.297 5.375 4.031 5.375 4.031 15.093zm8.985-21.203q0-13.953-6.203-20.765Q42-20.797 29.203-20.797q-4.734 0-8.937.703-4.203.703-8.157 2.172v8.735q3.954-2.141 7.813-3.157 3.86-1.031 7.86-1.031 8.843 0 13.234 4.61 4.39 4.609 4.39 13.937v4.453q-2.781-4.844-7.125-7.234Q33.938 0 27.875 0 17.828 0 11.672 7.656q-6.156 7.672-6.156 20.328 0 12.688 6.156 20.344Q17.828 56 27.875 56q6.063 0 10.406-2.39 4.344-2.391 7.125-7.22v8.297h8.985z" id="DejaVuSans-67"/><path d="M4.89 30.906h40.235v-7.031H4.891z" id="DejaVuSans-2013"/><path d="M33.016 40.375q-6.641 0-10.532-4.547-3.875-4.531-3.875-12.437 0-7.86 3.875-12.438 3.891-4.562 10.532-4.562 6.64 0 10.515 4.562 3.875 4.578 3.875 12.438 0 7.906-3.875 12.437-3.875 4.547-10.515 4.547zm19.578 30.922v-8.984q-3.719 1.75-7.5 2.671-3.782.938-7.5.938-9.766 0-14.922-6.594-5.14-6.594-5.875-19.922 2.875 4.25 7.219 6.516 4.359 2.266 9.578 2.266 10.984 0 17.36-6.672 6.374-6.657 6.374-18.125 0-11.235-6.64-18.032-6.641-6.78-17.672-6.78-12.657 0-19.344 9.687-6.688 9.703-6.688 28.109 0 17.281 8.204 27.563 8.203 10.28 22.015 10.28 3.719 0 7.5-.734t7.89-2.187z" id="DejaVuSans-36"/><path d="M11.719 12.406h10.297V4l-8-15.625H7.719l4 15.625z" id="DejaVuSans-2c"/><path d="M44.281 53.078v-8.5q-3.797 1.953-7.906 2.922-4.094.984-8.5.984-6.688 0-10.031-2.047-3.344-2.046-3.344-6.156 0-3.125 2.39-4.906 2.391-1.781 9.626-3.39l3.078-.688q9.562-2.047 13.593-5.781 4.032-3.735 4.032-10.422 0-7.625-6.032-12.078-6.03-4.438-16.578-4.438-4.39 0-9.156.86Q10.688.296 5.422 2v9.281q4.984-2.594 9.812-3.89 4.829-1.282 9.579-1.282 6.343 0 9.75 2.172 3.421 2.172 3.421 6.125 0 3.656-2.468 5.61-2.453 1.953-10.813 3.765l-3.125.735q-8.344 1.75-12.062 5.39-3.704 3.64-3.704 9.985 0 7.718 5.47 11.906Q16.75 56 26.811 56q4.97 0 9.36-.734 4.406-.72 8.11-2.188z" id="DejaVuSans-73"/></defs><g transform="matrix(.1 0 0 -.1 108.59 27.298)"><use xlink:href="#DejaVuSans-53"/><use x="63.477" xlink:href="#DejaVuSans-53"/><use x="126.953" xlink:href="#DejaVuSans-48"/><use x="202.148" xlink:href="#DejaVuSans-20"/><use x="233.936" xlink:href="#DejaVuSans-50"/><use x="294.207" xlink:href="#DejaVuSans-69"/><use x="321.99" xlink:href="#DejaVuSans-70"/><use x="385.467" xlink:href="#DejaVuSans-65"/><use x="446.99" xlink:href="#DejaVuSans-6c"/><use x="474.773" xlink:href="#DejaVuSans-69"/><use x="502.557" xlink:href="#DejaVuSans-6e"/><use x="565.936" xlink:href="#DejaVuSans-69"/><use x="593.719" xlink:href="#DejaVuSans-6e"/><use x="657.098" xlink:href="#DejaVuSans-67"/><use x="720.574" xlink:href="#DejaVuSans-20"/><use x="752.361" xlink:href="#DejaVuSans-2013"/><use x="802.361" xlink:href="#DejaVuSans-20"/><use x="834.148" xlink:href="#DejaVuSans-36"/><use x="897.771" xlink:href="#DejaVuSans-2e"/><use x="929.559" xlink:href="#DejaVuSans-32"/><use x="993.182" xlink:href="#DejaVuSans-35"/><use x="1056.805" xlink:href="#DejaVuSans-20"/><use x="1088.592" xlink:href="#DejaVuSans-4d"/><use x="1174.871" xlink:href="#DejaVuSans-69"/><use x="1202.654" xlink:href="#DejaVuSans-42"/><use x="1271.258" xlink:href="#DejaVuSans-2c"/><use x="1303.045" xlink:href="#DejaVuSans-20"/><use x="1334.832" xlink:href="#DejaVuSans-31"/><use x="1398.455" xlink:href="#DejaVuSans-33"/><use x="1462.078" xlink:href="#DejaVuSans-2e"/><use x="1493.865" xlink:href="#DejaVuSans-38"/><use x="1557.488" xlink:href="#DejaVuSans-73"/></g></g><path d="M80.59 38.477h20" fill="none" stroke="#ff7f0e" stroke-linecap="square" id="line2d_31"/><g id="text_7"><defs><path d="M30.61 48.39q-7.22 0-11.422-5.64-4.204-5.64-4.204-15.453 0-9.813 4.172-15.453 4.188-5.64 11.453-5.64 7.188 0 11.375 5.655 4.203 5.672 4.203 15.438 0 9.719-4.203 15.406-4.187 5.688-11.375 5.688zm0 7.61q11.718 0 18.406-7.625 6.703-7.61 6.703-21.078 0-13.422-6.703-21.078-6.688-7.64-18.407-7.64-11.765 0-18.437 7.64-6.656 7.656-6.656 21.078 0 13.469 6.656 21.078Q18.844 56 30.609 56z" id="DejaVuSans-6f"/></defs><g transform="matrix(.1 0 0 -.1 108.59 41.977)"><use xlink:href="#DejaVuSans-4d"/><use x="86.279" xlink:href="#DejaVuSans-69"/><use x="114.063" xlink:href="#DejaVuSans-74"/><use x="153.271" xlink:href="#DejaVuSans-6f"/><use x="214.453" xlink:href="#DejaVuSans-67"/><use x="277.93" xlink:href="#DejaVuSans-65"/><use x="339.453" xlink:href="#DejaVuSans-6e"/><use x="402.832" xlink:href="#DejaVuSans-20"/><use x="434.619" xlink:href="#DejaVuSans-2013"/><use x="484.619" xlink:href="#DejaVuSans-20"/><use x="516.406" xlink:href="#DejaVuSans-30"/><use x="580.029" xlink:href="#DejaVuSans-2e"/><use x="611.816" xlink:href="#DejaVuSans-31"/><use x="675.439" xlink:href="#DejaVuSans-30"/><use x="739.063" xlink:href="#DejaVuSans-20"/><use x="770.85" xlink:href="#DejaVuSans-4d"/><use x="857.129" xlink:href="#DejaVuSans-69"/><use x="884.912" xlink:href="#DejaVuSans-42"/><use x="953.516" xlink:href="#DejaVuSans-2c"/><use x="985.303" xlink:href="#DejaVuSans-20"/><use x="1017.09" xlink:href="#DejaVuSans-32"/><use x="1080.713" xlink:href="#DejaVuSans-2e"/><use x="1112.5" xlink:href="#DejaVuSans-33"/><use x="1176.123" xlink:href="#DejaVuSans-73"/></g></g></g></g><g id="axes_2"><g id="matplotlib.axis_3"><g id="xtick_10"><path clip-path="url(#p2b159da72d)" d="M96.953 209.944v-49.563" fill="none" stroke="#b0b0b0" stroke-linecap="square" stroke-width=".8" id="line2d_33"/><use x="96.953" xlink:href="#m8a2061c7d3" y="209.944" fill="silver" stroke="silver" stroke-width=".8" id="line2d_34"/></g><g id="xtick_11"><path clip-path="url(#p2b159da72d)" d="M161.574 209.944v-49.563" fill="none" stroke="#b0b0b0" stroke-linecap="square" stroke-width=".8" id="line2d_35"/><use x="161.574" xlink:href="#m8a2061c7d3" y="209.944" fill="silver" stroke="silver" stroke-width=".8" id="line2d_36"/></g><g id="xtick_12"><path clip-path="url(#p2b159da72d)" d="M226.195 209.944v-49.563" fill="none" stroke="#b0b0b0" stroke-linecap="square" stroke-width=".8" id="line2d_37"/><use x="226.195" xlink:href="#m8a2061c7d3" y="209.944" fill="silver" stroke="silver" stroke-width=".8" id="line2d_38"/></g><g id="xtick_13"><path clip-path="url(#p2b159da72d)" d="M290.817 209.944v-49.563" fill="none" stroke="#b0b0b0" stroke-linecap="square" stroke-width=".8" id="line2d_39"/><use x="290.817" xlink:href="#m8a2061c7d3" y="209.944" fill="silver" stroke="silver" stroke-width=".8" id="line2d_40"/></g><g id="xtick_14"><path clip-path="url(#p2b159da72d)" d="M355.438 209.944v-49.563" fill="none" stroke="#b0b0b0" stroke-linecap="square" stroke-width=".8" id="line2d_41"/><use x="355.438" xlink:href="#m8a2061c7d3" y="209.944" fill="silver" stroke="silver" stroke-width=".8" id="line2d_42"/></g><g id="xtick_15"><path clip-path="url(#p2b159da72d)" d="M420.06 209.944v-49.563" fill="none" stroke="#b0b0b0" stroke-linecap="square" stroke-width=".8" id="line2d_43"/><use x="420.059" xlink:href="#m8a2061c7d3" y="209.944" fill="silver" stroke="silver" stroke-width=".8" id="line2d_44"/></g><g id="xtick_16"><path clip-path="url(#p2b159da72d)" d="M484.68 209.944v-49.563" fill="none" stroke="#b0b0b0" stroke-linecap="square" stroke-width=".8" id="line2d_45"/><use x="484.681" xlink:href="#m8a2061c7d3" y="209.944" fill="silver" stroke="silver" stroke-width=".8" id="line2d_46"/></g><g id="xtick_17"><path clip-path="url(#p2b159da72d)" d="M549.302 209.944v-49.563" fill="none" stroke="#b0b0b0" stroke-linecap="square" stroke-width=".8" id="line2d_47"/><use x="549.302" xlink:href="#m8a2061c7d3" y="209.944" fill="silver" stroke="silver" stroke-width=".8" id="line2d_48"/></g><g id="xtick_18"><path clip-path="url(#p2b159da72d)" d="M613.923 209.944v-49.563" fill="none" stroke="#b0b0b0" stroke-linecap="square" stroke-width=".8" id="line2d_49"/><use x="613.923" xlink:href="#m8a2061c7d3" y="209.944" fill="silver" stroke="silver" stroke-width=".8" id="line2d_50"/></g></g><g id="matplotlib.axis_4"><g id="ytick_5"><path clip-path="url(#p2b159da72d)" d="M71.59 209.29h558" fill="none" stroke="#b0b0b0" stroke-linecap="square" stroke-width=".8" id="line2d_51"/><use x="71.589" xlink:href="#m7f37620cfc" y="209.291" fill="silver" stroke="silver" stroke-width=".8" id="line2d_52"/><g transform="matrix(.1 0 0 -.1 43.477 213.09)" id="text_8"><use xlink:href="#DejaVuSans-30"/><use x="63.623" xlink:href="#DejaVuSans-2e"/><use x="95.41" xlink:href="#DejaVuSans-30"/><use x="159.033" xlink:href="#DejaVuSans-73"/></g></g><g id="ytick_6"><path clip-path="url(#p2b159da72d)" d="M71.59 177.101h558" fill="none" stroke="#b0b0b0" stroke-linecap="square" stroke-width=".8" id="line2d_53"/><use x="71.589" xlink:href="#m7f37620cfc" y="177.101" fill="silver" stroke="silver" stroke-width=".8" id="line2d_54"/><g transform="matrix(.1 0 0 -.1 43.477 180.9)" id="text_9"><use xlink:href="#DejaVuSans-32"/><use x="63.623" xlink:href="#DejaVuSans-2e"/><use x="95.41" xlink:href="#DejaVuSans-30"/><use x="159.033" xlink:href="#DejaVuSans-73"/></g></g><g id="text_10"><defs><path d="M64.406 67.281v-10.39q-4.984 4.64-10.625 6.922-5.64 2.296-11.984 2.296-12.5 0-19.14-7.64-6.641-7.64-6.641-22.094 0-14.406 6.64-22.047 6.64-7.64 19.14-7.64 6.345 0 11.985 2.296 5.64 2.297 10.625 6.938V5.609Q59.234 2.094 53.437.33q-5.78-1.75-12.218-1.75-16.563 0-26.094 10.124-9.516 10.14-9.516 27.672 0 17.578 9.516 27.703 9.531 10.14 26.094 10.14 6.531 0 12.312-1.734 5.797-1.734 10.875-5.203z" id="DejaVuSans-43"/><path d="M8.688 72.906h9.921V28.61q0-11.718 4.235-16.875 4.25-5.14 13.781-5.14 9.469 0 13.719 5.14 4.25 5.157 4.25 16.875v44.297H64.5V27.391q0-14.25-7.063-21.532-7.046-7.28-20.812-7.28-13.828 0-20.89 7.28-7.047 7.282-7.047 21.532z" id="DejaVuSans-55"/></defs><g transform="matrix(0 -.1 -.1 0 14.798 195.328)"><use xlink:href="#DejaVuSans-43"/><use x="69.824" xlink:href="#DejaVuSans-50"/><use x="130.127" xlink:href="#DejaVuSans-55"/></g></g></g><path clip-path="url(#p2b159da72d)" d="M96.953 207.691l29.127-14.5 6.472-.204 6.477-.296 3.237-.14 3.236-.282 6.47-.331 6.471-.514 3.236-.083 6.472-.506 3.236-.07 9.708-.76 3.234-.08 6.473-.519 3.235-.08 6.473-.515 6.473-.318 6.473-.51 3.237-.068 3.236-.606 3.235-.256 3.235-.08 9.707-.756 3.236-.076 6.47-.503 3.237-.068 6.47-.503 3.236-.078 9.708-.8 3.236-.079 6.473-.526 3.234-.066 9.706-.814 3.236-.072 6.47-.53 6.472-.327 6.47-.509 3.236-.07 6.472-.541 3.236-.073 9.706-.772 3.235-.074 9.709-.737 3.235-.104 6.471-.556 3.236-.072 9.708-.77 3.236-.072 6.47-.55 29.516-1.753 6.47-.503 3.236-.072 9.708-.752 3.234-.083 6.473-.501 6.47-.329 6.471-.521 3.236-.072 9.707-.769 3.237-.071 9.705-.764 3.236-.076 6.472-.564 3.235-.072 9.707-.787 3.235-.069 9.706-.722 3.236-.145 6.47-.515 3.236-.071 9.71-.757 3.236-.09 6.473-.508 3.235-.07 9.71-.773 3.235-.068 6.472-.51 3.237-.072 9.707-.779 3.236-.076 3.236-.26 3.238-.815.507-.252h0" fill="none" stroke="#1f77b4" stroke-linecap="square" id="line2d_55"/><path clip-path="url(#p2b159da72d)" d="M96.953 207.687l3.236-1.609 3.237-1.609 3.236-1.615 3.236-1.617 3.236-1.611 3.236-1.612 3.237-1.612 3.238-1.609 3.239-1.283 3.245-1.513 3.238-.11 3.238-.064 3.239-.048 3.236-.498 3.237-1.681 3.237-1.669 3.237-.57 3.241-1.143 3.244-1.15 3.24-1.138 3.24-1.29 3.243-1.632 3.24-1.145 3.24-1.095 3.237-1.083 3.244-1.088 3.24-1.086 3.24-.989 3.239-1.066 3.238-1.042 3.24-1.056 3.239-1.024 3.236-1.593.048-.022" fill="none" stroke="#ff7f0e" stroke-linecap="square" id="line2d_56"/></g><g id="axes_3"><g id="matplotlib.axis_5"><g id="xtick_19"><path clip-path="url(#pe6d4fa9c4a)" d="M96.953 272.89v-49.564" fill="none" stroke="#b0b0b0" stroke-linecap="square" stroke-width=".8" id="line2d_57"/><use x="96.953" xlink:href="#m8a2061c7d3" y="272.889" fill="silver" stroke="silver" stroke-width=".8" id="line2d_58"/></g><g id="xtick_20"><path clip-path="url(#pe6d4fa9c4a)" d="M161.574 272.89v-49.564" fill="none" stroke="#b0b0b0" stroke-linecap="square" stroke-width=".8" id="line2d_59"/><use x="161.574" xlink:href="#m8a2061c7d3" y="272.889" fill="silver" stroke="silver" stroke-width=".8" id="line2d_60"/></g><g id="xtick_21"><path clip-path="url(#pe6d4fa9c4a)" d="M226.195 272.89v-49.564" fill="none" stroke="#b0b0b0" stroke-linecap="square" stroke-width=".8" id="line2d_61"/><use x="226.195" xlink:href="#m8a2061c7d3" y="272.889" fill="silver" stroke="silver" stroke-width=".8" id="line2d_62"/></g><g id="xtick_22"><path clip-path="url(#pe6d4fa9c4a)" d="M290.817 272.89v-49.564" fill="none" stroke="#b0b0b0" stroke-linecap="square" stroke-width=".8" id="line2d_63"/><use x="290.817" xlink:href="#m8a2061c7d3" y="272.889" fill="silver" stroke="silver" stroke-width=".8" id="line2d_64"/></g><g id="xtick_23"><path clip-path="url(#pe6d4fa9c4a)" d="M355.438 272.89v-49.564" fill="none" stroke="#b0b0b0" stroke-linecap="square" stroke-width=".8" id="line2d_65"/><use x="355.438" xlink:href="#m8a2061c7d3" y="272.889" fill="silver" stroke="silver" stroke-width=".8" id="line2d_66"/></g><g id="xtick_24"><path clip-path="url(#pe6d4fa9c4a)" d="M420.06 272.89v-49.564" fill="none" stroke="#b0b0b0" stroke-linecap="square" stroke-width=".8" id="line2d_67"/><use x="420.059" xlink:href="#m8a2061c7d3" y="272.889" fill="silver" stroke="silver" stroke-width=".8" id="line2d_68"/></g><g id="xtick_25"><path clip-path="url(#pe6d4fa9c4a)" d="M484.68 272.89v-49.564" fill="none" stroke="#b0b0b0" stroke-linecap="square" stroke-width=".8" id="line2d_69"/><use x="484.681" xlink:href="#m8a2061c7d3" y="272.889" fill="silver" stroke="silver" stroke-width=".8" id="line2d_70"/></g><g id="xtick_26"><path clip-path="url(#pe6d4fa9c4a)" d="M549.302 272.89v-49.564" fill="none" stroke="#b0b0b0" stroke-linecap="square" stroke-width=".8" id="line2d_71"/><use x="549.302" xlink:href="#m8a2061c7d3" y="272.889" fill="silver" stroke="silver" stroke-width=".8" id="line2d_72"/></g><g id="xtick_27"><path clip-path="url(#pe6d4fa9c4a)" d="M613.923 272.89v-49.564" fill="none" stroke="#b0b0b0" stroke-linecap="square" stroke-width=".8" id="line2d_73"/><use x="613.923" xlink:href="#m8a2061c7d3" y="272.889" fill="silver" stroke="silver" stroke-width=".8" id="line2d_74"/></g></g><g id="matplotlib.axis_6"><g id="ytick_7"><path clip-path="url(#pe6d4fa9c4a)" d="M71.59 271.53h558" fill="none" stroke="#b0b0b0" stroke-linecap="square" stroke-width=".8" id="line2d_75"/><use x="71.589" xlink:href="#m7f37620cfc" y="271.531" fill="silver" stroke="silver" stroke-width=".8" id="line2d_76"/><g id="text_11"><defs><path d="M9.078 75.984h9.031V31.11l26.813 23.578H56.39l-29-25.578L57.625 0H45.906L18.11 26.703V0H9.08z" id="DejaVuSans-6b"/></defs><g transform="matrix(.1 0 0 -.1 52.436 275.33)"><use xlink:href="#DejaVuSans-30"/><use x="63.623" xlink:href="#DejaVuSans-6b"/></g></g></g><g id="ytick_8"><path clip-path="url(#pe6d4fa9c4a)" d="M71.59 241.577h558" fill="none" stroke="#b0b0b0" stroke-linecap="square" stroke-width=".8" id="line2d_77"/><use x="71.589" xlink:href="#m7f37620cfc" y="241.577" fill="silver" stroke="silver" stroke-width=".8" id="line2d_78"/><g transform="matrix(.1 0 0 -.1 39.71 245.376)" id="text_12"><use xlink:href="#DejaVuSans-32"/><use x="63.623" xlink:href="#DejaVuSans-30"/><use x="127.246" xlink:href="#DejaVuSans-30"/><use x="190.869" xlink:href="#DejaVuSans-6b"/></g></g><g id="text_13"><defs><path d="M9.813 72.906h41.89v-8.312H19.672V43.109h28.906v-8.297H19.672V0h-9.86z" id="DejaVuSans-46"/><path d="M8.5 21.578v33.11h8.984V21.922q0-7.766 3.016-11.656 3.031-3.875 9.094-3.875 7.265 0 11.484 4.64 4.234 4.64 4.234 12.656v31h8.985V0h-8.984v8.406Q42.047 3.422 37.718 1q-4.313-2.422-10.032-2.422-9.421 0-14.312 5.86Q8.5 10.296 8.5 21.578zM31.11 56z" id="DejaVuSans-75"/></defs><g transform="matrix(0 -.1 -.1 0 14.798 263.163)"><use xlink:href="#DejaVuSans-46"/><use x="57.379" xlink:href="#DejaVuSans-61"/><use x="118.658" xlink:href="#DejaVuSans-75"/><use x="182.037" xlink:href="#DejaVuSans-6c"/><use x="209.82" xlink:href="#DejaVuSans-74"/><use x="249.029" xlink:href="#DejaVuSans-73"/></g></g></g><path clip-path="url(#pe6d4fa9c4a)" d="M96.953 270.637l6.473-1.036 6.472-1.566 9.708-2.95 3.238-1.439 3.236-.557 16.186-.039 3.236-.456 3.235-.244 3.236-.117 6.47-.716h3.236l6.472-.71h3.236l9.708-1.064 3.234-.001 6.473-.732h3.235l6.473-.712 3.237-.236 3.236-.119 6.473-.714h3.237l3.236-.966 3.235-.356 3.235-.007 9.707-1.067h3.236l6.47-.71h3.237l6.47-.712h3.236l9.708-1.105h3.236l6.473-.721 3.234-.006 9.706-1.065h3.236l6.47-.72 6.472-.357 6.47-.727h3.236l6.472-.724 3.236-.006 9.706-1.076h3.235l9.709-1.09 3.235-.015 6.471-.717h3.236l9.708-1.081h3.236l9.706-1.02 3.236-.069 6.471-.725h3.236l6.866-.717 3.235-.238 3.236-.117 6.47-.742h3.236l9.708-1.096 3.234-.003 6.473-.732 6.47-.359 6.471-.722h3.236l9.707-1.08h3.237l9.705-1.092h3.236l6.472-.728h3.235l9.707-1.124h3.235l9.706-1.025 3.236-.07 6.47-.728h3.236l9.71-1.08 3.236-.004 6.473-.736h3.235l9.71-1.072h3.235l6.472-.73 3.237-.006 9.707-1.129h3.236l3.236-.368 3.238-.504.507-.406h0" fill="none" stroke="#1f77b4" stroke-linecap="square" id="line2d_79"/><path clip-path="url(#pe6d4fa9c4a)" d="M96.953 270.582l3.236-.69 3.237-.404 3.236-.713 3.236-.806 3.236-.882 3.236-1.058 3.237-1.313 3.238-.672 3.239-1.03 3.245-.227 3.238-.005h6.477l3.236-.166 3.237-.437 3.237-.03 3.237-.183 3.241-.16 3.244-.04 3.24-.025 3.24-.564 3.243-.518 3.24-.038 3.24-.002 3.237-.004 3.244-.002 3.24-.003 3.24-.001 3.239-.002 3.238-.002h3.24l3.239-.003 3.236-.965.048-.001" fill="none" stroke="#ff7f0e" stroke-linecap="square" id="line2d_80"/></g><g id="axes_4"><g id="matplotlib.axis_7"><g id="xtick_28"><path clip-path="url(#p450655f579)" d="M96.953 335.835V286.27" fill="none" stroke="#b0b0b0" stroke-linecap="square" stroke-width=".8" id="line2d_81"/><use x="96.953" xlink:href="#m8a2061c7d3" y="335.835" fill="silver" stroke="silver" stroke-width=".8" id="line2d_82"/></g><g id="xtick_29"><path clip-path="url(#p450655f579)" d="M161.574 335.835V286.27" fill="none" stroke="#b0b0b0" stroke-linecap="square" stroke-width=".8" id="line2d_83"/><use x="161.574" xlink:href="#m8a2061c7d3" y="335.835" fill="silver" stroke="silver" stroke-width=".8" id="line2d_84"/></g><g id="xtick_30"><path clip-path="url(#p450655f579)" d="M226.195 335.835V286.27" fill="none" stroke="#b0b0b0" stroke-linecap="square" stroke-width=".8" id="line2d_85"/><use x="226.195" xlink:href="#m8a2061c7d3" y="335.835" fill="silver" stroke="silver" stroke-width=".8" id="line2d_86"/></g><g id="xtick_31"><path clip-path="url(#p450655f579)" d="M290.817 335.835V286.27" fill="none" stroke="#b0b0b0" stroke-linecap="square" stroke-width=".8" id="line2d_87"/><use x="290.817" xlink:href="#m8a2061c7d3" y="335.835" fill="silver" stroke="silver" stroke-width=".8" id="line2d_88"/></g><g id="xtick_32"><path clip-path="url(#p450655f579)" d="M355.438 335.835V286.27" fill="none" stroke="#b0b0b0" stroke-linecap="square" stroke-width=".8" id="line2d_89"/><use x="355.438" xlink:href="#m8a2061c7d3" y="335.835" fill="silver" stroke="silver" stroke-width=".8" id="line2d_90"/></g><g id="xtick_33"><path clip-path="url(#p450655f579)" d="M420.06 335.835V286.27" fill="none" stroke="#b0b0b0" stroke-linecap="square" stroke-width=".8" id="line2d_91"/><use x="420.059" xlink:href="#m8a2061c7d3" y="335.835" fill="silver" stroke="silver" stroke-width=".8" id="line2d_92"/></g><g id="xtick_34"><path clip-path="url(#p450655f579)" d="M484.68 335.835V286.27" fill="none" stroke="#b0b0b0" stroke-linecap="square" stroke-width=".8" id="line2d_93"/><use x="484.681" xlink:href="#m8a2061c7d3" y="335.835" fill="silver" stroke="silver" stroke-width=".8" id="line2d_94"/></g><g id="xtick_35"><path clip-path="url(#p450655f579)" d="M549.302 335.835V286.27" fill="none" stroke="#b0b0b0" stroke-linecap="square" stroke-width=".8" id="line2d_95"/><use x="549.302" xlink:href="#m8a2061c7d3" y="335.835" fill="silver" stroke="silver" stroke-width=".8" id="line2d_96"/></g><g id="xtick_36"><path clip-path="url(#p450655f579)" d="M613.923 335.835V286.27" fill="none" stroke="#b0b0b0" stroke-linecap="square" stroke-width=".8" id="line2d_97"/><use x="613.923" xlink:href="#m8a2061c7d3" y="335.835" fill="silver" stroke="silver" stroke-width=".8" id="line2d_98"/></g></g><g id="matplotlib.axis_8"><g id="ytick_9"><path clip-path="url(#p450655f579)" d="M71.59 333.597h558" fill="none" stroke="#b0b0b0" stroke-linecap="square" stroke-width=".8" id="line2d_99"/><use x="71.589" xlink:href="#m7f37620cfc" y="333.597" fill="silver" stroke="silver" stroke-width=".8" id="line2d_100"/><g transform="matrix(.1 0 0 -.1 52.436 337.396)" id="text_14"><use xlink:href="#DejaVuSans-30"/><use x="63.623" xlink:href="#DejaVuSans-6b"/></g></g><g id="ytick_10"><path clip-path="url(#p450655f579)" d="M71.59 308.743h558" fill="none" stroke="#b0b0b0" stroke-linecap="square" stroke-width=".8" id="line2d_101"/><use x="71.589" xlink:href="#m7f37620cfc" y="308.743" fill="silver" stroke="silver" stroke-width=".8" id="line2d_102"/><g transform="matrix(.1 0 0 -.1 46.073 312.542)" id="text_15"><use xlink:href="#DejaVuSans-31"/><use x="63.623" xlink:href="#DejaVuSans-30"/><use x="127.246" xlink:href="#DejaVuSans-6b"/></g></g><g id="text_16"><defs><path d="M48.781 52.594v-8.407q-3.812 2.11-7.64 3.157-3.828 1.047-7.735 1.047-8.75 0-13.593-5.547-4.829-5.532-4.829-15.547 0-10.016 4.829-15.563 4.843-5.53 13.593-5.53 3.907 0 7.735 1.046 3.828 1.047 7.64 3.156V2.094Q45.016.344 40.984-.531q-4.015-.89-8.562-.89-12.36 0-19.64 7.765-7.266 7.765-7.266 20.953 0 13.375 7.343 21.031Q20.22 56 33.016 56q4.14 0 8.093-.86 3.953-.843 7.672-2.546z" id="DejaVuSans-63"/></defs><g transform="matrix(0 -.1 -.1 0 14.798 333.265)"><use xlink:href="#DejaVuSans-53"/><use x="63.477" xlink:href="#DejaVuSans-77"/><use x="145.264" xlink:href="#DejaVuSans-69"/><use x="173.047" xlink:href="#DejaVuSans-74"/><use x="212.256" xlink:href="#DejaVuSans-63"/><use x="267.236" xlink:href="#DejaVuSans-68"/><use x="330.615" xlink:href="#DejaVuSans-65"/><use x="392.139" xlink:href="#DejaVuSans-73"/></g></g></g><path clip-path="url(#p450655f579)" d="M96.953 333.572l22.653-.184 6.474-.38 35.599-2.841 19.416-1.8 3.234-.248 3.236-.674 22.654-1.993 12.945-1.09 6.471-.563 9.707-.867 16.178-1.459 6.471-.562 16.18-1.446 3.235-.256 6.471-1.457 6.47-.569 55.007-4.893 16.177-1.452 6.473-.601 3.236-.246 6.47-1.64 29.516-2.55 19.414-1.778 19.413-1.705 3.235-.648 6.472-.552 19.413-1.705 6.472-.567 9.706-.84 3.235-.649 25.884-2.299 3.236-.243 3.236-.676 45.308-4.054 16.688-1.56h0" fill="none" stroke="#1f77b4" stroke-linecap="square" id="line2d_103"/><path clip-path="url(#p450655f579)" d="M96.953 333.582l3.236-.018 3.237-.02 3.236-.04 3.236-.056 3.236-.018 3.236-.022 3.237-.01 3.238-.025 3.239-.542 3.245-.243 3.238-.19 3.238-.213 3.239-.229 3.236-.275 3.237-.244 3.237-.244 3.237-.293 3.241-1.307 3.244-1.049 3.24-1.352 3.24-1.273 3.243-1.252 3.24-1.218 3.24-1.618 3.237-1.434 3.244-1.534 3.24-1.406 3.24-1.574 3.239-1.742 3.238-1.702 3.24-1.4 3.239-1.573 3.236-.397h.048" fill="none" stroke="#ff7f0e" stroke-linecap="square" id="line2d_104"/></g><g id="axes_5"><g id="matplotlib.axis_9"><g id="xtick_37"><path clip-path="url(#p1371aef0ed)" d="M96.953 398.78v-49.563" fill="none" stroke="#b0b0b0" stroke-linecap="square" stroke-width=".8" id="line2d_105"/><use x="96.953" xlink:href="#m8a2061c7d3" y="398.78" fill="silver" stroke="silver" stroke-width=".8" id="line2d_106"/><g transform="matrix(.1 0 0 -.1 86.396 413.378)" id="text_17"><use xlink:href="#DejaVuSans-30"/><use x="63.623" xlink:href="#DejaVuSans-2e"/><use x="95.41" xlink:href="#DejaVuSans-30"/><use x="159.033" xlink:href="#DejaVuSans-73"/></g></g><g id="xtick_38"><path clip-path="url(#p1371aef0ed)" d="M161.574 398.78v-49.563" fill="none" stroke="#b0b0b0" stroke-linecap="square" stroke-width=".8" id="line2d_107"/><use x="161.574" xlink:href="#m8a2061c7d3" y="398.78" fill="silver" stroke="silver" stroke-width=".8" id="line2d_108"/><g transform="matrix(.1 0 0 -.1 151.018 413.378)" id="text_18"><use xlink:href="#DejaVuSans-32"/><use x="63.623" xlink:href="#DejaVuSans-2e"/><use x="95.41" xlink:href="#DejaVuSans-30"/><use x="159.033" xlink:href="#DejaVuSans-73"/></g></g><g id="xtick_39"><path clip-path="url(#p1371aef0ed)" d="M226.195 398.78v-49.563" fill="none" stroke="#b0b0b0" stroke-linecap="square" stroke-width=".8" id="line2d_109"/><use x="226.195" xlink:href="#m8a2061c7d3" y="398.78" fill="silver" stroke="silver" stroke-width=".8" id="line2d_110"/><g id="text_19"><defs><path d="M37.797 64.313L12.89 25.39h24.906zm-2.594 8.593H47.61V25.391h10.407v-8.203H47.609V0h-9.812v17.188H4.89v9.515z" id="DejaVuSans-34"/></defs><g transform="matrix(.1 0 0 -.1 215.64 413.378)"><use xlink:href="#DejaVuSans-34"/><use x="63.623" xlink:href="#DejaVuSans-2e"/><use x="95.41" xlink:href="#DejaVuSans-30"/><use x="159.033" xlink:href="#DejaVuSans-73"/></g></g></g><g id="xtick_40"><path clip-path="url(#p1371aef0ed)" d="M290.817 398.78v-49.563" fill="none" stroke="#b0b0b0" stroke-linecap="square" stroke-width=".8" id="line2d_111"/><use x="290.817" xlink:href="#m8a2061c7d3" y="398.78" fill="silver" stroke="silver" stroke-width=".8" id="line2d_112"/><g transform="matrix(.1 0 0 -.1 280.26 413.378)" id="text_20"><use xlink:href="#DejaVuSans-36"/><use x="63.623" xlink:href="#DejaVuSans-2e"/><use x="95.41" xlink:href="#DejaVuSans-30"/><use x="159.033" xlink:href="#DejaVuSans-73"/></g></g><g id="xtick_41"><path clip-path="url(#p1371aef0ed)" d="M355.438 398.78v-49.563" fill="none" stroke="#b0b0b0" stroke-linecap="square" stroke-width=".8" id="line2d_113"/><use x="355.438" xlink:href="#m8a2061c7d3" y="398.78" fill="silver" stroke="silver" stroke-width=".8" id="line2d_114"/><g transform="matrix(.1 0 0 -.1 344.882 413.378)" id="text_21"><use xlink:href="#DejaVuSans-38"/><use x="63.623" xlink:href="#DejaVuSans-2e"/><use x="95.41" xlink:href="#DejaVuSans-30"/><use x="159.033" xlink:href="#DejaVuSans-73"/></g></g><g id="xtick_42"><path clip-path="url(#p1371aef0ed)" d="M420.06 398.78v-49.563" fill="none" stroke="#b0b0b0" stroke-linecap="square" stroke-width=".8" id="line2d_115"/><use x="420.059" xlink:href="#m8a2061c7d3" y="398.78" fill="silver" stroke="silver" stroke-width=".8" id="line2d_116"/><g transform="matrix(.1 0 0 -.1 406.322 413.378)" id="text_22"><use xlink:href="#DejaVuSans-31"/><use x="63.623" xlink:href="#DejaVuSans-30"/><use x="127.246" xlink:href="#DejaVuSans-2e"/><use x="159.033" xlink:href="#DejaVuSans-30"/><use x="222.656" xlink:href="#DejaVuSans-73"/></g></g><g id="xtick_43"><path clip-path="url(#p1371aef0ed)" d="M484.68 398.78v-49.563" fill="none" stroke="#b0b0b0" stroke-linecap="square" stroke-width=".8" id="line2d_117"/><use x="484.681" xlink:href="#m8a2061c7d3" y="398.78" fill="silver" stroke="silver" stroke-width=".8" id="line2d_118"/><g transform="matrix(.1 0 0 -.1 470.943 413.378)" id="text_23"><use xlink:href="#DejaVuSans-31"/><use x="63.623" xlink:href="#DejaVuSans-32"/><use x="127.246" xlink:href="#DejaVuSans-2e"/><use x="159.033" xlink:href="#DejaVuSans-30"/><use x="222.656" xlink:href="#DejaVuSans-73"/></g></g><g id="xtick_44"><path clip-path="url(#p1371aef0ed)" d="M549.302 398.78v-49.563" fill="none" stroke="#b0b0b0" stroke-linecap="square" stroke-width=".8" id="line2d_119"/><use x="549.302" xlink:href="#m8a2061c7d3" y="398.78" fill="silver" stroke="silver" stroke-width=".8" id="line2d_120"/><g transform="matrix(.1 0 0 -.1 535.564 413.378)" id="text_24"><use xlink:href="#DejaVuSans-31"/><use x="63.623" xlink:href="#DejaVuSans-34"/><use x="127.246" xlink:href="#DejaVuSans-2e"/><use x="159.033" xlink:href="#DejaVuSans-30"/><use x="222.656" xlink:href="#DejaVuSans-73"/></g></g><g id="xtick_45"><path clip-path="url(#p1371aef0ed)" d="M613.923 398.78v-49.563" fill="none" stroke="#b0b0b0" stroke-linecap="square" stroke-width=".8" id="line2d_121"/><use x="613.923" xlink:href="#m8a2061c7d3" y="398.78" fill="silver" stroke="silver" stroke-width=".8" id="line2d_122"/><g transform="matrix(.1 0 0 -.1 600.186 413.378)" id="text_25"><use xlink:href="#DejaVuSans-31"/><use x="63.623" xlink:href="#DejaVuSans-36"/><use x="127.246" xlink:href="#DejaVuSans-2e"/><use x="159.033" xlink:href="#DejaVuSans-30"/><use x="222.656" xlink:href="#DejaVuSans-73"/></g></g><g id="text_26"><defs><path d="M-.297 72.906h61.672v-8.312H35.5V0h-9.906v64.594H-.296z" id="DejaVuSans-54"/><path d="M52 44.188q3.375 6.062 8.063 8.937Q64.75 56 71.093 56q8.548 0 13.188-5.984 4.64-5.97 4.64-17V0h-9.03v32.719q0 7.86-2.797 11.656-2.781 3.813-8.485 3.813-6.984 0-11.046-4.641-4.047-4.625-4.047-12.64V0h-9.032v32.719q0 7.906-2.78 11.687-2.782 3.782-8.595 3.782-6.89 0-10.953-4.657-4.047-4.656-4.047-12.625V0H9.08v54.688h9.03v-8.5q3.078 5.03 7.375 7.421Q29.781 56 35.687 56q5.97 0 10.141-3.031Q50 49.953 52 44.187z" id="DejaVuSans-6d"/></defs><g transform="matrix(.1 0 0 -.1 338.202 427.057)"><use xlink:href="#DejaVuSans-54"/><use x="61.037" xlink:href="#DejaVuSans-69"/><use x="88.82" xlink:href="#DejaVuSans-6d"/><use x="186.232" xlink:href="#DejaVuSans-65"/></g></g></g><g id="matplotlib.axis_10"><g id="ytick_11"><path clip-path="url(#p1371aef0ed)" d="M71.59 396.527h558" fill="none" stroke="#b0b0b0" stroke-linecap="square" stroke-width=".8" id="line2d_123"/><use x="71.589" xlink:href="#m7f37620cfc" y="396.527" fill="silver" stroke="silver" stroke-width=".8" id="line2d_124"/><use xlink:href="#DejaVuSans-30" transform="matrix(.1 0 0 -.1 58.227 400.326)" id="text_27"/></g><g id="ytick_12"><path clip-path="url(#p1371aef0ed)" d="M71.59 371.743h558" fill="none" stroke="#b0b0b0" stroke-linecap="square" stroke-width=".8" id="line2d_125"/><use x="71.589" xlink:href="#m7f37620cfc" y="371.743" fill="silver" stroke="silver" stroke-width=".8" id="line2d_126"/><g transform="matrix(.1 0 0 -.1 45.502 375.542)" id="text_28"><use xlink:href="#DejaVuSans-35"/><use x="63.623" xlink:href="#DejaVuSans-30"/><use x="127.246" xlink:href="#DejaVuSans-30"/></g></g><g id="text_29"><defs><path d="M41.11 46.297q-1.516.875-3.297 1.281Q36.03 48 33.89 48q-7.625 0-11.703-4.953-4.079-4.953-4.079-14.234V0H9.08v54.688h9.03v-8.5q2.844 4.984 7.375 7.39Q30.031 56 36.531 56q.922 0 2.047-.125 1.125-.11 2.484-.36z" id="DejaVuSans-72"/></defs><g transform="matrix(0 -.1 -.1 0 14.798 400.177)"><use xlink:href="#DejaVuSans-4d"/><use x="86.279" xlink:href="#DejaVuSans-69"/><use x="114.063" xlink:href="#DejaVuSans-67"/><use x="177.539" xlink:href="#DejaVuSans-72"/><use x="218.652" xlink:href="#DejaVuSans-61"/><use x="279.932" xlink:href="#DejaVuSans-74"/><use x="319.141" xlink:href="#DejaVuSans-69"/><use x="346.924" xlink:href="#DejaVuSans-6f"/><use x="408.105" xlink:href="#DejaVuSans-6e"/><use x="471.484" xlink:href="#DejaVuSans-73"/></g></g></g><path clip-path="url(#p1371aef0ed)" d="M96.953 396.527h29.127l3.236-.694 6.474-.942 6.476-.198 3.236-.297 3.235-.1 6.47-.892 3.236-.099 3.236-.248 3.236-.396 3.236-.1 16.178-1.536 3.236-.545 9.708-.744 3.237-.446 6.473-.396 12.946-.793 6.47-.05 3.236-.446 12.942-.992 3.236-.099 12.942-1.338 6.472-1.14 6.472-.595 6.473-.892 3.234-.149 3.237-.694 3.234-.495 3.235-.1 6.47-.694 12.943-1.09 3.236-.397 6.47-1.09 3.237-.347 6.472-.446 3.234-.347 3.236-.198 3.235-.447 6.473-.495 3.236-.1 3.235-.495 3.236-.694 3.235-.149 3.236-.396 3.235-.595 3.237-.297 3.236-.15 3.236-.445 3.236-.1 32.75-3.073 3.236-.446 3.234-.05 3.236-.247 3.236-.446 22.65-1.983 3.235-.545 6.471-.595 3.236-.644 3.235-.298 6.473-.248 3.236-.694 3.234-.248 3.235-.099 3.236-.347 3.236-.495 3.236-.1 3.235-.396 3.235-.149 6.472-.793 3.235-.347 6.47-1.14 16.178-.694 3.236-.396 6.474-.298 6.472-1.19h3.237l3.235-.247 6.473-1.289 3.237-.198 3.235-.347 3.236-.496 6.473-.496 3.236-.446 3.235-.297 3.236-.05 10.217-.842h0" fill="none" stroke="#1f77b4" stroke-linecap="square" id="line2d_127"/><path clip-path="url(#p1371aef0ed)" d="M96.953 396.478H122.845l3.239-.05 3.245-.149 3.238-.05h6.477l3.236-.297h9.711l3.241-.248 3.244-.05h3.24l3.24-.098h3.243l3.24-.05 3.24-.149 3.237-.05 3.244-.098h3.24l3.24-.1h3.239l3.238-.049h6.479l3.236-.1h.048" fill="none" stroke="#ff7f0e" stroke-linecap="square" id="line2d_128"/></g></g><defs><clipPath id="p84a90af7d1"><path d="M71.589 10.7h558v136.299h-558z"/></clipPath><clipPath id="p2b159da72d"><path d="M71.589 160.381h558v49.563h-558z"/></clipPath><clipPath id="pe6d4fa9c4a"><path d="M71.589 223.326h558v49.563h-558z"/></clipPath><clipPath id="p450655f579"><path d="M71.589 286.271h558v49.563h-558z"/></clipPath><clipPath id="p1371aef0ed"><path d="M71.589 349.217h558v49.563h-558z"/></clipPath></defs></svg>