<svg height="360" viewBox="0 0 696 270" width="928" xmlns="http://www.w3.org/2000/svg" xmlns:xlink="http://www.w3.org/1999/xlink"><defs><style>*{stroke-linecap:butt;stroke-linejoin:round}</style></defs><g id="figure_1"><path d="M0 270.016h696.09V0H0z" fill="#fff" id="patch_1"/><g id="axes_1"><g id="matplotlib.axis_1"><g id="xtick_1"><path clip-path="url(#pee29df804a)" d="M99.49 232.46V10.7" fill="none" stroke="#b0b0b0" stroke-linecap="square" stroke-width=".8" id="line2d_1"/><g id="line2d_2"><defs><path d="M0 0v3.5" id="ma4b67352d6" stroke="silver" stroke-width=".8"/></defs><use x="99.489" xlink:href="#ma4b67352d6" y="232.46" fill="silver" stroke="silver" stroke-width=".8"/></g><g id="text_1"><defs><path d="M31.781 66.406q-7.61 0-11.453-7.5Q16.5 51.422 16.5 36.375q0-14.984 3.828-22.484 3.844-7.5 11.453-7.5 7.672 0 11.5 7.5 3.844 7.5 3.844 22.484 0 15.047-3.844 22.531-3.828 7.5-11.5 7.5zm0 7.813q12.266 0 18.735-9.703 6.468-9.688 6.468-28.141 0-18.406-6.468-28.11-6.47-9.687-18.735-9.687-12.25 0-18.718 9.688-6.47 9.703-6.47 28.109 0 18.453 6.47 28.14Q19.53 74.22 31.78 74.22z" id="DejaVuSans-30"/><path d="M10.688 12.406H21V0H10.687z" id="DejaVuSans-2e"/><path d="M44.281 53.078v-8.5q-3.797 1.953-7.906 2.922-4.094.984-8.5.984-6.688 0-10.031-2.047-3.344-2.046-3.344-6.156 0-3.125 2.39-4.906 2.391-1.781 9.626-3.39l3.078-.688q9.562-2.047 13.593-5.781 4.032-3.735 4.032-10.422 0-7.625-6.032-12.078-6.03-4.438-16.578-4.438-4.39 0-9.156.86Q10.688.296 5.422 2v9.281q4.984-2.594 9.812-3.89 4.829-1.282 9.579-1.282 6.343 0 9.75 2.172 3.421 2.172 3.421 6.125 0 3.656-2.468 5.61-2.453 1.953-10.813 3.765l-3.125.735q-8.344 1.75-12.062 5.39-3.704 3.64-3.704 9.985 0 7.718 5.47 11.906Q16.75 56 26.811 56q4.97 0 9.36-.734 4.406-.72 8.11-2.188z" id="DejaVuSans-73"/></defs><g transform="matrix(.1 0 0 -.1 88.933 247.058)"><use xlink:href="#DejaVuSans-30"/><use x="63.623" xlink:href="#DejaVuSans-2e"/><use x="95.41" xlink:href="#DejaVuSans-30"/><use x="159.033" xlink:href="#DejaVuSans-73"/></g></g></g><g id="xtick_2"><path clip-path="url(#pee29df804a)" d="M176.56 232.46V10.7" fill="none" stroke="#b0b0b0" stroke-linecap="square" stroke-width=".8" id="line2d_3"/><use x="176.561" xlink:href="#ma4b67352d6" y="232.46" fill="silver" stroke="silver" stroke-width=".8" id="line2d_4"/><g id="text_2"><defs><path d="M19.188 8.297h34.421V0H7.33v8.297q5.609 5.812 15.296 15.594 9.703 9.797 12.188 12.64 4.734 5.313 6.609 9 1.89 3.688 1.89 7.25 0 5.813-4.078 9.469-4.078 3.672-10.625 3.672-4.64 0-9.797-1.61-5.14-1.609-11-4.89v9.969Q13.767 71.78 18.938 73q5.188 1.219 9.485 1.219 11.328 0 18.062-5.672 6.735-5.656 6.735-15.125 0-4.5-1.688-8.531-1.672-4.016-6.125-9.485-1.218-1.422-7.765-8.187-6.532-6.766-18.453-18.922z" id="DejaVuSans-32"/><path d="M10.797 72.906h38.719v-8.312H19.828v-17.86q2.14.735 4.281 1.094 2.157.36 4.313.36 12.203 0 19.328-6.688 7.14-6.688 7.14-18.11 0-11.765-7.328-18.296-7.328-6.516-20.656-6.516-4.593 0-9.36.781-4.75.782-9.827 2.344v9.922q4.39-2.39 9.078-3.563 4.687-1.171 9.906-1.171 8.453 0 13.375 4.437 4.938 4.438 4.938 12.063 0 7.609-4.938 12.047-4.922 4.453-13.375 4.453-3.953 0-7.89-.875-3.922-.875-8.016-2.735z" id="DejaVuSans-35"/></defs><g transform="matrix(.1 0 0 -.1 166.005 247.058)"><use xlink:href="#DejaVuSans-32"/><use x="63.623" xlink:href="#DejaVuSans-2e"/><use x="95.41" xlink:href="#DejaVuSans-35"/><use x="159.033" xlink:href="#DejaVuSans-73"/></g></g></g><g id="xtick_3"><path clip-path="url(#pee29df804a)" d="M253.633 232.46V10.7" fill="none" stroke="#b0b0b0" stroke-linecap="square" stroke-width=".8" id="line2d_5"/><use x="253.633" xlink:href="#ma4b67352d6" y="232.46" fill="silver" stroke="silver" stroke-width=".8" id="line2d_6"/><g transform="matrix(.1 0 0 -.1 243.076 247.058)" id="text_3"><use xlink:href="#DejaVuSans-35"/><use x="63.623" xlink:href="#DejaVuSans-2e"/><use x="95.41" xlink:href="#DejaVuSans-30"/><use x="159.033" xlink:href="#DejaVuSans-73"/></g></g><g id="xtick_4"><path clip-path="url(#pee29df804a)" d="M330.705 232.46V10.7" fill="none" stroke="#b0b0b0" stroke-linecap="square" stroke-width=".8" id="line2d_7"/><use x="330.705" xlink:href="#ma4b67352d6" y="232.46" fill="silver" stroke="silver" stroke-width=".8" id="line2d_8"/><g id="text_4"><defs><path d="M8.203 72.906h46.875v-4.203L28.61 0H18.312L43.22 64.594H8.203z" id="DejaVuSans-37"/></defs><g transform="matrix(.1 0 0 -.1 320.148 247.058)"><use xlink:href="#DejaVuSans-37"/><use x="63.623" xlink:href="#DejaVuSans-2e"/><use x="95.41" xlink:href="#DejaVuSans-35"/><use x="159.033" xlink:href="#DejaVuSans-73"/></g></g></g><g id="xtick_5"><path clip-path="url(#pee29df804a)" d="M407.776 232.46V10.7" fill="none" stroke="#b0b0b0" stroke-linecap="square" stroke-width=".8" id="line2d_9"/><use x="407.776" xlink:href="#ma4b67352d6" y="232.46" fill="silver" stroke="silver" stroke-width=".8" id="line2d_10"/><g id="text_5"><defs><path d="M12.406 8.297h16.11v55.625l-17.532-3.516v8.985l17.438 3.515h9.86V8.296H54.39V0H12.406z" id="DejaVuSans-31"/></defs><g transform="matrix(.1 0 0 -.1 394.039 247.058)"><use xlink:href="#DejaVuSans-31"/><use x="63.623" xlink:href="#DejaVuSans-30"/><use x="127.246" xlink:href="#DejaVuSans-2e"/><use x="159.033" xlink:href="#DejaVuSans-30"/><use x="222.656" xlink:href="#DejaVuSans-73"/></g></g></g><g id="xtick_6"><path clip-path="url(#pee29df804a)" d="M484.848 232.46V10.7" fill="none" stroke="#b0b0b0" stroke-linecap="square" stroke-width=".8" id="line2d_11"/><use x="484.848" xlink:href="#ma4b67352d6" y="232.46" fill="silver" stroke="silver" stroke-width=".8" id="line2d_12"/><g transform="matrix(.1 0 0 -.1 471.11 247.058)" id="text_6"><use xlink:href="#DejaVuSans-31"/><use x="63.623" xlink:href="#DejaVuSans-32"/><use x="127.246" xlink:href="#DejaVuSans-2e"/><use x="159.033" xlink:href="#DejaVuSans-35"/><use x="222.656" xlink:href="#DejaVuSans-73"/></g></g><g id="xtick_7"><path clip-path="url(#pee29df804a)" d="M561.92 232.46V10.7" fill="none" stroke="#b0b0b0" stroke-linecap="square" stroke-width=".8" id="line2d_13"/><use x="561.92" xlink:href="#ma4b67352d6" y="232.46" fill="silver" stroke="silver" stroke-width=".8" id="line2d_14"/><g transform="matrix(.1 0 0 -.1 548.183 247.058)" id="text_7"><use xlink:href="#DejaVuSans-31"/><use x="63.623" xlink:href="#DejaVuSans-35"/><use x="127.246" xlink:href="#DejaVuSans-2e"/><use x="159.033" xlink:href="#DejaVuSans-30"/><use x="222.656" xlink:href="#DejaVuSans-73"/></g></g><g id="xtick_8"><path clip-path="url(#pee29df804a)" d="M638.992 232.46V10.7" fill="none" stroke="#b0b0b0" stroke-linecap="square" stroke-width=".8" id="line2d_15"/><use x="638.992" xlink:href="#ma4b67352d6" y="232.46" fill="silver" stroke="silver" stroke-width=".8" id="line2d_16"/><g transform="matrix(.1 0 0 -.1 625.254 247.058)" id="text_8"><use xlink:href="#DejaVuSans-31"/><use x="63.623" xlink:href="#DejaVuSans-37"/><use x="127.246" xlink:href="#DejaVuSans-2e"/><use x="159.033" xlink:href="#DejaVuSans-35"/><use x="222.656" xlink:href="#DejaVuSans-73"/></g></g><g id="text_9"><defs><path d="M-.297 72.906h61.672v-8.312H35.5V0h-9.906v64.594H-.296z" id="DejaVuSans-54"/><path d="M9.422 54.688h8.984V0H9.422zm0 21.296h8.984v-11.39H9.422z" id="DejaVuSans-69"/><path d="M52 44.188q3.375 6.062 8.063 8.937Q64.75 56 71.093 56q8.548 0 13.188-5.984 4.64-5.97 4.64-17V0h-9.03v32.719q0 7.86-2.797 11.656-2.781 3.813-8.485 3.813-6.984 0-11.046-4.641-4.047-4.625-4.047-12.64V0h-9.032v32.719q0 7.906-2.78 11.687-2.782 3.782-8.595 3.782-6.89 0-10.953-4.657-4.047-4.656-4.047-12.625V0H9.08v54.688h9.03v-8.5q3.078 5.03 7.375 7.421Q29.781 56 35.687 56q5.97 0 10.141-3.031Q50 49.953 52 44.187z" id="DejaVuSans-6d"/><path d="M56.203 29.594v-4.39H14.891q.593-9.282 5.593-14.142 5-4.859 13.938-4.859 5.172 0 10.031 1.266 4.86 1.265 9.656 3.812v-8.5Q49.266.734 44.187-.344 39.11-1.422 33.892-1.422q-13.094 0-20.735 7.61-7.64 7.625-7.64 20.625 0 13.421 7.25 21.296Q20.016 56 32.328 56q11.031 0 17.453-7.11 6.422-7.093 6.422-19.296zm-8.984 2.64q-.094 7.36-4.125 11.75-4.032 4.407-10.672 4.407-7.516 0-12.031-4.25-4.516-4.25-5.203-11.97z" id="DejaVuSans-65"/></defs><g transform="matrix(.1 0 0 -.1 366.102 260.737)"><use xlink:href="#DejaVuSans-54"/><use x="61.037" xlink:href="#DejaVuSans-69"/><use x="88.82" xlink:href="#DejaVuSans-6d"/><use x="186.232" xlink:href="#DejaVuSans-65"/></g></g></g><g id="matplotlib.axis_2"><g id="ytick_1"><path clip-path="url(#pee29df804a)" d="M71.59 222.38h613.8" fill="none" stroke="#b0b0b0" stroke-linecap="square" stroke-width=".8" id="line2d_17"/><g id="line2d_18"><defs><path d="M0 0h-3.5" id="m65261853ca" stroke="silver" stroke-width=".8"/></defs><use x="71.589" xlink:href="#m65261853ca" y="222.38" fill="silver" stroke="silver" stroke-width=".8"/></g><g id="text_10"><defs><path d="M9.813 72.906h14.703l18.593-49.61 18.703 49.61h14.704V0H66.89v64.016l-18.797-50h-9.907l-18.796 50V0H9.813z" id="DejaVuSans-4d"/><path d="M19.672 34.813V8.108H35.5q7.953 0 11.781 3.297 3.844 3.297 3.844 10.078 0 6.844-3.844 10.078-3.828 3.25-11.781 3.25zm0 29.984V42.828h14.61q7.218 0 10.75 2.703 3.546 2.719 3.546 8.282 0 5.515-3.547 8.25-3.531 2.734-10.75 2.734zm-9.86 8.11h25.204q11.28 0 17.375-4.688Q58.5 63.53 58.5 54.89q0-6.703-3.125-10.657-3.125-3.953-9.188-4.922 7.282-1.562 11.313-6.53 4.031-4.954 4.031-12.376 0-9.765-6.64-15.093Q48.25 0 35.984 0H9.812z" id="DejaVuSans-42"/></defs><g transform="matrix(.1 0 0 -.1 20.878 226.18)"><use xlink:href="#DejaVuSans-30"/><use x="63.623" xlink:href="#DejaVuSans-2e"/><use x="95.41" xlink:href="#DejaVuSans-30"/><use x="159.033" xlink:href="#DejaVuSans-30"/><use x="222.656" xlink:href="#DejaVuSans-20"/><use x="254.443" xlink:href="#DejaVuSans-4d"/><use x="340.723" xlink:href="#DejaVuSans-69"/><use x="368.506" xlink:href="#DejaVuSans-42"/></g></g></g><g id="ytick_2"><path clip-path="url(#pee29df804a)" d="M71.59 192.859h613.8" fill="none" stroke="#b0b0b0" stroke-linecap="square" stroke-width=".8" id="line2d_19"/><use x="71.589" xlink:href="#m65261853ca" y="192.859" fill="silver" stroke="silver" stroke-width=".8" id="line2d_20"/><g id="text_11"><defs><path d="M10.984 1.516V10.5q3.72-1.766 7.516-2.688 3.813-.921 7.484-.921 9.766 0 14.907 6.562 5.156 6.563 5.89 19.953-2.828-4.203-7.187-6.453-4.344-2.25-9.61-2.25-10.937 0-17.312 6.61-6.375 6.625-6.375 18.109 0 11.219 6.64 18 6.641 6.797 17.672 6.797 12.657 0 19.313-9.703 6.672-9.688 6.672-28.141 0-17.234-8.188-27.516Q40.234-1.42 26.422-1.42q-3.719 0-7.531.734-3.797.734-7.907 2.203zM30.61 32.422q6.641 0 10.516 4.531 3.89 4.547 3.89 12.469 0 7.86-3.89 12.422-3.875 4.562-10.516 4.562-6.64 0-10.515-4.562-3.875-4.563-3.875-12.422 0-7.922 3.875-12.469 3.875-4.531 10.515-4.531z" id="DejaVuSans-39"/></defs><g transform="matrix(.1 0 0 -.1 20.878 196.658)"><use xlink:href="#DejaVuSans-30"/><use x="63.623" xlink:href="#DejaVuSans-2e"/><use x="95.41" xlink:href="#DejaVuSans-39"/><use x="159.033" xlink:href="#DejaVuSans-35"/><use x="222.656" xlink:href="#DejaVuSans-20"/><use x="254.443" xlink:href="#DejaVuSans-4d"/><use x="340.723" xlink:href="#DejaVuSans-69"/><use x="368.506" xlink:href="#DejaVuSans-42"/></g></g></g><g id="ytick_3"><path clip-path="url(#pee29df804a)" d="M71.59 163.338h613.8" fill="none" stroke="#b0b0b0" stroke-linecap="square" stroke-width=".8" id="line2d_21"/><use x="71.589" xlink:href="#m65261853ca" y="163.338" fill="silver" stroke="silver" stroke-width=".8" id="line2d_22"/><g transform="matrix(.1 0 0 -.1 20.878 167.137)" id="text_12"><use xlink:href="#DejaVuSans-31"/><use x="63.623" xlink:href="#DejaVuSans-2e"/><use x="95.41" xlink:href="#DejaVuSans-39"/><use x="159.033" xlink:href="#DejaVuSans-31"/><use x="222.656" xlink:href="#DejaVuSans-20"/><use x="254.443" xlink:href="#DejaVuSans-4d"/><use x="340.723" xlink:href="#DejaVuSans-69"/><use x="368.506" xlink:href="#DejaVuSans-42"/></g></g><g id="ytick_4"><path clip-path="url(#pee29df804a)" d="M71.59 133.817h613.8" fill="none" stroke="#b0b0b0" stroke-linecap="square" stroke-width=".8" id="line2d_23"/><use x="71.589" xlink:href="#m65261853ca" y="133.817" fill="silver" stroke="silver" stroke-width=".8" id="line2d_24"/><g id="text_13"><defs><path d="M31.781 34.625q-7.031 0-11.062-3.766-4.016-3.765-4.016-10.343 0-6.594 4.016-10.36Q24.75 6.391 31.78 6.391q7.032 0 11.078 3.78 4.063 3.798 4.063 10.345 0 6.578-4.031 10.343-4.016 3.766-11.11 3.766zm-9.86 4.188q-6.343 1.562-9.89 5.906Q8.5 49.079 8.5 55.329q0 8.733 6.219 13.812 6.234 5.078 17.062 5.078 10.89 0 17.094-5.078 6.203-5.079 6.203-13.813 0-6.25-3.547-10.61-3.531-4.343-9.828-5.906 7.125-1.656 11.094-6.5 3.984-4.828 3.984-11.796 0-10.61-6.468-16.282-6.47-5.656-18.532-5.656-12.047 0-18.531 5.656-6.469 5.672-6.469 16.282 0 6.968 4 11.797 4.016 4.843 11.14 6.5zM18.314 54.39q0-5.657 3.53-8.828 3.548-3.172 9.938-3.172 6.36 0 9.938 3.172 3.593 3.171 3.593 8.828 0 5.672-3.593 8.843-3.578 3.172-9.938 3.172-6.39 0-9.937-3.172-3.532-3.172-3.532-8.843z" id="DejaVuSans-38"/><path d="M33.016 40.375q-6.641 0-10.532-4.547-3.875-4.531-3.875-12.437 0-7.86 3.875-12.438 3.891-4.562 10.532-4.562 6.64 0 10.515 4.562 3.875 4.578 3.875 12.438 0 7.906-3.875 12.437-3.875 4.547-10.515 4.547zm19.578 30.922v-8.984q-3.719 1.75-7.5 2.671-3.782.938-7.5.938-9.766 0-14.922-6.594-5.14-6.594-5.875-19.922 2.875 4.25 7.219 6.516 4.359 2.266 9.578 2.266 10.984 0 17.36-6.672 6.374-6.657 6.374-18.125 0-11.235-6.64-18.032-6.641-6.78-17.672-6.78-12.657 0-19.344 9.687-6.688 9.703-6.688 28.109 0 17.281 8.204 27.563 8.203 10.28 22.015 10.28 3.719 0 7.5-.734t7.89-2.187z" id="DejaVuSans-36"/></defs><g transform="matrix(.1 0 0 -.1 20.878 137.616)"><use xlink:href="#DejaVuSans-32"/><use x="63.623" xlink:href="#DejaVuSans-2e"/><use x="95.41" xlink:href="#DejaVuSans-38"/><use x="159.033" xlink:href="#DejaVuSans-36"/><use x="222.656" xlink:href="#DejaVuSans-20"/><use x="254.443" xlink:href="#DejaVuSans-4d"/><use x="340.723" xlink:href="#DejaVuSans-69"/><use x="368.506" xlink:href="#DejaVuSans-42"/></g></g></g><g id="ytick_5"><path clip-path="url(#pee29df804a)" d="M71.59 104.295h613.8" fill="none" stroke="#b0b0b0" stroke-linecap="square" stroke-width=".8" id="line2d_25"/><use x="71.589" xlink:href="#m65261853ca" y="104.295" fill="silver" stroke="silver" stroke-width=".8" id="line2d_26"/><g id="text_14"><defs><path d="M40.578 39.313Q47.656 37.797 51.625 33q3.984-4.781 3.984-11.813 0-10.78-7.422-16.703-7.421-5.906-21.093-5.906-4.578 0-9.438.906-4.86.907-10.031 2.72v9.515q4.094-2.39 8.969-3.61 4.89-1.218 10.218-1.218 9.266 0 14.125 3.656 4.86 3.656 4.86 10.64 0 6.454-4.516 10.079-4.515 3.64-12.562 3.64h-8.5v8.11h8.89q7.266 0 11.125 2.906 3.86 2.906 3.86 8.375 0 5.61-3.985 8.61-3.968 3.015-11.39 3.015-4.063 0-8.703-.89-4.641-.876-10.203-2.72v8.782q5.624 1.562 10.53 2.344 4.907.78 9.25.78 11.235 0 17.766-5.109 6.547-5.093 6.547-13.78 0-6.063-3.468-10.235-3.47-4.172-9.86-5.782z" id="DejaVuSans-33"/></defs><g transform="matrix(.1 0 0 -.1 20.878 108.095)"><use xlink:href="#DejaVuSans-33"/><use x="63.623" xlink:href="#DejaVuSans-2e"/><use x="95.41" xlink:href="#DejaVuSans-38"/><use x="159.033" xlink:href="#DejaVuSans-31"/><use x="222.656" xlink:href="#DejaVuSans-20"/><use x="254.443" xlink:href="#DejaVuSans-4d"/><use x="340.723" xlink:href="#DejaVuSans-69"/><use x="368.506" xlink:href="#DejaVuSans-42"/></g></g></g><g id="ytick_6"><path clip-path="url(#pee29df804a)" d="M71.59 74.774h613.8" fill="none" stroke="#b0b0b0" stroke-linecap="square" stroke-width=".8" id="line2d_27"/><use x="71.589" xlink:href="#m65261853ca" y="74.774" fill="silver" stroke="silver" stroke-width=".8" id="line2d_28"/><g id="text_15"><defs><path d="M37.797 64.313L12.89 25.39h24.906zm-2.594 8.593H47.61V25.391h10.407v-8.203H47.609V0h-9.812v17.188H4.89v9.515z" id="DejaVuSans-34"/></defs><g transform="matrix(.1 0 0 -.1 20.878 78.574)"><use xlink:href="#DejaVuSans-34"/><use x="63.623" xlink:href="#DejaVuSans-2e"/><use x="95.41" xlink:href="#DejaVuSans-37"/><use x="159.033" xlink:href="#DejaVuSans-37"/><use x="222.656" xlink:href="#DejaVuSans-20"/><use x="254.443" xlink:href="#DejaVuSans-4d"/><use x="340.723" xlink:href="#DejaVuSans-69"/><use x="368.506" xlink:href="#DejaVuSans-42"/></g></g></g><g id="ytick_7"><path clip-path="url(#pee29df804a)" d="M71.59 45.253h613.8" fill="none" stroke="#b0b0b0" stroke-linecap="square" stroke-width=".8" id="line2d_29"/><use x="71.589" xlink:href="#m65261853ca" y="45.253" fill="silver" stroke="silver" stroke-width=".8" id="line2d_30"/><g transform="matrix(.1 0 0 -.1 20.878 49.052)" id="text_16"><use xlink:href="#DejaVuSans-35"/><use x="63.623" xlink:href="#DejaVuSans-2e"/><use x="95.41" xlink:href="#DejaVuSans-37"/><use x="159.033" xlink:href="#DejaVuSans-32"/><use x="222.656" xlink:href="#DejaVuSans-20"/><use x="254.443" xlink:href="#DejaVuSans-4d"/><use x="340.723" xlink:href="#DejaVuSans-69"/><use x="368.506" xlink:href="#DejaVuSans-42"/></g></g><g id="ytick_8"><path clip-path="url(#pee29df804a)" d="M71.59 15.732h613.8" fill="none" stroke="#b0b0b0" stroke-linecap="square" stroke-width=".8" id="line2d_31"/><use x="71.589" xlink:href="#m65261853ca" y="15.732" fill="silver" stroke="silver" stroke-width=".8" id="line2d_32"/><g transform="matrix(.1 0 0 -.1 20.878 19.531)" id="text_17"><use xlink:href="#DejaVuSans-36"/><use x="63.623" xlink:href="#DejaVuSans-2e"/><use x="95.41" xlink:href="#DejaVuSans-36"/><use x="159.033" xlink:href="#DejaVuSans-38"/><use x="222.656" xlink:href="#DejaVuSans-20"/><use x="254.443" xlink:href="#DejaVuSans-4d"/><use x="340.723" xlink:href="#DejaVuSans-69"/><use x="368.506" xlink:href="#DejaVuSans-42"/></g></g><g id="text_18"><defs><path d="M34.281 27.484q-10.89 0-15.093-2.484-4.204-2.484-4.204-8.5 0-4.781 3.157-7.594 3.156-2.797 8.562-2.797 7.485 0 12 5.297 4.516 5.297 4.516 14.078v2zm17.922 3.72V0H43.22v8.297Q40.14 3.328 35.547.953q-4.594-2.375-11.234-2.375-8.391 0-13.36 4.719Q6 8.016 6 15.922q0 9.219 6.172 13.906 6.187 4.688 18.437 4.688h12.61v.89q0 6.203-4.078 9.594-4.078 3.39-11.453 3.39-4.688 0-9.141-1.124-4.438-1.125-8.531-3.375v8.312q4.921 1.906 9.562 2.844 4.64.953 9.031.953 11.875 0 17.735-6.156 5.86-6.14 5.86-18.64z" id="DejaVuSans-61"/><path d="M54.89 33.016V0h-8.984v32.719q0 7.765-3.031 11.61-3.031 3.858-9.078 3.858-7.281 0-11.484-4.64-4.204-4.625-4.204-12.64V0H9.08v54.688h9.03v-8.5q3.235 4.937 7.594 7.374Q30.078 56 35.797 56q9.422 0 14.25-5.828 4.844-5.828 4.844-17.156z" id="DejaVuSans-6e"/><path d="M45.406 46.39v29.594h8.985V0h-8.985v8.203Q42.578 3.328 38.25.953q-4.313-2.375-10.375-2.375-9.906 0-16.14 7.906-6.22 7.922-6.22 20.813 0 12.89 6.22 20.797Q17.968 56 27.874 56q6.063 0 10.375-2.375 4.328-2.36 7.156-7.234zm-30.61-19.093q0-9.906 4.079-15.547 4.078-5.64 11.203-5.64 7.125 0 11.219 5.64 4.11 5.64 4.11 15.547 0 9.906-4.11 15.547-4.094 5.64-11.219 5.64-7.125 0-11.203-5.64-4.078-5.64-4.078-15.547z" id="DejaVuSans-64"/><path d="M4.203 54.688h8.985l11.234-42.672 11.172 42.672h10.593l11.235-42.672 11.187 42.672h8.985L63.28 0H52.688L40.922 44.828 29.109 0H18.5z" id="DejaVuSans-77"/><path d="M18.313 70.219V54.688h18.5v-6.985h-18.5V18.016q0-6.688 1.828-8.594 1.828-1.906 7.453-1.906h9.218V0h-9.218q-10.407 0-14.36 3.875-3.953 3.89-3.953 14.14v29.688H2.687v6.984h6.594V70.22z" id="DejaVuSans-74"/><path d="M54.89 33.016V0h-8.984v32.719q0 7.765-3.031 11.61-3.031 3.858-9.078 3.858-7.281 0-11.484-4.64-4.204-4.625-4.204-12.64V0H9.08v75.984h9.03V46.188q3.235 4.937 7.594 7.374Q30.078 56 35.797 56q9.422 0 14.25-5.828 4.844-5.828 4.844-17.156z" id="DejaVuSans-68"/></defs><g transform="matrix(0 -.1 -.1 0 14.798 148.199)"><use xlink:href="#DejaVuSans-42"/><use x="68.604" xlink:href="#DejaVuSans-61"/><use x="129.883" xlink:href="#DejaVuSans-6e"/><use x="193.262" xlink:href="#DejaVuSans-64"/><use x="256.738" xlink:href="#DejaVuSans-77"/><use x="338.525" xlink:href="#DejaVuSans-69"/><use x="366.309" xlink:href="#DejaVuSans-64"/><use x="429.785" xlink:href="#DejaVuSans-74"/><use x="468.994" xlink:href="#DejaVuSans-68"/></g></g></g><path clip-path="url(#pee29df804a)" d="M99.49 222.38v-.043l15.413-.079v-.474l3.083-.127v-1.206l3.083-.007v-.815l3.083-.105v-.02l21.58-.118v-.007l33.912-.13v-.003l9.248-.024h0" fill="none" stroke="#1f77b4" stroke-linecap="square" stroke-width="1.5" id="line2d_33"/><path clip-path="url(#pee29df804a)" d="M99.49 222.38v-.043l9.248-.062v-2l6.165-.015v-2l6.166-.015v-2.006l3.083-.009v-2l6.166-.015v-2.006l6.166-.009v-2l6.165-.015v-2.006l3.083-.009v-2l6.166-.015v-2.006l6.166-.009v-2.006l3.083-.009v-2l6.165-.015v-2.006l6.166-.009v-2.008l3.083-.007v-2l6.166-.015v-2l9.248-.015v-2.005l6.166-.01v-2.005l3.083-.01v-2l6.166-.015V184l6.165-.01v-2.005l3.083-.01v-2l6.166-.015v-2.005l6.166-.01v-2.005l3.083-.01v-2l6.165-.015v-2.008l3.083-.007v-2l9.249-.015v-2.005l3.083-.01v-2l6.165-.015v-2.005l3.083-.01v-2l6.166-.015v-2l6.166-.015v-2.005l3.083-.01v-2l6.165-.015v-2l6.166-.015v-2.001l6.166-.014v-2.008l3.083-.007v-2l6.166-.015v-2l6.165-.015V143.7l6.166-.01v-2.005l3.083-.01v-2l6.166-.015v-2.005l3.083-.01v-2l6.165-.015v-2l6.166-.015v-2.005l3.083-.01v-2l6.166-.015v-2.005l3.083-.01v-2l6.165-.015v-2.005l3.083-.01v-1.999l6.166-.016v-2.005l6.166-.01v-2.007l3.082-.007v-2l6.166-.015v-2.006l3.083-.01v-1.999l6.166-.015v-2.006l3.083-.01v-1.999l6.165-.015v-2l6.166-.015V103.4l3.083-.01v-1.999l6.166-.015V99.37l3.083-.01v-1.999l6.165-.015V95.34l3.083-.01v-1.999l6.166-.015v-2l6.166-.015v-2.006l3.083-.01v-1.999l6.165-.015v-2.006l3.083-.01v-1.999l6.166-.015v-2.006l6.166-.01v-2.003l6.166-.011v-2.006l3.082-.01v-1.999l6.166-.015v-2.008l3.083-.007v-2l6.166-.015v-2.002l6.166-.013V67.13l3.082-.01v-1.999l6.166-.015v-2l6.166-.015v-2.006l3.083-.01v-2.003l6.166-.011v-2.006l3.082-.01v-1.999l6.166-.015v-2.006l3.083-.01v-1.999l6.166-.015v-2.006l6.166-.01V46.98l3.082-.01v-1.999l6.166-.015v-2l6.166-.015v-2.002l6.166-.013V38.92l3.082-.01v-1.999l6.166-.015v-2l6.166-.015v-2.008l3.083-.007v-2l6.166-.015v-2l6.165-.015V26.83l3.083-.01v-1.999l6.166-.015v-2.002l6.166-.013v-2.008l6.165-.003h0" fill="none" stroke="#ff7f0e" stroke-linecap="square" stroke-width="1.5" id="line2d_34"/><path clip-path="url(#pee29df804a)" d="M99.49 222.38v-.043l15.413-.082v-.659l3.083-.062v-1.152l3.083-.012v-.52l3.083-.03v-.624l3.083-.133v-.178l3.083-.133v-.083l3.083-.095v-.083l3.083-.094v-.09l3.082-.132v-.045l3.083-.133v-.089l3.083-.133v-.089l3.083-.133v-.044l6.166-.178v-.177l3.083-.134v-.088l3.083-.134v-.083l3.082-.094v-.09l3.083-.132v-.045l3.083-.133v-.089l3.083-.133v-.044l3.083-.133v-.045l3.083-.133v-.083l3.083-.095v-.044l3.083-.133v-.083l3.082-.095v-.089l3.083-.133v-.044l3.083-.05h0" fill="none" stroke="#2ca02c" stroke-linecap="square" stroke-width="1.5" id="line2d_35"/><path clip-path="url(#pee29df804a)" d="M99.49 222.38v-.043l9.248-.061v-1.438l9.248-.013v-1.44l6.166-.007v-1.44l3.083-.008v-1.433l6.166-.014v-1.439l6.165-.008v-1.441l3.083-.006v-1.434l6.166-.013v-1.44l6.166-.007v-1.44l3.083-.008 3.083-.359v-1.082l3.082-.006v-1.44l3.083-.007v-1.434l6.166-.013v-1.434l6.166-.013v-1.44l3.083-.007v-1.436l6.165-.012v-1.433l6.166-.014v-1.439l3.083-.008 3.083-.359v-1.082l3.083-.006v-1.434l6.165-.013v-1.44l3.083-.008v-1.433l6.166-.014v-1.433l6.166-.014v-1.439l3.083-.008v-1.434l9.248-.013v-1.44l3.083-.007v-1.434l6.166-.014v-1.439l6.166-.008v-1.439l6.165-.008v-1.44l3.083-.007v-1.434l6.166-.014v-1.436l6.166-.01v-1.442l3.083-.006v-1.434l9.248-.013v-1.44l3.083-.008v-1.433l6.166-.014v-1.439l6.166-.008v-1.439l3.083-.008v-1.434l6.165-.013v-1.44l6.166-.007v-1.434l6.166-.014v-1.439l3.083-.008v-1.434l6.165-.013v-1.434l6.166-.013v-1.434l9.249-.014v-1.439l3.083-.008v-1.434l6.165-.013v-1.434l6.166-.013v-1.434l9.249-.013v-1.44l6.165-.007v-1.44l3.083-.008v-.359l3.083-.367v-.715l3.083-.006v-1.439l6.166-.008v-1.434l6.166-.013v-1.44l3.082-.007v-1.434l6.166-.013v-1.434l6.166-.014v-1.439l6.166-.008v-1.441l3.083-.006v-1.433l6.165-.014v-1.44l6.166-.007v-1.437l6.166-.01v-1.434l6.166-.013v-1.44l3.082-.008v-1.433l6.166-.014v-1.434l6.166-.013v-1.44l6.166-.007v-1.442l3.083-.006v-1.433l6.165-.014v-1.439l6.166-.008v-1.441l3.083-.006v-1.434l6.166-.013v-1.434l6.165-.014v-1.439l6.166-.008v-1.44l3.083-.007v-1.434l6.166-.013v-1.44l3.083-.008v-1.433l6.165-.014v-1.434l6.166-.013v-1.434l6.166-.013v-1.44l3.083-.007v-1.434l6.166-.014v-1.439l3.082-.008v-1.433l6.166-.014v-1.434l6.166-.013v-1.44l6.166-.007v-1.44l6.165-.007v-1.44l6.166-.008v-1.439l6.166-.008v-1.434l6.166-.013v-1.434l6.165-.013v-1.44l6.166-.008v-1.439l3.083-.008v-1.433l6.166-.014v-1.44l6.165-.007v-1.44l3.083-.008v-1.433l6.166-.014v-1.439l6.166-.008v-1.439l6.166-.008v-1.44L648.24 79v-1.434l9.25-.01h0" fill="none" stroke="#d62728" stroke-linecap="square" stroke-width="1.5" id="line2d_36"/><g id="legend_1"><path d="M78.59 77.412H344.9q2 0 2-2V17.7q0-2-2-2H78.59q-2 0-2 2v57.712q0 2 2 2z" fill="#fff" opacity=".8" stroke="#ccc" id="patch_2"/><path d="M80.59 23.798h20" fill="none" stroke="#1f77b4" stroke-linecap="square" stroke-width="1.5" id="line2d_37"/><g id="text_19"><defs><path d="M30.61 48.39q-7.22 0-11.422-5.64-4.204-5.64-4.204-15.453 0-9.813 4.172-15.453 4.188-5.64 11.453-5.64 7.188 0 11.375 5.655 4.203 5.672 4.203 15.438 0 9.719-4.203 15.406-4.187 5.688-11.375 5.688zm0 7.61q11.718 0 18.406-7.625 6.703-7.61 6.703-21.078 0-13.422-6.703-21.078-6.688-7.64-18.407-7.64-11.765 0-18.437 7.64-6.656 7.656-6.656 21.078 0 13.469 6.656 21.078Q18.844 56 30.609 56z" id="DejaVuSans-6f"/><path d="M45.406 27.984q0 9.766-4.031 15.125-4.016 5.375-11.297 5.375-7.219 0-11.25-5.375-4.031-5.359-4.031-15.125 0-9.718 4.031-15.093t11.25-5.375q7.281 0 11.297 5.375 4.031 5.375 4.031 15.093zm8.985-21.203q0-13.953-6.203-20.765Q42-20.797 29.203-20.797q-4.734 0-8.937.703-4.203.703-8.157 2.172v8.735q3.954-2.141 7.813-3.157 3.86-1.031 7.86-1.031 8.843 0 13.234 4.61 4.39 4.609 4.39 13.937v4.453q-2.781-4.844-7.125-7.234Q33.938 0 27.875 0 17.828 0 11.672 7.656q-6.156 7.672-6.156 20.328 0 12.688 6.156 20.344Q17.828 56 27.875 56q6.063 0 10.406-2.39 4.344-2.391 7.125-7.22v8.297h8.985z" id="DejaVuSans-67"/><path d="M4.89 30.906h40.235v-7.031H4.891z" id="DejaVuSans-2013"/><path d="M11.719 12.406h10.297V4l-8-15.625H7.719l4 15.625z" id="DejaVuSans-2c"/></defs><g transform="matrix(.1 0 0 -.1 108.59 27.298)"><use xlink:href="#DejaVuSans-4d"/><use x="86.279" xlink:href="#DejaVuSans-69"/><use x="114.063" xlink:href="#DejaVuSans-74"/><use x="153.271" xlink:href="#DejaVuSans-6f"/><use x="214.453" xlink:href="#DejaVuSans-67"/><use x="277.93" xlink:href="#DejaVuSans-65"/><use x="339.453" xlink:href="#DejaVuSans-6e"/><use x="402.832" xlink:href="#DejaVuSans-20"/><use x="434.619" xlink:href="#DejaVuSans-2013"/><use x="484.619" xlink:href="#DejaVuSans-20"/><use x="516.406" xlink:href="#DejaVuSans-30"/><use x="580.029" xlink:href="#DejaVuSans-2e"/><use x="611.816" xlink:href="#DejaVuSans-31"/><use x="675.439" xlink:href="#DejaVuSans-30"/><use x="739.063" xlink:href="#DejaVuSans-20"/><use x="770.85" xlink:href="#DejaVuSans-4d"/><use x="857.129" xlink:href="#DejaVuSans-69"/><use x="884.912" xlink:href="#DejaVuSans-42"/><use x="953.516" xlink:href="#DejaVuSans-2c"/><use x="985.303" xlink:href="#DejaVuSans-20"/><use x="1017.09" xlink:href="#DejaVuSans-32"/><use x="1080.713" xlink:href="#DejaVuSans-2e"/><use x="1112.5" xlink:href="#DejaVuSans-39"/><use x="1176.123" xlink:href="#DejaVuSans-73"/></g></g><path d="M80.59 38.477h20" fill="none" stroke="#ff7f0e" stroke-linecap="square" stroke-width="1.5" id="line2d_39"/><g id="text_20"><defs><path d="M53.516 70.516V60.89q-5.61 2.687-10.594 4-4.984 1.328-9.625 1.328-8.047 0-12.422-3.125t-4.375-8.89q0-4.845 2.906-7.313 2.907-2.453 11.016-3.97l5.953-1.218q11.031-2.11 16.281-7.406 5.25-5.297 5.25-14.172 0-10.61-7.11-16.078-7.093-5.469-20.812-5.469-5.172 0-11.015 1.172Q13.14.922 6.89 3.219v10.156q6-3.36 11.765-5.078 5.766-1.703 11.328-1.703 8.438 0 13.032 3.312 4.593 3.328 4.593 9.485 0 5.359-3.297 8.39-3.296 3.032-10.812 4.547L27.484 33.5q-11.03 2.188-15.968 6.875-4.922 4.688-4.922 13.047 0 9.672 6.812 15.234 6.813 5.563 18.766 5.563 5.14 0 10.453-.938 5.328-.922 10.89-2.765z" id="DejaVuSans-53"/><path d="M9.813 72.906h9.859v-29.89h35.844v29.89h9.859V0h-9.86v34.719H19.673V0h-9.86z" id="DejaVuSans-48"/><path d="M19.672 64.797v-27.39h12.406q6.89 0 10.64 3.562 3.766 3.562 3.766 10.156 0 6.547-3.765 10.11-3.75 3.562-10.64 3.562zm-9.86 8.11h22.266q12.266 0 18.531-5.548 6.282-5.546 6.282-16.234 0-10.797-6.282-16.313-6.265-5.515-18.53-5.515H19.671V0h-9.86z" id="DejaVuSans-50"/><path d="M18.11 8.203v-29H9.077v75.484h9.031v-8.296q2.844 4.875 7.157 7.234Q29.594 56 35.594 56q9.968 0 16.187-7.906 6.235-7.907 6.235-20.797T51.78 6.484q-6.218-7.906-16.187-7.906-6 0-10.328 2.375-4.313 2.375-7.157 7.25zm30.578 19.094q0 9.906-4.079 15.547-4.078 5.64-11.203 5.64-7.14 0-11.218-5.64-4.079-5.64-4.079-15.547 0-9.906 4.078-15.547 4.079-5.64 11.22-5.64 7.124 0 11.202 5.64t4.078 15.547z" id="DejaVuSans-70"/><path d="M9.422 75.984h8.984V0H9.422z" id="DejaVuSans-6c"/></defs><g transform="matrix(.1 0 0 -.1 108.59 41.977)"><use xlink:href="#DejaVuSans-53"/><use x="63.477" xlink:href="#DejaVuSans-53"/><use x="126.953" xlink:href="#DejaVuSans-48"/><use x="202.148" xlink:href="#DejaVuSans-20"/><use x="233.936" xlink:href="#DejaVuSans-50"/><use x="294.207" xlink:href="#DejaVuSans-69"/><use x="321.99" xlink:href="#DejaVuSans-70"/><use x="385.467" xlink:href="#DejaVuSans-65"/><use x="446.99" xlink:href="#DejaVuSans-6c"/><use x="474.773" xlink:href="#DejaVuSans-69"/><use x="502.557" xlink:href="#DejaVuSans-6e"/><use x="565.936" xlink:href="#DejaVuSans-69"/><use x="593.719" xlink:href="#DejaVuSans-6e"/><use x="657.098" xlink:href="#DejaVuSans-67"/><use x="720.574" xlink:href="#DejaVuSans-20"/><use x="752.361" xlink:href="#DejaVuSans-2013"/><use x="802.361" xlink:href="#DejaVuSans-20"/><use x="834.148" xlink:href="#DejaVuSans-36"/><use x="897.771" xlink:href="#DejaVuSans-2e"/><use x="929.559" xlink:href="#DejaVuSans-35"/><use x="993.182" xlink:href="#DejaVuSans-31"/><use x="1056.805" xlink:href="#DejaVuSans-20"/><use x="1088.592" xlink:href="#DejaVuSans-4d"/><use x="1174.871" xlink:href="#DejaVuSans-69"/><use x="1202.654" xlink:href="#DejaVuSans-42"/><use x="1271.258" xlink:href="#DejaVuSans-2c"/><use x="1303.045" xlink:href="#DejaVuSans-20"/><use x="1334.832" xlink:href="#DejaVuSans-31"/><use x="1398.455" xlink:href="#DejaVuSans-37"/><use x="1462.078" xlink:href="#DejaVuSans-2e"/><use x="1493.865" xlink:href="#DejaVuSans-30"/><use x="1557.488" xlink:href="#DejaVuSans-73"/></g></g><path d="M80.59 53.155h20" fill="none" stroke="#2ca02c" stroke-linecap="square" stroke-width="1.5" id="line2d_41"/><g id="text_21"><defs><path d="M31 75.875q-6.531-11.219-9.719-22.219-3.172-10.984-3.172-22.265 0-11.266 3.203-22.328Q24.517-2 31-13.188h-7.813Q15.875-1.704 12.235 9.375q-3.64 11.078-3.64 22.016 0 10.89 3.61 21.922 3.624 11.046 10.983 22.562z" id="DejaVuSans-28"/><path d="M8.688 72.906h9.921V28.61q0-11.718 4.235-16.875 4.25-5.14 13.781-5.14 9.469 0 13.719 5.14 4.25 5.157 4.25 16.875v44.297H64.5V27.391q0-14.25-7.063-21.532-7.046-7.28-20.812-7.28-13.828 0-20.89 7.28-7.047 7.282-7.047 21.532z" id="DejaVuSans-55"/><path d="M48.781 52.594v-8.407q-3.812 2.11-7.64 3.157-3.828 1.047-7.735 1.047-8.75 0-13.593-5.547-4.829-5.532-4.829-15.547 0-10.016 4.829-15.563 4.843-5.53 13.593-5.53 3.907 0 7.735 1.046 3.828 1.047 7.64 3.156V2.094Q45.016.344 40.984-.531q-4.015-.89-8.562-.89-12.36 0-19.64 7.765-7.266 7.765-7.266 20.953 0 13.375 7.343 21.031Q20.22 56 33.016 56q4.14 0 8.093-.86 3.953-.843 7.672-2.546z" id="DejaVuSans-63"/><path d="M41.11 46.297q-1.516.875-3.297 1.281Q36.03 48 33.89 48q-7.625 0-11.703-4.953-4.079-4.953-4.079-14.234V0H9.08v54.688h9.03v-8.5q2.844 4.984 7.375 7.39Q30.031 56 36.531 56q.922 0 2.047-.125 1.125-.11 2.484-.36z" id="DejaVuSans-72"/><path d="M8.016 75.875h7.812q7.313-11.516 10.953-22.563 3.64-11.03 3.64-21.921 0-10.938-3.64-22.016-3.64-11.078-10.953-22.563H8.016Q14.5-2 17.703 9.063q3.203 11.063 3.203 22.329 0 11.28-3.203 22.265-3.203 11-9.687 22.219z" id="DejaVuSans-29"/></defs><g transform="matrix(.1 0 0 -.1 108.59 56.655)"><use xlink:href="#DejaVuSans-4d"/><use x="86.279" xlink:href="#DejaVuSans-69"/><use x="114.063" xlink:href="#DejaVuSans-74"/><use x="153.271" xlink:href="#DejaVuSans-6f"/><use x="214.453" xlink:href="#DejaVuSans-67"/><use x="277.93" xlink:href="#DejaVuSans-65"/><use x="339.453" xlink:href="#DejaVuSans-6e"/><use x="402.832" xlink:href="#DejaVuSans-20"/><use x="434.619" xlink:href="#DejaVuSans-28"/><use x="473.633" xlink:href="#DejaVuSans-55"/><use x="546.826" xlink:href="#DejaVuSans-6e"/><use x="610.205" xlink:href="#DejaVuSans-63"/><use x="665.186" xlink:href="#DejaVuSans-6f"/><use x="726.367" xlink:href="#DejaVuSans-6d"/><use x="823.779" xlink:href="#DejaVuSans-70"/><use x="887.256" xlink:href="#DejaVuSans-72"/><use x="928.338" xlink:href="#DejaVuSans-65"/><use x="989.861" xlink:href="#DejaVuSans-73"/><use x="1041.961" xlink:href="#DejaVuSans-73"/><use x="1094.061" xlink:href="#DejaVuSans-65"/><use x="1155.584" xlink:href="#DejaVuSans-64"/><use x="1219.061" xlink:href="#DejaVuSans-29"/><use x="1258.074" xlink:href="#DejaVuSans-20"/><use x="1289.861" xlink:href="#DejaVuSans-2013"/><use x="1339.861" xlink:href="#DejaVuSans-20"/><use x="1371.648" xlink:href="#DejaVuSans-30"/><use x="1435.271" xlink:href="#DejaVuSans-2e"/><use x="1467.059" xlink:href="#DejaVuSans-32"/><use x="1530.682" xlink:href="#DejaVuSans-35"/><use x="1594.305" xlink:href="#DejaVuSans-20"/><use x="1626.092" xlink:href="#DejaVuSans-4d"/><use x="1712.371" xlink:href="#DejaVuSans-69"/><use x="1740.154" xlink:href="#DejaVuSans-42"/><use x="1808.758" xlink:href="#DejaVuSans-2c"/><use x="1840.545" xlink:href="#DejaVuSans-20"/><use x="1872.332" xlink:href="#DejaVuSans-33"/><use x="1935.955" xlink:href="#DejaVuSans-2e"/><use x="1967.742" xlink:href="#DejaVuSans-31"/><use x="2031.365" xlink:href="#DejaVuSans-73"/></g></g><path d="M80.59 67.833h20" fill="none" stroke="#d62728" stroke-linecap="square" stroke-width="1.5" id="line2d_43"/><g id="text_22"><defs><path d="M64.406 67.281v-10.39q-4.984 4.64-10.625 6.922-5.64 2.296-11.984 2.296-12.5 0-19.14-7.64-6.641-7.64-6.641-22.094 0-14.406 6.64-22.047 6.64-7.64 19.14-7.64 6.345 0 11.985 2.296 5.64 2.297 10.625 6.938V5.609Q59.234 2.094 53.437.33q-5.78-1.75-12.218-1.75-16.563 0-26.094 10.124-9.516 10.14-9.516 27.672 0 17.578 9.516 27.703 9.531 10.14 26.094 10.14 6.531 0 12.312-1.734 5.797-1.734 10.875-5.203z" id="DejaVuSans-43"/></defs><g transform="matrix(.1 0 0 -.1 108.59 71.333)"><use xlink:href="#DejaVuSans-53"/><use x="63.477" xlink:href="#DejaVuSans-53"/><use x="126.953" xlink:href="#DejaVuSans-48"/><use x="202.148" xlink:href="#DejaVuSans-20"/><use x="233.936" xlink:href="#DejaVuSans-50"/><use x="294.207" xlink:href="#DejaVuSans-69"/><use x="321.99" xlink:href="#DejaVuSans-70"/><use x="385.467" xlink:href="#DejaVuSans-65"/><use x="446.99" xlink:href="#DejaVuSans-6c"/><use x="474.773" xlink:href="#DejaVuSans-69"/><use x="502.557" xlink:href="#DejaVuSans-6e"/><use x="565.936" xlink:href="#DejaVuSans-69"/><use x="593.719" xlink:href="#DejaVuSans-6e"/><use x="657.098" xlink:href="#DejaVuSans-67"/><use x="720.574" xlink:href="#DejaVuSans-20"/><use x="752.361" xlink:href="#DejaVuSans-28"/><use x="791.375" xlink:href="#DejaVuSans-43"/><use x="861.199" xlink:href="#DejaVuSans-6f"/><use x="922.381" xlink:href="#DejaVuSans-6d"/><use x="1019.793" xlink:href="#DejaVuSans-70"/><use x="1083.27" xlink:href="#DejaVuSans-72"/><use x="1124.352" xlink:href="#DejaVuSans-65"/><use x="1185.875" xlink:href="#DejaVuSans-73"/><use x="1237.975" xlink:href="#DejaVuSans-73"/><use x="1290.074" xlink:href="#DejaVuSans-65"/><use x="1351.598" xlink:href="#DejaVuSans-64"/><use x="1415.074" xlink:href="#DejaVuSans-29"/><use x="1454.088" xlink:href="#DejaVuSans-20"/><use x="1485.875" xlink:href="#DejaVuSans-2013"/><use x="1535.875" xlink:href="#DejaVuSans-20"/><use x="1567.662" xlink:href="#DejaVuSans-34"/><use x="1631.285" xlink:href="#DejaVuSans-2e"/><use x="1663.072" xlink:href="#DejaVuSans-36"/><use x="1726.695" xlink:href="#DejaVuSans-38"/><use x="1790.318" xlink:href="#DejaVuSans-20"/><use x="1822.105" xlink:href="#DejaVuSans-4d"/><use x="1908.385" xlink:href="#DejaVuSans-69"/><use x="1936.168" xlink:href="#DejaVuSans-42"/><use x="2004.771" xlink:href="#DejaVuSans-2c"/><use x="2036.559" xlink:href="#DejaVuSans-20"/><use x="2068.346" xlink:href="#DejaVuSans-31"/><use x="2131.969" xlink:href="#DejaVuSans-38"/><use x="2195.592" xlink:href="#DejaVuSans-2e"/><use x="2227.379" xlink:href="#DejaVuSans-31"/><use x="2291.002" xlink:href="#DejaVuSans-73"/></g></g></g></g></g><defs><clipPath id="pee29df804a"><path d="M71.589 10.7h613.8v221.76h-613.8z"/></clipPath></defs></svg>