<?xml version='1.0' encoding='UTF-8'?>
<svg xmlns="http://www.w3.org/2000/svg" width="298.667" height="400" viewBox="0 0 298.667 400"><path d="M132.19 106.892c0 13.385-10.85 24.234-24.235 24.234-13.384 0-24.235-10.85-24.235-24.234 0-13.384 10.85-24.235 24.235-24.235s24.234 10.851 24.234 24.235" fill="#8f8f8f"/><path d="M108.363 97.462l6.271 15.478-9.473-7.462zm11.14 19.044l-9.646-23.216c-.275-.67-.826-1.023-1.494-1.023-.67 0-1.26.354-1.536 1.023l-10.588 25.465h3.622l4.191-10.5 12.508 10.106c.503.406.866.59 1.338.59.945 0 1.77-.708 1.77-1.73 0-.167-.058-.431-.164-.715z" fill="#fff"/><path d="M208.21 55.935c0 13.385-10.849 24.234-24.234 24.234-13.384 0-24.234-10.85-24.234-24.234 0-13.384 10.85-24.235 24.234-24.235 13.385 0 24.235 10.851 24.235 24.235" fill="#8f8f8f"/><path d="M184.384 46.505l6.272 15.478-9.473-7.462zm11.141 19.044l-9.646-23.216c-.276-.67-.826-1.024-1.495-1.024-.67 0-1.26.355-1.535 1.024L172.26 67.798h3.622l4.19-10.5 12.509 10.106c.503.406.866.59 1.338.59.945 0 1.77-.708 1.77-1.73 0-.167-.058-.431-.165-.715z" fill="#fff"/><path d="M208.21 146.736c0 13.385-10.849 24.234-24.234 24.234-13.384 0-24.234-10.85-24.234-24.234 0-13.384 10.85-24.235 24.234-24.235 13.385 0 24.235 10.851 24.235 24.235" fill="#8f8f8f"/><path d="M184.384 137.306l6.272 15.478-9.473-7.462zm11.141 19.044l-9.646-23.216c-.276-.67-.826-1.023-1.495-1.023-.67 0-1.26.354-1.535 1.023L172.26 158.6h3.622l4.19-10.5 12.509 10.106c.503.407.866.59 1.338.59.945 0 1.77-.708 1.77-1.73 0-.167-.058-.43-.165-.715z" fill="#fff"/><path d="M208.36 248.071c0 13.385-10.85 24.235-24.235 24.235-13.384 0-24.235-10.85-24.235-24.235 0-13.384 10.85-24.234 24.235-24.234s24.234 10.85 24.234 24.234" fill="#8f8f8f"/><path d="M184.533 238.641l6.271 15.479-9.473-7.462zm11.14 19.044l-9.646-23.215c-.275-.67-.826-1.024-1.494-1.024-.67 0-1.26.354-1.536 1.024l-10.588 25.464h3.622l4.191-10.499 12.508 10.105c.503.407.866.59 1.338.59.945 0 1.77-.708 1.77-1.73 0-.166-.058-.43-.164-.715z" fill="#fff"/><path d="M132.19 295.846c0 13.385-10.85 24.234-24.235 24.234-13.384 0-24.235-10.85-24.235-24.234 0-13.384 10.85-24.235 24.235-24.235s24.234 10.85 24.234 24.235" fill="#8f8f8f"/><path d="M108.363 286.416l6.271 15.478-9.473-7.462zm11.14 19.044l-9.646-23.216c-.275-.67-.826-1.024-1.494-1.024-.67 0-1.26.355-1.536 1.024L96.239 307.71h3.622l4.191-10.5 12.508 10.106c.503.406.866.59 1.338.59.945 0 1.77-.708 1.77-1.73 0-.167-.058-.431-.164-.715z" fill="#fff"/><path d="M208.062 338.724c0 13.385-10.85 24.235-24.234 24.235-13.384 0-24.235-10.85-24.235-24.235 0-13.384 10.851-24.234 24.235-24.234 13.385 0 24.234 10.85 24.234 24.234" fill="#8f8f8f"/><path d="M184.236 329.294l6.271 15.478-9.473-7.461zm11.14 19.044l-9.646-23.215c-.275-.67-.826-1.024-1.494-1.024-.67 0-1.26.354-1.536 1.024l-10.588 25.464h3.622l4.192-10.499 12.507 10.105c.503.407.866.59 1.338.59.945 0 1.771-.708 1.771-1.73 0-.167-.059-.43-.165-.715z" fill="#fff"/><path d="M285.312 165.333c0 9.587-7.772 17.358-17.36 17.358-9.586 0-17.358-7.77-17.358-17.358 0-9.587 7.772-17.36 17.359-17.36 9.587 0 17.359 7.773 17.359 17.36" fill="#8f8f8f"/><path d="M268.245 158.578l4.492 11.087-6.785-5.345zm7.98 13.641l-6.91-16.63c-.197-.479-.591-.733-1.07-.733-.48 0-.903.254-1.1.734l-7.584 18.24h2.594l3.002-7.52 8.96 7.238c.36.29.62.423.958.423.677 0 1.268-.508 1.268-1.24 0-.12-.042-.309-.118-.512z" fill="#fff"/><path d="M285.015 124.12c0 9.587-7.772 17.358-17.36 17.358-9.586 0-17.358-7.771-17.358-17.359 0-9.587 7.772-17.359 17.359-17.359 9.587 0 17.359 7.772 17.359 17.36" fill="#8f8f8f"/><path d="M267.948 117.364l4.492 11.088-6.785-5.345zm7.98 13.642l-6.91-16.63c-.197-.48-.591-.733-1.07-.733-.48 0-.903.254-1.1.734l-7.584 18.24h2.594l3.003-7.52 8.959 7.237c.36.292.62.423.958.423.677 0 1.269-.507 1.269-1.24 0-.119-.043-.308-.119-.511z" fill="#fff"/><g><path d="M285.312 74.778c0 9.587-7.772 17.358-17.36 17.358-9.586 0-17.358-7.771-17.358-17.358s7.772-17.36 17.359-17.36c9.587 0 17.359 7.773 17.359 17.36" fill="#8f8f8f"/><path d="M268.245 68.023l4.492 11.087-6.785-5.345zm7.98 13.641l-6.91-16.63c-.197-.479-.591-.733-1.07-.733-.48 0-.903.254-1.1.734l-7.584 18.24h2.594l3.002-7.52 8.96 7.238c.36.29.62.423.958.423.677 0 1.268-.508 1.268-1.24 0-.12-.042-.309-.118-.512z" fill="#fff"/></g><g><path d="M285.312 34.718c0 9.588-7.772 17.36-17.36 17.36-9.586 0-17.358-7.772-17.358-17.36 0-9.587 7.772-17.359 17.359-17.359 9.587 0 17.359 7.772 17.359 17.36" fill="#8f8f8f"/><path d="M268.245 27.963l4.492 11.088-6.785-5.345zm7.98 13.642l-6.91-16.63c-.197-.48-.591-.733-1.07-.733-.48 0-.903.254-1.1.733l-7.584 18.24h2.594l3.002-7.52 8.96 7.238c.36.292.62.423.958.423.677 0 1.268-.507 1.268-1.24 0-.119-.042-.308-.118-.511z" fill="#fff"/></g><g><path d="M285.312 223.887c0 9.588-7.772 17.36-17.36 17.36-9.586 0-17.358-7.772-17.358-17.36 0-9.586 7.772-17.359 17.359-17.359 9.587 0 17.359 7.773 17.359 17.36" fill="#8f8f8f"/><path d="M268.245 217.132l4.492 11.088-6.785-5.345zm7.98 13.642l-6.91-16.63c-.197-.479-.591-.733-1.07-.733-.48 0-.903.254-1.1.734l-7.584 18.24h2.594l3.002-7.52 8.96 7.237c.36.292.62.423.958.423.677 0 1.268-.507 1.268-1.24 0-.119-.042-.308-.118-.511z" fill="#fff"/></g><g><path d="M285.312 263.947c0 9.587-7.772 17.359-17.36 17.359-9.586 0-17.358-7.772-17.358-17.36 0-9.586 7.772-17.358 17.359-17.358 9.587 0 17.359 7.772 17.359 17.359" fill="#8f8f8f"/><path d="M268.245 257.192l4.492 11.087-6.785-5.345zm7.98 13.641l-6.91-16.629c-.197-.48-.591-.733-1.07-.733-.48 0-.903.253-1.1.733l-7.584 18.24h2.594l3.002-7.52 8.96 7.238c.36.291.62.423.958.423.677 0 1.268-.508 1.268-1.24 0-.12-.042-.308-.118-.512z" fill="#fff"/></g><g><path d="M285.312 324.036c0 9.587-7.772 17.359-17.36 17.359-9.586 0-17.358-7.772-17.358-17.36 0-9.586 7.772-17.358 17.359-17.358 9.587 0 17.359 7.772 17.359 17.359" fill="#8f8f8f"/><path d="M268.245 317.28l4.492 11.088-6.785-5.345zm7.98 13.642l-6.91-16.629c-.197-.48-.591-.733-1.07-.733-.48 0-.903.253-1.1.733l-7.584 18.24h2.594l3.002-7.52 8.96 7.238c.36.291.62.423.958.423.677 0 1.268-.508 1.268-1.24 0-.12-.042-.308-.118-.512z" fill="#fff"/></g><g><path d="M285.312 364.095c0 9.588-7.772 17.359-17.36 17.359-9.586 0-17.358-7.771-17.358-17.359 0-9.587 7.772-17.36 17.359-17.36 9.587 0 17.359 7.773 17.359 17.36" fill="#8f8f8f"/><path d="M268.245 357.34l4.492 11.087-6.785-5.344zm7.98 13.641l-6.91-16.629c-.197-.48-.591-.733-1.07-.733-.48 0-.903.254-1.1.733l-7.584 18.24h2.594l3.002-7.52 8.96 7.238c.36.291.62.423.958.423.677 0 1.268-.507 1.268-1.24 0-.119-.042-.308-.118-.512z" fill="#fff"/></g><g><path d="M65.036 201.039c0 13.385-10.85 24.234-24.235 24.234-13.384 0-24.234-10.85-24.234-24.234 0-13.384 10.85-24.235 24.234-24.235 13.385 0 24.235 10.85 24.235 24.235" fill="#8f8f8f"/><path d="M41.21 191.608l6.27 15.479-9.472-7.462zm11.14 19.045l-9.647-23.216c-.275-.67-.826-1.024-1.494-1.024-.67 0-1.26.355-1.535 1.024l-10.588 25.465h3.622l4.19-10.5 12.509 10.105c.503.407.866.591 1.338.591.944 0 1.77-.708 1.77-1.73 0-.167-.058-.431-.165-.715z" fill="#fff"/></g><g fill="#8f8f8f"><path d="M62.058 161.152l16.053-22.447-2.415-1.719 6.944-1.246 1.08 6.955-2.384-1.696-16.053 22.447zM62.058 237.254l16.053 22.447-2.415 1.719 6.944 1.246 1.08-6.955-2.384 1.696-16.053-22.447zM132.19 274.744l19.554-12.65-1.358-2.1 5.827 1.175-1.317 5.797-1.34-2.07-19.554 12.65zM133.97 313.908l19.554 12.65-1.358 2.1 5.828-1.176-1.317-5.797-1.34 2.071-19.555-12.65zM132.19 84.635l19.554-12.65-1.358-2.1 5.827 1.175-1.317 5.797-1.34-2.071-19.554 12.65zM133.97 123.798l19.554 12.65-1.358 2.1 5.828-1.175-1.317-5.797-1.34 2.07-19.555-12.65z"/></g><path d="M213.99 41.098l21.267-9.496-1.02-2.282 5.578 2.056-2.192 5.526-1.006-2.252-21.266 9.495zM213.802 63.903l21.267 9.495-1.02 2.283 5.578-2.057-2.192-5.525-1.006 2.252-21.266-9.495zM214.63 131.006l21.267-9.495-1.02-2.283 5.579 2.056-2.193 5.526-1.005-2.252-21.267 9.495zM214.443 153.811l21.266 9.495-1.019 2.283 5.578-2.056-2.193-5.526-1.005 2.252-21.267-9.495zM214.945 230.495L236.212 221l-1.02-2.283 5.578 2.056-2.192 5.526-1.006-2.252-21.266 9.495zM214.757 253.3l21.267 9.495-1.02 2.283 5.578-2.056-2.192-5.526-1.005 2.252-21.267-9.495zM214.333 329.25l21.266-9.495-1.019-2.283 5.578 2.057-2.193 5.525-1.005-2.252-21.267 9.495zM214.145 352.056l21.266 9.495-1.019 2.282 5.578-2.056-2.192-5.526-1.006 2.252-21.267-9.495z" fill="#8f8f8f"/></svg>