<svg xmlns="http://www.w3.org/2000/svg" xmlns:xlink="http://www.w3.org/1999/xlink" width="867.208" height="1728" viewBox="0 0 325.203 648"><defs><symbol overflow="visible" id="a"><path d="M1.781 0v-14.031h2.125v1.969a5.06 5.06 0 0 1 1.766-1.657c.726-.414 1.562-.625 2.5-.625 1.031 0 1.879.215 2.547.64.664.43 1.133 1.032 1.406 1.813 1.113-1.632 2.563-2.453 4.344-2.453 1.383 0 2.453.387 3.203 1.156.75.774 1.125 1.954 1.125 3.547V0h-2.36v-8.844c0-.945-.078-1.629-.234-2.047a2.06 2.06 0 0 0-.844-1.015 2.605 2.605 0 0 0-1.422-.39c-.992 0-1.812.335-2.468 1-.649.655-.969 1.702-.969 3.14V0h-2.375v-9.125c0-1.05-.2-1.844-.594-2.375-.386-.531-1.015-.797-1.89-.797-.668 0-1.29.18-1.86.531-.574.356-.992.871-1.25 1.547-.25.68-.375 1.656-.375 2.938V0zm0 0"/></symbol><symbol overflow="visible" id="b"><path d="M10.938-1.734c-.876.75-1.727 1.28-2.547 1.593-.813.301-1.684.454-2.61.454-1.543 0-2.73-.376-3.562-1.125C1.395-1.563.984-2.524.984-3.704c0-.688.157-1.313.47-1.875a3.926 3.926 0 0 1 1.218-1.375 5.897 5.897 0 0 1 1.719-.781c.468-.125 1.171-.243 2.109-.36 1.914-.226 3.332-.5 4.25-.812v-.625c0-.969-.227-1.649-.672-2.047-.605-.531-1.508-.797-2.703-.797-1.125 0-1.953.2-2.484.594-.532.386-.922 1.074-1.172 2.062L1.39-10.03c.207-.989.55-1.79 1.03-2.406.49-.614 1.192-1.083 2.11-1.407.914-.332 1.977-.5 3.188-.5 1.195 0 2.172.14 2.922.422.75.281 1.296.637 1.64 1.063.352.43.602.964.75 1.609.07.406.11 1.14.11 2.203v3.172c0 2.21.05 3.605.156 4.188.101.585.305 1.148.61 1.687h-2.485c-.25-.488-.414-1.066-.485-1.734zm-.188-5.313c-.867.356-2.164.656-3.89.906-.981.137-1.673.293-2.079.47-.406.179-.718.437-.937.78-.219.336-.328.711-.328 1.125 0 .637.238 1.168.718 1.594.477.418 1.18.625 2.11.625.914 0 1.726-.195 2.437-.594.719-.406 1.242-.957 1.578-1.656.258-.531.391-1.32.391-2.375zm0 0"/></symbol><symbol overflow="visible" id="c"><path d="M.828-4.188l2.36-.375c.132.95.5 1.672 1.093 2.172.602.5 1.446.75 2.532.75 1.093 0 1.906-.218 2.437-.656.531-.445.797-.973.797-1.578 0-.531-.235-.953-.703-1.266-.324-.207-1.137-.476-2.438-.812-1.742-.438-2.949-.817-3.625-1.14-.68-.321-1.187-.766-1.531-1.329a3.6 3.6 0 0 1-.516-1.89c0-.626.141-1.204.422-1.735.29-.531.68-.973 1.172-1.328.375-.27.879-.5 1.516-.688a7.181 7.181 0 0 1 2.047-.28c1.101 0 2.07.155 2.906.468.832.313 1.445.742 1.844 1.281.394.543.664 1.274.812 2.188l-2.312.312c-.118-.719-.43-1.281-.938-1.687-.5-.406-1.215-.61-2.14-.61-1.094 0-1.875.184-2.344.547-.461.356-.688.778-.688 1.266 0 .305.094.578.281.828.196.25.504.46.922.625.239.094.938.297 2.094.61 1.688.449 2.86.82 3.516 1.109.664.281 1.187.699 1.562 1.25.383.543.578 1.218.578 2.031 0 .793-.234 1.543-.703 2.25-.46.7-1.125 1.242-2 1.625-.867.375-1.851.563-2.953.563-1.824 0-3.215-.376-4.172-1.125C1.707-1.57 1.098-2.696.828-4.188zm0 0"/></symbol><symbol overflow="visible" id="d"><path d="M6.984-2.125l.344 2.094c-.68.144-1.277.218-1.797.218-.867 0-1.539-.136-2.015-.406-.48-.281-.82-.64-1.016-1.078-.188-.445-.281-1.383-.281-2.812v-8.079H.469v-1.843h1.75v-3.485l2.36-1.422v4.907h2.405v1.844H4.578v8.203c0 .687.04 1.132.125 1.328.094.187.234.34.422.453.188.117.457.172.813.172.257 0 .609-.031 1.046-.094zm0 0"/></symbol><symbol overflow="visible" id="e"><path d="M11.39-4.516l2.454.297c-.387 1.438-1.106 2.555-2.156 3.344C10.645-.082 9.305.313 7.671.313c-2.055 0-3.684-.63-4.89-1.891C1.581-2.836.983-4.61.983-6.891c0-2.363.61-4.195 1.829-5.5 1.218-1.3 2.796-1.953 4.734-1.953 1.875 0 3.406.64 4.594 1.922 1.187 1.274 1.78 3.063 1.78 5.375v.64H3.454c.082 1.544.516 2.727 1.297 3.548.79.812 1.77 1.218 2.938 1.218.875 0 1.617-.226 2.234-.687.613-.457 1.101-1.188 1.469-2.188zM3.579-8.359h7.844c-.106-1.188-.406-2.07-.906-2.657-.762-.914-1.743-1.375-2.938-1.375-1.094 0-2.016.368-2.766 1.094-.742.73-1.152 1.711-1.234 2.938zm0 0"/></symbol><symbol overflow="visible" id="f"><path d="M1.75 0v-14.031h2.14v2.125c.551-1 1.055-1.656 1.516-1.969a2.7 2.7 0 0 1 1.532-.469c.8 0 1.613.258 2.437.766l-.813 2.203c-.585-.344-1.167-.516-1.75-.516-.523 0-.992.157-1.406.47-.406.312-.699.745-.875 1.296-.261.844-.39 1.773-.39 2.781V0zm0 0"/></symbol><symbol overflow="visible" id="g"><path d="M1.781 0v-19.375h2.375v6.953c1.114-1.281 2.516-1.922 4.203-1.922 1.04 0 1.942.203 2.704.61.769.406 1.32.976 1.656 1.703.332.719.5 1.765.5 3.14V0h-2.39v-8.89c0-1.188-.259-2.051-.767-2.594-.511-.54-1.242-.813-2.187-.813a3.91 3.91 0 0 0-2 .547c-.617.367-1.059.86-1.328 1.484-.262.625-.39 1.493-.39 2.594V0zm0 0"/></symbol><symbol overflow="visible" id="h"><path d="M2.438-11.328v-2.703h2.718v2.703zM2.438 0v-2.703h2.718V0zm0 0"/></symbol><symbol overflow="visible" id="i"><path d="M3.984 0H1.766v-19.375h2.39v6.922c1-1.258 2.282-1.89 3.844-1.89.863 0 1.68.171 2.453.515a4.87 4.87 0 0 1 1.89 1.469c.5.625.891 1.386 1.173 2.28a9.36 9.36 0 0 1 .421 2.845c0 2.406-.593 4.265-1.78 5.578C10.968-.344 9.538.312 7.874.312c-1.656 0-2.953-.687-3.89-2.062zm-.03-7.125c0 1.688.226 2.906.687 3.656C5.39-2.25 6.398-1.64 7.67-1.64c1.04 0 1.942-.445 2.704-1.343.758-.907 1.14-2.254 1.14-4.047 0-1.832-.367-3.18-1.093-4.047-.73-.875-1.61-1.313-2.64-1.313-1.044 0-1.946.454-2.704 1.36-.75.898-1.125 2.199-1.125 3.906zm0 0"/></symbol><symbol overflow="visible" id="j"><path d="M1.797-16.64v-2.735h2.375v2.734zm0 16.64v-14.031h2.375V0zm0 0"/></symbol><symbol overflow="visible" id="k"><path d="M.906-7.016c0-2.601.719-4.53 2.156-5.78 1.208-1.032 2.68-1.548 4.422-1.548 1.926 0 3.5.633 4.72 1.89 1.226 1.263 1.843 3.009 1.843 5.235 0 1.813-.274 3.235-.813 4.266A5.756 5.756 0 0 1 10.86-.547a6.862 6.862 0 0 1-3.375.86c-1.968 0-3.558-.63-4.765-1.891C1.508-2.836.906-4.648.906-7.016zm2.438 0c0 1.793.39 3.137 1.172 4.032.78.898 1.77 1.343 2.968 1.343 1.176 0 2.157-.445 2.938-1.343.789-.895 1.187-2.266 1.187-4.11 0-1.738-.398-3.05-1.187-3.937-.793-.895-1.774-1.344-2.938-1.344-1.199 0-2.187.445-2.968 1.328-.782.887-1.172 2.23-1.172 4.031zm0 0"/></symbol><symbol overflow="visible" id="l"><path d="M1.781 0v-14.031h2.14v2c1.032-1.54 2.52-2.313 4.47-2.313.843 0 1.617.153 2.328.453.707.305 1.238.704 1.594 1.204.351.492.601 1.074.75 1.75.082.437.124 1.21.124 2.312V0h-2.374v-8.531c0-.969-.094-1.692-.282-2.172a2.271 2.271 0 0 0-.984-1.156c-.469-.29-1.024-.438-1.656-.438-1.012 0-1.887.324-2.625.969-.743.648-1.11 1.867-1.11 3.656V0zm0 0"/></symbol><symbol overflow="visible" id="m"><path d="M10.984 0v-2.063C9.891-.476 8.406.313 6.531.313c-.836 0-1.61-.157-2.328-.47-.719-.32-1.25-.722-1.594-1.202-.343-.477-.59-1.067-.734-1.766-.094-.457-.14-1.195-.14-2.219v-8.687h2.374v7.781c0 1.242.047 2.078.141 2.516.156.625.473 1.117.953 1.468.488.356 1.086.532 1.797.532.719 0 1.39-.18 2.016-.547.625-.364 1.066-.86 1.328-1.485.258-.632.39-1.55.39-2.75v-7.515h2.375V0zm0 0"/></symbol><symbol overflow="visible" id="n"><path d="M10.89 0v-1.766C9.993-.379 8.688.313 6.97.313A5.537 5.537 0 0 1 3.875-.61c-.938-.614-1.668-1.473-2.188-2.579C1.176-4.288.922-5.562.922-7c0-1.406.234-2.676.703-3.813.469-1.144 1.164-2.019 2.094-2.624a5.696 5.696 0 0 1 3.14-.907c.844 0 1.594.18 2.25.531.664.356 1.207.82 1.625 1.391v-6.953h2.36V0zM3.376-7c0 1.793.375 3.137 1.125 4.031.758.887 1.656 1.328 2.688 1.328 1.039 0 1.921-.421 2.64-1.265.727-.852 1.094-2.156 1.094-3.906 0-1.915-.371-3.32-1.11-4.22-.742-.894-1.652-1.343-2.734-1.343-1.055 0-1.933.434-2.64 1.297-.711.855-1.063 2.215-1.063 4.078zm0 0"/></symbol><symbol overflow="visible" id="o"><path d="M10.938-5.14l2.343.296c-.261 1.617-.918 2.883-1.969 3.797C10.258-.14 8.97.313 7.438.313c-1.918 0-3.461-.625-4.625-1.875-1.168-1.258-1.75-3.063-1.75-5.407 0-1.508.25-2.832.75-3.968.5-1.133 1.257-1.985 2.28-2.547a6.825 6.825 0 0 1 3.36-.86c1.52 0 2.766.387 3.734 1.156.97.774 1.594 1.868 1.876 3.282l-2.313.36c-.23-.946-.625-1.657-1.188-2.126-.554-.476-1.226-.719-2.015-.719-1.2 0-2.172.434-2.922 1.297-.75.856-1.125 2.211-1.125 4.063 0 1.886.36 3.258 1.078 4.11.727.855 1.672 1.28 2.828 1.28.938 0 1.719-.285 2.344-.859.625-.57 1.02-1.453 1.188-2.64zm0 0"/></symbol><symbol overflow="visible" id="p"><path d="M1.797 0v-19.375h2.375v11.047l5.64-5.703h3.079L7.516-8.828 13.422 0h-2.938L5.86-7.172l-1.687 1.61V0zm0 0"/></symbol><symbol overflow="visible" id="q"><path d="M1.734 0v-19.375H4.11V0zm0 0"/></symbol><symbol overflow="visible" id="r"><path d="M1.344 1.156l2.312.344c.102.719.375 1.238.813 1.563.593.437 1.398.656 2.422.656 1.093 0 1.937-.219 2.53-.656.602-.438 1.017-1.055 1.235-1.844.114-.492.172-1.508.172-3.063C9.785-.614 8.488 0 6.938 0c-1.93 0-3.422-.691-4.485-2.078C1.398-3.473.875-5.145.875-7.094c0-1.343.238-2.578.719-3.703.488-1.133 1.191-2.008 2.11-2.625.925-.613 2.007-.922 3.25-.922 1.655 0 3.019.668 4.093 2v-1.687h2.187v12.125c0 2.187-.226 3.734-.671 4.64-.438.914-1.141 1.633-2.11 2.157-.96.53-2.148.796-3.562.796-1.668 0-3.016-.375-4.047-1.125-1.031-.75-1.531-1.886-1.5-3.406zm1.968-8.422c0 1.844.364 3.188 1.094 4.032.739.843 1.657 1.265 2.75 1.265 1.094 0 2.008-.422 2.75-1.265.739-.844 1.11-2.16 1.11-3.954 0-1.718-.383-3.007-1.141-3.875-.762-.874-1.68-1.312-2.75-1.312-1.063 0-1.965.43-2.703 1.281-.742.856-1.11 2.133-1.11 3.828zm0 0"/></symbol><symbol overflow="visible" id="s"><path d="M1.125-9.547c0-2.289.234-4.133.703-5.531.469-1.395 1.164-2.473 2.094-3.235.937-.757 2.11-1.14 3.515-1.14 1.04 0 1.954.21 2.735.625.781.418 1.426 1.023 1.937 1.812.52.793.922 1.758 1.204 2.891.289 1.125.437 2.652.437 4.578 0 2.274-.234 4.106-.703 5.5-.461 1.399-1.156 2.477-2.094 3.234C10.023-.05 8.852.329 7.438.329c-1.868 0-3.329-.664-4.391-2C1.766-3.285 1.125-5.91 1.125-9.547zm2.438 0c0 3.18.367 5.293 1.109 6.344.75 1.055 1.672 1.578 2.766 1.578 1.093 0 2.007-.523 2.75-1.578.75-1.063 1.124-3.176 1.124-6.344 0-3.195-.374-5.316-1.124-6.36-.743-1.05-1.668-1.577-2.782-1.577-1.086 0-1.953.464-2.61 1.39-.823 1.18-1.234 3.36-1.234 6.547zm0 0"/></symbol><symbol overflow="visible" id="t"><path d="M.86-5.813v-2.39h7.312v2.39zm0 0"/></symbol><symbol overflow="visible" id="u"><path d="M1.672 5.406l-.266-2.234c.52.144.977.219 1.375.219.52 0 .938-.09 1.25-.266.32-.18.586-.43.797-.75.145-.242.383-.828.719-1.766.039-.136.113-.328.219-.578L.437-14.03H3l2.922 8.125c.375 1.031.71 2.117 1.016 3.25.269-1.094.597-2.16.984-3.203l3-8.172h2.375L7.953.234c-.574 1.54-1.016 2.602-1.328 3.188-.43.781-.918 1.351-1.469 1.719-.543.363-1.187.546-1.937.546-.461 0-.977-.093-1.547-.28zm0 0"/></symbol><symbol overflow="visible" id="v"><path d="M2.453 0v-2.703h2.719V0zm0 0"/></symbol><symbol overflow="visible" id="w"><path d="M1.781 5.375v-19.406h2.172v1.828c.508-.719 1.082-1.254 1.719-1.61.644-.351 1.426-.53 2.344-.53 1.195 0 2.254.308 3.171.921.915.617 1.61 1.485 2.079 2.61.468 1.124.703 2.355.703 3.687 0 1.438-.262 2.734-.781 3.89-.512 1.15-1.262 2.028-2.25 2.641-.981.602-2.012.906-3.094.906-.793 0-1.508-.167-2.14-.5a4.847 4.847 0 0 1-1.548-1.265v6.828zM3.938-6.938c0 1.805.363 3.137 1.093 4 .727.868 1.614 1.297 2.657 1.297 1.062 0 1.968-.445 2.718-1.343.75-.895 1.125-2.282 1.125-4.157 0-1.78-.37-3.113-1.11-4-.73-.894-1.605-1.343-2.624-1.343-1.012 0-1.906.476-2.688 1.421-.78.95-1.171 2.325-1.171 4.126zm0 0"/></symbol></defs><path d="M0 0h325.203v648H0zm0 0" fill="#fff"/><path d="M4.563 4.559H320.64v67.68H4.562zm0 0" fill="#ffca00"/><use xlink:href="#a" x="264.6" y="121.08" width="100%" height="100%" transform="translate(-143.398 -72)"/><use xlink:href="#b" x="287.148" y="121.08" width="100%" height="100%" transform="translate(-143.398 -72)"/><use xlink:href="#c" x="302.203" y="121.08" width="100%" height="100%" transform="translate(-143.398 -72)"/><use xlink:href="#d" x="315.737" y="121.08" width="100%" height="100%" transform="translate(-143.398 -72)"/><use xlink:href="#e" x="323.257" y="121.08" width="100%" height="100%" transform="translate(-143.398 -72)"/><use xlink:href="#f" x="338.312" y="121.08" width="100%" height="100%" transform="translate(-143.398 -72)"/><path d="M4.563 3.36h317.16v69.96H3.48V3.36zm0 2.28V4.56H5.64v67.68H4.563V71.16H320.64v1.078h-1.079V4.558h1.079v1.083zm0 0"/><path d="M4.563 117.36H320.64v67.8H4.562zm0 0" fill="#ffca00"/><use xlink:href="#c" x="237.48" y="233.88" width="100%" height="100%" transform="translate(-143.398 -72)"/><use xlink:href="#c" x="251.014" y="233.88" width="100%" height="100%" transform="translate(-143.398 -72)"/><use xlink:href="#g" x="264.549" y="233.88" width="100%" height="100%" transform="translate(-143.398 -72)"/><use xlink:href="#h" x="279.603" y="233.88" width="100%" height="100%" transform="translate(-143.398 -72)"/><use xlink:href="#i" x="287.123" y="233.88" width="100%" height="100%" transform="translate(-143.398 -72)"/><use xlink:href="#b" x="302.178" y="233.88" width="100%" height="100%" transform="translate(-143.398 -72)"/><use xlink:href="#c" x="317.232" y="233.88" width="100%" height="100%" transform="translate(-143.398 -72)"/><use xlink:href="#d" x="331.037" y="233.88" width="100%" height="100%" transform="translate(-143.398 -72)"/><use xlink:href="#j" x="338.558" y="233.88" width="100%" height="100%" transform="translate(-143.398 -72)"/><use xlink:href="#k" x="344.571" y="233.88" width="100%" height="100%" transform="translate(-143.398 -72)"/><use xlink:href="#l" x="359.459" y="233.88" width="100%" height="100%" transform="translate(-143.398 -72)"/><path d="M4.563 116.281h317.16v69.957H3.48v-69.957zm0 2.278v-1.2H5.64v67.801H4.563v-1.2H320.64v1.2h-1.079v-67.8h1.079v1.199zm0 0"/><path d="M4.563 349.922H320.64v67.797H4.562zm0 0" fill="#ffca00"/><use xlink:href="#c" x="249.48" y="466.44" width="100%" height="100%" transform="translate(-143.398 -72)"/><use xlink:href="#m" x="263.014" y="466.44" width="100%" height="100%" transform="translate(-143.398 -72)"/><use xlink:href="#n" x="278.069" y="466.44" width="100%" height="100%" transform="translate(-143.398 -72)"/><use xlink:href="#k" x="293.123" y="466.44" width="100%" height="100%" transform="translate(-143.398 -72)"/><use xlink:href="#h" x="308.177" y="466.44" width="100%" height="100%" transform="translate(-143.398 -72)"/><use xlink:href="#f" x="315.698" y="466.44" width="100%" height="100%" transform="translate(-143.398 -72)"/><use xlink:href="#k" x="324.901" y="466.44" width="100%" height="100%" transform="translate(-143.398 -72)"/><use xlink:href="#k" x="339.955" y="466.44" width="100%" height="100%" transform="translate(-143.398 -72)"/><use xlink:href="#d" x="355.01" y="466.44" width="100%" height="100%" transform="translate(-143.398 -72)"/><path d="M4.563 348.84h317.16v69.96H3.48v-69.96zm0 2.281v-1.2H5.64v67.798H4.563v-1.2H320.64v1.2h-1.079v-67.797h1.079v1.2zm0 0"/><path d="M4.563 462.84H320.64v67.8H4.562zm0 0" fill="#ffca00"/><use xlink:href="#n" x="219.36" y="579.36" width="100%" height="100%" transform="translate(-143.398 -72)"/><use xlink:href="#k" x="234.414" y="579.36" width="100%" height="100%" transform="translate(-143.398 -72)"/><use xlink:href="#o" x="249.469" y="579.36" width="100%" height="100%" transform="translate(-143.398 -72)"/><use xlink:href="#p" x="263.003" y="579.36" width="100%" height="100%" transform="translate(-143.398 -72)"/><use xlink:href="#e" x="276.537" y="579.36" width="100%" height="100%" transform="translate(-143.398 -72)"/><use xlink:href="#f" x="291.591" y="579.36" width="100%" height="100%" transform="translate(-143.398 -72)"/><use xlink:href="#h" x="300.795" y="579.36" width="100%" height="100%" transform="translate(-143.398 -72)"/><use xlink:href="#i" x="308.315" y="579.36" width="100%" height="100%" transform="translate(-143.398 -72)"/><use xlink:href="#j" x="323.37" y="579.36" width="100%" height="100%" transform="translate(-143.398 -72)"/><use xlink:href="#q" x="329.383" y="579.36" width="100%" height="100%" transform="translate(-143.398 -72)"/><use xlink:href="#q" x="335.397" y="579.36" width="100%" height="100%" transform="translate(-143.398 -72)"/><use xlink:href="#j" x="341.411" y="579.36" width="100%" height="100%" transform="translate(-143.398 -72)"/><use xlink:href="#l" x="347.425" y="579.36" width="100%" height="100%" transform="translate(-143.398 -72)"/><use xlink:href="#r" x="362.312" y="579.36" width="100%" height="100%" transform="translate(-143.398 -72)"/><use xlink:href="#s" x="377.367" y="579.36" width="100%" height="100%" transform="translate(-143.398 -72)"/><path d="M4.563 461.762h317.16v69.957H3.48v-69.957zm0 2.277v-1.2H5.64v67.802H4.563v-1.2H320.64v1.2h-1.079V462.84h1.079v1.2zm0 0"/><path d="M4.563 575.762H320.64v67.68H4.562zm0 0" fill="#97ca00"/><use xlink:href="#f" x="185.52" y="692.28" width="100%" height="100%" transform="translate(-143.398 -72)"/><use xlink:href="#m" x="194.534" y="692.28" width="100%" height="100%" transform="translate(-143.398 -72)"/><use xlink:href="#l" x="209.588" y="692.28" width="100%" height="100%" transform="translate(-143.398 -72)"/><use xlink:href="#t" x="224.643" y="692.28" width="100%" height="100%" transform="translate(-143.398 -72)"/><use xlink:href="#l" x="233.657" y="692.28" width="100%" height="100%" transform="translate(-143.398 -72)"/><use xlink:href="#j" x="248.711" y="692.28" width="100%" height="100%" transform="translate(-143.398 -72)"/><use xlink:href="#r" x="254.725" y="692.28" width="100%" height="100%" transform="translate(-143.398 -72)"/><use xlink:href="#g" x="269.779" y="692.28" width="100%" height="100%" transform="translate(-143.398 -72)"/><use xlink:href="#d" x="284.833" y="692.28" width="100%" height="100%" transform="translate(-143.398 -72)"/><use xlink:href="#q" x="292.354" y="692.28" width="100%" height="100%" transform="translate(-143.398 -72)"/><use xlink:href="#u" x="298.58" y="692.28" width="100%" height="100%" transform="translate(-143.398 -72)"/><use xlink:href="#t" x="312.114" y="692.28" width="100%" height="100%" transform="translate(-143.398 -72)"/><use xlink:href="#i" x="321.128" y="692.28" width="100%" height="100%" transform="translate(-143.398 -72)"/><use xlink:href="#j" x="336.016" y="692.28" width="100%" height="100%" transform="translate(-143.398 -72)"/><use xlink:href="#q" x="342.242" y="692.28" width="100%" height="100%" transform="translate(-143.398 -72)"/><use xlink:href="#q" x="348.255" y="692.28" width="100%" height="100%" transform="translate(-143.398 -72)"/><use xlink:href="#j" x="354.269" y="692.28" width="100%" height="100%" transform="translate(-143.398 -72)"/><use xlink:href="#l" x="360.283" y="692.28" width="100%" height="100%" transform="translate(-143.398 -72)"/><use xlink:href="#r" x="375.171" y="692.28" width="100%" height="100%" transform="translate(-143.398 -72)"/><use xlink:href="#v" x="390.225" y="692.28" width="100%" height="100%" transform="translate(-143.398 -72)"/><use xlink:href="#w" x="397.745" y="692.28" width="100%" height="100%" transform="translate(-143.398 -72)"/><use xlink:href="#u" x="412.8" y="692.28" width="100%" height="100%" transform="translate(-143.398 -72)"/><path d="M4.563 574.68h317.16v69.96H3.48v-69.96zm0 2.16v-1.078H5.64v67.68H4.563v-1.083H320.64v1.082h-1.079v-67.68h1.079v1.079zm0 0"/><path d="M4.563 233.64H320.64v67.801H4.562zm0 0" fill="#ffca00"/><use xlink:href="#c" x="228.48" y="350.16" width="100%" height="100%" transform="translate(-143.398 -72)"/><use xlink:href="#c" x="242.014" y="350.16" width="100%" height="100%" transform="translate(-143.398 -72)"/><use xlink:href="#g" x="255.549" y="350.16" width="100%" height="100%" transform="translate(-143.398 -72)"/><use xlink:href="#h" x="270.603" y="350.16" width="100%" height="100%" transform="translate(-143.398 -72)"/><use xlink:href="#n" x="278.123" y="350.16" width="100%" height="100%" transform="translate(-143.398 -72)"/><use xlink:href="#k" x="293.178" y="350.16" width="100%" height="100%" transform="translate(-143.398 -72)"/><use xlink:href="#o" x="308.232" y="350.16" width="100%" height="100%" transform="translate(-143.398 -72)"/><use xlink:href="#p" x="322.037" y="350.16" width="100%" height="100%" transform="translate(-143.398 -72)"/><use xlink:href="#e" x="335.571" y="350.16" width="100%" height="100%" transform="translate(-143.398 -72)"/><use xlink:href="#f" x="350.459" y="350.16" width="100%" height="100%" transform="translate(-143.398 -72)"/><use xlink:href="#t" x="359.662" y="350.16" width="100%" height="100%" transform="translate(-143.398 -72)"/><use xlink:href="#b" x="368.676" y="350.16" width="100%" height="100%" transform="translate(-143.398 -72)"/><path d="M4.563 232.559h317.16v69.96H3.48v-69.96zm0 2.28v-1.198H5.64v67.8H4.563v-1.203H320.64v1.203h-1.079v-67.8h1.079v1.199zm0 0M163.68 72.238V99.36h-2.157V72.24zm0 0"/><path d="M162.602 117.36l11.28-27-11.28 6.718-11.282-6.719zm0 0M163.68 417.719v27.12h-2.157v-27.12zm0 0"/><path d="M162.602 462.84l11.28-27.121-11.28 6.84-11.282-6.84zm0 0M163.68 530.64v27h-2.157v-27zm0 0"/><path d="M162.602 575.762l11.28-27.121-11.28 6.84-11.282-6.84zm0 0M163.68 185.16v30.48h-2.157v-30.48zm0 0"/><path d="M162.602 233.64l11.28-27-11.28 6.72-11.282-6.72zm0 0M163.68 301.441v30.48h-2.157v-30.48zm0 0"/><path d="M162.602 349.922l11.28-27-11.28 6.719-11.282-6.72zm0 0"/></svg>