<svg xmlns="http://www.w3.org/2000/svg" xmlns:xlink="http://www.w3.org/1999/xlink" width="624" height="288.635" viewBox="0 0 468 216.477"><defs><symbol overflow="visible" id="a"><path d="M.5 0v-3.906h.594v.547c.125-.196.285-.352.484-.47C1.785-3.94 2.02-4 2.281-4c.29 0 .524.063.703.188.188.117.32.28.407.5C3.69-3.77 4.094-4 4.594-4c.383 0 .68.11.89.328.207.211.313.54.313.985V0H5.14v-2.469c0-.258-.024-.445-.063-.562a.493.493 0 0 0-.234-.281.77.77 0 0 0-.407-.11c-.273 0-.5.094-.687.281-.18.18-.266.465-.266.86V0h-.656v-2.547c0-.289-.058-.508-.172-.656-.105-.145-.281-.219-.531-.219a.93.93 0 0 0-.516.156.808.808 0 0 0-.343.422c-.075.188-.11.461-.11.813V0zm0 0"/></symbol><symbol overflow="visible" id="b"><path d="M3.047-.484c-.242.21-.477.359-.703.453a2.18 2.18 0 0 1-.735.125c-.43 0-.761-.102-1-.313a1.072 1.072 0 0 1-.343-.812c0-.188.039-.36.125-.516a1.16 1.16 0 0 1 .343-.39c.145-.094.305-.165.485-.22.133-.03.332-.062.593-.093.532-.063.926-.14 1.188-.234v-.172c0-.27-.063-.461-.188-.578-.167-.145-.417-.22-.75-.22-.312 0-.546.06-.703.173-.148.105-.257.297-.328.578l-.64-.094c.05-.281.144-.504.28-.672.134-.164.329-.297.579-.39A2.66 2.66 0 0 1 2.156-4c.332 0 .602.043.813.125.207.074.36.172.453.297.101.117.176.262.219.437.02.118.03.32.03.61v.89c0 .618.009 1.008.032 1.172.031.168.086.324.172.469h-.688a1.26 1.26 0 0 1-.14-.484zM3-1.97c-.242.106-.605.188-1.094.25-.273.043-.465.09-.578.14a.648.648 0 0 0-.25.22.554.554 0 0 0-.094.312c0 .18.063.324.188.438.133.117.332.171.594.171.257 0 .488-.05.687-.156.195-.113.344-.27.438-.469.07-.144.109-.363.109-.656zm0 0"/></symbol><symbol overflow="visible" id="c"><path d="M.234-1.172l.657-.094c.03.262.129.465.296.61.176.136.415.203.72.203.3 0 .523-.063.671-.188a.564.564 0 0 0 .219-.437.433.433 0 0 0-.188-.36c-.093-.05-.324-.125-.687-.218-.48-.125-.813-.227-1-.313a1.089 1.089 0 0 1-.438-.375 1.06 1.06 0 0 1-.14-.531c0-.176.035-.336.11-.484a1.25 1.25 0 0 1 .327-.375c.102-.07.242-.133.422-.188.188-.05.379-.078.578-.078.313 0 .582.047.813.14.226.087.394.204.5.36.113.148.191.344.234.594l-.64.094a.678.678 0 0 0-.266-.47c-.137-.113-.336-.171-.594-.171-.305 0-.523.055-.656.156a.421.421 0 0 0-.188.344c0 .086.024.164.079.234a.47.47 0 0 0 .25.172c.07.031.269.09.593.172.469.125.797.23.985.313a.917.917 0 0 1 .437.343c.102.157.156.344.156.563 0 .23-.07.445-.203.64-.125.188-.312.34-.562.454a2.078 2.078 0 0 1-.813.156c-.511 0-.902-.102-1.172-.313-.261-.218-.43-.535-.5-.953zm0 0"/></symbol><symbol overflow="visible" id="d"><path d="M1.953-.594L2.047 0a3.092 3.092 0 0 1-.5.047c-.25 0-.445-.04-.578-.11a.593.593 0 0 1-.266-.296C.648-.484.625-.742.625-1.141v-2.25h-.5v-.515h.5v-.969l.656-.406v1.375h.672v.515h-.672v2.282c0 .187.008.312.032.375.019.054.054.093.109.125.05.03.129.046.234.046.07 0 .172-.007.297-.03zm0 0"/></symbol><symbol overflow="visible" id="e"><path d="M3.172-1.266l.687.094c-.105.399-.304.711-.593.938-.293.218-.668.328-1.125.328-.575 0-1.028-.176-1.36-.531-.336-.352-.5-.848-.5-1.485 0-.656.164-1.164.5-1.531C1.125-3.816 1.566-4 2.11-4c.52 0 .946.18 1.282.531.332.356.5.856.5 1.5 0 .043-.008.106-.016.188H.969c.02.43.14.758.36.984.218.23.487.344.812.344.25 0 .457-.063.625-.188.175-.132.312-.343.406-.625zM1-2.328h2.188c-.032-.332-.118-.582-.25-.75a1.055 1.055 0 0 0-.829-.375 1.04 1.04 0 0 0-.765.312c-.211.2-.324.47-.344.813zm0 0"/></symbol><symbol overflow="visible" id="f"><path d="M.484 0v-3.906h.61v.594c.144-.282.281-.461.406-.547A.748.748 0 0 1 1.938-4c.218 0 .44.074.671.219l-.218.61a.99.99 0 0 0-.485-.142.648.648 0 0 0-.39.126.692.692 0 0 0-.25.359c-.075.242-.11.5-.11.781V0zm0 0"/></symbol><symbol overflow="visible" id="g"><path d="M1.11 0H.5v-5.406h.656v1.937C1.438-3.82 1.796-4 2.234-4c.239 0 .461.055.672.156.219.094.395.23.531.406.145.168.254.376.329.626.082.25.125.515.125.796 0 .668-.168 1.188-.5 1.563-.336.367-.73.547-1.188.547-.469 0-.836-.192-1.094-.578zm0-1.984c0 .468.062.808.187 1.015.207.344.488.516.844.516.289 0 .539-.125.75-.375.207-.258.312-.633.312-1.125 0-.52-.101-.899-.297-1.14a.926.926 0 0 0-.734-.36c-.293 0-.543.125-.75.375-.211.25-.313.617-.313 1.094zm0 0"/></symbol><symbol overflow="visible" id="h"><path d="M.5-4.64v-.766h.672v.765zM.5 0v-3.906h.672V0zm0 0"/></symbol><symbol overflow="visible" id="i"><path d="M.25-1.953c0-.727.203-1.266.61-1.61C1.19-3.852 1.597-4 2.077-4c.54 0 .985.18 1.328.531.344.356.516.84.516 1.453 0 .512-.078.914-.235 1.204a1.645 1.645 0 0 1-.656.671 1.99 1.99 0 0 1-.953.235c-.543 0-.984-.176-1.328-.531-.336-.352-.5-.86-.5-1.516zm.688 0c0 .5.109.875.328 1.125.218.25.488.375.812.375.332 0 .61-.125.828-.375.219-.25.328-.633.328-1.156 0-.477-.109-.844-.328-1.094a1.055 1.055 0 0 0-.828-.375c-.324 0-.594.125-.812.375-.22.25-.329.625-.329 1.125zm0 0"/></symbol><symbol overflow="visible" id="j"><path d="M.5 0v-3.906h.594v.547C1.383-3.785 1.8-4 2.344-4c.226 0 .441.043.64.125.196.086.344.2.438.344.101.136.176.297.219.484.02.125.03.34.03.64V0h-.655v-2.375c0-.27-.028-.473-.079-.61a.624.624 0 0 0-.28-.312.811.811 0 0 0-.454-.125c-.281 0-.527.09-.734.266-.211.18-.313.515-.313 1.015V0zm0 0"/></symbol><symbol overflow="visible" id="s"><path d="M3.031 0v-.5c-.242.398-.605.594-1.094.594-.312 0-.601-.086-.859-.25a1.743 1.743 0 0 1-.61-.735 2.617 2.617 0 0 1-.202-1.062c0-.383.062-.738.187-1.063.133-.32.332-.566.594-.734.258-.164.547-.25.86-.25.238 0 .445.055.624.156.188.094.344.219.469.375v-1.937h.656V0zM.937-1.953c0 .5.102.875.313 1.125.219.25.469.375.75.375.29 0 .535-.117.734-.36.207-.238.313-.597.313-1.078 0-.539-.106-.937-.313-1.187-.21-.25-.464-.375-.765-.375a.915.915 0 0 0-.735.36c-.199.241-.296.62-.296 1.14zm0 0"/></symbol><symbol overflow="visible" id="t"><path d="M3.047-1.438l.656.094c-.074.45-.258.805-.547 1.063-.293.25-.652.375-1.078.375-.543 0-.976-.176-1.297-.531C.457-.79.297-1.29.297-1.938c0-.426.066-.797.203-1.11.145-.32.36-.562.64-.719A1.94 1.94 0 0 1 2.079-4c.426 0 .774.11 1.047.328.27.211.441.512.516.906L3-2.672c-.063-.258-.172-.453-.328-.578a.843.843 0 0 0-.563-.203c-.336 0-.609.121-.828.36-.21.241-.312.62-.312 1.14 0 .523.097.902.297 1.14.207.243.472.36.796.36a.965.965 0 0 0 .657-.234c.176-.165.285-.415.328-.75zm0 0"/></symbol><symbol overflow="visible" id="u"><path d="M2.813 0H2.14v-4.234a3.33 3.33 0 0 1-.625.468 6.587 6.587 0 0 1-.688.344v-.64c.363-.176.688-.391.969-.641s.476-.488.594-.719h.421zm0 0"/></symbol><symbol overflow="visible" id="v"><path d="M.5 0v-5.406h.672v3.078l1.562-1.578h.86l-1.5 1.437L3.75 0h-.828L1.625-2l-.453.453V0zm0 0"/></symbol><symbol overflow="visible" id="w"><path d="M3.797-.64V0H.234a.96.96 0 0 1 .078-.453c.083-.25.223-.488.422-.719.207-.238.5-.516.875-.828.582-.477.977-.86 1.188-1.14.207-.282.312-.547.312-.797a.875.875 0 0 0-.28-.657c-.188-.187-.434-.281-.735-.281-.324 0-.578.102-.766.297-.187.187-.289.45-.297.781L.36-3.859c.04-.508.211-.895.516-1.157.313-.27.723-.406 1.234-.406.52 0 .93.149 1.235.438.3.28.453.636.453 1.062 0 .219-.047.434-.14.64-.087.212-.231.43-.438.657-.211.23-.547.547-1.016.953-.406.336-.668.563-.781.688-.106.117-.195.23-.266.343zm0 0"/></symbol><symbol overflow="visible" id="x"><path d="M3.063 0v-.578c-.305.45-.715.672-1.235.672a1.68 1.68 0 0 1-.656-.125 1.169 1.169 0 0 1-.453-.344 1.293 1.293 0 0 1-.203-.5 3.815 3.815 0 0 1-.032-.61v-2.421h.657v2.156c0 .355.015.59.046.703.04.18.13.32.266.422.133.094.3.14.5.14a1.2 1.2 0 0 0 .563-.14.855.855 0 0 0 .375-.422c.07-.176.109-.43.109-.766v-2.093h.656V0zm0 0"/></symbol><symbol overflow="visible" id="y"><path d="M.688-3.156v-.75h.75v.75zM.688 0v-.75h.75V0zm0 0"/></symbol><symbol overflow="visible" id="z"><path d="M1.219 0L.016-3.906h.687l.86 3.094c.007-.04.078-.313.203-.813l.625-2.281h.671l.594 2.265.188.75.234-.765.672-2.25h.64L4.173 0h-.688L2.86-2.344l-.156-.672L1.906 0zm0 0"/></symbol><symbol overflow="visible" id="A"><path d="M.5 1.5v-5.406h.61v.5c.132-.196.288-.344.468-.438.188-.101.406-.156.656-.156.332 0 .625.09.875.266.258.168.454.406.579.718.132.313.203.657.203 1.032 0 .398-.075.757-.22 1.078a1.58 1.58 0 0 1-.624.75c-.274.164-.559.25-.86.25-.218 0-.417-.047-.593-.14a1.281 1.281 0 0 1-.438-.36V1.5zm.594-3.438c0 .512.097.887.297 1.125a.95.95 0 0 0 .75.36c.3 0 .554-.125.765-.375.207-.25.313-.633.313-1.156 0-.5-.106-.875-.313-1.125-.199-.25-.445-.375-.734-.375-.281 0-.531.136-.75.406-.219.262-.328.64-.328 1.14zm0 0"/></symbol><symbol overflow="visible" id="k"><path d="M.422-2.156l.828-.063c.04.336.133.61.281.828.145.211.367.383.672.516.3.125.645.188 1.031.188.332 0 .63-.047.891-.141.258-.102.453-.238.578-.406a.973.973 0 0 0 .188-.579.852.852 0 0 0-.188-.546c-.117-.157-.312-.29-.594-.407-.18-.062-.574-.164-1.187-.312-.617-.156-1.047-.297-1.297-.422-.324-.164-.563-.375-.719-.625a1.525 1.525 0 0 1-.234-.828c0-.344.094-.66.281-.953.195-.29.477-.508.844-.657a3.174 3.174 0 0 1 1.234-.234c.489 0 .922.078 1.297.234.383.157.676.391.875.704.207.312.32.668.344 1.062l-.86.063c-.042-.426-.195-.743-.453-.954-.261-.218-.652-.328-1.171-.328-.532 0-.922.102-1.172.297-.243.188-.36.422-.36.703a.77.77 0 0 0 .25.594c.176.156.625.32 1.344.484.719.157 1.21.297 1.484.422.383.18.672.407.86.688.187.273.281.586.281.937 0 .356-.105.696-.313 1.016-.21.313-.507.559-.89.734-.375.164-.805.25-1.281.25-.606 0-1.11-.09-1.516-.265a2.182 2.182 0 0 1-.969-.797 2.223 2.223 0 0 1-.36-1.203zm0 0"/></symbol><symbol overflow="visible" id="l"><path d="M3.797 0v-.719C3.41-.164 2.895.11 2.25.11a2.1 2.1 0 0 1-.797-.156C1.203-.16 1.016-.3.891-.469a1.6 1.6 0 0 1-.25-.61c-.032-.155-.047-.41-.047-.765v-3h.828v2.688c0 .43.016.715.047.86.05.218.16.39.328.515.164.125.375.187.625.187.238 0 .469-.062.687-.187.22-.125.368-.297.454-.516.093-.219.14-.535.14-.953v-2.594h.828V0zm0 0"/></symbol><symbol overflow="visible" id="m"><path d="M1.375 0H.609v-6.688h.829v2.391c.343-.437.785-.656 1.328-.656.289 0 .566.062.828.187.27.118.488.282.656.5.176.22.313.485.406.797.102.305.157.625.157.969 0 .836-.211 1.48-.625 1.938-.407.449-.899.671-1.47.671-.573 0-1.023-.238-1.343-.718zm-.016-2.453c0 .574.079.992.235 1.25.258.43.613.64 1.062.64.352 0 .66-.156.922-.468.258-.313.39-.774.39-1.39 0-.634-.124-1.102-.374-1.407-.25-.3-.555-.453-.906-.453-.356 0-.668.156-.938.468-.262.313-.39.766-.39 1.36zm0 0"/></symbol><symbol overflow="visible" id="n"><path d="M2.406-.734l.125.718c-.23.051-.437.079-.625.079-.304 0-.539-.047-.703-.141A.837.837 0 0 1 .86-.453C.797-.61.766-.93.766-1.422v-2.781H.172v-.64h.594v-1.204l.812-.484v1.687h.828v.64h-.828v2.829c0 .242.016.39.047.453a.386.386 0 0 0 .14.156.5.5 0 0 0 .282.063c.094 0 .21-.008.36-.031zm0 0"/></symbol><symbol overflow="visible" id="o"><path d="M.61 0v-4.844h.734v.735c.187-.344.36-.567.515-.672a.925.925 0 0 1 .532-.172c.28 0 .562.09.843.266l-.28.765a1.115 1.115 0 0 0-.595-.187.792.792 0 0 0-.5.171.886.886 0 0 0-.296.438c-.094.293-.141.617-.141.969V0zm0 0"/></symbol><symbol overflow="visible" id="p"><path d="M3.938-1.563l.843.11c-.136.492-.386.875-.75 1.156-.355.274-.812.406-1.375.406-.71 0-1.273-.218-1.687-.656C.55-.984.344-1.594.344-2.375c0-.82.207-1.457.625-1.906.414-.446.96-.672 1.64-.672.645 0 1.172.226 1.579.672.414.437.625 1.054.625 1.843 0 .055-.008.126-.016.22h-3.61c.032.53.18.945.454 1.234.27.28.609.421 1.015.421.301 0 .555-.078.766-.234.219-.164.39-.422.515-.765zM1.233-2.89h2.704c-.032-.406-.137-.71-.313-.921a1.265 1.265 0 0 0-1.016-.47c-.375 0-.695.134-.953.391-.25.25-.39.586-.422 1zm0 0"/></symbol><symbol overflow="visible" id="r"><path d="M3.484 0h-.828v-5.234c-.199.187-.46.375-.781.562a5.073 5.073 0 0 1-.86.422v-.781a5.15 5.15 0 0 0 1.204-.782c.344-.312.586-.613.734-.906h.531zm0 0"/></symbol><symbol overflow="visible" id="B"><path d="M4.703-.797V0H.281a1.7 1.7 0 0 1 .094-.563c.113-.3.297-.597.547-.89.25-.29.61-.629 1.078-1.016.719-.594 1.203-1.062 1.453-1.406.258-.352.39-.688.39-1 0-.32-.116-.594-.343-.813-.23-.226-.531-.343-.906-.343-.399 0-.715.12-.953.36-.243.23-.36.558-.36.984l-.843-.094c.062-.625.28-1.102.656-1.438.375-.332.879-.5 1.515-.5.645 0 1.149.184 1.516.547.375.356.563.793.563 1.313 0 .273-.06.539-.172.796a3.15 3.15 0 0 1-.532.813c-.25.281-.671.672-1.265 1.172a19.6 19.6 0 0 0-.953.844 3.29 3.29 0 0 0-.344.437zm0 0"/></symbol></defs><path d="M0 0h468v216.477H0zm0 0" fill="#fff"/><path d="M226.922 1.2h44.52v18.84h-44.52zm0 0" fill="#bfbfbf"/><use xlink:href="#a" x="309.72" y="301.32" width="100%" height="100%" transform="translate(-72 -287.762)"/><use xlink:href="#b" x="316.006" y="301.32" width="100%" height="100%" transform="translate(-72 -287.762)"/><use xlink:href="#c" x="320.156" y="301.32" width="100%" height="100%" transform="translate(-72 -287.762)"/><use xlink:href="#d" x="323.853" y="301.32" width="100%" height="100%" transform="translate(-72 -287.762)"/><use xlink:href="#e" x="326.041" y="301.32" width="100%" height="100%" transform="translate(-72 -287.762)"/><use xlink:href="#f" x="330.116" y="301.32" width="100%" height="100%" transform="translate(-72 -287.762)"/><path d="M226.922.957h44.758v19.32h-45V.957zm0 .602v-.36h.36v18.84h-.36v-.36h44.52v.36h-.364V1.2h.363v.36zm0 0"/><path d="M226.922 32.52h44.52v18.84h-44.52zm0 0" fill="#bfbfbf"/><use xlink:href="#g" x="309.12" y="332.64" width="100%" height="100%" transform="translate(-72 -287.762)"/><use xlink:href="#b" x="313.317" y="332.64" width="100%" height="100%" transform="translate(-72 -287.762)"/><use xlink:href="#c" x="317.513" y="332.64" width="100%" height="100%" transform="translate(-72 -287.762)"/><use xlink:href="#d" x="321.361" y="332.64" width="100%" height="100%" transform="translate(-72 -287.762)"/><use xlink:href="#h" x="323.458" y="332.64" width="100%" height="100%" transform="translate(-72 -287.762)"/><use xlink:href="#i" x="325.193" y="332.64" width="100%" height="100%" transform="translate(-72 -287.762)"/><use xlink:href="#j" x="329.343" y="332.64" width="100%" height="100%" transform="translate(-72 -287.762)"/><path d="M226.922 32.277h44.758v19.32h-45v-19.32zm0 .602v-.36h.36v18.84h-.36V51h44.52v.36h-.364V32.52h.363v.359zm0 0M249.48 20.04v7.437h-.601v-7.438zm0 0"/><path d="M249.121 32.52l3.238-7.442-3.238 1.8-3.121-1.8zm0 0"/><path d="M1.441 72.117V212.52c0 1.32 1.2 2.52 2.52 2.52H239.52c1.44 0 2.52-1.2 2.52-2.52V72.117c0-1.32-1.08-2.52-2.52-2.52H3.96c-1.32 0-2.519 1.2-2.519 2.52zm0 0" fill="#f5f5f5"/><path d="M1.441 69.598H242.04v14.039H1.441zm0 0" fill="#ebebeb"/><use xlink:href="#k" x="272.04" y="368.04" width="100%" height="100%" transform="translate(-72 -287.762)"/><use xlink:href="#l" x="278.271" y="368.04" width="100%" height="100%" transform="translate(-72 -287.762)"/><use xlink:href="#m" x="283.41" y="368.04" width="100%" height="100%" transform="translate(-72 -287.762)"/><use xlink:href="#n" x="288.548" y="368.04" width="100%" height="100%" transform="translate(-72 -287.762)"/><use xlink:href="#o" x="291.257" y="368.04" width="100%" height="100%" transform="translate(-72 -287.762)"/><use xlink:href="#p" x="294.368" y="368.04" width="100%" height="100%" transform="translate(-72 -287.762)"/><use xlink:href="#p" x="299.506" y="368.04" width="100%" height="100%" transform="translate(-72 -287.762)"/><use xlink:href="#q" x="304.645" y="368.04" width="100%" height="100%" transform="translate(-72 -287.762)"/><use xlink:href="#r" x="307.24" y="368.04" width="100%" height="100%" transform="translate(-72 -287.762)"/><path d="M1.8 77.16v3.719h-.6V77.16zm0 5.04v3.718h-.6v-3.719zm0 4.917v3.84h-.6v-3.84zm0 5.043v3.719h-.6V92.16zm0 5.04v3.718h-.6v-3.719zm0 4.917v3.84h-.6v-3.84zm0 5.043v3.719h-.6v-3.719zm0 5.04v3.718h-.6v-3.719zm0 5.038v3.719h-.6v-3.719zm0 4.922v3.719h-.6v-3.719zm0 5.04v3.718h-.6v-3.719zm0 5.038v3.719h-.6v-3.719zm0 4.922V141h-.6v-3.84zm0 5.04v3.718h-.6v-3.719zm0 5.038v3.719h-.6v-3.719zm0 4.922V156h-.6v-3.84zm0 5.04v3.718h-.6v-3.719zm0 5.038v3.719h-.6v-3.719zm0 5.04V171h-.6v-3.723zm0 4.921v3.84h-.6v-3.84zm0 5.04v3.718h-.6v-3.719zm0 5.038V186h-.6v-3.723zm0 4.922v3.84h-.6v-3.84zm0 5.04v3.718h-.6v-3.719zm0 5.038V201h-.6v-3.723zm0 5.04v3.722h-.6v-3.723zm0 4.921v3.84h-.6v-3.84zm0 5.04v.242h-.359.36c0 1.078.719 2.039 1.8 2.16l-.12.597c-1.32-.238-2.282-1.32-2.282-2.757v-.243zm3 2.402h3.72v.597H4.8zm5.04 0h3.719v.597h-3.72zm4.922 0h3.84v.597h-3.84zm5.039 0h3.719v.597H19.8zm5.039 0h3.719v.597h-3.72zm5.039 0h3.723v.597h-3.723zm4.922 0h3.84v.597H34.8zm5.039 0h3.719v.597h-3.72zm5.039 0h3.723v.597h-3.723zm4.922 0h3.84v.597H49.8zm5.039 0h3.719v.597h-3.72zm5.039 0h3.723v.597h-3.723zm5.043 0h3.719v.597h-3.72zm4.918 0h3.84v.597h-3.84zm5.039 0h3.723v.597h-3.723zm5.043 0h3.719v.597h-3.72zm4.918 0h3.84v.597h-3.84zm5.039 0h3.723v.597h-3.723zm5.043 0h3.719v.597h-3.72zm5.039 0h3.719v.597h-3.72zm4.918 0h3.84v.597h-3.84zm5.043 0h3.719v.597h-3.72zm5.039 0h3.719v.597h-3.72zm4.918 0h3.84v.597h-3.84zm5.043 0h3.719v.597h-3.72zm5.039 0h3.719v.597h-3.72zm5.039 0h3.719v.597H135zm4.922 0h3.84v.597h-3.84zm5.039 0h3.719v.597h-3.72zm5.039 0h3.719v.597H150zm4.922 0h3.84v.597h-3.84zm5.039 0h3.719v.597h-3.72zm5.039 0h3.719v.597H165zm5.04 0h3.722v.597h-3.723zm4.92 0h3.84v.597h-3.84zm5.04 0h3.719v.597H180zm5.04 0h3.722v.597h-3.723zm4.92 0h3.84v.597h-3.84zm5.04 0h3.719v.597H195zm5.04 0h3.722v.597h-3.723zm5.038 0h3.723v.597h-3.723zm4.922 0h3.84v.597H210zm5.04 0h3.722v.597h-3.723zm5.038 0h3.723v.597h-3.723zm4.922 0h3.84v.597H225zm5.04 0h3.722v.597h-3.723zm5.038 0h3.723v.597h-3.723zm4.922 0a2.2 2.2 0 0 0 1.68-2.16h.36-.36v-.36h.718v.36c0 1.32-.957 2.52-2.277 2.757zm1.68-3.723v-3.84h.718v3.84zm0-5.039v-3.719h.718v3.719zm0-5.04v-3.718h.718v3.719zm0-4.921v-3.84h.718v3.84zm0-5.039v-3.719h.718v3.719zm0-5.04v-3.718h.718v3.719zm0-5.038v-3.723h.718v3.723zm0-4.922v-3.84h.718v3.84zm0-5.04v-3.718h.718v3.719zm0-5.038v-3.723h.718v3.723zm0-4.922v-3.84h.718v3.84zm0-5.04v-3.718h.718v3.719zm0-5.038v-3.723h.718v3.723zm0-5.043v-3.719h.718v3.719zm0-4.918v-3.84h.718v3.84zm0-5.04v-3.722h.718v3.723zm0-5.042v-3.719h.718v3.719zm0-4.918v-3.84h.718v3.84zm0-5.04v-3.722h.718v3.723zm0-5.042v-3.719h.718v3.719zm0-5.04v-3.718h.718v3.719zm0-4.917V102h.718v3.84zm0-5.043v-3.719h.718v3.719zm0-5.04V92.04h.718v3.719zm0-4.917V87h.718v3.84zm0-5.043v-3.719h.718v3.719zm0-5.04V77.04h.718v3.719zm0-5.038v-3.602h.36-.36V72h.718v3.719zm-.239-4.68c-.363-.723-1.082-1.082-1.921-1.082v-.36.36h-1.2v-.598h1.2c1.082 0 1.921.48 2.402 1.32zm-4.32-1.082h-3.723v-.598h3.723zm-5.043 0h-3.719v-.598h3.72zm-5.039 0h-3.719v-.598h3.72zm-4.918 0h-3.84v-.598h3.84zm-5.043 0h-3.719v-.598h3.72zm-5.039 0h-3.719v-.598h3.72zm-4.918 0h-3.84v-.598h3.84zm-5.043 0h-3.719v-.598h3.72zm-5.039 0h-3.719v-.598h3.72zm-5.039 0h-3.719v-.598H192zm-4.922 0h-3.84v-.598h3.84zm-5.039 0h-3.719v-.598h3.72zm-5.039 0h-3.719v-.598H177zm-4.922 0h-3.84v-.598h3.84zm-5.039 0h-3.719v-.598h3.72zm-5.039 0h-3.719v-.598H162zm-5.04 0h-3.722v-.598h3.723zm-4.92 0h-3.84v-.598h3.84zm-5.04 0h-3.719v-.598H147zm-5.04 0h-3.722v-.598h3.723zm-4.92 0h-3.84v-.598h3.84zm-5.04 0h-3.719v-.598H132zm-5.04 0h-3.722v-.598h3.723zm-5.038 0h-3.723v-.598h3.723zm-4.922 0h-3.84v-.598H117zm-5.04 0h-3.722v-.598h3.723zm-5.038 0h-3.723v-.598h3.723zm-4.922 0h-3.84v-.598H102zm-5.04 0h-3.722v-.598h3.723zm-5.038 0h-3.723v-.598h3.723zm-5.043 0H83.16v-.598h3.719zm-4.918 0h-3.84v-.598h3.84zm-5.04 0H73.2v-.598h3.723zm-5.042 0H68.16v-.598h3.719zm-4.918 0h-3.84v-.598h3.84zm-5.04 0H58.2v-.598h3.723zm-5.042 0H53.16v-.598h3.719zm-5.04 0h-3.718v-.598h3.719zm-4.917 0h-3.723v-.598h3.723zm-5.043 0H38.16v-.598h3.719zm-5.04 0h-3.718v-.598h3.719zm-4.917 0h-3.844v-.598h3.844zm-5.043 0H23.16v-.598h3.719zm-5.04 0h-3.718v-.598h3.719zm-4.917 0h-3.844v-.598h3.844zm-5.043 0H8.16v-.598h3.719zm-5.04 0H3.962v-.36.36c-.242 0-.48 0-.723.121L3 69.477c.36-.118.602-.118.96-.118h2.88zm-4.558.723c-.242.36-.48.84-.48 1.437h-.36.36v3.723h-.602v-3.723c0-.719.242-1.32.602-1.8zm0 0"/><path d="M86.879 93h44.402v18.84H86.88zm0 0" fill="#ffff97"/><use xlink:href="#s" x="175.08" y="393.12" width="100%" height="100%" transform="translate(-72 -287.762)"/><use xlink:href="#t" x="179.277" y="393.12" width="100%" height="100%" transform="translate(-72 -287.762)"/><use xlink:href="#u" x="183.125" y="393.12" width="100%" height="100%" transform="translate(-72 -287.762)"/><path d="M86.879 92.758h44.762v19.32H86.52v-19.32zm0 .601V93h.36v18.84h-.36v-.363h44.402v.363h-.242V93h.242v.36zm0 0"/><path d="M36.238 124.316h44.403v18.723H36.238zm0 0" fill="#ffff97"/><use xlink:href="#f" x="119.16" y="424.44" width="100%" height="100%" transform="translate(-72 -287.762)"/><use xlink:href="#b" x="121.673" y="424.44" width="100%" height="100%" transform="translate(-72 -287.762)"/><use xlink:href="#t" x="125.869" y="424.44" width="100%" height="100%" transform="translate(-72 -287.762)"/><use xlink:href="#v" x="129.567" y="424.44" width="100%" height="100%" transform="translate(-72 -287.762)"/><use xlink:href="#u" x="133.34" y="424.44" width="100%" height="100%" transform="translate(-72 -287.762)"/><use xlink:href="#u" x="137.49" y="424.44" width="100%" height="100%" transform="translate(-72 -287.762)"/><path d="M36.238 123.957h44.64v19.441h-45v-19.441zm0 .602v-.243h.242v18.723h-.242v-.242h44.403v.242h-.36v-18.723h.36v.243zm0 0"/><path d="M137.52 124.316h44.402v18.723H137.52zm0 0" fill="#ffff97"/><use xlink:href="#f" x="220.44" y="424.44" width="100%" height="100%" transform="translate(-72 -287.762)"/><use xlink:href="#b" x="222.953" y="424.44" width="100%" height="100%" transform="translate(-72 -287.762)"/><use xlink:href="#t" x="227.149" y="424.44" width="100%" height="100%" transform="translate(-72 -287.762)"/><use xlink:href="#v" x="230.847" y="424.44" width="100%" height="100%" transform="translate(-72 -287.762)"/><use xlink:href="#u" x="234.62" y="424.44" width="100%" height="100%" transform="translate(-72 -287.762)"/><use xlink:href="#w" x="238.77" y="424.44" width="100%" height="100%" transform="translate(-72 -287.762)"/><path d="M137.52 123.957h44.761v19.441h-45v-19.441zm0 .602v-.243h.359v18.723h-.36v-.242h44.403v.242h-.242v-18.723h.242v.243zm0 0"/><path d="M61.559 155.637h44.402v18.722H61.559zm0 0" fill="#ffff97"/><use xlink:href="#j" x="141.12" y="455.64" width="100%" height="100%" transform="translate(-72 -287.762)"/><use xlink:href="#i" x="145.317" y="455.64" width="100%" height="100%" transform="translate(-72 -287.762)"/><use xlink:href="#s" x="149.513" y="455.64" width="100%" height="100%" transform="translate(-72 -287.762)"/><use xlink:href="#e" x="153.71" y="455.64" width="100%" height="100%" transform="translate(-72 -287.762)"/><use xlink:href="#u" x="157.86" y="455.64" width="100%" height="100%" transform="translate(-72 -287.762)"/><use xlink:href="#u" x="162.056" y="455.64" width="100%" height="100%" transform="translate(-72 -287.762)"/><use xlink:href="#b" x="166.253" y="455.64" width="100%" height="100%" transform="translate(-72 -287.762)"/><path d="M61.559 155.277h44.761v19.442H61.2v-19.442zm0 .602v-.242h.242v18.722h-.242V174h44.402v.36h-.36v-18.723h.36v.242zm0 0"/><path d="M10.8 155.637h44.52v18.722H10.8zm0 0" fill="#ffff97"/><use xlink:href="#j" x="90.48" y="455.64" width="100%" height="100%" transform="translate(-72 -287.762)"/><use xlink:href="#i" x="94.677" y="455.64" width="100%" height="100%" transform="translate(-72 -287.762)"/><use xlink:href="#s" x="98.873" y="455.64" width="100%" height="100%" transform="translate(-72 -287.762)"/><use xlink:href="#e" x="103.07" y="455.64" width="100%" height="100%" transform="translate(-72 -287.762)"/><use xlink:href="#u" x="107.22" y="455.64" width="100%" height="100%" transform="translate(-72 -287.762)"/><use xlink:href="#u" x="111.416" y="455.64" width="100%" height="100%" transform="translate(-72 -287.762)"/><use xlink:href="#g" x="115.613" y="455.64" width="100%" height="100%" transform="translate(-72 -287.762)"/><path d="M10.8 155.277H55.56v19.442h-45v-19.442zm0 .602v-.242h.36v18.722h-.36V174h44.52v.36h-.36v-18.723h.36v.242zm0 0"/><path d="M112.2 155.637h44.402v18.722h-44.403zm0 0" fill="#ffff97"/><use xlink:href="#j" x="191.76" y="455.64" width="100%" height="100%" transform="translate(-72 -287.762)"/><use xlink:href="#i" x="195.957" y="455.64" width="100%" height="100%" transform="translate(-72 -287.762)"/><use xlink:href="#s" x="200.153" y="455.64" width="100%" height="100%" transform="translate(-72 -287.762)"/><use xlink:href="#e" x="204.35" y="455.64" width="100%" height="100%" transform="translate(-72 -287.762)"/><use xlink:href="#u" x="208.5" y="455.64" width="100%" height="100%" transform="translate(-72 -287.762)"/><use xlink:href="#w" x="212.696" y="455.64" width="100%" height="100%" transform="translate(-72 -287.762)"/><use xlink:href="#b" x="216.893" y="455.64" width="100%" height="100%" transform="translate(-72 -287.762)"/><path d="M112.2 155.277h44.76v19.442h-45.12v-19.442zm0 .602v-.242h.359v18.722h-.36V174h44.403v.36h-.243v-18.723h.243v.242zm0 0"/><path d="M162.84 155.637h44.52v18.722h-44.52zm0 0" fill="#ffff97"/><use xlink:href="#j" x="242.52" y="455.64" width="100%" height="100%" transform="translate(-72 -287.762)"/><use xlink:href="#i" x="246.717" y="455.64" width="100%" height="100%" transform="translate(-72 -287.762)"/><use xlink:href="#s" x="250.913" y="455.64" width="100%" height="100%" transform="translate(-72 -287.762)"/><use xlink:href="#e" x="255.11" y="455.64" width="100%" height="100%" transform="translate(-72 -287.762)"/><use xlink:href="#u" x="259.26" y="455.64" width="100%" height="100%" transform="translate(-72 -287.762)"/><use xlink:href="#w" x="263.456" y="455.64" width="100%" height="100%" transform="translate(-72 -287.762)"/><use xlink:href="#g" x="267.653" y="455.64" width="100%" height="100%" transform="translate(-72 -287.762)"/><path d="M162.84 155.277h44.762v19.442h-45v-19.442zm0 .602v-.242h.36v18.722h-.36V174h44.52v.36H207v-18.723h.36v.242zm0 0"/><path d="M137.52 186.84h95.16v18.84h-95.16zm0 0" fill="#ffff97"/><use xlink:href="#c" x="219.12" y="486.96" width="100%" height="100%" transform="translate(-72 -287.762)"/><use xlink:href="#x" x="222.968" y="486.96" width="100%" height="100%" transform="translate(-72 -287.762)"/><use xlink:href="#s" x="227.165" y="486.96" width="100%" height="100%" transform="translate(-72 -287.762)"/><use xlink:href="#i" x="231.315" y="486.96" width="100%" height="100%" transform="translate(-72 -287.762)"/><use xlink:href="#y" x="235.512" y="486.96" width="100%" height="100%" transform="translate(-72 -287.762)"/><use xlink:href="#j" x="237.7" y="486.96" width="100%" height="100%" transform="translate(-72 -287.762)"/><use xlink:href="#i" x="241.896" y="486.96" width="100%" height="100%" transform="translate(-72 -287.762)"/><use xlink:href="#s" x="246.093" y="486.96" width="100%" height="100%" transform="translate(-72 -287.762)"/><use xlink:href="#e" x="250.289" y="486.96" width="100%" height="100%" transform="translate(-72 -287.762)"/><use xlink:href="#u" x="254.486" y="486.96" width="100%" height="100%" transform="translate(-72 -287.762)"/><use xlink:href="#w" x="258.636" y="486.96" width="100%" height="100%" transform="translate(-72 -287.762)"/><use xlink:href="#g" x="262.833" y="486.96" width="100%" height="100%" transform="translate(-72 -287.762)"/><use xlink:href="#y" x="267.029" y="486.96" width="100%" height="100%" transform="translate(-72 -287.762)"/><use xlink:href="#z" x="269.217" y="486.96" width="100%" height="100%" transform="translate(-72 -287.762)"/><use xlink:href="#e" x="274.348" y="486.96" width="100%" height="100%" transform="translate(-72 -287.762)"/><use xlink:href="#g" x="278.545" y="486.96" width="100%" height="100%" transform="translate(-72 -287.762)"/><use xlink:href="#b" x="282.742" y="486.96" width="100%" height="100%" transform="translate(-72 -287.762)"/><use xlink:href="#A" x="286.938" y="486.96" width="100%" height="100%" transform="translate(-72 -287.762)"/><use xlink:href="#A" x="291.135" y="486.96" width="100%" height="100%" transform="translate(-72 -287.762)"/><path d="M137.52 186.598h95.402v19.32h-95.64v-19.32zm0 .601v-.36h.359v18.84h-.36v-.363h95.16v.364h-.359v-18.84h.36v.36zm0 0M94.078 112.078L78 121.918l-.238-.48 15.957-9.961zm0 0"/><path d="M73.559 124.316L81.602 123l-3.243-1.684v-3.597zm0 0M124.441 111.477l16.079 9.96-.36.481-16.082-9.84zm0 0"/><path d="M144.602 124.316l-4.801-6.597v3.597L136.559 123zm0 0M66.238 142.918l6.961 8.52-.48.48-6.957-8.64zm0 0"/><path d="M76.2 155.637l-2.4-7.918-1.198 3.48-3.602.48zm0 0M51 143.277l-6.96 8.641-.481-.48 6.96-8.52zm0 0"/><path d="M40.68 155.637l7.199-3.957-3.719-.48-1.2-3.481zm0 0M152.398 143.277l-6.957 8.641-.48-.48 6.96-8.52zm0 0"/><path d="M142.078 155.637l7.082-3.957-3.601-.48-1.2-3.481zm0 0M167.64 142.918l6.962 8.52-.48.48-6.962-8.64zm0 0"/><path d="M177.48 155.637l-2.28-7.918-1.2 3.48-3.602.48zm0 0M185.398 174.36v7.437h-.597v-7.438zm0 0"/><path d="M185.16 186.84l3.121-7.442-3.12 1.801-3.24-1.8zm0 0"/><path d="M251.398 72.117V212.52c0 1.32 1.204 2.52 2.524 2.52H464.16c1.32 0 2.52-1.2 2.52-2.52V72.117c0-1.32-1.2-2.52-2.52-2.52H253.922c-1.32 0-2.524 1.2-2.524 2.52zm0 0" fill="#f5f5f5"/><path d="M251.398 69.598H466.68v14.039H251.398zm0 0" fill="#ebebeb"/><use xlink:href="#k" x="496.68" y="368.04" width="100%" height="100%" transform="translate(-72 -287.762)"/><use xlink:href="#l" x="502.911" y="368.04" width="100%" height="100%" transform="translate(-72 -287.762)"/><use xlink:href="#m" x="508.05" y="368.04" width="100%" height="100%" transform="translate(-72 -287.762)"/><use xlink:href="#n" x="513.188" y="368.04" width="100%" height="100%" transform="translate(-72 -287.762)"/><use xlink:href="#o" x="515.897" y="368.04" width="100%" height="100%" transform="translate(-72 -287.762)"/><use xlink:href="#p" x="519.008" y="368.04" width="100%" height="100%" transform="translate(-72 -287.762)"/><use xlink:href="#p" x="524.146" y="368.04" width="100%" height="100%" transform="translate(-72 -287.762)"/><use xlink:href="#q" x="529.285" y="368.04" width="100%" height="100%" transform="translate(-72 -287.762)"/><use xlink:href="#B" x="531.88" y="368.04" width="100%" height="100%" transform="translate(-72 -287.762)"/><path d="M251.762 77.16v3.719h-.602V77.16zm0 5.04v3.718h-.602v-3.719zm0 4.917v3.84h-.602v-3.84zm0 5.043v3.719h-.602V92.16zm0 5.04v3.718h-.602v-3.719zm0 4.917v3.84h-.602v-3.84zm0 5.043v3.719h-.602v-3.719zm0 5.04v3.718h-.602v-3.719zm0 5.038v3.719h-.602v-3.719zm0 4.922v3.719h-.602v-3.719zm0 5.04v3.718h-.602v-3.719zm0 5.038v3.719h-.602v-3.719zm0 4.922V141h-.602v-3.84zm0 5.04v3.718h-.602v-3.719zm0 5.038v3.719h-.602v-3.719zm0 4.922V156h-.602v-3.84zm0 5.04v3.718h-.602v-3.719zm0 5.038v3.719h-.602v-3.719zm0 5.04V171h-.602v-3.723zm0 4.921v3.84h-.602v-3.84zm0 5.04v3.718h-.602v-3.719zm0 5.038V186h-.602v-3.723zm0 4.922v3.84h-.602v-3.84zm0 5.04v3.718h-.602v-3.719zm0 5.038V201h-.602v-3.723zm0 5.04v3.722h-.602v-3.723zm0 4.921v3.84h-.602v-3.84zm0 5.04v.242h-.364.364c0 1.078.718 2.039 1.797 2.16l-.118.597c-1.32-.238-2.28-1.32-2.28-2.757v-.243zm3 2.402h3.718v.597h-3.718zm5.039 0h3.719v.597h-3.72zm4.918 0h3.84v.597h-3.84zm5.043 0h3.718v.597h-3.718zm5.039 0h3.719v.597h-3.72zm5.039 0h3.719v.597h-3.72zm4.922 0h3.84v.597h-3.84zm5.039 0h3.719v.597h-3.72zm5.039 0h3.719v.597h-3.72zm4.922 0h3.84v.597h-3.84zm5.039 0h3.719v.597h-3.72zm5.039 0h3.719v.597h-3.72zm5.039 0h3.723v.597h-3.723zm4.922 0h3.84v.597h-3.84zm5.039 0h3.719v.597h-3.72zm5.039 0h3.723v.597h-3.723zm4.922 0h3.84v.597h-3.84zm5.039 0h3.719v.597h-3.72zm5.039 0h3.723v.597h-3.723zm5.043 0h3.719v.597h-3.72zm4.918 0h3.84v.597h-3.84zm5.039 0h3.723v.597h-3.723zm5.043 0h3.719v.597h-3.72zm4.918 0h3.84v.597h-3.84zm5.039 0h3.723v.597h-3.723zm5.043 0h3.719v.597h-3.72zm5.039 0h3.719v.597h-3.72zm4.918 0h3.84v.597h-3.84zm5.043 0h3.719v.597h-3.72zm5.039 0h3.719v.597h-3.72zm4.918 0h3.84v.597h-3.84zm5.043 0h3.719v.597h-3.72zm5.039 0h3.719v.597h-3.72zm4.918 0h3.84v.597h-3.84zm5.043 0h3.719v.597h-3.72zm5.039 0h3.719v.597h-3.72zm5.039 0h3.719v.597H435zm4.922 0h3.84v.597h-3.84zm5.039 0h3.719v.597h-3.72zm5.039 0h3.719v.597H450zm4.922 0h3.84v.597h-3.84zm5.039 0h3.719v.597h-3.72zm4.918-.121c.84-.243 1.441-1.082 1.441-2.04h.36-.36v-.722h.602v.723c0 1.199-.723 2.277-1.8 2.64zm1.441-3.961v-3.72h.602v3.72zm0-5.04v-3.718h.602v3.719zm0-4.921v-3.84h.602v3.84zm0-5.04v-3.718h.602v3.719zm0-5.038v-3.72h.602v3.72zm0-5.04v-3.722h.602v3.723zm0-4.921v-3.84h.602v3.84zm0-5.04v-3.718h.602v3.719zm0-5.038v-3.723h.602v3.723zm0-4.922v-3.84h.602v3.84zm0-5.04v-3.718h.602v3.719zm0-5.038v-3.723h.602v3.723zm0-4.922v-3.84h.602v3.84zm0-5.04v-3.718h.602v3.719zm0-5.038v-3.723h.602v3.723zm0-5.043v-3.72h.602v3.72zm0-4.918v-3.84h.602v3.84zm0-5.04v-3.722h.602v3.723zm0-5.042v-3.72h.602v3.72zm0-4.918v-3.84h.602v3.84zm0-5.04v-3.722h.602v3.723zm0-5.042v-3.72h.602v3.72zm0-5.04V96.72h.602v3.718zm0-4.917v-3.84h.602v3.84zm0-5.043v-3.72h.602v3.72zm0-5.04V81.72h.602v3.718zm0-4.917v-3.84h.602v3.84zm0-5.043v-3.36h.36-.36v-.36l.602-.12v3.84zm-.48-4.68c-.36-.48-.961-.84-1.68-.84v-.36.36h-1.558v-.598h1.558c.84 0 1.68.36 2.16 1.078zm-4.442-.84h-3.718v-.598h3.718zm-5.039 0h-3.718v-.598h3.718zm-4.918 0h-3.84v-.598h3.84zm-5.043 0h-3.718v-.598h3.718zm-5.039 0h-3.718v-.598h3.718zm-5.039 0h-3.718v-.598h3.718zm-4.922 0h-3.84v-.598h3.84zm-5.039 0h-3.718v-.598h3.718zm-5.039 0h-3.718v-.598h3.718zm-4.922 0h-3.84v-.598h3.84zm-5.039 0h-3.718v-.598h3.718zm-5.039 0h-3.718v-.598h3.718zm-5.039 0h-3.722v-.598h3.722zm-4.922 0h-3.84v-.598h3.84zm-5.039 0h-3.718v-.598h3.718zm-5.039 0h-3.722v-.598h3.722zm-4.922 0h-3.84v-.598h3.84zm-5.039 0h-3.718v-.598h3.718zm-5.039 0h-3.722v-.598h3.722zm-5.043 0h-3.718v-.598h3.718zm-4.918 0h-3.84v-.598h3.84zm-5.039 0h-3.722v-.598h3.722zm-5.043 0h-3.718v-.598h3.718zm-4.918 0h-3.84v-.598h3.84zm-5.039 0h-3.722v-.598h3.722zm-5.043 0h-3.718v-.598h3.718zm-4.918 0h-3.84v-.598h3.84zm-5.039 0h-3.722v-.598h3.722zm-5.043 0h-3.718v-.598h3.718zm-5.039 0h-3.719v-.598h3.72zm-4.918 0h-3.84v-.598h3.84zm-5.043 0h-3.718v-.598h3.718zm-5.039 0h-3.719v-.598h3.72zm-4.918 0h-3.84v-.598h3.84zm-5.043 0h-3.718v-.598h3.718zm-5.039 0h-3.719v-.598h3.72zm-5.039 0h-3.719v-.598h3.72zm-4.922 0h-3.84v-.598h3.84zm-5.039 0h-3.719v-.598h3.72zm-5.039 0h-3.719v-.598h3.72zm-4.922 0h-3.84v-.598h3.84zm-5.039 0h-2.277v-.36.36c-.48 0-.844.121-1.203.36l-.36-.477c.48-.363.961-.48 1.563-.48h2.277zM252 71.16a2.227 2.227 0 0 0-.238.957h-.364.364v3.723h-.602v-3.723c0-.48.121-.84.238-1.32zm0 0"/><path d="M336.84 93h44.398v18.84H336.84zm0 0" fill="#ffff97"/><use xlink:href="#s" x="425.04" y="393.12" width="100%" height="100%" transform="translate(-72 -287.762)"/><use xlink:href="#t" x="429.237" y="393.12" width="100%" height="100%" transform="translate(-72 -287.762)"/><use xlink:href="#w" x="433.085" y="393.12" width="100%" height="100%" transform="translate(-72 -287.762)"/><path d="M336.84 92.758h44.762v19.32H336.48v-19.32zm0 .601V93h.238v18.84h-.238v-.363h44.398v.363h-.36V93h.36v.36zm0 0"/><path d="M362.16 155.637h44.399v18.722H362.16zm0 0" fill="#ffff97"/><use xlink:href="#j" x="441.72" y="455.64" width="100%" height="100%" transform="translate(-72 -287.762)"/><use xlink:href="#i" x="445.917" y="455.64" width="100%" height="100%" transform="translate(-72 -287.762)"/><use xlink:href="#s" x="450.113" y="455.64" width="100%" height="100%" transform="translate(-72 -287.762)"/><use xlink:href="#e" x="454.31" y="455.64" width="100%" height="100%" transform="translate(-72 -287.762)"/><use xlink:href="#w" x="458.46" y="455.64" width="100%" height="100%" transform="translate(-72 -287.762)"/><use xlink:href="#u" x="462.656" y="455.64" width="100%" height="100%" transform="translate(-72 -287.762)"/><use xlink:href="#b" x="466.853" y="455.64" width="100%" height="100%" transform="translate(-72 -287.762)"/><path d="M362.16 155.277h44.762v19.442H361.8v-19.442zm0 .602v-.242h.36v18.722h-.36V174h44.399v.36h-.239v-18.723h.239v.242zm0 0"/><path d="M412.8 155.637h44.52v18.722H412.8zm0 0" fill="#ffff97"/><use xlink:href="#j" x="492.48" y="455.64" width="100%" height="100%" transform="translate(-72 -287.762)"/><use xlink:href="#i" x="496.677" y="455.64" width="100%" height="100%" transform="translate(-72 -287.762)"/><use xlink:href="#s" x="500.873" y="455.64" width="100%" height="100%" transform="translate(-72 -287.762)"/><use xlink:href="#e" x="505.07" y="455.64" width="100%" height="100%" transform="translate(-72 -287.762)"/><use xlink:href="#w" x="509.22" y="455.64" width="100%" height="100%" transform="translate(-72 -287.762)"/><use xlink:href="#u" x="513.416" y="455.64" width="100%" height="100%" transform="translate(-72 -287.762)"/><use xlink:href="#g" x="517.613" y="455.64" width="100%" height="100%" transform="translate(-72 -287.762)"/><path d="M412.8 155.277h44.759v19.442h-45v-19.442zm0 .602v-.242h.36v18.722h-.36V174h44.52v.36h-.36v-18.723h.36v.242zm0 0"/><path d="M311.52 155.637h44.402v18.722H311.52zm0 0" fill="#ffff97"/><use xlink:href="#j" x="391.08" y="455.64" width="100%" height="100%" transform="translate(-72 -287.762)"/><use xlink:href="#i" x="395.277" y="455.64" width="100%" height="100%" transform="translate(-72 -287.762)"/><use xlink:href="#s" x="399.473" y="455.64" width="100%" height="100%" transform="translate(-72 -287.762)"/><use xlink:href="#e" x="403.67" y="455.64" width="100%" height="100%" transform="translate(-72 -287.762)"/><use xlink:href="#w" x="407.82" y="455.64" width="100%" height="100%" transform="translate(-72 -287.762)"/><use xlink:href="#w" x="412.016" y="455.64" width="100%" height="100%" transform="translate(-72 -287.762)"/><use xlink:href="#b" x="416.213" y="455.64" width="100%" height="100%" transform="translate(-72 -287.762)"/><path d="M311.52 155.277h44.761v19.442h-45.12v-19.442zm0 .602v-.242h.242v18.722h-.242V174h44.402v.36h-.363v-18.723h.363v.242zm0 0"/><path d="M260.762 155.637h44.52v18.722h-44.52zm0 0" fill="#ffff97"/><use xlink:href="#j" x="340.44" y="455.64" width="100%" height="100%" transform="translate(-72 -287.762)"/><use xlink:href="#i" x="344.637" y="455.64" width="100%" height="100%" transform="translate(-72 -287.762)"/><use xlink:href="#s" x="348.833" y="455.64" width="100%" height="100%" transform="translate(-72 -287.762)"/><use xlink:href="#e" x="353.03" y="455.64" width="100%" height="100%" transform="translate(-72 -287.762)"/><use xlink:href="#w" x="357.18" y="455.64" width="100%" height="100%" transform="translate(-72 -287.762)"/><use xlink:href="#w" x="361.376" y="455.64" width="100%" height="100%" transform="translate(-72 -287.762)"/><use xlink:href="#g" x="365.573" y="455.64" width="100%" height="100%" transform="translate(-72 -287.762)"/><path d="M260.762 155.277h44.758v19.442h-45v-19.442zm0 .602v-.242h.36v18.722h-.36V174h44.52v.36h-.36v-18.723h.36v.242zm0 0"/><path d="M387.48 124.316h44.399v18.723H387.48zm0 0" fill="#ffff97"/><use xlink:href="#f" x="470.4" y="424.44" width="100%" height="100%" transform="translate(-72 -287.762)"/><use xlink:href="#b" x="472.913" y="424.44" width="100%" height="100%" transform="translate(-72 -287.762)"/><use xlink:href="#t" x="477.109" y="424.44" width="100%" height="100%" transform="translate(-72 -287.762)"/><use xlink:href="#v" x="480.807" y="424.44" width="100%" height="100%" transform="translate(-72 -287.762)"/><use xlink:href="#w" x="484.58" y="424.44" width="100%" height="100%" transform="translate(-72 -287.762)"/><use xlink:href="#u" x="488.73" y="424.44" width="100%" height="100%" transform="translate(-72 -287.762)"/><path d="M387.48 123.957h44.758v19.441h-45v-19.441zm0 .602v-.243h.36v18.723h-.36v-.242h44.399v.242h-.238v-18.723h.238v.243zm0 0"/><path d="M286.2 124.316h44.402v18.723h-44.403zm0 0" fill="#ffff97"/><use xlink:href="#f" x="369.12" y="424.44" width="100%" height="100%" transform="translate(-72 -287.762)"/><use xlink:href="#b" x="371.633" y="424.44" width="100%" height="100%" transform="translate(-72 -287.762)"/><use xlink:href="#t" x="375.829" y="424.44" width="100%" height="100%" transform="translate(-72 -287.762)"/><use xlink:href="#v" x="379.527" y="424.44" width="100%" height="100%" transform="translate(-72 -287.762)"/><use xlink:href="#w" x="383.3" y="424.44" width="100%" height="100%" transform="translate(-72 -287.762)"/><use xlink:href="#w" x="387.45" y="424.44" width="100%" height="100%" transform="translate(-72 -287.762)"/><path d="M286.2 123.957h44.64v19.441h-45v-19.441zm0 .602v-.243h.241v18.723h-.242v-.242h44.403v.242h-.364v-18.723h.364v.243zm0 0"/><path d="M286.2 186.84h95.038v18.84H286.2zm0 0" fill="#ffff97"/><use xlink:href="#c" x="367.68" y="486.96" width="100%" height="100%" transform="translate(-72 -287.762)"/><use xlink:href="#x" x="371.528" y="486.96" width="100%" height="100%" transform="translate(-72 -287.762)"/><use xlink:href="#s" x="375.725" y="486.96" width="100%" height="100%" transform="translate(-72 -287.762)"/><use xlink:href="#i" x="379.875" y="486.96" width="100%" height="100%" transform="translate(-72 -287.762)"/><use xlink:href="#y" x="384.072" y="486.96" width="100%" height="100%" transform="translate(-72 -287.762)"/><use xlink:href="#j" x="386.26" y="486.96" width="100%" height="100%" transform="translate(-72 -287.762)"/><use xlink:href="#i" x="390.456" y="486.96" width="100%" height="100%" transform="translate(-72 -287.762)"/><use xlink:href="#s" x="394.653" y="486.96" width="100%" height="100%" transform="translate(-72 -287.762)"/><use xlink:href="#e" x="398.849" y="486.96" width="100%" height="100%" transform="translate(-72 -287.762)"/><use xlink:href="#w" x="403.046" y="486.96" width="100%" height="100%" transform="translate(-72 -287.762)"/><use xlink:href="#w" x="407.196" y="486.96" width="100%" height="100%" transform="translate(-72 -287.762)"/><use xlink:href="#b" x="411.393" y="486.96" width="100%" height="100%" transform="translate(-72 -287.762)"/><use xlink:href="#y" x="415.589" y="486.96" width="100%" height="100%" transform="translate(-72 -287.762)"/><use xlink:href="#z" x="417.777" y="486.96" width="100%" height="100%" transform="translate(-72 -287.762)"/><use xlink:href="#e" x="422.908" y="486.96" width="100%" height="100%" transform="translate(-72 -287.762)"/><use xlink:href="#g" x="427.105" y="486.96" width="100%" height="100%" transform="translate(-72 -287.762)"/><use xlink:href="#b" x="431.302" y="486.96" width="100%" height="100%" transform="translate(-72 -287.762)"/><use xlink:href="#A" x="435.498" y="486.96" width="100%" height="100%" transform="translate(-72 -287.762)"/><use xlink:href="#A" x="439.695" y="486.96" width="100%" height="100%" transform="translate(-72 -287.762)"/><path d="M286.2 186.598h95.402v19.32H285.84v-19.32zm0 .601v-.36h.241v18.84h-.242v-.363h95.04v.364h-.36v-18.84h.36v.36zm0 0M374.398 111.477l15.961 9.96-.238.481-16.082-9.84zm0 0"/><path d="M394.559 124.316l-4.797-6.597v3.597L386.52 123zm0 0M402.36 143.277l-6.962 8.641-.476-.48 6.957-8.52zm0 0"/><path d="M391.922 155.637l7.2-3.957-3.602-.48-1.2-3.481zm0 0M417.602 142.918l6.957 8.52-.48.48-6.958-8.64zm0 0"/><path d="M427.441 155.637l-2.28-7.918-1.2 3.48-3.723.48zm0 0M344.04 112.078l-16.08 9.84-.358-.48 16.078-9.961zm0 0"/><path d="M323.52 124.316l8.039-1.316-3.239-1.684v-3.597zm0 0M300.96 143.277l-6.96 8.641-.48-.48 6.96-8.52zm0 0"/><path d="M290.64 155.637l7.079-3.957-3.598-.48-1.2-3.481zm0 0M316.2 142.918l6.96 8.52-.48.48-6.961-8.64zm0 0"/><path d="M326.04 155.637l-2.278-7.918-1.203 3.48-3.598.48zm0 0M333.96 174.36v7.437h-.6v-7.438zm0 0"/><path d="M333.719 186.84l3.12-7.442-3.12 1.801-3.117-1.8zm0 0"/></svg>