<svg xmlns="http://www.w3.org/2000/svg" xmlns:xlink="http://www.w3.org/1999/xlink" width="624" height="724.479" viewBox="0 0 468 543.359"><defs><symbol overflow="visible" id="a"><path d="M2.766 0H1.234v-13.453h1.641v4.797C3.57-9.531 4.461-9.97 5.547-9.97c.601 0 1.172.121 1.703.36.54.242.984.578 1.328 1.015.344.438.613.969.813 1.594.195.617.296 1.277.296 1.984 0 1.668-.417 2.961-1.25 3.875C7.614-.234 6.625.22 5.47.22 4.32.219 3.422-.258 2.766-1.22zM2.75-4.953c0 1.18.156 2.027.469 2.547.52.844 1.222 1.265 2.11 1.265.726 0 1.35-.312 1.874-.937C7.734-2.703 8-3.633 8-4.875c0-1.281-.258-2.223-.766-2.828-.5-.602-1.109-.906-1.828-.906-.718 0-1.343.312-1.875.937-.523.625-.781 1.531-.781 2.719zm0 0"/></symbol><symbol overflow="visible" id="b"><path d="M7.594-1.203c-.606.523-1.196.89-1.766 1.11a5.213 5.213 0 0 1-1.812.312C2.94.219 2.113-.04 1.53-.562c-.574-.52-.86-1.188-.86-2A2.735 2.735 0 0 1 1.86-4.829c.352-.238.75-.422 1.188-.547.32-.082.812-.16 1.469-.234 1.332-.164 2.316-.36 2.953-.579v-.437c0-.664-.157-1.14-.469-1.422-.418-.363-1.043-.547-1.875-.547-.781 0-1.36.137-1.734.406-.368.274-.637.75-.813 1.438l-1.61-.219c.145-.687.384-1.242.72-1.672.332-.425.816-.754 1.453-.984.644-.227 1.382-.344 2.218-.344.832 0 1.508.102 2.032.297.52.2.898.45 1.14.75.25.293.422.664.516 1.11.05.28.078.792.078 1.53v2.204c0 1.531.035 2.5.11 2.906.07.406.21.797.421 1.172H7.937a3.365 3.365 0 0 1-.343-1.203zm-.125-3.688c-.606.243-1.508.45-2.703.625-.68.094-1.157.204-1.438.329-.281.124-.5.308-.656.546-.156.23-.235.493-.235.782 0 .437.165.804.5 1.093.333.293.82.438 1.47.438.632 0 1.195-.133 1.687-.406a2.64 2.64 0 0 0 1.11-1.157c.175-.363.265-.91.265-1.64zm0 0"/></symbol><symbol overflow="visible" id="c"><path d="M.578-2.906l1.64-.266c.083.656.333 1.164.75 1.516.427.343 1.016.515 1.766.515.758 0 1.32-.148 1.688-.453.363-.312.547-.676.547-1.093 0-.376-.164-.665-.485-.876-.218-.156-.78-.343-1.687-.562-1.211-.313-2.047-.578-2.516-.797-.469-.226-.824-.535-1.062-.922a2.456 2.456 0 0 1-.36-1.312c0-.438.098-.836.297-1.203.196-.375.469-.68.813-.922.25-.196.597-.36 1.047-.485a4.964 4.964 0 0 1 1.421-.203c.77 0 1.442.11 2.016.328.582.22 1.008.524 1.281.907.282.375.473.875.579 1.5l-1.626.218c-.074-.5-.289-.89-.64-1.171-.344-.282-.84-.422-1.484-.422-.762 0-1.305.125-1.625.375-.325.25-.485.543-.485.875 0 .218.067.414.203.578.133.187.344.34.625.453.164.062.656.203 1.469.422 1.164.312 1.977.57 2.438.765.468.2.832.493 1.093.875.258.375.39.844.39 1.407a2.8 2.8 0 0 1-.483 1.562c-.325.48-.79.856-1.391 1.125-.606.258-1.29.39-2.047.39-1.273 0-2.242-.257-2.906-.78C1.187-1.095.766-1.875.578-2.906zm0 0"/></symbol><symbol overflow="visible" id="d"><path d="M4.844-1.484l.234 1.468c-.46.094-.871.141-1.234.141-.606 0-1.074-.094-1.406-.281a1.57 1.57 0 0 1-.688-.75c-.137-.313-.203-.961-.203-1.953v-5.61H.328V-9.75h1.219v-2.406l1.64-1v3.406h1.657v1.281H3.187v5.703c0 .47.024.774.079.907a.765.765 0 0 0 .28.328c.134.086.329.125.579.125.176 0 .414-.024.719-.078zm0 0"/></symbol><symbol overflow="visible" id="e"><path d="M1.25-11.563v-1.89h1.656v1.89zM1.25 0v-9.75h1.656V0zm0 0"/></symbol><symbol overflow="visible" id="f"><path d="M.625-4.875c0-1.8.5-3.14 1.5-4.016.844-.718 1.863-1.078 3.063-1.078 1.343 0 2.437.446 3.28 1.328.852.875 1.282 2.086 1.282 3.625 0 1.262-.188 2.25-.563 2.97a3.96 3.96 0 0 1-1.64 1.671 4.832 4.832 0 0 1-2.36.594C3.82.219 2.72-.22 1.876-1.094 1.039-1.969.625-3.227.625-4.875zm1.703 0c0 1.25.27 2.188.813 2.813.539.617 1.222.921 2.046.921.82 0 1.504-.312 2.047-.937.551-.625.829-1.57.829-2.844 0-1.207-.278-2.117-.829-2.734-.543-.625-1.226-.938-2.046-.938-.825 0-1.508.309-2.047.922-.543.617-.813 1.547-.813 2.797zm0 0"/></symbol><symbol overflow="visible" id="g"><path d="M1.234 0v-9.75H2.72v1.39c.719-1.07 1.754-1.609 3.11-1.609.581 0 1.116.11 1.609.328.5.211.867.485 1.109.829.25.335.422.742.515 1.218.063.305.094.836.094 1.594v6H7.5v-5.922c0-.676-.063-1.18-.188-1.516a1.561 1.561 0 0 0-.687-.796 2.166 2.166 0 0 0-1.14-.297c-.712 0-1.32.226-1.829.672-.511.437-.765 1.28-.765 2.53V0zm0 0"/></symbol><symbol overflow="visible" id="h"><path d="M1.234 0v-13.453h1.657v4.828c.77-.895 1.742-1.344 2.921-1.344.72 0 1.344.149 1.875.438.532.281.91.672 1.141 1.172.227.5.344 1.23.344 2.187V0h-1.64v-6.172c0-.832-.184-1.437-.548-1.812-.355-.375-.859-.563-1.515-.563-.492 0-.953.133-1.39.39-.43.25-.735.595-.923 1.032-.18.43-.265 1.027-.265 1.797V0zm0 0"/></symbol><symbol overflow="visible" id="i"><path d="M1.703 0v-1.875h1.89V0zm0 0"/></symbol><symbol overflow="visible" id="j"><path d="M3.031 0L.062-9.75h1.704l1.546 5.625.579 2.094c.02-.102.187-.77.5-2L5.953-9.75h1.688l1.468 5.656.485 1.86.562-1.875 1.672-5.641h1.594L10.375 0H8.672L7.109-5.844 6.734-7.5 4.766 0zm0 0"/></symbol><symbol overflow="visible" id="k"><path d="M7.906-3.14l1.719.218c-.273.992-.773 1.762-1.5 2.313-.73.554-1.664.828-2.797.828-1.43 0-2.558-.438-3.39-1.313-.836-.875-1.25-2.11-1.25-3.703 0-1.633.421-2.906 1.265-3.812.844-.907 1.938-1.36 3.281-1.36 1.313 0 2.38.446 3.204 1.328.82.887 1.234 2.137 1.234 3.75v.438H2.39c.062 1.074.363 1.898.906 2.469.55.562 1.234.843 2.047.843.601 0 1.117-.156 1.547-.468.425-.32.765-.832 1.015-1.532zM2.484-5.813h5.454c-.086-.82-.293-1.438-.625-1.844-.532-.633-1.215-.953-2.047-.953-.762 0-1.403.257-1.922.765-.524.512-.809 1.188-.86 2.032zm0 0"/></symbol><symbol overflow="visible" id="l"><path d="M1.219 0v-9.75h1.484v1.484c.383-.695.735-1.156 1.047-1.375.32-.218.676-.328 1.063-.328.562 0 1.128.18 1.703.531l-.563 1.532c-.406-.239-.812-.36-1.219-.36-.367 0-.695.11-.984.329-.281.218-.484.523-.61.906a6.532 6.532 0 0 0-.265 1.922V0zm0 0"/></symbol><symbol overflow="visible" id="m"><path d="M3.953 0L.234-9.75h1.75l2.094 5.844c.227.625.438 1.277.625 1.953a27.66 27.66 0 0 1 .61-1.844L7.483-9.75h1.688L5.484 0zm0 0"/></symbol><symbol overflow="visible" id="n"><path d="M7.625 0v-1.438C6.863-.331 5.832.22 4.531.22c-.574 0-1.11-.11-1.61-.328-.5-.22-.87-.493-1.108-.829-.243-.332-.415-.742-.516-1.234-.063-.32-.094-.832-.094-1.531V-9.75H2.86v5.406c0 .867.032 1.45.094 1.75.102.43.32.766.656 1.016.344.25.758.375 1.25.375.5 0 .961-.125 1.391-.375.438-.258.742-.61.922-1.047.187-.438.281-1.07.281-1.906V-9.75H9.11V0zm0 0"/></symbol><symbol overflow="visible" id="o"><path d="M7.563 0v-1.234C6.944-.266 6.038.219 4.842.219c-.78 0-1.5-.215-2.155-.64-.649-.427-1.153-1.024-1.516-1.798C.816-2.989.64-3.867.64-4.859c0-.977.16-1.864.484-2.657.32-.789.805-1.394 1.453-1.812a3.93 3.93 0 0 1 2.188-.64 3.22 3.22 0 0 1 1.562.374c.457.25.832.574 1.125.969v-4.828h1.64V0zm-5.22-4.86c0 1.25.259 2.184.782 2.798.531.617 1.156.921 1.875.921.719 0 1.328-.289 1.828-.875.508-.593.766-1.5.766-2.718 0-1.332-.262-2.305-.782-2.922-.511-.625-1.14-.938-1.89-.938-.742 0-1.356.305-1.844.906-.492.594-.734 1.54-.734 2.829zm0 0"/></symbol><symbol overflow="visible" id="p"><path d="M1.234 3.734V-9.75H2.75v1.266c.352-.489.75-.86 1.188-1.11.445-.25.992-.375 1.64-.375.82 0 1.55.215 2.188.64.644.43 1.129 1.032 1.453 1.813.32.782.484 1.637.484 2.563 0 1-.183 1.902-.547 2.703-.355.793-.875 1.402-1.562 1.828-.68.426-1.39.64-2.14.64a3.174 3.174 0 0 1-1.485-.343 3.467 3.467 0 0 1-1.078-.89v4.75zm1.5-8.546c0 1.25.254 2.18.766 2.78.508.595 1.125.891 1.844.891.726 0 1.351-.304 1.875-.921.531-.626.797-1.586.797-2.891 0-1.238-.258-2.164-.766-2.781-.512-.625-1.121-.938-1.828-.938-.711 0-1.336.328-1.875.985-.543.656-.813 1.617-.813 2.875zm0 0"/></symbol><symbol overflow="visible" id="q"><path d="M1.64 0v-8.469H.173V-9.75H1.64v-1.031c0-.656.054-1.145.171-1.469.157-.426.43-.77.829-1.031.406-.27.968-.406 1.687-.406.469 0 .984.058 1.547.171l-.25 1.438a5.44 5.44 0 0 0-.969-.094c-.5 0-.855.11-1.062.328-.211.211-.313.61-.313 1.203v.891h1.89v1.281h-1.89V0zm0 0"/></symbol><symbol overflow="visible" id="r"><path d="M1.25 0v-13.453h1.656v7.672L6.812-9.75h2.141L5.22-6.125 9.329 0H7.28L4.063-4.984 2.905-3.86V0zm0 0"/></symbol><symbol overflow="visible" id="s"><path d="M1.172 3.75L.984 2.203c.364.094.676.14.938.14.375 0 .672-.062.89-.187.22-.117.395-.281.532-.5.101-.168.273-.578.515-1.234L4 .016.297-9.75h1.781L4.11-4.11c.258.72.493 1.477.704 2.266.195-.758.425-1.5.687-2.218L7.578-9.75h1.656L5.531.172c-.406 1.062-.718 1.797-.937 2.203-.293.54-.633.938-1.016 1.188-.375.257-.824.39-1.344.39-.324 0-.68-.07-1.062-.203zm0 0"/></symbol><symbol overflow="visible" id="t"><path d="M7.594-3.563l1.625.204c-.18 1.125-.633 2.007-1.36 2.64-.73.625-1.625.938-2.687.938-1.336 0-2.406-.43-3.219-1.297C1.141-1.953.734-3.207.734-4.844c0-1.05.172-1.968.516-2.75.352-.789.883-1.383 1.594-1.781a4.756 4.756 0 0 1 2.328-.594c1.062 0 1.926.274 2.594.813.675.531 1.109 1.289 1.296 2.265l-1.593.25c-.157-.656-.434-1.144-.828-1.468-.387-.332-.856-.5-1.407-.5-.824 0-1.496.304-2.015.906-.524.594-.781 1.539-.781 2.828 0 1.305.25 2.25.75 2.844.5.594 1.156.89 1.968.89.645 0 1.18-.195 1.61-.593.437-.395.71-1.004.828-1.829zm0 0"/></symbol><symbol overflow="visible" id="v"><path d="M.594-4.031v-1.672h5.078v1.672zm0 0"/></symbol><symbol overflow="visible" id="w"><path d="M1.203 0v-13.453H2.86V0zm0 0"/></symbol><symbol overflow="visible" id="x"><path d="M1.234 0v-9.75H2.72v1.375c.3-.477.707-.863 1.219-1.156a3.446 3.446 0 0 1 1.734-.438c.719 0 1.305.153 1.766.453.468.305.796.72.984 1.25.77-1.132 1.773-1.703 3.015-1.703.97 0 1.711.274 2.235.813.52.531.781 1.355.781 2.469V0h-1.656v-6.14c0-.657-.055-1.13-.156-1.423a1.384 1.384 0 0 0-.579-.703 1.855 1.855 0 0 0-1-.265c-.68 0-1.246.23-1.703.687-.449.45-.671 1.18-.671 2.188V0H7.03v-6.328c0-.738-.136-1.29-.406-1.656-.273-.364-.71-.547-1.313-.547-.468 0-.902.125-1.296.375a2.03 2.03 0 0 0-.86 1.062c-.18.469-.265 1.149-.265 2.032V0zm0 0"/></symbol></defs><path d="M0 0h468v543.36H0zm0 0" fill="#fff"/><path d="M216.719 120.96H383.16V168H216.72zm0 0" fill="#ffca00"/><use xlink:href="#a" x="341.52" y="276.24" width="100%" height="100%" transform="translate(-72 -124.32)"/><use xlink:href="#b" x="351.978" y="276.24" width="100%" height="100%" transform="translate(-72 -124.32)"/><use xlink:href="#c" x="362.32" y="276.24" width="100%" height="100%" transform="translate(-72 -124.32)"/><use xlink:href="#d" x="371.911" y="276.24" width="100%" height="100%" transform="translate(-72 -124.32)"/><use xlink:href="#e" x="377.135" y="276.24" width="100%" height="100%" transform="translate(-72 -124.32)"/><use xlink:href="#f" x="381.313" y="276.24" width="100%" height="100%" transform="translate(-72 -124.32)"/><use xlink:href="#g" x="391.771" y="276.24" width="100%" height="100%" transform="translate(-72 -124.32)"/><path d="M216.719 120.121H384v48.719H215.879V120.12zm0 1.559v-.72h.84V168h-.84v-.719H383.16V168h-.719v-47.04h.72v.72zm0 0"/><path d="M3.121 238.68H169.56v47.16H3.12zm0 0" fill="#ffca00"/><use xlink:href="#c" x="97.68" y="393.96" width="100%" height="100%" transform="translate(-72 -124.32)"/><use xlink:href="#c" x="107.082" y="393.96" width="100%" height="100%" transform="translate(-72 -124.32)"/><use xlink:href="#h" x="116.672" y="393.96" width="100%" height="100%" transform="translate(-72 -124.32)"/><use xlink:href="#i" x="127.015" y="393.96" width="100%" height="100%" transform="translate(-72 -124.32)"/><use xlink:href="#j" x="132.239" y="393.96" width="100%" height="100%" transform="translate(-72 -124.32)"/><use xlink:href="#k" x="145.59" y="393.96" width="100%" height="100%" transform="translate(-72 -124.32)"/><use xlink:href="#a" x="156.048" y="393.96" width="100%" height="100%" transform="translate(-72 -124.32)"/><use xlink:href="#c" x="166.506" y="393.96" width="100%" height="100%" transform="translate(-72 -124.32)"/><use xlink:href="#k" x="175.908" y="393.96" width="100%" height="100%" transform="translate(-72 -124.32)"/><use xlink:href="#l" x="186.367" y="393.96" width="100%" height="100%" transform="translate(-72 -124.32)"/><use xlink:href="#m" x="192.628" y="393.96" width="100%" height="100%" transform="translate(-72 -124.32)"/><use xlink:href="#k" x="202.031" y="393.96" width="100%" height="100%" transform="translate(-72 -124.32)"/><use xlink:href="#l" x="212.489" y="393.96" width="100%" height="100%" transform="translate(-72 -124.32)"/><path d="M3.121 237.96h167.277v48.599h-168V237.96zm0 1.56v-.84h.84v47.16h-.84V285H169.56v.84h-.72v-47.16h.72v.84zm0 0"/><path d="M3.121 365.879H169.56v47.16H3.12zm0 0" fill="#ffca00"/><use xlink:href="#c" x="102.36" y="521.16" width="100%" height="100%" transform="translate(-72 -124.32)"/><use xlink:href="#n" x="111.762" y="521.16" width="100%" height="100%" transform="translate(-72 -124.32)"/><use xlink:href="#o" x="122.22" y="521.16" width="100%" height="100%" transform="translate(-72 -124.32)"/><use xlink:href="#f" x="132.678" y="521.16" width="100%" height="100%" transform="translate(-72 -124.32)"/><use xlink:href="#i" x="143.021" y="521.16" width="100%" height="100%" transform="translate(-72 -124.32)"/><use xlink:href="#j" x="148.474" y="521.16" width="100%" height="100%" transform="translate(-72 -124.32)"/><use xlink:href="#k" x="161.637" y="521.16" width="100%" height="100%" transform="translate(-72 -124.32)"/><use xlink:href="#a" x="172.095" y="521.16" width="100%" height="100%" transform="translate(-72 -124.32)"/><use xlink:href="#b" x="182.553" y="521.16" width="100%" height="100%" transform="translate(-72 -124.32)"/><use xlink:href="#p" x="192.895" y="521.16" width="100%" height="100%" transform="translate(-72 -124.32)"/><use xlink:href="#p" x="203.353" y="521.16" width="100%" height="100%" transform="translate(-72 -124.32)"/><path d="M3.121 365.16h167.277v48.598h-168V365.16zm0 1.559v-.84h.84v47.16h-.84v-.84H169.56v.84h-.72v-47.16h.72v.84zm0 0"/><path d="M216.719 493.078H383.16v47.16H216.72zm0 0" fill="#ffca00"/><use xlink:href="#q" x="339.48" y="648.36" width="100%" height="100%" transform="translate(-72 -124.32)"/><use xlink:href="#b" x="344.704" y="648.36" width="100%" height="100%" transform="translate(-72 -124.32)"/><use xlink:href="#r" x="355.163" y="648.36" width="100%" height="100%" transform="translate(-72 -124.32)"/><use xlink:href="#k" x="364.565" y="648.36" width="100%" height="100%" transform="translate(-72 -124.32)"/><use xlink:href="#c" x="375.023" y="648.36" width="100%" height="100%" transform="translate(-72 -124.32)"/><use xlink:href="#c" x="384.613" y="648.36" width="100%" height="100%" transform="translate(-72 -124.32)"/><use xlink:href="#h" x="394.015" y="648.36" width="100%" height="100%" transform="translate(-72 -124.32)"/><path d="M216.719 492.36H384v48.6H215.879v-48.6zm0 1.558v-.84h.84v47.16h-.84v-.84H383.16v.84h-.719v-47.16h.72v.84zm0 0"/><path d="M216.719 365.879H383.16v47.16H216.72zm0 0" fill="#97ca00"/><use xlink:href="#l" x="349.44" y="521.16" width="100%" height="100%" transform="translate(-72 -124.32)"/><use xlink:href="#c" x="355.702" y="521.16" width="100%" height="100%" transform="translate(-72 -124.32)"/><use xlink:href="#s" x="365.104" y="521.16" width="100%" height="100%" transform="translate(-72 -124.32)"/><use xlink:href="#g" x="374.506" y="521.16" width="100%" height="100%" transform="translate(-72 -124.32)"/><use xlink:href="#t" x="384.849" y="521.16" width="100%" height="100%" transform="translate(-72 -124.32)"/><path d="M216.719 365.16H384v48.598H215.879V365.16zm0 1.559v-.84h.84v47.16h-.84v-.84H383.16v.84h-.719v-47.16h.72v.84zm0 0"/><path d="M3.121 493.078H169.56v47.16H3.12zm0 0" fill="#97ca00"/><use xlink:href="#l" x="100.8" y="648.36" width="100%" height="100%" transform="translate(-72 -124.32)"/><use xlink:href="#c" x="107.062" y="648.36" width="100%" height="100%" transform="translate(-72 -124.32)"/><use xlink:href="#s" x="116.464" y="648.36" width="100%" height="100%" transform="translate(-72 -124.32)"/><use xlink:href="#g" x="125.866" y="648.36" width="100%" height="100%" transform="translate(-72 -124.32)"/><use xlink:href="#t" x="136.209" y="648.36" width="100%" height="100%" transform="translate(-72 -124.32)"/><use xlink:href="#u" x="145.799" y="648.36" width="100%" height="100%" transform="translate(-72 -124.32)"/><use xlink:href="#v" x="151.023" y="648.36" width="100%" height="100%" transform="translate(-72 -124.32)"/><use xlink:href="#v" x="157.285" y="648.36" width="100%" height="100%" transform="translate(-72 -124.32)"/><use xlink:href="#c" x="163.547" y="648.36" width="100%" height="100%" transform="translate(-72 -124.32)"/><use xlink:href="#k" x="172.949" y="648.36" width="100%" height="100%" transform="translate(-72 -124.32)"/><use xlink:href="#l" x="183.292" y="648.36" width="100%" height="100%" transform="translate(-72 -124.32)"/><use xlink:href="#m" x="189.685" y="648.36" width="100%" height="100%" transform="translate(-72 -124.32)"/><use xlink:href="#k" x="199.087" y="648.36" width="100%" height="100%" transform="translate(-72 -124.32)"/><use xlink:href="#l" x="209.43" y="648.36" width="100%" height="100%" transform="translate(-72 -124.32)"/><path d="M3.121 492.36h167.277v48.6h-168v-48.6zm0 1.558v-.84h.84v47.16h-.84v-.84H169.56v.84h-.72v-47.16h.72v.84zm0 0"/><path d="M216.719 238.68H383.16v47.16H216.72zm0 0" fill="#ffca00"/><use xlink:href="#c" x="316.44" y="393.96" width="100%" height="100%" transform="translate(-72 -124.32)"/><use xlink:href="#c" x="325.842" y="393.96" width="100%" height="100%" transform="translate(-72 -124.32)"/><use xlink:href="#h" x="335.432" y="393.96" width="100%" height="100%" transform="translate(-72 -124.32)"/><use xlink:href="#i" x="345.775" y="393.96" width="100%" height="100%" transform="translate(-72 -124.32)"/><use xlink:href="#q" x="350.999" y="393.96" width="100%" height="100%" transform="translate(-72 -124.32)"/><use xlink:href="#e" x="356.452" y="393.96" width="100%" height="100%" transform="translate(-72 -124.32)"/><use xlink:href="#w" x="360.63" y="393.96" width="100%" height="100%" transform="translate(-72 -124.32)"/><use xlink:href="#k" x="364.808" y="393.96" width="100%" height="100%" transform="translate(-72 -124.32)"/><use xlink:href="#c" x="375.15" y="393.96" width="100%" height="100%" transform="translate(-72 -124.32)"/><use xlink:href="#k" x="384.74" y="393.96" width="100%" height="100%" transform="translate(-72 -124.32)"/><use xlink:href="#l" x="395.083" y="393.96" width="100%" height="100%" transform="translate(-72 -124.32)"/><use xlink:href="#m" x="401.345" y="393.96" width="100%" height="100%" transform="translate(-72 -124.32)"/><use xlink:href="#k" x="410.747" y="393.96" width="100%" height="100%" transform="translate(-72 -124.32)"/><use xlink:href="#l" x="421.205" y="393.96" width="100%" height="100%" transform="translate(-72 -124.32)"/><path d="M216.719 237.96H384v48.599H215.879V237.96zm0 1.56v-.84h.84v47.16h-.84V285H383.16v.84h-.719v-47.16h.72v.84zm0 0"/><path d="M216.719 3.121H383.16v47.16H216.72zm0 0" fill="#ffca00"/><use xlink:href="#x" x="343.2" y="158.4" width="100%" height="100%" transform="translate(-72 -124.32)"/><use xlink:href="#b" x="358.996" y="158.4" width="100%" height="100%" transform="translate(-72 -124.32)"/><use xlink:href="#c" x="369.338" y="158.4" width="100%" height="100%" transform="translate(-72 -124.32)"/><use xlink:href="#d" x="378.928" y="158.4" width="100%" height="100%" transform="translate(-72 -124.32)"/><use xlink:href="#k" x="384.153" y="158.4" width="100%" height="100%" transform="translate(-72 -124.32)"/><use xlink:href="#l" x="394.495" y="158.4" width="100%" height="100%" transform="translate(-72 -124.32)"/><path d="M216.719 2.398H384V51H215.879V2.398zm0 1.563v-.84h.84v47.16h-.84v-.84H383.16v.84h-.719V3.121h.72v.84zm0 0M216.719 145.2H86.399v-.72h.722v81.598H85.56v-82.437h131.16zm0 0"/><path d="M86.398 238.68l7.801-18.84-7.8 4.68-7.919-4.68zm0 0"/><path d="M201.36 147.238c.359 0 .718.364.718.723 0 .48-.36.84-.719.84a.82.82 0 0 1-.84-.84c0-.36.36-.723.84-.723zm-6 1.68c.359 0 .718.363.718.84 0 .363-.36.722-.719.722-.48 0-.84-.359-.84-.722 0-.477.36-.84.84-.84zm-5.88 2.402c.48 0 .84.36.84.84 0 .36-.36.719-.84.719-.359 0-.718-.36-.718-.719 0-.48.36-.84.718-.84zm-5.761 2.399c.48 0 .722.36.722.84 0 .359-.242.722-.722.722s-.84-.363-.84-.722c0-.48.36-.84.84-.84zm-5.399 3.12c.48 0 .84.36.84.84 0 .481-.36.84-.84.84a.82.82 0 0 1-.84-.84c0-.48.36-.84.84-.84zm-5.16 3.602c.48 0 .84.36.84.84 0 .477-.36.719-.84.719s-.719-.242-.719-.719c0-.48.239-.84.72-.84zm-4.922 3.957c.48 0 .84.36.84.723 0 .48-.36.84-.84.84-.36 0-.718-.36-.718-.84 0-.363.359-.723.718-.723zm-3.957 4.801c.48 0 .84.36.84.84 0 .36-.36.719-.84.719s-.84-.36-.84-.719c0-.48.36-.84.84-.84zm-3.96 4.922c.359 0 .718.36.718.719 0 .48-.36.84-.719.84a.82.82 0 0 1-.84-.84c0-.36.36-.719.84-.719zm-2.52 5.758c.48 0 .84.36.84.723 0 .476-.36.84-.84.84-.36 0-.723-.364-.723-.84 0-.364.363-.723.723-.723zm-2.403 5.762c.48 0 .84.359.84.84 0 .359-.36.718-.84.718-.476 0-.718-.36-.718-.719 0-.48.242-.84.718-.84zm-1.078 6.117c.36 0 .72.363.72.844 0 .359-.36.718-.72.718-.48 0-.84-.36-.84-.718 0-.48.36-.844.84-.844zm-.84 6.242c.36 0 .72.36.72.84 0 .36-.36.719-.72.719-.48 0-.84-.36-.84-.72 0-.48.36-.839.84-.839zm-.242 6.238c.364 0 .723.364.723.84 0 .363-.36.723-.723.723-.476 0-.84-.36-.84-.723 0-.476.364-.84.84-.84zm.48 6.242c.481 0 .84.36.84.84 0 .36-.359.72-.84.72-.359 0-.718-.36-.718-.72 0-.48.36-.84.719-.84zm.602 6.239c.36 0 .72.36.72.84s-.36.84-.72.84a.82.82 0 0 1-.84-.84c0-.48.36-.84.84-.84zm1.2 6.242c.48 0 .84.238.84.719 0 .48-.36.84-.84.84-.36 0-.72-.36-.72-.84s.36-.72.72-.72zm0 0" fill="#3063ff"/><path d="M216.602 144.48L196.559 141l6.363 6.602-2.883 8.757zm0 0M159.48 238.68l2.88-20.16-6.481 6.48-8.758-2.64zm0 0" fill="#3063ff"/><path d="M87.121 285.84v67.441H85.56V285.84zm0 0"/><path d="M86.398 365.879l7.801-18.84-7.8 4.68-7.919-4.68zm0 0"/><path d="M156.121 300.719c.48 0 .84.36.84.84s-.36.84-.84.84c-.36 0-.723-.36-.723-.84s.364-.84.723-.84zm0 6.36c.48 0 .84.362.84.722 0 .48-.36.84-.84.84-.36 0-.723-.36-.723-.84 0-.36.364-.723.723-.723zm0 6.241c.48 0 .84.36.84.84 0 .36-.36.719-.84.719-.36 0-.723-.36-.723-.719 0-.48.364-.84.723-.84zm0 6.239c.48 0 .84.359.84.84 0 .48-.36.84-.84.84-.36 0-.723-.36-.723-.84 0-.481.364-.84.723-.84zm0 6.359c.48 0 .84.363.84.723 0 .48-.36.84-.84.84-.36 0-.723-.36-.723-.84 0-.36.364-.723.723-.723zm0 6.242c.48 0 .84.36.84.84 0 .36-.36.719-.84.719-.36 0-.723-.36-.723-.719 0-.48.364-.84.723-.84zm0 6.36c.48 0 .84.238.84.718s-.36.84-.84.84c-.36 0-.723-.36-.723-.84s.364-.718.723-.718zm0 6.238c.48 0 .84.363.84.722 0 .48-.36.84-.84.84-.36 0-.723-.36-.723-.84 0-.359.364-.722.723-.722zm0 6.242c.48 0 .84.36.84.84 0 .36-.36.719-.84.719-.36 0-.723-.36-.723-.72 0-.48.364-.839.723-.839zm0 0" fill="#3063ff"/><path d="M156.121 285.84l-7.8 18.84 7.8-4.68 7.918 4.68zm0 0M156.121 365.879l7.918-18.84-7.918 4.68-7.8-4.68zm0 0M300 427.918c.36 0 .719.363.719.84 0 .363-.36.722-.719.722-.48 0-.84-.359-.84-.722 0-.477.36-.84.84-.84zm0 6.363c.36 0 .719.239.719.719s-.36.84-.719.84a.82.82 0 0 1-.84-.84c0-.48.36-.719.84-.719zm0 6.239c.36 0 .719.359.719.718 0 .48-.36.84-.719.84a.82.82 0 0 1-.84-.84c0-.36.36-.718.84-.718zm0 6.238c.36 0 .719.363.719.844 0 .359-.36.718-.719.718-.48 0-.84-.36-.84-.718 0-.48.36-.844.84-.844zm0 6.363c.36 0 .719.36.719.719 0 .48-.36.84-.719.84a.82.82 0 0 1-.84-.84c0-.36.36-.719.84-.719zm0 6.238c.36 0 .719.36.719.72 0 .48-.36.839-.719.839a.82.82 0 0 1-.84-.84c0-.36.36-.719.84-.719zm0 6.243c.36 0 .719.359.719.84 0 .359-.36.718-.719.718-.48 0-.84-.36-.84-.719 0-.48.36-.84.84-.84zm0 6.359c.36 0 .719.36.719.719 0 .48-.36.84-.719.84a.82.82 0 0 1-.84-.84c0-.36.36-.72.84-.72zm0 6.238c.36 0 .719.36.719.84 0 .36-.36.719-.719.719-.48 0-.84-.36-.84-.719 0-.48.36-.84.84-.84zm0 0" fill="#3063ff"/><path d="M300 413.04l-7.922 18.839 7.922-4.68 7.8 4.68zm0 0M300 493.078l7.8-18.84-7.8 4.68-7.922-4.68zm0 0M156 428.04c.36 0 .719.358.719.718 0 .48-.36.844-.719.844a.823.823 0 0 1-.84-.844c0-.36.36-.719.84-.719zm0 6.241c.36 0 .719.36.719.84 0 .36-.36.719-.719.719-.48 0-.84-.36-.84-.719 0-.48.36-.84.84-.84zm0 6.239c.36 0 .719.359.719.84 0 .48-.36.84-.719.84a.82.82 0 0 1-.84-.84c0-.481.36-.84.84-.84zm0 6.359c.36 0 .719.36.719.723 0 .476-.36.84-.719.84a.822.822 0 0 1-.84-.84c0-.364.36-.723.84-.723zm0 6.242c.36 0 .719.36.719.84 0 .36-.36.719-.719.719-.48 0-.84-.36-.84-.72 0-.48.36-.839.84-.839zm0 6.36c.36 0 .719.238.719.718s-.36.84-.719.84a.82.82 0 0 1-.84-.84c0-.48.36-.719.84-.719zm0 6.238c.36 0 .719.36.719.722 0 .477-.36.84-.719.84a.822.822 0 0 1-.84-.84c0-.363.36-.722.84-.722zm0 6.242c.36 0 .719.36.719.84 0 .36-.36.719-.719.719-.48 0-.84-.36-.84-.72 0-.48.36-.84.84-.84zm0 6.36c.36 0 .719.359.719.718 0 .48-.36.84-.719.84a.82.82 0 0 1-.84-.84c0-.36.36-.719.84-.719zm0 0" fill="#3063ff"/><path d="M156 413.04l-7.922 18.839 7.922-4.68 7.8 4.68zm0 0M156 493.078l7.8-18.84-7.8 4.68-7.922-4.68zm0 0" fill="#3063ff"/><path d="M87.121 413.04v67.562H85.56v-67.563zm0 0"/><path d="M86.398 493.078l7.801-18.84-7.8 4.801-7.919-4.8zm0 0M300.719 168v58.078h-1.559V168zm0 0"/><path d="M300 238.68l7.8-18.84-7.8 4.68-7.922-4.68zm0 0"/><path d="M395.281 505.8c.48 0 .719.36.719.84 0 .481-.238.84-.719.84a.82.82 0 0 1-.84-.84c0-.48.36-.84.84-.84zm4.797-3.96c.48 0 .844.36.844.719 0 .48-.363.84-.844.84-.36 0-.719-.36-.719-.84 0-.36.36-.72.72-.72zm4.684-4.2c.476 0 .84.36.84.84 0 .36-.364.72-.84.72-.364 0-.723-.36-.723-.72 0-.48.36-.84.723-.84zm4.558-4.32c.48 0 .72.36.72.72 0 .48-.24.839-.72.839a.82.82 0 0 1-.84-.84c0-.36.36-.719.84-.719zm4.559-4.32c.36 0 .723.238.723.719 0 .48-.364.84-.723.84a.82.82 0 0 1-.84-.84c0-.48.36-.719.84-.719zm4.441-4.441c.48 0 .84.359.84.84 0 .359-.36.722-.84.722-.36 0-.718-.363-.718-.723 0-.48.359-.84.718-.84zm4.2-4.68c.48 0 .84.36.84.84s-.36.722-.84.722c-.36 0-.72-.242-.72-.722s.36-.84.72-.84zm4.199-4.68c.48 0 .84.36.84.84 0 .36-.36.719-.84.719s-.719-.36-.719-.719c0-.48.238-.84.719-.84zm4.203-4.68c.36 0 .719.36.719.72 0 .48-.36.84-.72.84a.823.823 0 0 1-.843-.84c0-.36.363-.72.844-.72zm3.84-4.917c.476 0 .84.359.84.84 0 .359-.364.718-.84.718-.364 0-.723-.36-.723-.719 0-.48.36-.84.723-.84zm3.718-5.043c.48 0 .84.242.84.722 0 .477-.36.84-.84.84a.822.822 0 0 1-.84-.84c0-.48.36-.722.84-.722zm3.72-5.16c.359 0 .722.359.722.84 0 .363-.363.722-.723.722-.48 0-.84-.36-.84-.723 0-.48.36-.84.84-.84zm3.359-5.278c.48 0 .84.36.84.84s-.36.84-.84.84c-.36 0-.72-.36-.72-.84s.36-.84.72-.84zm3.12-5.402c.481 0 .84.36.84.722 0 .477-.359.84-.84.84a.822.822 0 0 1-.84-.84c0-.363.36-.722.84-.722zm3.122-5.52c.36 0 .719.36.719.84 0 .36-.36.719-.72.719-.48 0-.84-.36-.84-.719 0-.48.36-.84.84-.84zm2.64-5.64c.48 0 .84.359.84.84 0 .359-.36.722-.84.722-.363 0-.722-.363-.722-.723 0-.48.36-.84.722-.84zm2.399-5.88c.36 0 .719.36.719.84 0 .481-.36.84-.72.84a.82.82 0 0 1-.839-.84c0-.48.36-.84.84-.84zm2.281-5.761c.48 0 .84.363.84.723 0 .48-.36.84-.84.84-.36 0-.723-.36-.723-.84 0-.36.364-.723.723-.723zm1.68-6c.48 0 .84.363.84.723 0 .48-.36.84-.84.84-.36 0-.723-.36-.723-.84 0-.36.363-.723.723-.723zm1.437-6.117c.48 0 .84.36.84.719 0 .48-.36.84-.84.84-.36 0-.718-.36-.718-.84 0-.36.359-.72.718-.72zm1.442-6.121c.36 0 .718.36.718.718 0 .48-.359.84-.718.84a.82.82 0 0 1-.84-.84c0-.359.36-.718.84-.718zm.48-6.36c.36 0 .719.36.719.84s-.36.719-.719.719c-.48 0-.84-.238-.84-.719 0-.48.36-.84.84-.84zm.48-6.242c.481 0 .72.363.72.84 0 .363-.239.723-.72.723-.48 0-.84-.36-.84-.723 0-.477.36-.84.84-.84zm-.12-6.238c.48 0 .718.36.718.84 0 .36-.238.718-.718.718s-.84-.359-.84-.718c0-.48.36-.84.84-.84zm-.48-6.238c.358 0 .722.359.722.718 0 .48-.364.84-.723.84a.82.82 0 0 1-.84-.84c0-.36.36-.718.84-.718zm-.599-6.243c.48 0 .84.36.84.72 0 .48-.36.839-.84.839a.82.82 0 0 1-.84-.84c0-.36.36-.719.84-.719zM462 366.24c.36 0 .719.363.719.722 0 .48-.36.84-.719.84a.82.82 0 0 1-.84-.84c0-.36.36-.723.84-.723zm-1.559-6.118c.48 0 .84.36.84.84 0 .36-.36.719-.84.719-.363 0-.722-.36-.722-.72 0-.48.36-.839.722-.839zm-1.8-6c.359 0 .718.36.718.84 0 .36-.359.719-.718.719-.48 0-.84-.36-.84-.72 0-.48.36-.839.84-.839zm-2.403-5.762c.48 0 .84.36.84.72 0 .48-.36.839-.84.839-.36 0-.718-.36-.718-.84 0-.36.359-.719.718-.719zm-2.277-5.879c.36 0 .719.36.719.84 0 .36-.36.72-.72.72-.48 0-.839-.36-.839-.72 0-.48.36-.84.84-.84zm-2.883-5.52c.363 0 .723.36.723.72 0 .48-.36.84-.723.84a.822.822 0 0 1-.84-.84c0-.36.364-.72.84-.72zm-3.117-5.519c.48 0 .84.36.84.72 0 .48-.36.839-.84.839-.36 0-.723-.36-.723-.84 0-.36.364-.719.723-.719zm-3-5.523c.36 0 .719.363.719.84 0 .363-.36.722-.72.722-.48 0-.839-.359-.839-.722 0-.477.36-.84.84-.84zm-3.602-5.16c.36 0 .72.363.72.844 0 .476-.36.718-.72.718-.48 0-.84-.242-.84-.718 0-.48.36-.844.84-.844zm-3.718-5.04c.48 0 .84.36.84.723 0 .477-.36.84-.84.84s-.72-.363-.72-.84c0-.363.24-.722.72-.722zm-3.72-5.16c.477 0 .84.36.84.84s-.363.84-.84.84c-.362 0-.722-.36-.722-.84s.36-.84.723-.84zm-3.96-4.8c.48 0 .719.363.719.844 0 .359-.239.718-.72.718-.48 0-.839-.36-.839-.718 0-.48.36-.844.84-.844zm-4.2-4.68c.477 0 .84.363.84.84 0 .363-.363.723-.84.723-.363 0-.722-.36-.722-.723 0-.477.36-.84.723-.84zm-4.081-4.68c.36 0 .718.36.718.723 0 .48-.359.84-.718.84a.82.82 0 0 1-.84-.84c0-.363.36-.723.84-.723zm-4.32-4.558c.48 0 .84.238.84.719 0 .48-.36.84-.84.84a.82.82 0 0 1-.84-.84c0-.48.359-.72.84-.72zm-4.56-4.442c.481 0 .84.36.84.84 0 .364-.359.723-.84.723-.359 0-.722-.36-.722-.723 0-.48.363-.84.723-.84zm-4.562-4.32c.48 0 .84.363.84.84 0 .363-.36.723-.84.723-.36 0-.718-.36-.718-.723 0-.477.359-.84.718-.84zm-4.437-4.32c.36 0 .719.363.719.722 0 .48-.36.84-.72.84a.82.82 0 0 1-.84-.84c0-.359.36-.722.84-.722zM399 274.68c.48 0 .84.238.84.718s-.36.84-.84.84c-.36 0-.719-.36-.719-.84s.36-.718.719-.718zm-4.8-4.078c.48 0 .722.359.722.84 0 .359-.242.718-.723.718-.48 0-.84-.36-.84-.719 0-.48.36-.84.84-.84zm0 0" fill="#3063ff"/><path d="M383.16 516.719l19.559-6-8.64-3.117-1.438-9zm0 0M383.16 262.2l9.48 18.12 1.438-9 8.64-3zm0 0" fill="#3063ff"/><path d="M300.719 285.84v67.558h-1.559V285.84zm0 0"/><path d="M300 365.879l7.8-18.84-7.8 4.68-7.922-4.68zm0 0"/><path d="M396.719 253.441c.48 0 .722.36.722.84 0 .36-.242.719-.722.719s-.84-.36-.84-.719c0-.48.36-.84.84-.84zm5.402-3.12c.48 0 .84.359.84.718 0 .48-.36.84-.84.84a.82.82 0 0 1-.84-.84c0-.36.36-.719.84-.719zm5.399-3.243c.48 0 .84.363.84.84 0 .363-.36.723-.84.723s-.72-.36-.72-.723c0-.477.24-.84.72-.84zm4.921-3.957c.48 0 .72.36.72.84s-.24.719-.72.719-.84-.239-.84-.72c0-.48.36-.839.84-.839zm4.797-3.96c.48 0 .84.359.84.839 0 .36-.36.719-.84.719-.36 0-.718-.36-.718-.719 0-.48.359-.84.718-.84zm4.922-3.962c.36 0 .719.36.719.719 0 .48-.36.84-.719.84a.82.82 0 0 1-.84-.84c0-.36.36-.719.84-.719zm4.559-4.32c.36 0 .722.36.722.84 0 .36-.363.722-.722.722-.48 0-.84-.363-.84-.722 0-.48.36-.84.84-.84zm3.722-5.04c.36 0 .72.36.72.72 0 .48-.36.84-.72.84a.82.82 0 0 1-.84-.84c0-.36.36-.72.84-.72zm3.598-5.038c.48 0 .84.238.84.719 0 .48-.36.84-.84.84-.36 0-.719-.36-.719-.84s.36-.72.72-.72zm3.242-5.403c.36 0 .719.36.719.723 0 .48-.36.84-.719.84a.82.82 0 0 1-.84-.84c0-.363.36-.723.84-.723zm2.04-5.878c.359 0 .718.238.718.718s-.36.84-.719.84a.82.82 0 0 1-.84-.84c0-.48.36-.718.84-.718zm.718-6.239c.48 0 .84.239.84.719s-.36.84-.84.84-.719-.36-.719-.84.239-.719.72-.719zm-.598-6.242c.48 0 .84.36.84.719 0 .48-.36.844-.84.844s-.722-.364-.722-.844c0-.36.242-.719.722-.719zm-1.68-6c.36 0 .72.36.72.719 0 .48-.36.844-.72.844a.823.823 0 0 1-.84-.844c0-.36.36-.719.84-.719zm-2.882-5.52c.36 0 .723.36.723.72 0 .48-.364.84-.723.84a.82.82 0 0 1-.84-.84c0-.36.36-.72.84-.72zm-3.719-5.16c.48 0 .719.36.719.84 0 .36-.238.719-.719.719-.48 0-.84-.36-.84-.719 0-.48.36-.84.84-.84zm-3.719-5.039c.48 0 .84.36.84.72 0 .48-.36.839-.84.839-.363 0-.722-.36-.722-.84 0-.36.36-.719.722-.719zm-4.32-4.441c.48 0 .719.36.719.723 0 .476-.238.84-.719.84a.822.822 0 0 1-.84-.84c0-.364.36-.723.84-.723zm-4.8-4.078c.359 0 .718.36.718.84 0 .359-.36.718-.719.718-.48 0-.84-.359-.84-.718 0-.48.36-.84.84-.84zm-4.923-3.961c.48 0 .84.36.84.719 0 .48-.36.84-.84.84-.359 0-.718-.36-.718-.84 0-.36.36-.72.718-.72zm-4.796-4.082c.476 0 .718.363.718.844 0 .476-.242.84-.718.84a.822.822 0 0 1-.84-.84c0-.48.36-.844.84-.844zm-5.403-3.238c.48 0 .84.359.84.84 0 .359-.36.718-.84.718-.36 0-.719-.36-.719-.719 0-.48.36-.84.72-.84zm-5.398-3.122c.48 0 .84.243.84.723s-.36.84-.84.84c-.36 0-.723-.36-.723-.84s.363-.723.723-.723zm0 0" fill="#3063ff"/><path d="M383.16 262.2l20.281-2.759-8.043-4.32v-9.242zm0 0M383.16 144.48l12.238 16.32v-9.12l8.043-4.32zm0 0" fill="#3063ff"/><path d="M300.719 50.281v58.078h-1.559V50.281zm0 0"/><path d="M300 120.96l7.8-18.839-7.8 4.68-7.922-4.68zm0 0"/></svg>