<svg xmlns="http://www.w3.org/2000/svg" xmlns:xlink="http://www.w3.org/1999/xlink" width="624" height="321.281" viewBox="0 0 468 240.961"><defs><symbol overflow="visible" id="a"><path d="M.656 0v-6.266h1.235l1.484 4.438c.133.418.234.726.297.922.07-.227.187-.563.344-1l1.5-4.36h1.109V0h-.797v-5.25L4 0h-.734L1.453-5.328V0zm0 0"/></symbol><symbol overflow="visible" id="b"><path d="M3.531-.563a2.812 2.812 0 0 1-.828.516A2.314 2.314 0 0 1 1.86.11C1.367.11.99-.008.72-.25a1.23 1.23 0 0 1-.406-.953c0-.219.05-.414.156-.594.101-.187.234-.332.39-.437.164-.114.352-.204.563-.266.144-.04.375-.078.687-.11.614-.07 1.067-.16 1.36-.265.008-.102.015-.172.015-.203 0-.313-.074-.535-.218-.672-.2-.164-.493-.25-.875-.25-.368 0-.637.063-.813.188-.168.124-.293.351-.375.671l-.75-.109c.063-.313.172-.566.328-.766.156-.195.38-.347.672-.453.3-.113.649-.172 1.047-.172.383 0 .695.047.938.141.238.094.414.21.53.344.114.136.196.308.25.515.02.137.032.375.032.72v1.015c0 .718.016 1.172.047 1.36.031.187.098.37.203.546h-.813a1.958 1.958 0 0 1-.156-.563zM3.47-2.28c-.274.117-.688.215-1.25.297-.313.043-.54.093-.672.156a.628.628 0 0 0-.313.25.695.695 0 0 0-.093.36c0 .21.078.382.234.515.156.137.379.203.672.203.3 0 .566-.063.797-.188.226-.132.394-.312.5-.53.082-.177.125-.438.125-.782zm0 0"/></symbol><symbol overflow="visible" id="c"><path d="M.266-1.36l.765-.109c.04.305.157.54.344.703.195.157.473.235.828.235.352 0 .613-.07.781-.219.176-.145.266-.313.266-.5a.449.449 0 0 0-.234-.406c-.106-.07-.368-.16-.782-.266-.562-.144-.953-.27-1.171-.375a1.14 1.14 0 0 1-.5-.422 1.125 1.125 0 0 1-.172-.61c0-.206.046-.394.14-.562.094-.175.223-.32.39-.437.114-.082.274-.156.485-.219.207-.062.426-.094.657-.094.363 0 .675.055.937.157.27.105.469.246.594.421.133.168.222.403.265.704l-.75.093a.776.776 0 0 0-.296-.53C2.655-3.93 2.425-4 2.125-4c-.355 0-.61.059-.766.172-.148.117-.218.25-.218.406 0 .106.03.195.093.266.063.086.16.152.297.203a7 7 0 0 0 .672.203c.55.148.93.266 1.14.36.22.093.384.23.5.406.126.18.188.398.188.656 0 .25-.074.492-.218.719a1.42 1.42 0 0 1-.641.53 2.368 2.368 0 0 1-.969.188C1.617.11 1.172-.008.86-.25.547-.5.348-.867.266-1.36zm0 0"/></symbol><symbol overflow="visible" id="d"><path d="M2.25-.688l.11.672c-.212.051-.403.079-.579.079-.273 0-.484-.043-.64-.126a.763.763 0 0 1-.329-.359C.75-.566.72-.867.72-1.328v-2.61H.156v-.593H.72v-1.125l.765-.469v1.594h.766v.593h-.766v2.657c0 .218.008.36.032.422a.386.386 0 0 0 .14.156.599.599 0 0 0 .266.047c.082 0 .191-.008.328-.031zm0 0"/></symbol><symbol overflow="visible" id="e"><path d="M3.688-1.469l.796.11c-.125.46-.359.82-.703 1.078-.344.261-.777.39-1.297.39C1.816.11 1.29-.094.906-.5.52-.914.328-1.492.328-2.234.328-2.992.52-3.582.906-4c.395-.426.906-.64 1.531-.64.602 0 1.098.21 1.485.624.383.407.578.985.578 1.735v.203H1.11c.03.5.171.887.421 1.156.258.262.578.39.953.39.282 0 .52-.07.72-.218.194-.145.358-.383.483-.719zM1.155-2.703h2.532c-.032-.383-.126-.672-.282-.86-.25-.289-.57-.437-.953-.437a1.21 1.21 0 0 0-.89.36c-.243.23-.375.542-.407.937zm0 0"/></symbol><symbol overflow="visible" id="f"><path d="M.563 0v-4.531h.703v.687c.175-.32.336-.535.484-.64a.854.854 0 0 1 .5-.157c.25 0 .508.086.781.25l-.265.72a1.083 1.083 0 0 0-.563-.173.733.733 0 0 0-.453.156.716.716 0 0 0-.281.422c-.086.274-.125.57-.125.891V0zm0 0"/></symbol><symbol overflow="visible" id="al"><path d="M5.14-2.203l.829.219c-.168.68-.48 1.199-.938 1.562-.449.356-1 .531-1.656.531-.68 0-1.23-.132-1.656-.406C1.3-.578.984-.977.766-1.5a4.268 4.268 0 0 1-.329-1.672c0-.656.126-1.223.376-1.703a2.54 2.54 0 0 1 1.062-1.11 3.03 3.03 0 0 1 1.516-.39c.625 0 1.148.164 1.578.484.426.325.722.774.89 1.344l-.812.188c-.149-.446-.36-.774-.64-.985-.274-.207-.618-.312-1.032-.312-.48 0-.883.117-1.203.343a1.84 1.84 0 0 0-.688.938 3.832 3.832 0 0 0-.187 1.188c0 .53.07 1 .219 1.406.156.398.394.695.718.89.332.188.692.282 1.079.282.457 0 .847-.13 1.171-.391.32-.27.54-.672.657-1.203zm0 0"/></symbol><symbol overflow="visible" id="am"><path d="M.578 0v-6.266h.766v2.25a1.738 1.738 0 0 1 1.36-.625c.331 0 .624.07.874.204.25.125.426.308.531.546.102.23.157.57.157 1.016V0H3.5v-2.875c0-.383-.086-.664-.25-.844-.168-.176-.402-.265-.703-.265-.23 0-.445.062-.64.187-.2.117-.345.277-.438.485-.086.199-.125.476-.125.828V0zm0 0"/></symbol><symbol overflow="visible" id="an"><path d="M.578-5.375v-.89h.766v.89zM.578 0v-4.531h.766V0zm0 0"/></symbol><symbol overflow="visible" id="ao"><path d="M.563 0v-6.266h.765V0zm0 0"/></symbol><symbol overflow="visible" id="ap"><path d="M3.516 0v-.578c-.282.46-.704.687-1.266.687-.367 0-.7-.101-1-.296a2.018 2.018 0 0 1-.703-.844c-.168-.352-.25-.766-.25-1.235 0-.445.07-.851.219-1.218a1.83 1.83 0 0 1 .687-.86c.3-.195.64-.297 1.016-.297a1.542 1.542 0 0 1 1.25.625v-2.25h.765V0zM1.094-2.266c0 .586.117 1.024.36 1.313.25.281.538.422.874.422.332 0 .613-.133.844-.406.238-.282.36-.704.36-1.266 0-.613-.122-1.067-.36-1.36C2.93-3.852 2.64-4 2.297-4s-.633.14-.86.422c-.23.273-.343.71-.343 1.312zm0 0"/></symbol><symbol overflow="visible" id="g"><path d="M4-1.984l1.063.328c-.168.593-.438 1.039-.813 1.328-.375.281-.855.422-1.438.422-.71 0-1.296-.242-1.765-.735C.586-1.129.359-1.8.359-2.656c0-.895.227-1.594.688-2.094.469-.5 1.082-.75 1.844-.75.656 0 1.191.2 1.609.594.238.23.422.562.547 1l-1.078.25c-.063-.281-.2-.5-.406-.656-.2-.165-.446-.25-.735-.25-.398 0-.719.148-.969.437-.25.281-.375.746-.375 1.39 0 .688.118 1.18.36 1.47.25.28.57.421.968.421.29 0 .54-.086.75-.265.208-.188.352-.477.438-.875zm0 0"/></symbol><symbol overflow="visible" id="h"><path d="M.297-2.016c0-.343.082-.675.25-1 .176-.32.422-.566.734-.734.313-.164.657-.25 1.032-.25.593 0 1.078.195 1.453.578.382.387.578.871.578 1.453 0 .594-.196 1.09-.578 1.485-.387.386-.868.578-1.438.578-.367 0-.71-.078-1.031-.235a1.753 1.753 0 0 1-.75-.718c-.168-.32-.25-.707-.25-1.157zm1.062.063c0 .387.094.683.282.89.187.211.414.313.687.313.27 0 .492-.102.672-.313.188-.207.281-.507.281-.906 0-.375-.094-.664-.281-.875a.854.854 0 0 0-.672-.312.89.89 0 0 0-.687.312c-.188.211-.282.508-.282.89zm0 0"/></symbol><symbol overflow="visible" id="i"><path d="M4.094 0H3.062v-2c0-.414-.023-.688-.062-.813a.516.516 0 0 0-.219-.28.587.587 0 0 0-.36-.11c-.179 0-.339.047-.483.14a.808.808 0 0 0-.297.391c-.055.168-.079.469-.079.906V0H.532v-3.906H1.5v.562C1.844-3.78 2.27-4 2.781-4c.227 0 .438.043.625.125.196.086.344.188.438.313.094.124.156.273.187.437.04.156.063.387.063.688zm0 0"/></symbol><symbol overflow="visible" id="j"><path d="M2.344-3.906v.812h-.719v1.578c0 .325.004.512.016.563.02.055.05.101.093.14.051.032.114.047.188.047.094 0 .226-.035.406-.109l.094.813a2.078 2.078 0 0 1-.813.156C1.422.094 1.25.062 1.094 0a.773.773 0 0 1-.328-.234.867.867 0 0 1-.141-.422C.602-.77.594-1.008.594-1.375v-1.719H.109v-.812h.485v-.781l1.031-.61v1.39zm0 0"/></symbol><symbol overflow="visible" id="k"><path d="M2.813-1.25l1.03.172c-.136.387-.35.68-.64.875-.281.2-.637.297-1.062.297C1.453.094.945-.13.625-.578c-.262-.352-.39-.8-.39-1.344 0-.656.163-1.164.5-1.531A1.708 1.708 0 0 1 2.03-4c.582 0 1.04.195 1.375.578.344.387.504.977.485 1.766H1.297c.008.304.094.543.25.718a.8.8 0 0 0 .594.25c.164 0 .3-.039.406-.125.113-.093.203-.238.265-.437zm.046-1.047c0-.289-.078-.515-.234-.672a.706.706 0 0 0-.531-.234.731.731 0 0 0-.563.234c-.148.168-.218.39-.218.672zm0 0"/></symbol><symbol overflow="visible" id="l"><path d="M.047 0l1.406-2.016L.11-3.906h1.25l.704 1.062.734-1.062H4L2.672-2.062 4.125 0H2.859l-.796-1.219L1.25 0zm0 0"/></symbol><symbol overflow="visible" id="F"><path d="M.547-5.406h2.172c.426 0 .742.023.953.062.207.032.394.106.562.219.164.117.301.266.407.453a1.277 1.277 0 0 1-.031 1.328c-.137.211-.325.367-.563.469a1.4 1.4 0 0 1 .766.5c.175.23.265.5.265.813 0 .242-.058.48-.172.718-.117.23-.273.418-.468.563-.2.136-.446.219-.735.25-.18.023-.617.031-1.312.031H.547zM1.64-4.5v1.25h.718c.426 0 .692-.004.797-.016a.777.777 0 0 0 .438-.203.572.572 0 0 0 .156-.422.59.59 0 0 0-.14-.406.65.65 0 0 0-.407-.187 17.74 17.74 0 0 0-.937-.016zm0 2.14v1.454h1.015c.395 0 .645-.008.75-.031a.688.688 0 0 0 .39-.22c.102-.113.157-.269.157-.468a.686.686 0 0 0-.125-.406.646.646 0 0 0-.344-.25c-.148-.051-.464-.078-.953-.078zm0 0"/></symbol><symbol overflow="visible" id="G"><path d="M1.531 0H.5v-3.906h.953v.547c.164-.258.313-.43.438-.516A.85.85 0 0 1 2.344-4c.238 0 .469.063.687.188l-.312.906c-.18-.114-.344-.172-.5-.172a.559.559 0 0 0-.36.125c-.105.086-.187.23-.25.437-.054.211-.078.649-.078 1.313zm0 0"/></symbol><symbol overflow="visible" id="H"><path d="M.5 0v-5.406h1.047v2.875L2.75-3.906h1.281L2.688-2.484 4.125 0H3l-.984-1.75-.47.5V0zm0 0"/></symbol><symbol overflow="visible" id="U"><path d="M.547 0v-5.406h2.297c.582 0 1.004.054 1.265.156.258.094.47.266.625.516.157.25.235.53.235.843 0 .407-.121.746-.36 1.016-.242.262-.593.422-1.062.484.238.149.43.305.578.47.156.155.363.448.625.874L5.406 0H4.11l-.796-1.172c-.282-.426-.477-.691-.579-.797a.62.62 0 0 0-.328-.218 1.828 1.828 0 0 0-.547-.063h-.218V0zM1.64-3.125h.812c.52 0 .844-.02.969-.063a.567.567 0 0 0 .312-.218.76.76 0 0 0 .11-.406c0-.188-.047-.333-.14-.438a.658.658 0 0 0-.407-.219c-.094-.008-.36-.015-.797-.015h-.86zm0 0"/></symbol><symbol overflow="visible" id="V"><path d="M3.125 0v-.578a1.596 1.596 0 0 1-1.297.672 1.47 1.47 0 0 1-.719-.172C.9-.203.75-.368.656-.578c-.094-.207-.14-.492-.14-.86v-2.468h1.046v1.797c0 .543.016.875.047 1 .04.125.11.226.204.296a.65.65 0 0 0 .39.11.809.809 0 0 0 .469-.14.715.715 0 0 0 .297-.36c.05-.145.078-.5.078-1.063v-1.64h1.031V0zm0 0"/></symbol><symbol overflow="visible" id="ac"><path d="M.266-1.75l1.062-.11c.07.356.203.618.39.782.196.168.462.25.798.25.351 0 .617-.07.796-.219.176-.144.266-.316.266-.516a.457.457 0 0 0-.125-.328c-.074-.093-.203-.171-.39-.234-.126-.05-.415-.129-.86-.234-.594-.145-1.008-.329-1.234-.547-.336-.29-.5-.649-.5-1.078 0-.282.078-.54.234-.782.156-.238.379-.421.672-.546.29-.125.645-.188 1.063-.188.675 0 1.187.152 1.53.453.345.293.524.688.548 1.188l-1.094.046c-.055-.28-.156-.476-.313-.593-.148-.125-.375-.188-.687-.188-.313 0-.559.07-.735.203a.388.388 0 0 0-.171.329c0 .125.05.234.156.328.133.117.469.234 1 .359.531.125.922.258 1.172.39.258.137.46.325.61.563.144.23.218.512.218.844 0 .312-.09.605-.266.875a1.515 1.515 0 0 1-.734.61C3.359.03 2.969.093 2.5.093c-.68 0-1.203-.157-1.578-.469C.555-.688.336-1.145.266-1.75zm0 0"/></symbol><symbol overflow="visible" id="ad"><path d="M1.313-2.719L.375-2.89c.102-.375.285-.648.547-.828C1.18-3.906 1.566-4 2.078-4c.457 0 .797.059 1.016.172.226.105.39.242.484.406.094.168.14.477.14.922l-.015 1.219c0 .343.016.601.047.765.04.157.102.329.188.516H2.921a2.457 2.457 0 0 1-.11-.313c-.011-.05-.023-.085-.03-.109-.18.168-.372.297-.579.39-.2.083-.414.126-.64.126-.399 0-.715-.11-.954-.328a1.088 1.088 0 0 1-.343-.829c0-.226.05-.425.156-.593.101-.176.25-.313.437-.407.196-.093.473-.171.829-.234.488-.094.828-.176 1.015-.25v-.11c0-.195-.055-.335-.156-.421-.094-.082-.277-.125-.547-.125-.188 0-.336.039-.438.11-.105.062-.187.187-.25.374zm1.39.844a8.212 8.212 0 0 1-.64.156c-.282.063-.47.121-.563.172-.137.106-.203.23-.203.375 0 .149.05.274.156.375a.594.594 0 0 0 .422.156.873.873 0 0 0 .531-.187.58.58 0 0 0 .25-.344c.031-.082.047-.25.047-.5zm0 0"/></symbol><symbol overflow="visible" id="ae"><path d="M.469-3.906h.953v.531C1.766-3.789 2.172-4 2.64-4c.25 0 .46.055.64.156.188.106.344.262.469.469.164-.207.348-.363.547-.469.195-.101.41-.156.64-.156.29 0 .536.059.735.172.195.117.344.289.437.515.07.168.11.438.11.813V0H5.187v-2.234c0-.383-.039-.633-.109-.75-.094-.145-.242-.22-.437-.22a.773.773 0 0 0-.703.516c-.055.168-.079.438-.079.813V0H2.83v-2.14c0-.383-.024-.63-.063-.735a.422.422 0 0 0-.172-.25.551.551 0 0 0-.313-.078.754.754 0 0 0-.422.125.773.773 0 0 0-.28.375c-.056.156-.079.422-.079.797V0H.469zm0 0"/></symbol><symbol overflow="visible" id="ah"><path d="M1.578-5.406v1.984C1.91-3.805 2.305-4 2.766-4c.238 0 .453.047.64.14.196.087.344.196.438.329.101.136.172.289.203.453.031.168.047.43.047.781V0H3.062v-2.063c0-.414-.023-.675-.062-.78a.446.446 0 0 0-.203-.266.666.666 0 0 0-.375-.094.85.85 0 0 0-.453.125.734.734 0 0 0-.297.375c-.063.168-.094.418-.094.75V0H.531v-5.406zm0 0"/></symbol><symbol overflow="visible" id="ai"><path d="M.547 0v-5.406h1.031V0zm0 0"/></symbol><symbol overflow="visible" id="ay"><path d="M.547 0v-5.406h4v.922H1.64v1.187h2.718v.922H1.641v1.469h3.015V0zm0 0"/></symbol><symbol overflow="visible" id="o"><path d="M2.813-1.328l.593.078c-.062.418-.23.746-.5.984-.273.23-.605.344-1 .344-.492 0-.886-.16-1.187-.484-.305-.32-.453-.785-.453-1.39 0-.384.062-.724.187-1.016a1.41 1.41 0 0 1 .594-.657c.27-.144.562-.219.875-.219.383 0 .703.102.953.297.25.2.41.48.484.844l-.593.094c-.063-.238-.168-.422-.313-.547a.735.735 0 0 0-.515-.188.95.95 0 0 0-.75.344C1-2.625.905-2.28.905-1.813c0 .493.086.844.266 1.063.187.219.43.328.734.328.239 0 .438-.07.594-.219.164-.144.27-.375.313-.687zm0 0"/></symbol><symbol overflow="visible" id="p"><path d="M2.813-.438c-.231.188-.45.325-.657.407-.21.07-.433.11-.672.11-.398 0-.703-.095-.921-.282a.973.973 0 0 1-.313-.75c0-.176.04-.336.125-.485.082-.144.188-.257.313-.343.125-.094.269-.16.437-.203a5.06 5.06 0 0 1 .547-.094c.488-.063.851-.129 1.094-.203v-.172c0-.25-.059-.422-.172-.516-.156-.144-.39-.219-.703-.219-.282 0-.496.055-.641.157-.137.105-.234.281-.297.531L.36-2.578c.051-.25.141-.453.266-.61.125-.164.3-.289.531-.374.239-.083.516-.126.828-.126.301 0 .547.04.735.11.195.074.344.168.437.281a.834.834 0 0 1 .188.406c.02.106.031.293.031.563v.812c0 .575.008.938.031 1.094.031.149.086.29.172.422h-.64a1.306 1.306 0 0 1-.126-.438zm-.047-1.375c-.23.094-.563.172-1 .235-.25.031-.43.074-.532.125a.533.533 0 0 0-.25.203.51.51 0 0 0-.078.281.56.56 0 0 0 .172.422c.125.106.305.156.547.156.238 0 .445-.05.625-.156a.921.921 0 0 0 .406-.422c.07-.144.11-.347.11-.61zm0 0"/></symbol><symbol overflow="visible" id="q"><path d="M.438 0v-4.984h.625V0zm0 0"/></symbol><symbol overflow="visible" id="r"><path d="M1.625 1.469a6.464 6.464 0 0 1-.86-1.5 4.674 4.674 0 0 1-.343-1.766c0-.539.086-1.055.266-1.547.195-.57.507-1.144.937-1.719h.438c-.274.47-.454.81-.547 1.016a6.017 6.017 0 0 0-.329.969c-.093.43-.14.855-.14 1.281 0 1.086.336 2.172 1.016 3.266zm0 0"/></symbol><symbol overflow="visible" id="s"><path d="M.61 0v-3.125H.062v-.484h.546v-.375c0-.25.02-.43.063-.547a.682.682 0 0 1 .297-.375c.156-.102.367-.157.64-.157.164 0 .352.024.563.063l-.094.531a2.354 2.354 0 0 0-.36-.031c-.187 0-.32.043-.39.125-.074.074-.11.219-.11.438v.328h.704v.484h-.703V0zm0 0"/></symbol><symbol overflow="visible" id="t"><path d="M2.828 0v-.531c-.281.406-.668.61-1.156.61-.211 0-.406-.04-.594-.11a1.03 1.03 0 0 1-.422-.313 1.12 1.12 0 0 1-.172-.453 2.587 2.587 0 0 1-.046-.578v-2.234h.625v2c0 .324.007.543.03.656.04.156.126.281.25.375.126.094.274.14.454.14.187 0 .36-.046.516-.14a.744.744 0 0 0 .343-.39c.063-.165.094-.4.094-.704v-1.937h.625V0zm0 0"/></symbol><symbol overflow="visible" id="u"><path d="M.453 0v-3.61h.563v.516c.257-.394.64-.594 1.14-.594.219 0 .414.043.594.126a.85.85 0 0 1 .406.296c.094.125.16.278.203.454.02.117.032.312.032.593V0h-.61v-2.188c0-.25-.027-.437-.078-.562a.544.544 0 0 0-.25-.297.848.848 0 0 0-.422-.11c-.261 0-.492.087-.687.25-.188.169-.282.481-.282.938V0zm0 0"/></symbol><symbol overflow="visible" id="v"><path d="M.625 0v-.703h.688V0c0 .258-.047.469-.141.625a.844.844 0 0 1-.422.36L.578.718A.57.57 0 0 0 .86.469C.922.363.957.207.97 0zm0 0"/></symbol><symbol overflow="visible" id="x"><path d="M.219-4.063l.156-.484c.352.125.613.234.781.328a9.3 9.3 0 0 1-.062-.843h.484c0 .23-.027.511-.078.843.238-.113.508-.222.813-.328l.156.484a4.413 4.413 0 0 1-.86.188c.145.125.344.34.594.64l-.406.297a8.315 8.315 0 0 1-.469-.734c-.168.324-.312.57-.437.735l-.407-.297c.258-.32.446-.536.563-.641a7.848 7.848 0 0 1-.828-.188zm0 0"/></symbol><symbol overflow="visible" id="y"><path d="M.453 0v-3.61H1v.547c.145-.25.273-.414.39-.5a.648.648 0 0 1 .391-.124c.207 0 .414.07.625.203l-.203.562a.885.885 0 0 0-.453-.14.559.559 0 0 0-.36.124.649.649 0 0 0-.218.344c-.074.211-.11.446-.11.703V0zm0 0"/></symbol><symbol overflow="visible" id="z"><path d="M.344.297L.938.39c.03.175.097.304.203.39.156.114.363.172.625.172.28 0 .5-.058.656-.172a.777.777 0 0 0 .312-.469c.032-.124.047-.382.047-.78-.273.312-.605.468-1 .468-.5 0-.886-.176-1.156-.531C.352-.895.219-1.328.219-1.828c0-.344.062-.66.187-.953.125-.29.305-.516.547-.672.238-.156.516-.235.828-.235.426 0 .782.172 1.063.516v-.437h.562v3.125c0 .562-.058.957-.172 1.187a1.266 1.266 0 0 1-.546.563c-.25.132-.56.203-.922.203-.43 0-.778-.102-1.047-.297C.457.972.332.68.344.297zm.515-2.172c0 .48.094.828.282 1.047a.888.888 0 0 0 .703.328c.281 0 .515-.11.703-.328.187-.219.281-.555.281-1.016 0-.445-.101-.781-.297-1a.88.88 0 0 0-.703-.344c-.273 0-.5.118-.687.344-.188.219-.282.543-.282.969zm0 0"/></symbol><symbol overflow="visible" id="A"><path d="M.219-1.078l.594-.094c.039.242.132.43.28.563.157.125.376.187.657.187s.488-.055.625-.172A.524.524 0 0 0 2.578-1a.397.397 0 0 0-.172-.328c-.086-.05-.293-.117-.625-.203-.449-.114-.761-.211-.937-.297a.908.908 0 0 1-.406-.344.897.897 0 0 1-.126-.469c0-.164.036-.316.11-.453.07-.133.172-.25.297-.344.101-.07.234-.128.39-.171a1.8 1.8 0 0 1 .532-.079c.28 0 .523.043.734.126.219.085.379.195.484.328.102.136.176.324.22.562l-.61.078a.632.632 0 0 0-.235-.437c-.125-.102-.308-.156-.546-.156-.282 0-.485.046-.61.14a.408.408 0 0 0-.172.328c0 .086.024.156.078.219.051.063.13.117.235.156.062.024.238.074.531.156.438.118.738.211.906.282a.875.875 0 0 1 .406.328c.094.137.141.308.141.516 0 .21-.058.402-.172.578-.117.18-.289.32-.515.421a2.01 2.01 0 0 1-.766.141C1.281.078.922-.016.672-.203.43-.398.282-.691.219-1.078zm0 0"/></symbol><symbol overflow="visible" id="B"><path d="M.86 1.469H.421C1.098.375 1.438-.711 1.438-1.797c0-.426-.047-.848-.141-1.266a6.612 6.612 0 0 0-.328-.984 21.587 21.587 0 0 0-.547-1.016h.437a6.51 6.51 0 0 1 .938 1.72 4.566 4.566 0 0 1-.094 3.312c-.23.57-.512 1.07-.844 1.5zm0 0"/></symbol><symbol overflow="visible" id="C"><path d="M2.922-1.156l.64.078A1.604 1.604 0 0 1 3-.218c-.273.198-.617.296-1.031.296-.524 0-.938-.16-1.25-.484C.406-.726.25-1.18.25-1.766c0-.613.156-1.086.469-1.421.312-.333.719-.5 1.219-.5.476 0 .867.167 1.171.5.313.324.47.78.47 1.374v.172H.89c.02.399.129.7.328.907.207.21.457.312.75.312a.94.94 0 0 0 .578-.172c.156-.125.281-.312.375-.562zm-2-1h2.015c-.03-.301-.109-.524-.234-.672a.94.94 0 0 0-.75-.36c-.281 0-.523.094-.719.282-.187.187-.293.437-.312.75zm0 0"/></symbol><symbol overflow="visible" id="D"><path d="M2.797 0v-.453c-.23.355-.563.531-1 .531C1.504.078 1.238 0 1-.156a1.545 1.545 0 0 1-.563-.656 2.275 2.275 0 0 1-.203-.985c0-.363.055-.691.172-.984.125-.29.305-.516.547-.672.238-.156.508-.235.813-.235.218 0 .41.047.578.141.164.094.3.215.406.36v-1.797h.61V0zM.859-1.797c0 .461.098.805.297 1.031.196.23.426.344.688.344.27 0 .5-.11.687-.328.188-.219.281-.55.281-1 0-.488-.101-.848-.296-1.078-.188-.238-.422-.36-.704-.36-.273 0-.5.118-.687.344-.18.219-.266.57-.266 1.047zm0 0"/></symbol><symbol overflow="visible" id="E"><path d="M.453 0v-3.61H1v.516c.113-.176.266-.316.453-.422.188-.113.399-.171.64-.171.27 0 .489.058.657.171a.798.798 0 0 1 .36.454c.288-.415.663-.626 1.124-.626.352 0 .625.102.813.297.195.2.297.508.297.922V0h-.61v-2.266c0-.25-.023-.425-.062-.53a.451.451 0 0 0-.203-.25.662.662 0 0 0-.375-.11c-.25 0-.461.086-.625.25-.168.168-.25.437-.25.812V0h-.625v-2.344c0-.27-.055-.472-.156-.61-.094-.132-.25-.202-.47-.202-.179 0-.34.047-.484.14a.76.76 0 0 0-.328.391c-.062.18-.093.43-.093.75V0zm0 0"/></symbol><symbol overflow="visible" id="K"><path d="M-.11 1.375V.937h4.048v.438zm0 0"/></symbol><symbol overflow="visible" id="L"><path d="M1.797-.547L1.875 0c-.168.031-.32.047-.453.047-.219 0-.39-.031-.516-.094a.595.595 0 0 1-.265-.281C.598-.441.578-.688.578-1.062v-2.063H.125v-.484h.453V-4.5l.594-.36v1.25h.625v.485h-.625v2.11c0 .167.008.277.031.327a.383.383 0 0 0 .11.125c.05.032.125.047.218.047.063 0 .149-.007.266-.03zm0 0"/></symbol><symbol overflow="visible" id="M"><path d="M.469-4.281v-.703h.61v.703zM.469 0v-3.61h.61V0zm0 0"/></symbol><symbol overflow="visible" id="N"><path d="M.234-1.797c0-.664.18-1.16.547-1.484.313-.27.692-.406 1.14-.406.5 0 .907.164 1.22.484.312.324.468.773.468 1.344 0 .468-.074.84-.218 1.109-.137.262-.34.465-.61.61a1.746 1.746 0 0 1-.86.218c-.5 0-.905-.16-1.218-.484-.312-.32-.469-.785-.469-1.39zm.625 0c0 .461.098.805.297 1.031.207.23.461.344.766.344.3 0 .55-.113.75-.344.207-.226.312-.582.312-1.062 0-.438-.105-.77-.312-1a.94.94 0 0 0-.75-.36.998.998 0 0 0-.766.344c-.199.23-.297.578-.297 1.047zm0 0"/></symbol><symbol overflow="visible" id="O"><path d="M.453 1.375v-4.984h.563v.468c.132-.175.28-.312.437-.406.164-.094.367-.14.61-.14.3 0 .57.078.812.234.238.156.414.383.531.672.125.293.188.61.188.953 0 .367-.07.7-.203 1a1.528 1.528 0 0 1-.579.672c-.25.156-.515.234-.796.234a1.21 1.21 0 0 1-.954-.453v1.75zm.563-3.156c0 .46.093.804.28 1.031.188.219.411.328.673.328a.869.869 0 0 0 .703-.344c.195-.226.297-.582.297-1.062 0-.457-.102-.8-.297-1.031-.188-.227-.414-.344-.672-.344-.262 0-.492.121-.688.36-.199.241-.296.593-.296 1.062zm0 0"/></symbol><symbol overflow="visible" id="P"><path d="M.516 0v-4.984h1.859c.383 0 .691.054.922.156.226.105.406.262.531.469.133.21.203.43.203.656 0 .21-.058.406-.172.594a1.338 1.338 0 0 1-.53.468c.3.086.53.235.687.454.164.21.25.46.25.75 0 .23-.055.445-.157.64a1.27 1.27 0 0 1-.359.469 1.771 1.771 0 0 1-.547.25A3.35 3.35 0 0 1 2.406 0zm.656-2.89H2.25c.29 0 .5-.016.625-.047a.704.704 0 0 0 .375-.25.726.726 0 0 0 .125-.438.787.787 0 0 0-.125-.438.546.546 0 0 0-.328-.25c-.149-.05-.402-.078-.766-.078h-.984zm0 2.296h1.234c.207 0 .36-.004.453-.015a1.25 1.25 0 0 0 .375-.141.685.685 0 0 0 .25-.266.93.93 0 0 0 .094-.421.833.833 0 0 0-.14-.485.759.759 0 0 0-.391-.281c-.168-.063-.414-.094-.735-.094h-1.14zm0 0"/></symbol><symbol overflow="visible" id="Q"><path d="M.469 0v-4.984h.61v2.843l1.437-1.468h.796L1.938-2.266 3.452 0h-.75L1.5-1.844l-.422.422V0zm0 0"/></symbol><symbol overflow="visible" id="R"><path d="M1.797 0v-4.39H.157v-.594h3.952v.593H2.47V0zm0 0"/></symbol><symbol overflow="visible" id="S"><path d="M.453 0v-4.984h.61v1.796c.289-.332.656-.5 1.093-.5.258 0 .489.055.688.157.195.105.336.25.422.437.082.188.125.461.125.813V0h-.61v-2.281c0-.313-.07-.535-.203-.672-.125-.133-.308-.203-.547-.203a1.06 1.06 0 0 0-.531.14.834.834 0 0 0-.344.391c-.062.156-.093.375-.093.656V0zm0 0"/></symbol><symbol overflow="visible" id="T"><path d="M3.797-4.984h.672v2.89c0 .5-.059.899-.172 1.188a1.493 1.493 0 0 1-.625.719c-.293.18-.68.265-1.156.265-.47 0-.856-.078-1.157-.234a1.326 1.326 0 0 1-.625-.688C.61-1.156.547-1.57.547-2.094v-2.89h.656v2.875c0 .437.04.761.125.968.082.2.219.356.406.47.196.105.438.155.72.155.487 0 .831-.109 1.03-.328.207-.219.313-.64.313-1.265zm0 0"/></symbol><symbol overflow="visible" id="X"><path d="M.469 1.375v-6.36h1.344v.516h-.735V.875h.734v.5zm0 0"/></symbol><symbol overflow="visible" id="Y"><path d="M1.484 1.375H.125v-.5h.75v-5.344h-.75v-.515h1.36zm0 0"/></symbol><symbol overflow="visible" id="aa"><path d="M3.672-2.922H.39V-3.5h3.28zm0 1.5H.39v-.562h3.28zm0 0"/></symbol><symbol overflow="visible" id="ab"><path d="M.625 0v-.703h.703V0zm0 0"/></symbol><symbol overflow="visible" id="as"><path d="M1.453 0L.093-3.61h.641L1.5-1.452c.094.242.172.484.234.734.051-.187.13-.414.235-.687l.797-2.203h.625L2.03 0zm0 0"/></symbol><symbol overflow="visible" id="at"><path d="M.516 0v-4.984H1.5l1.188 3.53c.101.337.18.579.234.735.062-.176.148-.441.265-.797l1.188-3.468h.89V0h-.64v-4.172L3.187 0h-.593L1.156-4.234V0zm0 0"/></symbol><symbol overflow="visible" id="aC"><path d="M4.094-1.75l.656.172c-.137.543-.387.953-.75 1.234-.355.281-.793.422-1.313.422-.542 0-.98-.11-1.312-.328a2.057 2.057 0 0 1-.766-.938A3.34 3.34 0 0 1 .344-2.53c0-.508.097-.957.297-1.344.195-.395.476-.691.843-.89.364-.196.77-.298 1.22-.298.487 0 .905.133 1.25.391.343.25.577.606.702 1.063l-.64.156c-.118-.363-.282-.629-.5-.797-.22-.164-.496-.25-.829-.25-.386 0-.71.094-.968.281-.25.18-.43.422-.532.735a2.971 2.971 0 0 0-.156.953c0 .43.055.797.172 1.11.125.312.317.546.578.702.258.156.54.235.844.235.375 0 .688-.102.938-.313.257-.207.437-.523.53-.953zm0 0"/></symbol><symbol overflow="visible" id="aD"><path d="M-.016 0l1.922-4.984h.703L4.641 0h-.75l-.579-1.5H1.235L.688 0zm1.438-2.047h1.687l-.515-1.375a16.507 16.507 0 0 1-.36-1.031c-.062.324-.152.64-.265.953zm0 0"/></symbol><symbol overflow="visible" id="aE"><path d="M.516 0v-4.984h.656v4.39h2.453V0zm0 0"/></symbol><symbol overflow="visible" id="aF"><path d="M.578 0v-4.984h3.344v.593H1.234v1.547h2.329v.578H1.233V0zm0 0"/></symbol><symbol overflow="visible" id="aG"><path d="M.531 0v-4.984h.672l2.61 3.921v-3.921h.64V0h-.672L1.156-3.906V0zm0 0"/></symbol><symbol overflow="visible" id="aH"><path d="M.656 0v-4.984h.656V0zm0 0"/></symbol><symbol overflow="visible" id="aI"><path d="M.344-2.422c0-.82.219-1.469.656-1.937.445-.47 1.02-.704 1.719-.704.457 0 .867.11 1.234.329.375.218.656.527.844.921.195.387.297.829.297 1.329 0 .511-.106.964-.313 1.359-.199.398-.484.7-.86.906-.374.2-.776.297-1.202.297-.469 0-.89-.11-1.266-.328a2.172 2.172 0 0 1-.828-.922 2.88 2.88 0 0 1-.281-1.25zm.672.016c0 .594.16 1.062.484 1.406.32.344.727.516 1.219.516.488 0 .894-.172 1.219-.516.32-.352.484-.848.484-1.484 0-.407-.074-.758-.219-1.063a1.617 1.617 0 0 0-.594-.703 1.645 1.645 0 0 0-.89-.25c-.461 0-.86.164-1.203.484-.336.325-.5.86-.5 1.61zm0 0"/></symbol><symbol overflow="visible" id="aK"><path d="M0-.531h-4.984v-.672l3.921-2.61h-3.921v-.64H0v.672l-3.906 2.625H0zm0 0"/></symbol><symbol overflow="visible" id="aL"><path d="M-1.156-2.922l.078-.64c.367.105.652.292.86.562.198.273.296.617.296 1.031 0 .524-.16.938-.484 1.25-.32.313-.774.469-1.36.469-.613 0-1.086-.156-1.421-.469-.333-.312-.5-.719-.5-1.219 0-.476.167-.867.5-1.171.324-.313.78-.47 1.374-.47h.172V-.89c.399-.02.7-.129.907-.328.21-.207.312-.457.312-.75a.94.94 0 0 0-.172-.578c-.125-.156-.312-.281-.562-.375zm-1 2v-2.015c-.301.03-.524.109-.672.234a.94.94 0 0 0-.36.75c0 .281.094.523.282.719.187.187.437.293.75.312zm0 0"/></symbol><symbol overflow="visible" id="aM"><path d="M-.547-1.797L0-1.875c.031.168.047.32.047.453 0 .219-.031.39-.094.516a.595.595 0 0 1-.281.265c-.113.043-.36.063-.734.063h-2.063v.453h-.484v-.453H-4.5l-.36-.594h1.25v-.625h.485v.625h2.11c.167 0 .277-.008.327-.031a.383.383 0 0 0 .125-.11.423.423 0 0 0 .047-.218 1.38 1.38 0 0 0-.03-.266zm0 0"/></symbol><symbol overflow="visible" id="aN"><path d="M0-1.125l-3.61 1.11v-.641l2.079-.563.781-.218c-.04-.008-.29-.07-.75-.188l-2.11-.578v-.625l2.094-.547.688-.172-.688-.203-2.093-.625v-.594L0-3.844v.64l-2.156.579-.625.14L0-1.764zm0 0"/></symbol><symbol overflow="visible" id="aO"><path d="M-1.797-.234c-.664 0-1.16-.18-1.484-.547a1.686 1.686 0 0 1-.406-1.14c0-.5.164-.907.484-1.22.324-.312.773-.468 1.344-.468.468 0 .84.074 1.109.218.262.137.465.34.61.61.144.261.218.547.218.86 0 .5-.16.905-.484 1.218-.32.312-.785.469-1.39.469zm0-.625c.461 0 .805-.098 1.031-.297a.985.985 0 0 0 .344-.766c0-.3-.113-.55-.344-.75-.226-.207-.582-.312-1.062-.312-.438 0-.77.105-1 .312a.94.94 0 0 0-.36.75c0 .305.118.559.344.766.23.199.578.297 1.047.297zm0 0"/></symbol><symbol overflow="visible" id="aP"><path d="M0-.453h-3.61V-1h.547c-.25-.145-.414-.273-.5-.39a.648.648 0 0 1-.124-.391c0-.207.07-.414.203-.625l.562.203a.885.885 0 0 0-.14.453c0 .137.042.258.124.36.086.105.2.18.344.218.211.074.446.11.703.11H0zm0 0"/></symbol><symbol overflow="visible" id="aQ"><path d="M0-.469h-4.984v-.61h2.843l-1.468-1.437v-.796l1.343 1.374L0-3.452v.75L-1.844-1.5l.422.422H0zm0 0"/></symbol><clipPath id="m"><path d="M89 339h76.719v2H89zm0 0"/></clipPath><clipPath id="n"><path d="M89 345h76.719v2H89zm0 0"/></clipPath><clipPath id="I"><path d="M189.602 339h76.796v2h-76.796zm0 0"/></clipPath><clipPath id="J"><path d="M189.602 345h76.796v2h-76.796zm0 0"/></clipPath><clipPath id="W"><path d="M142.441 396h76.797v2h-76.797zm0 0"/></clipPath><clipPath id="Z"><path d="M142.441 410h76.797v2h-76.797zm0 0"/></clipPath><clipPath id="af"><path d="M189.602 465h76.796v2h-76.796zm0 0"/></clipPath><clipPath id="ag"><path d="M189.602 471h76.796v2h-76.796zm0 0"/></clipPath><clipPath id="aj"><path d="M88.32 465H165v2H88.32zm0 0"/></clipPath><clipPath id="ak"><path d="M88.32 471H165v2H88.32zm0 0"/></clipPath><clipPath id="aq"><path d="M345 339h76.8v2H345zm0 0"/></clipPath><clipPath id="ar"><path d="M345 345h76.8v2H345zm0 0"/></clipPath><clipPath id="au"><path d="M398.52 396h76.921v2H398.52zm0 0"/></clipPath><clipPath id="av"><path d="M398.52 410h76.921v2H398.52zm0 0"/></clipPath><clipPath id="aw"><path d="M345 465h76.8v2H345zm0 0"/></clipPath><clipPath id="ax"><path d="M345 471h76.8v2H345zm0 0"/></clipPath><clipPath id="az"><path d="M445.68 340h76.8v2h-76.8zm0 0"/></clipPath><clipPath id="aA"><path d="M445.68 346h76.8v2h-76.8zm0 0"/></clipPath><clipPath id="aB"><path d="M445.68 465h76.8v2h-76.8zm0 0"/></clipPath><clipPath id="aJ"><path d="M445.68 479h76.8v2h-76.8zm0 0"/></clipPath></defs><path d="M0 0h468v240.96H0zm0 0" fill="#fff"/><path d="M1.2 3.84v233.64c0 1.32.96 2.282 2.28 2.282h204.36c1.2 0 2.281-.961 2.281-2.282V3.84c0-1.32-1.082-2.281-2.281-2.281H3.48c-1.32 0-2.28.96-2.28 2.28zm0 0" fill="#f5f5f5"/><path d="M1.2 1.559H210.12v12.96H1.2zm0 0" fill="#ebebeb"/><use xlink:href="#a" x="254.28" y="286.92" width="100%" height="100%" transform="translate(-72 -275.52)"/><use xlink:href="#b" x="261.624" y="286.92" width="100%" height="100%" transform="translate(-72 -275.52)"/><use xlink:href="#c" x="266.487" y="286.92" width="100%" height="100%" transform="translate(-72 -275.52)"/><use xlink:href="#d" x="270.946" y="286.92" width="100%" height="100%" transform="translate(-72 -275.52)"/><use xlink:href="#e" x="273.376" y="286.92" width="100%" height="100%" transform="translate(-72 -275.52)"/><use xlink:href="#f" x="278.238" y="286.92" width="100%" height="100%" transform="translate(-72 -275.52)"/><path d="M1.441 8.52V12H.84V8.52zm0 4.68v3.48H.84V13.2zm0 4.562v3.597H.84v-3.597zm0 4.68v3.48H.84v-3.48zm0 4.68v3.48H.84v-3.48zm0 4.679v3.48H.84v-3.48zm0 4.68v3.48H.84v-3.48zm0 4.558v3.602H.84v-3.602zm0 4.68v3.48H.84v-3.48zm0 4.683v3.477H.84v-3.477zm0 4.68v3.477H.84v-3.477zm0 4.68v3.48H.84v-3.48zm0 4.68v3.48H.84v-3.48zm0 4.558v3.48H.84V69zm0 4.68v3.48H.84v-3.48zm0 4.68v3.48H.84v-3.48zm0 4.68v3.48H.84v-3.48zm0 4.679v3.48H.84v-3.48zm0 4.562v3.48H.84v-3.48zm0 4.68v3.48H.84v-3.48zm0 4.68v3.48H.84v-3.48zm0 4.68v3.48H.84v-3.48zm0 4.679v3.48H.84V111zm0 4.559v3.48H.84v-3.48zm0 4.683v3.477H.84v-3.477zm0 4.68v3.48H.84v-3.48zm0 4.68v3.48H.84v-3.48zm0 4.68v3.48H.84v-3.48zm0 4.558v3.601H.84v-3.601zm0 4.68V147H.84v-3.48zm0 4.68v3.48H.84v-3.48zm0 4.679v3.48H.84v-3.48zm0 4.68v3.48H.84v-3.48zm0 4.562v3.598H.84v-3.598zm0 4.68v3.48H.84v-3.48zm0 4.68v3.48H.84v-3.48zm0 4.68v3.48H.84v-3.48zm0 4.679v3.48H.84v-3.48zm0 4.562V189H.84v-3.598zm0 4.68v3.477H.84v-3.477zm0 4.68v3.48H.84v-3.48zm0 4.68v3.48H.84v-3.48zm0 4.68v3.48H.84v-3.48zm0 4.558v3.601H.84v-3.601zm0 4.68v3.48H.84v-3.48zm0 4.68v3.48H.84v-3.48zm0 4.679v3.48H.84v-3.48zm0 4.683v3.477H.84v-3.477zm0 4.68v3.477H.84v-3.477zm0 4.559v.84H1.2h.242c0 .84.48 1.558 1.2 1.921l-.243.477c-.84-.36-1.558-1.32-1.558-2.399v-.84zm2.278 2.879h3.48v.601H3.72zm4.68 0h3.48v.601h-3.48zm4.562 0h3.48v.601h-3.48zm4.68 0h3.48v.601h-3.48zm4.68 0h3.48v.601h-3.48zm4.679 0h3.48v.601H27zm4.68 0h3.48v.601h-3.48zm4.558 0h3.48v.601h-3.48zm4.684 0h3.476v.601h-3.476zm4.68 0h3.476v.601h-3.476zm4.68 0h3.48v.601h-3.48zm4.679 0h3.48v.601h-3.48zm4.559 0h3.601v.601H59.52zm4.68 0h3.48v.601H64.2zm4.679 0h3.48v.601h-3.48zm4.68 0h3.48v.601h-3.48zm4.68 0h3.48v.601h-3.48zm4.562 0h3.597v.601h-3.597zm4.68 0h3.48v.601h-3.48zm4.68 0h3.48v.601h-3.48zm4.679 0h3.48v.601h-3.48zm4.68 0H105v.601h-3.48zm4.558 0h3.602v.601h-3.602zm4.684 0h3.476v.601h-3.476zm4.68 0h3.48v.601h-3.48zm4.68 0h3.48v.601h-3.48zm4.679 0h3.48v.601h-3.48zm4.68 0h3.48v.601h-3.48zm4.558 0h3.48v.601h-3.48zm4.68 0h3.48v.601h-3.48zm4.68 0h3.48v.601h-3.48zm4.68 0h3.48v.601h-3.48zm4.683 0h3.476v.601h-3.476zm4.558 0h3.48v.601h-3.48zm4.68 0h3.48v.601H162zm4.68 0h3.48v.601h-3.48zm4.68 0h3.48v.601h-3.48zm4.68 0h3.48v.601h-3.48zm4.562 0h3.476v.601h-3.476zm4.68 0h3.48v.601h-3.48zm4.679 0h3.48v.601h-3.48zm4.68 0h3.48v.601h-3.48zm4.68 0h3.48v.601h-3.48zm4.558 0h3.601v.601h-3.601zm4.562-.118c.84-.242 1.438-1.082 1.438-1.922h.242-.242v-.601h.601v.601c0 1.2-.84 2.16-1.8 2.52zm1.438-3.722v-3.48h.601v3.48zm0-4.68v-3.48h.601V231zm0-4.559v-3.601h.601v3.601zm0-4.68v-3.48h.601v3.48zm0-4.679v-3.48h.601v3.48zm0-4.68v-3.48h.601v3.48zm0-4.683v-3.477h.601v3.477zm0-4.559v-3.601h.601v3.601zm0-4.68V195h.601v3.48zm0-4.68v-3.48h.601v3.48zm0-4.679v-3.48h.601v3.48zm0-4.68v-3.48h.601v3.48zm0-4.562v-3.598h.601v3.598zm0-4.68v-3.48h.601v3.48zm0-4.68v-3.48h.601v3.48zm0-4.68v-3.48h.601v3.48zm0-4.679v-3.48h.601v3.48zm0-4.68V153h.601v3.48zm0-4.558v-3.48h.601v3.48zm0-4.68v-3.48h.601v3.48zm0-4.683v-3.477h.601v3.477zm0-4.68v-3.477h.601v3.477zm0-4.68v-3.48h.601v3.48zm0-4.558v-3.48h.601v3.48zm0-4.68v-3.48h.601v3.48zm0-4.68v-3.48h.601v3.48zm0-4.68v-3.48h.601v3.48zm0-4.68v-3.48h.601v3.48zm0-4.562v-3.48h.601v3.48zm0-4.68V97.2h.601v3.48zm0-4.679v-3.48h.601V96zm0-4.68v-3.48h.601v3.48zm0-4.68v-3.48h.601v3.48zm0-4.558V78.48h.601v3.602zm0-4.68v-3.48h.601v3.48zm0-4.683v-3.477h.601v3.477zm0-4.68v-3.48h.601v3.48zm0-4.68v-3.48h.601v3.48zm0-4.558v-3.602h.601v3.602zm0-4.68v-3.48h.601v3.48zm0-4.68v-3.48h.601v3.48zm0-4.68v-3.48h.601v3.48zm0-4.679v-3.48h.601v3.48zm0-4.562v-3.598h.601v3.598zm0-4.68v-3.48h.601v3.48zm0-4.68v-3.48h.601v3.48zm0-4.68V18h.601v3.48zm0-4.68v-3.48h.601v3.48zm0-4.679v-3.48h.601v3.48zm0-4.562V4.082h.601v3.477zM209.64 3c-.243-.719-.961-1.2-1.801-1.2V1.56 1.8H207v-.602h.84c1.082 0 1.922.723 2.398 1.563zm-3.84-1.2h-3.48v-.6h3.48zm-4.68 0h-3.48v-.6h3.48zm-4.562 0h-3.48v-.6h3.48zm-4.68 0h-3.48v-.6h3.48zm-4.68 0h-3.48v-.6h3.48zm-4.68 0h-3.48v-.6h3.48zm-4.68 0h-3.48v-.6h3.48zm-4.558 0h-3.48v-.6h3.48zm-4.68 0h-3.48v-.6h3.48zm-4.68 0h-3.48v-.6h3.48zm-4.683 0h-3.476v-.6h3.476zm-4.68 0h-3.48v-.6h3.48zM150 1.8h-3.602v-.6H150zm-4.68 0h-3.48v-.6h3.48zm-4.68 0h-3.48v-.6h3.48zm-4.68 0h-3.48v-.6h3.48zm-4.679 0h-3.48v-.6h3.48zm-4.562 0h-3.598v-.6h3.598zm-4.68 0h-3.48v-.6h3.48zm-4.68 0h-3.48v-.6h3.48zm-4.68 0h-3.48v-.6h3.48zM108 1.8h-3.48v-.6H108zm-4.559 0H99.84v-.6h3.601zm-4.68 0h-3.48v-.6h3.48zm-4.683 0h-3.476v-.6h3.476zm-4.68 0h-3.476v-.6h3.476zm-4.68 0h-3.48v-.6h3.48zm-4.679 0h-3.48v-.6h3.48zm-4.559 0H72v-.6h3.48zm-4.68 0h-3.48v-.6h3.48zm-4.679 0h-3.48v-.6h3.48zm-4.68 0h-3.48v-.6h3.48zm-4.68 0h-3.48v-.6h3.48zm-4.562 0h-3.48v-.6h3.48zm-4.68 0h-3.48v-.6h3.48zm-4.68 0h-3.48v-.6h3.48zm-4.679 0h-3.48v-.6h3.48zm-4.68 0H30v-.6h3.48zm-4.558 0h-3.48v-.6h3.48zm-4.684 0h-3.476v-.6h3.476zm-4.68 0h-3.48v-.6h3.48zm-4.68 0h-3.48v-.6h3.48zm-4.679 0H6.72v-.6h3.48zm-4.558 0H3.48V1.56 1.8c-.36 0-.84.12-1.083.36L2.04 1.68C2.4 1.44 3 1.2 3.48 1.2h2.16zM1.68 2.88c-.121.363-.239.601-.239.96H1.2h.242V7.32H.84V3.84c0-.48.12-.84.36-1.2zm0 0"/><path d="M111.121 41.879h90.238V231.12h-90.238zm0 0" fill="#bfbfbf"/><path d="M111.121 41.64h90.598v189.72h-90.84V41.64zm0 .602v-.363h.36V231.12h-.36v-.36h90.238v.36h-.238V41.88h.238v.363zm0 0"/><path d="M9.84 41.281h90.238v189.84H9.84zm0 0" fill="#bfbfbf"/><path d="M9.84 41.04h90.601v190.32H9.601V41.04zm0 .6v-.359h.36v189.84h-.36v-.36h90.238v.36h-.238V41.281h.238v.36zm0 0"/><path d="M17.52 50.04H93.12v46.562H17.52zm0 0" fill="#ffca00"/><path d="M16.922 49.441h.598V97.2h-.598zm0 0M17.52 49.441H93.12v.598H17.52zm0 0" fill="#ff0"/><path d="M17.52 96.602h76.199v.597h-76.2zm0 0M93.121 49.441h.598v47.16h-.598zm0 0" fill="#b08c00"/><use xlink:href="#g" x="113.16" y="335.76" width="100%" height="100%" transform="translate(-72 -275.52)"/><use xlink:href="#h" x="118.609" y="335.76" width="100%" height="100%" transform="translate(-72 -275.52)"/><use xlink:href="#i" x="123.137" y="335.76" width="100%" height="100%" transform="translate(-72 -275.52)"/><use xlink:href="#j" x="127.664" y="335.76" width="100%" height="100%" transform="translate(-72 -275.52)"/><use xlink:href="#k" x="130.177" y="335.76" width="100%" height="100%" transform="translate(-72 -275.52)"/><use xlink:href="#l" x="134.373" y="335.76" width="100%" height="100%" transform="translate(-72 -275.52)"/><use xlink:href="#j" x="138.57" y="335.76" width="100%" height="100%" transform="translate(-72 -275.52)"/><g clip-path="url(#m)" transform="translate(-72 -275.52)"><path d="M89.52 340.078h75.601" fill="none" stroke="#000" stroke-width=".6000000000000001" stroke-linecap="square" stroke-miterlimit="10"/></g><g clip-path="url(#n)" transform="translate(-72 -275.52)"><path d="M89.52 345.96h75.601" fill="none" stroke="#000" stroke-width=".6000000000000001" stroke-linecap="square" stroke-miterlimit="10"/></g><use xlink:href="#o" x="91.8" y="356.16" width="100%" height="100%" transform="translate(-72 -275.52)"/><use xlink:href="#p" x="95.273" y="356.16" width="100%" height="100%" transform="translate(-72 -275.52)"/><use xlink:href="#q" x="99.094" y="356.16" width="100%" height="100%" transform="translate(-72 -275.52)"/><use xlink:href="#q" x="100.692" y="356.16" width="100%" height="100%" transform="translate(-72 -275.52)"/><use xlink:href="#r" x="102.235" y="356.16" width="100%" height="100%" transform="translate(-72 -275.52)"/><use xlink:href="#s" x="104.549" y="356.16" width="100%" height="100%" transform="translate(-72 -275.52)"/><use xlink:href="#t" x="106.424" y="356.16" width="100%" height="100%" transform="translate(-72 -275.52)"/><use xlink:href="#u" x="110.245" y="356.16" width="100%" height="100%" transform="translate(-72 -275.52)"/><use xlink:href="#o" x="114.109" y="356.16" width="100%" height="100%" transform="translate(-72 -275.52)"/><use xlink:href="#v" x="117.582" y="356.16" width="100%" height="100%" transform="translate(-72 -275.52)"/><use xlink:href="#w" x="119.458" y="356.16" width="100%" height="100%" transform="translate(-72 -275.52)"/><use xlink:href="#x" x="121.388" y="356.16" width="100%" height="100%" transform="translate(-72 -275.52)"/><use xlink:href="#p" x="124.166" y="356.16" width="100%" height="100%" transform="translate(-72 -275.52)"/><use xlink:href="#y" x="127.987" y="356.16" width="100%" height="100%" transform="translate(-72 -275.52)"/><use xlink:href="#z" x="130.3" y="356.16" width="100%" height="100%" transform="translate(-72 -275.52)"/><use xlink:href="#A" x="134.121" y="356.16" width="100%" height="100%" transform="translate(-72 -275.52)"/><use xlink:href="#B" x="137.595" y="356.16" width="100%" height="100%" transform="translate(-72 -275.52)"/><use xlink:href="#A" x="91.8" y="364.68" width="100%" height="100%" transform="translate(-72 -275.52)"/><use xlink:href="#C" x="95.273" y="364.68" width="100%" height="100%" transform="translate(-72 -275.52)"/><use xlink:href="#u" x="99.094" y="364.68" width="100%" height="100%" transform="translate(-72 -275.52)"/><use xlink:href="#D" x="102.958" y="364.68" width="100%" height="100%" transform="translate(-72 -275.52)"/><use xlink:href="#r" x="106.778" y="364.68" width="100%" height="100%" transform="translate(-72 -275.52)"/><use xlink:href="#E" x="109.092" y="364.68" width="100%" height="100%" transform="translate(-72 -275.52)"/><use xlink:href="#A" x="114.927" y="364.68" width="100%" height="100%" transform="translate(-72 -275.52)"/><use xlink:href="#z" x="118.4" y="364.68" width="100%" height="100%" transform="translate(-72 -275.52)"/><use xlink:href="#B" x="122.221" y="364.68" width="100%" height="100%" transform="translate(-72 -275.52)"/><path d="M118.2 50.64h75.6V97.2h-75.6zm0 0" fill="#ffca00"/><path d="M117.602 50.04h.597V97.8h-.597zm0 0M118.2 50.04h75.6v.6h-75.6zm0 0" fill="#ff0"/><path d="M118.2 97.2h76.198v.6H118.2zm0 0M193.8 50.04h.598V97.2h-.597zm0 0" fill="#b08c00"/><use xlink:href="#F" x="216.12" y="336.12" width="100%" height="100%" transform="translate(-72 -275.52)"/><use xlink:href="#G" x="221.569" y="336.12" width="100%" height="100%" transform="translate(-72 -275.52)"/><use xlink:href="#h" x="224.506" y="336.12" width="100%" height="100%" transform="translate(-72 -275.52)"/><use xlink:href="#H" x="229.033" y="336.12" width="100%" height="100%" transform="translate(-72 -275.52)"/><use xlink:href="#k" x="233.23" y="336.12" width="100%" height="100%" transform="translate(-72 -275.52)"/><use xlink:href="#G" x="237.426" y="336.12" width="100%" height="100%" transform="translate(-72 -275.52)"/><g clip-path="url(#I)" transform="translate(-72 -275.52)"><path d="M190.2 340.078h75.6" fill="none" stroke="#000" stroke-width=".6000000000000001" stroke-linecap="square" stroke-miterlimit="10"/></g><g clip-path="url(#J)" transform="translate(-72 -275.52)"><path d="M190.2 345.96h75.6" fill="none" stroke="#000" stroke-width=".6000000000000001" stroke-linecap="square" stroke-miterlimit="10"/></g><use xlink:href="#K" x="192.84" y="356.4" width="100%" height="100%" transform="translate(-72 -275.52)"/><use xlink:href="#A" x="196.661" y="356.4" width="100%" height="100%" transform="translate(-72 -275.52)"/><use xlink:href="#L" x="200.134" y="356.4" width="100%" height="100%" transform="translate(-72 -275.52)"/><use xlink:href="#p" x="202.064" y="356.4" width="100%" height="100%" transform="translate(-72 -275.52)"/><use xlink:href="#y" x="205.885" y="356.4" width="100%" height="100%" transform="translate(-72 -275.52)"/><use xlink:href="#L" x="208.198" y="356.4" width="100%" height="100%" transform="translate(-72 -275.52)"/><use xlink:href="#K" x="210.074" y="356.4" width="100%" height="100%" transform="translate(-72 -275.52)"/><use xlink:href="#L" x="213.937" y="356.4" width="100%" height="100%" transform="translate(-72 -275.52)"/><use xlink:href="#y" x="215.867" y="356.4" width="100%" height="100%" transform="translate(-72 -275.52)"/><use xlink:href="#p" x="218.181" y="356.4" width="100%" height="100%" transform="translate(-72 -275.52)"/><use xlink:href="#u" x="222.002" y="356.4" width="100%" height="100%" transform="translate(-72 -275.52)"/><use xlink:href="#A" x="225.822" y="356.4" width="100%" height="100%" transform="translate(-72 -275.52)"/><use xlink:href="#E" x="229.296" y="356.4" width="100%" height="100%" transform="translate(-72 -275.52)"/><use xlink:href="#M" x="235.131" y="356.4" width="100%" height="100%" transform="translate(-72 -275.52)"/><use xlink:href="#L" x="236.729" y="356.4" width="100%" height="100%" transform="translate(-72 -275.52)"/><use xlink:href="#r" x="238.659" y="356.4" width="100%" height="100%" transform="translate(-72 -275.52)"/><use xlink:href="#A" x="240.972" y="356.4" width="100%" height="100%" transform="translate(-72 -275.52)"/><use xlink:href="#L" x="244.376" y="356.4" width="100%" height="100%" transform="translate(-72 -275.52)"/><use xlink:href="#y" x="246.306" y="356.4" width="100%" height="100%" transform="translate(-72 -275.52)"/><use xlink:href="#E" x="248.62" y="356.4" width="100%" height="100%" transform="translate(-72 -275.52)"/><use xlink:href="#B" x="254.455" y="356.4" width="100%" height="100%" transform="translate(-72 -275.52)"/><use xlink:href="#K" x="192.84" y="364.92" width="100%" height="100%" transform="translate(-72 -275.52)"/><use xlink:href="#A" x="196.661" y="364.92" width="100%" height="100%" transform="translate(-72 -275.52)"/><use xlink:href="#L" x="200.134" y="364.92" width="100%" height="100%" transform="translate(-72 -275.52)"/><use xlink:href="#N" x="202.064" y="364.92" width="100%" height="100%" transform="translate(-72 -275.52)"/><use xlink:href="#O" x="205.885" y="364.92" width="100%" height="100%" transform="translate(-72 -275.52)"/><use xlink:href="#K" x="209.748" y="364.92" width="100%" height="100%" transform="translate(-72 -275.52)"/><use xlink:href="#L" x="213.569" y="364.92" width="100%" height="100%" transform="translate(-72 -275.52)"/><use xlink:href="#y" x="215.499" y="364.92" width="100%" height="100%" transform="translate(-72 -275.52)"/><use xlink:href="#p" x="217.813" y="364.92" width="100%" height="100%" transform="translate(-72 -275.52)"/><use xlink:href="#u" x="221.633" y="364.92" width="100%" height="100%" transform="translate(-72 -275.52)"/><use xlink:href="#A" x="225.454" y="364.92" width="100%" height="100%" transform="translate(-72 -275.52)"/><use xlink:href="#E" x="228.927" y="364.92" width="100%" height="100%" transform="translate(-72 -275.52)"/><use xlink:href="#M" x="234.832" y="364.92" width="100%" height="100%" transform="translate(-72 -275.52)"/><use xlink:href="#L" x="236.376" y="364.92" width="100%" height="100%" transform="translate(-72 -275.52)"/><use xlink:href="#r" x="238.251" y="364.92" width="100%" height="100%" transform="translate(-72 -275.52)"/><use xlink:href="#A" x="240.565" y="364.92" width="100%" height="100%" transform="translate(-72 -275.52)"/><use xlink:href="#L" x="244.038" y="364.92" width="100%" height="100%" transform="translate(-72 -275.52)"/><use xlink:href="#y" x="245.968" y="364.92" width="100%" height="100%" transform="translate(-72 -275.52)"/><use xlink:href="#E" x="248.281" y="364.92" width="100%" height="100%" transform="translate(-72 -275.52)"/><use xlink:href="#B" x="254.117" y="364.92" width="100%" height="100%" transform="translate(-72 -275.52)"/><use xlink:href="#P" x="205.92" y="310.8" width="100%" height="100%" transform="translate(-72 -275.52)"/><use xlink:href="#y" x="210.553" y="310.8" width="100%" height="100%" transform="translate(-72 -275.52)"/><use xlink:href="#N" x="212.867" y="310.8" width="100%" height="100%" transform="translate(-72 -275.52)"/><use xlink:href="#Q" x="216.688" y="310.8" width="100%" height="100%" transform="translate(-72 -275.52)"/><use xlink:href="#C" x="220.3" y="310.8" width="100%" height="100%" transform="translate(-72 -275.52)"/><use xlink:href="#y" x="224.121" y="310.8" width="100%" height="100%" transform="translate(-72 -275.52)"/><use xlink:href="#w" x="226.434" y="310.8" width="100%" height="100%" transform="translate(-72 -275.52)"/><use xlink:href="#R" x="228.31" y="310.8" width="100%" height="100%" transform="translate(-72 -275.52)"/><use xlink:href="#S" x="232.686" y="310.8" width="100%" height="100%" transform="translate(-72 -275.52)"/><use xlink:href="#y" x="236.507" y="310.8" width="100%" height="100%" transform="translate(-72 -275.52)"/><use xlink:href="#C" x="238.82" y="310.8" width="100%" height="100%" transform="translate(-72 -275.52)"/><use xlink:href="#p" x="242.641" y="310.8" width="100%" height="100%" transform="translate(-72 -275.52)"/><use xlink:href="#D" x="246.462" y="310.8" width="100%" height="100%" transform="translate(-72 -275.52)"/><use xlink:href="#T" x="105.84" y="310.32" width="100%" height="100%" transform="translate(-72 -275.52)"/><use xlink:href="#A" x="110.911" y="310.32" width="100%" height="100%" transform="translate(-72 -275.52)"/><use xlink:href="#C" x="114.385" y="310.32" width="100%" height="100%" transform="translate(-72 -275.52)"/><use xlink:href="#y" x="118.205" y="310.32" width="100%" height="100%" transform="translate(-72 -275.52)"/><use xlink:href="#w" x="120.519" y="310.32" width="100%" height="100%" transform="translate(-72 -275.52)"/><use xlink:href="#R" x="122.394" y="310.32" width="100%" height="100%" transform="translate(-72 -275.52)"/><use xlink:href="#S" x="126.701" y="310.32" width="100%" height="100%" transform="translate(-72 -275.52)"/><use xlink:href="#y" x="130.522" y="310.32" width="100%" height="100%" transform="translate(-72 -275.52)"/><use xlink:href="#C" x="132.835" y="310.32" width="100%" height="100%" transform="translate(-72 -275.52)"/><use xlink:href="#p" x="136.656" y="310.32" width="100%" height="100%" transform="translate(-72 -275.52)"/><use xlink:href="#D" x="140.477" y="310.32" width="100%" height="100%" transform="translate(-72 -275.52)"/><use xlink:href="#A" x="144.34" y="310.32" width="100%" height="100%" transform="translate(-72 -275.52)"/><path d="M71.04 106.559h75.6v59.28h-75.6zm0 0" fill="#ffca00"/><path d="M70.441 105.96h.598v60.481h-.598zm0 0M71.04 105.96h75.6v.599h-75.6zm0 0" fill="#ff0"/><path d="M71.04 165.84h76.198v.601H71.04zm0 0M146.64 105.96h.598v59.88h-.597zm0 0" fill="#b08c00"/><use xlink:href="#U" x="168.6" y="392.28" width="100%" height="100%" transform="translate(-72 -275.52)"/><use xlink:href="#h" x="174.049" y="392.28" width="100%" height="100%" transform="translate(-72 -275.52)"/><use xlink:href="#V" x="178.577" y="392.28" width="100%" height="100%" transform="translate(-72 -275.52)"/><use xlink:href="#j" x="183.104" y="392.28" width="100%" height="100%" transform="translate(-72 -275.52)"/><use xlink:href="#k" x="185.617" y="392.28" width="100%" height="100%" transform="translate(-72 -275.52)"/><use xlink:href="#G" x="189.813" y="392.28" width="100%" height="100%" transform="translate(-72 -275.52)"/><g clip-path="url(#W)" transform="translate(-72 -275.52)"><path d="M143.04 396.602h75.6" fill="none" stroke="#000" stroke-width=".6000000000000001" stroke-linecap="square" stroke-miterlimit="10"/></g><use xlink:href="#S" x="145.32" y="406.8" width="100%" height="100%" transform="translate(-72 -275.52)"/><use xlink:href="#p" x="149.141" y="406.8" width="100%" height="100%" transform="translate(-72 -275.52)"/><use xlink:href="#u" x="153.1" y="406.8" width="100%" height="100%" transform="translate(-72 -275.52)"/><use xlink:href="#D" x="156.964" y="406.8" width="100%" height="100%" transform="translate(-72 -275.52)"/><use xlink:href="#q" x="160.785" y="406.8" width="100%" height="100%" transform="translate(-72 -275.52)"/><use xlink:href="#C" x="162.382" y="406.8" width="100%" height="100%" transform="translate(-72 -275.52)"/><use xlink:href="#y" x="166.342" y="406.8" width="100%" height="100%" transform="translate(-72 -275.52)"/><use xlink:href="#A" x="168.565" y="406.8" width="100%" height="100%" transform="translate(-72 -275.52)"/><use xlink:href="#X" x="172.038" y="406.8" width="100%" height="100%" transform="translate(-72 -275.52)"/><use xlink:href="#Y" x="173.969" y="406.8" width="100%" height="100%" transform="translate(-72 -275.52)"/><g clip-path="url(#Z)" transform="translate(-72 -275.52)"><path d="M143.04 411.121h75.6" fill="none" stroke="#000" stroke-width=".6000000000000001" stroke-linecap="square" stroke-miterlimit="10"/></g><use xlink:href="#A" x="145.32" y="421.2" width="100%" height="100%" transform="translate(-72 -275.52)"/><use xlink:href="#A" x="148.793" y="421.2" width="100%" height="100%" transform="translate(-72 -275.52)"/><use xlink:href="#S" x="152.267" y="421.2" width="100%" height="100%" transform="translate(-72 -275.52)"/><use xlink:href="#r" x="156.088" y="421.2" width="100%" height="100%" transform="translate(-72 -275.52)"/><use xlink:href="#S" x="158.401" y="421.2" width="100%" height="100%" transform="translate(-72 -275.52)"/><use xlink:href="#N" x="162.222" y="421.2" width="100%" height="100%" transform="translate(-72 -275.52)"/><use xlink:href="#A" x="166.042" y="421.2" width="100%" height="100%" transform="translate(-72 -275.52)"/><use xlink:href="#L" x="169.516" y="421.2" width="100%" height="100%" transform="translate(-72 -275.52)"/><use xlink:href="#u" x="171.446" y="421.2" width="100%" height="100%" transform="translate(-72 -275.52)"/><use xlink:href="#p" x="175.267" y="421.2" width="100%" height="100%" transform="translate(-72 -275.52)"/><use xlink:href="#E" x="179.13" y="421.2" width="100%" height="100%" transform="translate(-72 -275.52)"/><use xlink:href="#C" x="185.035" y="421.2" width="100%" height="100%" transform="translate(-72 -275.52)"/><use xlink:href="#aa" x="188.856" y="421.2" width="100%" height="100%" transform="translate(-72 -275.52)"/><use xlink:href="#ab" x="192.912" y="421.2" width="100%" height="100%" transform="translate(-72 -275.52)"/><use xlink:href="#ab" x="194.843" y="421.2" width="100%" height="100%" transform="translate(-72 -275.52)"/><use xlink:href="#ab" x="196.773" y="421.2" width="100%" height="100%" transform="translate(-72 -275.52)"/><use xlink:href="#B" x="198.648" y="421.2" width="100%" height="100%" transform="translate(-72 -275.52)"/><use xlink:href="#A" x="145.32" y="429.72" width="100%" height="100%" transform="translate(-72 -275.52)"/><use xlink:href="#t" x="148.793" y="429.72" width="100%" height="100%" transform="translate(-72 -275.52)"/><use xlink:href="#D" x="152.614" y="429.72" width="100%" height="100%" transform="translate(-72 -275.52)"/><use xlink:href="#N" x="156.478" y="429.72" width="100%" height="100%" transform="translate(-72 -275.52)"/><use xlink:href="#r" x="160.298" y="429.72" width="100%" height="100%" transform="translate(-72 -275.52)"/><use xlink:href="#t" x="162.612" y="429.72" width="100%" height="100%" transform="translate(-72 -275.52)"/><use xlink:href="#A" x="166.432" y="429.72" width="100%" height="100%" transform="translate(-72 -275.52)"/><use xlink:href="#C" x="169.906" y="429.72" width="100%" height="100%" transform="translate(-72 -275.52)"/><use xlink:href="#y" x="173.727" y="429.72" width="100%" height="100%" transform="translate(-72 -275.52)"/><use xlink:href="#u" x="176.04" y="429.72" width="100%" height="100%" transform="translate(-72 -275.52)"/><use xlink:href="#p" x="179.861" y="429.72" width="100%" height="100%" transform="translate(-72 -275.52)"/><use xlink:href="#E" x="183.681" y="429.72" width="100%" height="100%" transform="translate(-72 -275.52)"/><use xlink:href="#C" x="189.586" y="429.72" width="100%" height="100%" transform="translate(-72 -275.52)"/><use xlink:href="#aa" x="193.407" y="429.72" width="100%" height="100%" transform="translate(-72 -275.52)"/><use xlink:href="#ab" x="197.464" y="429.72" width="100%" height="100%" transform="translate(-72 -275.52)"/><use xlink:href="#ab" x="199.394" y="429.72" width="100%" height="100%" transform="translate(-72 -275.52)"/><use xlink:href="#ab" x="201.324" y="429.72" width="100%" height="100%" transform="translate(-72 -275.52)"/><use xlink:href="#B" x="203.254" y="429.72" width="100%" height="100%" transform="translate(-72 -275.52)"/><use xlink:href="#y" x="145.32" y="438.24" width="100%" height="100%" transform="translate(-72 -275.52)"/><use xlink:href="#N" x="147.633" y="438.24" width="100%" height="100%" transform="translate(-72 -275.52)"/><use xlink:href="#t" x="151.454" y="438.24" width="100%" height="100%" transform="translate(-72 -275.52)"/><use xlink:href="#L" x="155.275" y="438.24" width="100%" height="100%" transform="translate(-72 -275.52)"/><use xlink:href="#C" x="157.205" y="438.24" width="100%" height="100%" transform="translate(-72 -275.52)"/><use xlink:href="#r" x="161.026" y="438.24" width="100%" height="100%" transform="translate(-72 -275.52)"/><use xlink:href="#E" x="163.339" y="438.24" width="100%" height="100%" transform="translate(-72 -275.52)"/><use xlink:href="#A" x="169.174" y="438.24" width="100%" height="100%" transform="translate(-72 -275.52)"/><use xlink:href="#z" x="172.648" y="438.24" width="100%" height="100%" transform="translate(-72 -275.52)"/><use xlink:href="#B" x="176.468" y="438.24" width="100%" height="100%" transform="translate(-72 -275.52)"/><path d="M118.2 176.402h75.6v46.559h-75.6zm0 0" fill="#ffca00"/><path d="M117.602 175.8h.597v47.759h-.597zm0 0M118.2 175.8h75.6v.602h-75.6zm0 0" fill="#ff0"/><path d="M118.2 222.96h76.198v.599H118.2zm0 0M193.8 175.8h.598v47.16h-.597zm0 0" fill="#b08c00"/><use xlink:href="#ac" x="215.52" y="461.76" width="100%" height="100%" transform="translate(-72 -275.52)"/><use xlink:href="#j" x="220.553" y="461.76" width="100%" height="100%" transform="translate(-72 -275.52)"/><use xlink:href="#G" x="223.066" y="461.76" width="100%" height="100%" transform="translate(-72 -275.52)"/><use xlink:href="#k" x="226.084" y="461.76" width="100%" height="100%" transform="translate(-72 -275.52)"/><use xlink:href="#ad" x="230.234" y="461.76" width="100%" height="100%" transform="translate(-72 -275.52)"/><use xlink:href="#ae" x="234.431" y="461.76" width="100%" height="100%" transform="translate(-72 -275.52)"/><g clip-path="url(#af)" transform="translate(-72 -275.52)"><path d="M190.2 465.84h75.6" fill="none" stroke="#000" stroke-width=".6000000000000001" stroke-linecap="square" stroke-miterlimit="10"/></g><g clip-path="url(#ag)" transform="translate(-72 -275.52)"><path d="M190.2 471.719h75.6" fill="none" stroke="#000" stroke-width=".6000000000000001" stroke-linecap="square" stroke-miterlimit="10"/></g><use xlink:href="#A" x="192.84" y="482.16" width="100%" height="100%" transform="translate(-72 -275.52)"/><use xlink:href="#C" x="196.313" y="482.16" width="100%" height="100%" transform="translate(-72 -275.52)"/><use xlink:href="#u" x="200.134" y="482.16" width="100%" height="100%" transform="translate(-72 -275.52)"/><use xlink:href="#D" x="204.094" y="482.16" width="100%" height="100%" transform="translate(-72 -275.52)"/><use xlink:href="#r" x="207.957" y="482.16" width="100%" height="100%" transform="translate(-72 -275.52)"/><use xlink:href="#B" x="210.319" y="482.16" width="100%" height="100%" transform="translate(-72 -275.52)"/><use xlink:href="#N" x="192.84" y="490.68" width="100%" height="100%" transform="translate(-72 -275.52)"/><use xlink:href="#u" x="196.661" y="490.68" width="100%" height="100%" transform="translate(-72 -275.52)"/><use xlink:href="#K" x="200.524" y="490.68" width="100%" height="100%" transform="translate(-72 -275.52)"/><use xlink:href="#L" x="204.345" y="490.68" width="100%" height="100%" transform="translate(-72 -275.52)"/><use xlink:href="#y" x="206.275" y="490.68" width="100%" height="100%" transform="translate(-72 -275.52)"/><use xlink:href="#p" x="208.588" y="490.68" width="100%" height="100%" transform="translate(-72 -275.52)"/><use xlink:href="#u" x="212.409" y="490.68" width="100%" height="100%" transform="translate(-72 -275.52)"/><use xlink:href="#A" x="216.23" y="490.68" width="100%" height="100%" transform="translate(-72 -275.52)"/><use xlink:href="#E" x="219.703" y="490.68" width="100%" height="100%" transform="translate(-72 -275.52)"/><use xlink:href="#M" x="225.608" y="490.68" width="100%" height="100%" transform="translate(-72 -275.52)"/><use xlink:href="#L" x="227.151" y="490.68" width="100%" height="100%" transform="translate(-72 -275.52)"/><use xlink:href="#r" x="229.027" y="490.68" width="100%" height="100%" transform="translate(-72 -275.52)"/><use xlink:href="#B" x="231.34" y="490.68" width="100%" height="100%" transform="translate(-72 -275.52)"/><path d="M16.922 175.8H92.52v46.56H16.922zm0 0" fill="#ffca00"/><path d="M16.32 175.2h.602v47.76h-.602zm0 0M16.922 175.2H92.52v.6H16.922zm0 0" fill="#ff0"/><path d="M16.922 222.36h76.2v.6h-76.2zm0 0M92.52 175.2h.601v47.16h-.601zm0 0" fill="#b08c00"/><use xlink:href="#g" x="112.08" y="461.52" width="100%" height="100%" transform="translate(-72 -275.52)"/><use xlink:href="#ah" x="117.529" y="461.52" width="100%" height="100%" transform="translate(-72 -275.52)"/><use xlink:href="#ad" x="122.057" y="461.52" width="100%" height="100%" transform="translate(-72 -275.52)"/><use xlink:href="#i" x="126.207" y="461.52" width="100%" height="100%" transform="translate(-72 -275.52)"/><use xlink:href="#i" x="130.816" y="461.52" width="100%" height="100%" transform="translate(-72 -275.52)"/><use xlink:href="#k" x="135.343" y="461.52" width="100%" height="100%" transform="translate(-72 -275.52)"/><use xlink:href="#ai" x="139.54" y="461.52" width="100%" height="100%" transform="translate(-72 -275.52)"/><g clip-path="url(#aj)" transform="translate(-72 -275.52)"><path d="M88.922 465.84h75.598" fill="none" stroke="#000" stroke-width=".6000000000000001" stroke-linecap="square" stroke-miterlimit="10"/></g><g clip-path="url(#ak)" transform="translate(-72 -275.52)"><path d="M88.922 471.719h75.598" fill="none" stroke="#000" stroke-width=".6000000000000001" stroke-linecap="square" stroke-miterlimit="10"/></g><use xlink:href="#O" x="91.56" y="481.8" width="100%" height="100%" transform="translate(-72 -275.52)"/><use xlink:href="#t" x="95.381" y="481.8" width="100%" height="100%" transform="translate(-72 -275.52)"/><use xlink:href="#L" x="99.34" y="481.8" width="100%" height="100%" transform="translate(-72 -275.52)"/><use xlink:href="#r" x="101.27" y="481.8" width="100%" height="100%" transform="translate(-72 -275.52)"/><use xlink:href="#B" x="103.584" y="481.8" width="100%" height="100%" transform="translate(-72 -275.52)"/><path d="M75.84 97.32l4.441 5.16-.48.36-4.442-5.16zm0 0"/><path d="M83.04 106.2L80.761 99l-1.082 3.242-3.36.598zm0 0M131.52 106.082l3.601-4.8.48.359-3.601 4.8zm0 0"/><path d="M138.238 97.8l-6.597 3.84L135 102l1.32 3.121zm0 0M156.602 97.8v73.321H156v-73.32zm0 0"/><path d="M156.238 175.8l3-6.96-3 1.68-2.879-1.68zm0 0M138.121 175.922l-3.96-5.281.48-.36 3.96 5.278zm0 0"/><path d="M131.64 166.8l1.801 7.321 1.32-3.121 3.36-.36zm0 0M156 175.8v-73.44h.602v73.44zm0 0"/><path d="M156.238 97.8l-2.879 6.962 2.88-1.801 3 1.8zm0 0M54.719 175.441l.242-73.32h.598l-.239 73.32zm0 0"/><path d="M55.2 97.441l-2.88 6.961 2.88-1.683 2.878 1.8zm0 0"/><path d="M257.398 3.84v233.64c0 1.32 1.082 2.282 2.403 2.282h204.238c1.32 0 2.402-.961 2.402-2.282V3.84c0-1.32-1.082-2.281-2.402-2.281H259.801c-1.32 0-2.403.96-2.403 2.28zm0 0" fill="#f5f5f5"/><path d="M257.398 1.559h209.043v12.96H257.398zm0 0" fill="#ebebeb"/><use xlink:href="#al" x="517.32" y="286.92" width="100%" height="100%" transform="translate(-72 -275.52)"/><use xlink:href="#am" x="523.703" y="286.92" width="100%" height="100%" transform="translate(-72 -275.52)"/><use xlink:href="#an" x="528.565" y="286.92" width="100%" height="100%" transform="translate(-72 -275.52)"/><use xlink:href="#ao" x="530.508" y="286.92" width="100%" height="100%" transform="translate(-72 -275.52)"/><use xlink:href="#ap" x="532.45" y="286.92" width="100%" height="100%" transform="translate(-72 -275.52)"/><path d="M257.762 8.52V12h-.602V8.52zm0 4.68v3.48h-.602V13.2zm0 4.562v3.597h-.602v-3.597zm0 4.68v3.48h-.602v-3.48zm0 4.68v3.48h-.602v-3.48zm0 4.679v3.48h-.602v-3.48zm0 4.68v3.48h-.602v-3.48zm0 4.558v3.602h-.602v-3.602zm0 4.68v3.48h-.602v-3.48zm0 4.683v3.477h-.602v-3.477zm0 4.68v3.477h-.602v-3.477zm0 4.68v3.48h-.602v-3.48zm0 4.68v3.48h-.602v-3.48zm0 4.558v3.48h-.602V69zm0 4.68v3.48h-.602v-3.48zm0 4.68v3.48h-.602v-3.48zm0 4.68v3.48h-.602v-3.48zm0 4.679v3.48h-.602v-3.48zm0 4.562v3.48h-.602v-3.48zm0 4.68v3.48h-.602v-3.48zm0 4.68v3.48h-.602v-3.48zm0 4.68v3.48h-.602v-3.48zm0 4.679v3.48h-.602V111zm0 4.559v3.48h-.602v-3.48zm0 4.683v3.477h-.602v-3.477zm0 4.68v3.48h-.602v-3.48zm0 4.68v3.48h-.602v-3.48zm0 4.68v3.48h-.602v-3.48zm0 4.558v3.601h-.602v-3.601zm0 4.68V147h-.602v-3.48zm0 4.68v3.48h-.602v-3.48zm0 4.679v3.48h-.602v-3.48zm0 4.68v3.48h-.602v-3.48zm0 4.562v3.598h-.602v-3.598zm0 4.68v3.48h-.602v-3.48zm0 4.68v3.48h-.602v-3.48zm0 4.68v3.48h-.602v-3.48zm0 4.679v3.48h-.602v-3.48zm0 4.562V189h-.602v-3.598zm0 4.68v3.477h-.602v-3.477zm0 4.68v3.48h-.602v-3.48zm0 4.68v3.48h-.602v-3.48zm0 4.68v3.48h-.602v-3.48zm0 4.558v3.601h-.602v-3.601zm0 4.68v3.48h-.602v-3.48zm0 4.68v3.48h-.602v-3.48zm0 4.679v3.48h-.602v-3.48zm0 4.683v3.477h-.602v-3.477zm0 4.68v3.477h-.602v-3.477zm0 4.559v.84h-.364.364c0 .84.476 1.558 1.199 1.921l-.242.477c-.957-.36-1.559-1.32-1.559-2.399v-.84zm2.16 2.879h3.476v.601h-3.476zm4.68 0h3.476v.601h-3.476zm4.68 0h3.48v.601h-3.48zm4.679 0h3.48v.601h-3.48zm4.68 0h3.48v.601h-3.48zm4.558 0h3.48v.601h-3.48zm4.68 0h3.48v.601h-3.48zm4.68 0h3.48v.601h-3.48zm4.68 0h3.48v.601h-3.48zm4.683 0h3.476v.601h-3.476zm4.558 0h3.48v.601h-3.48zm4.68 0h3.48v.601h-3.48zm4.68 0h3.48v.601h-3.48zm4.68 0H324v.601h-3.48zm4.68 0h3.48v.601h-3.48zm4.562 0h3.476v.601h-3.476zm4.68 0h3.48v.601h-3.48zm4.68 0h3.48v.601h-3.48zm4.679 0h3.48v.601h-3.48zm4.68 0h3.48v.601h-3.48zm4.558 0h3.602v.601h-3.602zm4.68 0h3.48v.601h-3.48zm4.68 0h3.48v.601h-3.48zm4.68 0h3.48v.601h-3.48zm4.683 0h3.476v.601h-3.476zm4.558 0h3.602v.601h-3.602zm4.68 0h3.48v.601H381zm4.68 0h3.48v.601h-3.48zm4.68 0h3.48v.601h-3.48zm4.68 0h3.48v.601h-3.48zm4.562 0h3.597v.601h-3.597zm4.68 0h3.48v.601h-3.48zm4.679 0h3.48v.601h-3.48zm4.68 0h3.48v.601h-3.48zm4.68 0h3.48v.601h-3.48zm4.679 0h3.48v.601H423zm4.559 0h3.48v.601h-3.48zm4.68 0h3.48v.601h-3.48zm4.683 0h3.476v.601h-3.476zm4.68 0h3.476v.601h-3.476zm4.68 0h3.48v.601h-3.48zm4.558 0h3.48v.601h-3.48zm4.68 0H459v.601h-3.48zm4.68 0h3.48v.601h-3.48zm4.562-.118c.718-.242 1.316-1.082 1.316-1.922h.363-.363v-.601h.602v.601c0 1.2-.72 2.16-1.801 2.52zm1.316-3.722v-3.48h.602v3.48zm0-4.68v-3.48h.602V231zm0-4.559v-3.601h.602v3.601zm0-4.68v-3.48h.602v3.48zm0-4.679v-3.48h.602v3.48zm0-4.68v-3.48h.602v3.48zm0-4.683v-3.477h.602v3.477zm0-4.559v-3.601h.602v3.601zm0-4.68V195h.602v3.48zm0-4.68v-3.48h.602v3.48zm0-4.679v-3.48h.602v3.48zm0-4.68v-3.48h.602v3.48zm0-4.562v-3.598h.602v3.598zm0-4.68v-3.48h.602v3.48zm0-4.68v-3.48h.602v3.48zm0-4.68v-3.48h.602v3.48zm0-4.679v-3.48h.602v3.48zm0-4.68V153h.602v3.48zm0-4.558v-3.48h.602v3.48zm0-4.68v-3.48h.602v3.48zm0-4.683v-3.477h.602v3.477zm0-4.68v-3.477h.602v3.477zm0-4.68v-3.48h.602v3.48zm0-4.558v-3.48h.602v3.48zm0-4.68v-3.48h.602v3.48zm0-4.68v-3.48h.602v3.48zm0-4.68v-3.48h.602v3.48zm0-4.68v-3.48h.602v3.48zm0-4.562v-3.48h.602v3.48zm0-4.68V97.2h.602v3.48zm0-4.679v-3.48h.602V96zm0-4.68v-3.48h.602v3.48zm0-4.68v-3.48h.602v3.48zm0-4.558V78.48h.602v3.602zm0-4.68v-3.48h.602v3.48zm0-4.683v-3.477h.602v3.477zm0-4.68v-3.48h.602v3.48zm0-4.68v-3.48h.602v3.48zm0-4.558v-3.602h.602v3.602zm0-4.68v-3.48h.602v3.48zm0-4.68v-3.48h.602v3.48zm0-4.68v-3.48h.602v3.48zm0-4.679v-3.48h.602v3.48zm0-4.562v-3.598h.602v3.598zm0-4.68v-3.48h.602v3.48zm0-4.68v-3.48h.602v3.48zm0-4.68V18h.602v3.48zm0-4.68v-3.48h.602v3.48zm0-4.679v-3.48h.602v3.48zm0-4.562V4.082h.602v3.477zM465.961 3a2.141 2.141 0 0 0-1.922-1.2V1.56 1.8h-.84v-.602h.84c1.082 0 2.04.723 2.402 1.563zm-3.84-1.2h-3.48v-.6h3.48zm-4.68 0h-3.48v-.6h3.48zm-4.68 0h-3.48v-.6h3.48zm-4.683 0h-3.476v-.6h3.476zm-4.558 0h-3.598v-.6h3.598zm-4.68 0h-3.48v-.6h3.48zm-4.68 0h-3.48v-.6h3.48zm-4.68 0H426v-.6h3.48zm-4.68 0h-3.48v-.6h3.48zm-4.562 0h-3.597v-.6h3.597zm-4.68 0h-3.48v-.6h3.48zm-4.68 0h-3.48v-.6h3.48zm-4.679 0h-3.48v-.6h3.48zm-4.68 0h-3.48v-.6h3.48zm-4.558 0h-3.602v-.6h3.602zm-4.68 0h-3.48v-.6h3.48zm-4.68 0h-3.48v-.6h3.48zm-4.68 0h-3.48v-.6h3.48zm-4.683 0h-3.476v-.6h3.476zm-4.68 0h-3.48v-.6h3.48zM369 1.8h-3.48v-.6H369zm-4.68 0h-3.48v-.6h3.48zm-4.68 0h-3.48v-.6h3.48zm-4.68 0h-3.48v-.6h3.48zm-4.679 0h-3.48v-.6h3.48zm-4.562 0h-3.48v-.6h3.48zm-4.68 0h-3.48v-.6h3.48zm-4.68 0h-3.48v-.6h3.48zm-4.68 0h-3.48v-.6h3.48zM327 1.8h-3.48v-.6H327zm-4.559 0h-3.48v-.6h3.48zm-4.68 0h-3.48v-.6h3.48zm-4.683 0h-3.476v-.6h3.476zm-4.68 0h-3.476v-.6h3.476zm-4.68 0h-3.48v-.6h3.48zm-4.558 0h-3.601v-.6h3.601zm-4.68 0H291v-.6h3.48zm-4.68 0h-3.48v-.6h3.48zm-4.679 0h-3.48v-.6h3.48zm-4.68 0h-3.48v-.6h3.48zm-4.562 0h-3.598v-.6h3.598zm-4.68 0h-3.48v-.6h3.48zm-4.68 0h-3.48v-.6h3.48zm-4.68 0h-2.038V1.56 1.8c-.48 0-.84.12-1.2.36l-.363-.481c.48-.239.961-.48 1.563-.48h2.039zM258 2.88c-.238.363-.238.601-.238.96h-.364.364V7.32h-.602V3.84c0-.48.121-.84.238-1.2zm0 0"/><path d="M266.398 41.879h90.243V231.12h-90.243zm0 0" fill="#bfbfbf"/><path d="M266.398 41.64H357v189.72h-90.84V41.64zm0 .602v-.363h.364V231.12h-.364v-.36h90.243v.36h-.243V41.88h.243v.363zm0 0"/><path d="M367.441 42.48h90.239v188.641H367.44zm0 0" fill="#bfbfbf"/><path d="M367.441 42.242h90.48V231.36H367.2V42.242zm0 .477v-.239h.239v188.641h-.239v-.36h90.239v.36h-.36V42.481h.36v.238zm0 0"/><path d="M273.602 50.64h75.597V97.2h-75.597zm0 0" fill="#ffca00"/><path d="M273 50.04h.602V97.8H273zm0 0M273.602 50.04h75.597v.6h-75.597zm0 0" fill="#ff0"/><path d="M273.602 97.2H349.8v.6h-76.2zm0 0M349.2 50.04h.6V97.2h-.6zm0 0" fill="#b08c00"/><use xlink:href="#F" x="371.4" y="336.12" width="100%" height="100%" transform="translate(-72 -275.52)"/><use xlink:href="#G" x="376.849" y="336.12" width="100%" height="100%" transform="translate(-72 -275.52)"/><use xlink:href="#h" x="379.786" y="336.12" width="100%" height="100%" transform="translate(-72 -275.52)"/><use xlink:href="#H" x="384.313" y="336.12" width="100%" height="100%" transform="translate(-72 -275.52)"/><use xlink:href="#k" x="388.51" y="336.12" width="100%" height="100%" transform="translate(-72 -275.52)"/><use xlink:href="#G" x="392.706" y="336.12" width="100%" height="100%" transform="translate(-72 -275.52)"/><g clip-path="url(#aq)" transform="translate(-72 -275.52)"><path d="M345.602 340.078h75.597" fill="none" stroke="#000" stroke-width=".6000000000000001" stroke-linecap="square" stroke-miterlimit="10"/></g><g clip-path="url(#ar)" transform="translate(-72 -275.52)"><path d="M345.602 345.96h75.597" fill="none" stroke="#000" stroke-width=".6000000000000001" stroke-linecap="square" stroke-miterlimit="10"/></g><use xlink:href="#A" x="348" y="356.4" width="100%" height="100%" transform="translate(-72 -275.52)"/><use xlink:href="#L" x="351.473" y="356.4" width="100%" height="100%" transform="translate(-72 -275.52)"/><use xlink:href="#p" x="353.403" y="356.4" width="100%" height="100%" transform="translate(-72 -275.52)"/><use xlink:href="#y" x="357.224" y="356.4" width="100%" height="100%" transform="translate(-72 -275.52)"/><use xlink:href="#L" x="359.538" y="356.4" width="100%" height="100%" transform="translate(-72 -275.52)"/><use xlink:href="#K" x="361.413" y="356.4" width="100%" height="100%" transform="translate(-72 -275.52)"/><use xlink:href="#y" x="365.234" y="356.4" width="100%" height="100%" transform="translate(-72 -275.52)"/><use xlink:href="#C" x="367.547" y="356.4" width="100%" height="100%" transform="translate(-72 -275.52)"/><use xlink:href="#o" x="371.368" y="356.4" width="100%" height="100%" transform="translate(-72 -275.52)"/><use xlink:href="#C" x="374.841" y="356.4" width="100%" height="100%" transform="translate(-72 -275.52)"/><use xlink:href="#M" x="378.662" y="356.4" width="100%" height="100%" transform="translate(-72 -275.52)"/><use xlink:href="#as" x="380.26" y="356.4" width="100%" height="100%" transform="translate(-72 -275.52)"/><use xlink:href="#C" x="383.733" y="356.4" width="100%" height="100%" transform="translate(-72 -275.52)"/><use xlink:href="#r" x="387.554" y="356.4" width="100%" height="100%" transform="translate(-72 -275.52)"/><use xlink:href="#A" x="389.867" y="356.4" width="100%" height="100%" transform="translate(-72 -275.52)"/><use xlink:href="#L" x="393.341" y="356.4" width="100%" height="100%" transform="translate(-72 -275.52)"/><use xlink:href="#y" x="395.216" y="356.4" width="100%" height="100%" transform="translate(-72 -275.52)"/><use xlink:href="#E" x="397.53" y="356.4" width="100%" height="100%" transform="translate(-72 -275.52)"/><use xlink:href="#B" x="403.365" y="356.4" width="100%" height="100%" transform="translate(-72 -275.52)"/><use xlink:href="#A" x="348" y="364.92" width="100%" height="100%" transform="translate(-72 -275.52)"/><use xlink:href="#L" x="351.473" y="364.92" width="100%" height="100%" transform="translate(-72 -275.52)"/><use xlink:href="#N" x="353.403" y="364.92" width="100%" height="100%" transform="translate(-72 -275.52)"/><use xlink:href="#O" x="357.224" y="364.92" width="100%" height="100%" transform="translate(-72 -275.52)"/><use xlink:href="#K" x="361.045" y="364.92" width="100%" height="100%" transform="translate(-72 -275.52)"/><use xlink:href="#y" x="364.908" y="364.92" width="100%" height="100%" transform="translate(-72 -275.52)"/><use xlink:href="#C" x="367.222" y="364.92" width="100%" height="100%" transform="translate(-72 -275.52)"/><use xlink:href="#o" x="371.043" y="364.92" width="100%" height="100%" transform="translate(-72 -275.52)"/><use xlink:href="#C" x="374.516" y="364.92" width="100%" height="100%" transform="translate(-72 -275.52)"/><use xlink:href="#M" x="378.337" y="364.92" width="100%" height="100%" transform="translate(-72 -275.52)"/><use xlink:href="#as" x="379.88" y="364.92" width="100%" height="100%" transform="translate(-72 -275.52)"/><use xlink:href="#C" x="383.353" y="364.92" width="100%" height="100%" transform="translate(-72 -275.52)"/><use xlink:href="#r" x="387.174" y="364.92" width="100%" height="100%" transform="translate(-72 -275.52)"/><use xlink:href="#A" x="389.488" y="364.92" width="100%" height="100%" transform="translate(-72 -275.52)"/><use xlink:href="#L" x="392.961" y="364.92" width="100%" height="100%" transform="translate(-72 -275.52)"/><use xlink:href="#y" x="394.837" y="364.92" width="100%" height="100%" transform="translate(-72 -275.52)"/><use xlink:href="#E" x="397.15" y="364.92" width="100%" height="100%" transform="translate(-72 -275.52)"/><use xlink:href="#B" x="403.055" y="364.92" width="100%" height="100%" transform="translate(-72 -275.52)"/><use xlink:href="#P" x="361.2" y="310.8" width="100%" height="100%" transform="translate(-72 -275.52)"/><use xlink:href="#y" x="365.833" y="310.8" width="100%" height="100%" transform="translate(-72 -275.52)"/><use xlink:href="#N" x="368.147" y="310.8" width="100%" height="100%" transform="translate(-72 -275.52)"/><use xlink:href="#Q" x="371.968" y="310.8" width="100%" height="100%" transform="translate(-72 -275.52)"/><use xlink:href="#C" x="375.58" y="310.8" width="100%" height="100%" transform="translate(-72 -275.52)"/><use xlink:href="#y" x="379.401" y="310.8" width="100%" height="100%" transform="translate(-72 -275.52)"/><use xlink:href="#w" x="381.714" y="310.8" width="100%" height="100%" transform="translate(-72 -275.52)"/><use xlink:href="#R" x="383.59" y="310.8" width="100%" height="100%" transform="translate(-72 -275.52)"/><use xlink:href="#S" x="387.966" y="310.8" width="100%" height="100%" transform="translate(-72 -275.52)"/><use xlink:href="#y" x="391.787" y="310.8" width="100%" height="100%" transform="translate(-72 -275.52)"/><use xlink:href="#C" x="394.1" y="310.8" width="100%" height="100%" transform="translate(-72 -275.52)"/><use xlink:href="#p" x="397.921" y="310.8" width="100%" height="100%" transform="translate(-72 -275.52)"/><use xlink:href="#D" x="401.742" y="310.8" width="100%" height="100%" transform="translate(-72 -275.52)"/><use xlink:href="#at" x="465" y="311.4" width="100%" height="100%" transform="translate(-72 -275.52)"/><use xlink:href="#p" x="470.787" y="311.4" width="100%" height="100%" transform="translate(-72 -275.52)"/><use xlink:href="#M" x="474.65" y="311.4" width="100%" height="100%" transform="translate(-72 -275.52)"/><use xlink:href="#u" x="476.248" y="311.4" width="100%" height="100%" transform="translate(-72 -275.52)"/><use xlink:href="#w" x="480.069" y="311.4" width="100%" height="100%" transform="translate(-72 -275.52)"/><use xlink:href="#R" x="481.999" y="311.4" width="100%" height="100%" transform="translate(-72 -275.52)"/><use xlink:href="#S" x="486.306" y="311.4" width="100%" height="100%" transform="translate(-72 -275.52)"/><use xlink:href="#y" x="490.169" y="311.4" width="100%" height="100%" transform="translate(-72 -275.52)"/><use xlink:href="#C" x="492.601" y="311.4" width="100%" height="100%" transform="translate(-72 -275.52)"/><use xlink:href="#p" x="496.421" y="311.4" width="100%" height="100%" transform="translate(-72 -275.52)"/><use xlink:href="#D" x="500.242" y="311.4" width="100%" height="100%" transform="translate(-72 -275.52)"/><path d="M327.121 106.559h75.719v46.562H327.12zm0 0" fill="#ffca00"/><path d="M326.52 105.96h.601v47.642h-.601zm0 0" fill="#ff0"/><path d="M327.121 105.96h75.719v.599H327.12zm0 0" fill="#ff0"/><path d="M327.121 153.121h76.32v.48h-76.32zm0 0M402.84 105.96h.601v47.161h-.601zm0 0" fill="#b08c00"/><use xlink:href="#U" x="424.92" y="392.28" width="100%" height="100%" transform="translate(-72 -275.52)"/><use xlink:href="#h" x="430.369" y="392.28" width="100%" height="100%" transform="translate(-72 -275.52)"/><use xlink:href="#V" x="434.897" y="392.28" width="100%" height="100%" transform="translate(-72 -275.52)"/><use xlink:href="#j" x="439.424" y="392.28" width="100%" height="100%" transform="translate(-72 -275.52)"/><use xlink:href="#k" x="441.937" y="392.28" width="100%" height="100%" transform="translate(-72 -275.52)"/><use xlink:href="#G" x="446.133" y="392.28" width="100%" height="100%" transform="translate(-72 -275.52)"/><g clip-path="url(#au)" transform="translate(-72 -275.52)"><path d="M399.121 396.602h75.719" fill="none" stroke="#000" stroke-width=".6000000000000001" stroke-linecap="square" stroke-miterlimit="10"/></g><use xlink:href="#S" x="401.64" y="406.8" width="100%" height="100%" transform="translate(-72 -275.52)"/><use xlink:href="#p" x="405.461" y="406.8" width="100%" height="100%" transform="translate(-72 -275.52)"/><use xlink:href="#u" x="409.42" y="406.8" width="100%" height="100%" transform="translate(-72 -275.52)"/><use xlink:href="#D" x="413.284" y="406.8" width="100%" height="100%" transform="translate(-72 -275.52)"/><use xlink:href="#q" x="417.105" y="406.8" width="100%" height="100%" transform="translate(-72 -275.52)"/><use xlink:href="#C" x="418.702" y="406.8" width="100%" height="100%" transform="translate(-72 -275.52)"/><use xlink:href="#y" x="422.662" y="406.8" width="100%" height="100%" transform="translate(-72 -275.52)"/><use xlink:href="#A" x="424.885" y="406.8" width="100%" height="100%" transform="translate(-72 -275.52)"/><use xlink:href="#X" x="428.359" y="406.8" width="100%" height="100%" transform="translate(-72 -275.52)"/><use xlink:href="#Y" x="430.289" y="406.8" width="100%" height="100%" transform="translate(-72 -275.52)"/><g clip-path="url(#av)" transform="translate(-72 -275.52)"><path d="M399.121 411.121h75.719" fill="none" stroke="#000" stroke-width=".6000000000000001" stroke-linecap="square" stroke-miterlimit="10"/></g><use xlink:href="#y" x="401.64" y="421.2" width="100%" height="100%" transform="translate(-72 -275.52)"/><use xlink:href="#N" x="403.953" y="421.2" width="100%" height="100%" transform="translate(-72 -275.52)"/><use xlink:href="#t" x="407.774" y="421.2" width="100%" height="100%" transform="translate(-72 -275.52)"/><use xlink:href="#L" x="411.595" y="421.2" width="100%" height="100%" transform="translate(-72 -275.52)"/><use xlink:href="#C" x="413.525" y="421.2" width="100%" height="100%" transform="translate(-72 -275.52)"/><use xlink:href="#r" x="417.346" y="421.2" width="100%" height="100%" transform="translate(-72 -275.52)"/><use xlink:href="#E" x="419.659" y="421.2" width="100%" height="100%" transform="translate(-72 -275.52)"/><use xlink:href="#A" x="425.494" y="421.2" width="100%" height="100%" transform="translate(-72 -275.52)"/><use xlink:href="#z" x="428.968" y="421.2" width="100%" height="100%" transform="translate(-72 -275.52)"/><use xlink:href="#B" x="432.788" y="421.2" width="100%" height="100%" transform="translate(-72 -275.52)"/><path d="M273.602 176.402h75.597v46.559h-75.597zm0 0" fill="#ffca00"/><path d="M273 175.8h.602v47.759H273zm0 0M273.602 175.8h75.597v.602h-75.597zm0 0" fill="#ff0"/><path d="M273.602 222.96H349.8v.599h-76.2zm0 0M349.2 175.8h.6v47.16h-.6zm0 0" fill="#b08c00"/><use xlink:href="#ac" x="370.68" y="461.76" width="100%" height="100%" transform="translate(-72 -275.52)"/><use xlink:href="#j" x="375.713" y="461.76" width="100%" height="100%" transform="translate(-72 -275.52)"/><use xlink:href="#G" x="378.226" y="461.76" width="100%" height="100%" transform="translate(-72 -275.52)"/><use xlink:href="#k" x="381.244" y="461.76" width="100%" height="100%" transform="translate(-72 -275.52)"/><use xlink:href="#ad" x="385.394" y="461.76" width="100%" height="100%" transform="translate(-72 -275.52)"/><use xlink:href="#ae" x="389.591" y="461.76" width="100%" height="100%" transform="translate(-72 -275.52)"/><g clip-path="url(#aw)" transform="translate(-72 -275.52)"><path d="M345.602 465.84h75.597" fill="none" stroke="#000" stroke-width=".6000000000000001" stroke-linecap="square" stroke-miterlimit="10"/></g><g clip-path="url(#ax)" transform="translate(-72 -275.52)"><path d="M345.602 471.719h75.597" fill="none" stroke="#000" stroke-width=".6000000000000001" stroke-linecap="square" stroke-miterlimit="10"/></g><use xlink:href="#A" x="348" y="482.16" width="100%" height="100%" transform="translate(-72 -275.52)"/><use xlink:href="#C" x="351.473" y="482.16" width="100%" height="100%" transform="translate(-72 -275.52)"/><use xlink:href="#u" x="355.294" y="482.16" width="100%" height="100%" transform="translate(-72 -275.52)"/><use xlink:href="#D" x="359.254" y="482.16" width="100%" height="100%" transform="translate(-72 -275.52)"/><use xlink:href="#r" x="363.117" y="482.16" width="100%" height="100%" transform="translate(-72 -275.52)"/><use xlink:href="#B" x="365.479" y="482.16" width="100%" height="100%" transform="translate(-72 -275.52)"/><use xlink:href="#N" x="348" y="490.68" width="100%" height="100%" transform="translate(-72 -275.52)"/><use xlink:href="#u" x="351.821" y="490.68" width="100%" height="100%" transform="translate(-72 -275.52)"/><use xlink:href="#K" x="355.684" y="490.68" width="100%" height="100%" transform="translate(-72 -275.52)"/><use xlink:href="#y" x="359.505" y="490.68" width="100%" height="100%" transform="translate(-72 -275.52)"/><use xlink:href="#C" x="361.818" y="490.68" width="100%" height="100%" transform="translate(-72 -275.52)"/><use xlink:href="#o" x="365.639" y="490.68" width="100%" height="100%" transform="translate(-72 -275.52)"/><use xlink:href="#C" x="369.112" y="490.68" width="100%" height="100%" transform="translate(-72 -275.52)"/><use xlink:href="#M" x="372.933" y="490.68" width="100%" height="100%" transform="translate(-72 -275.52)"/><use xlink:href="#as" x="374.531" y="490.68" width="100%" height="100%" transform="translate(-72 -275.52)"/><use xlink:href="#C" x="378.004" y="490.68" width="100%" height="100%" transform="translate(-72 -275.52)"/><use xlink:href="#r" x="381.825" y="490.68" width="100%" height="100%" transform="translate(-72 -275.52)"/><use xlink:href="#B" x="384.138" y="490.68" width="100%" height="100%" transform="translate(-72 -275.52)"/><path d="M374.281 51.242H450v46.559h-75.719zm0 0" fill="#ffca00"/><path d="M373.68 50.64h.601v47.762h-.601zm0 0M374.281 50.64H450v.602h-75.719zm0 0" fill="#ff0"/><path d="M374.281 97.8h76.2v.602h-76.2zm0 0M450 50.64h.48V97.8H450zm0 0" fill="#b08c00"/><use xlink:href="#ay" x="455.52" y="336.84" width="100%" height="100%" transform="translate(-72 -275.52)"/><use xlink:href="#l" x="460.553" y="336.84" width="100%" height="100%" transform="translate(-72 -275.52)"/><use xlink:href="#j" x="464.749" y="336.84" width="100%" height="100%" transform="translate(-72 -275.52)"/><use xlink:href="#k" x="467.262" y="336.84" width="100%" height="100%" transform="translate(-72 -275.52)"/><use xlink:href="#G" x="471.459" y="336.84" width="100%" height="100%" transform="translate(-72 -275.52)"/><use xlink:href="#i" x="474.477" y="336.84" width="100%" height="100%" transform="translate(-72 -275.52)"/><use xlink:href="#ad" x="479.004" y="336.84" width="100%" height="100%" transform="translate(-72 -275.52)"/><use xlink:href="#ai" x="483.201" y="336.84" width="100%" height="100%" transform="translate(-72 -275.52)"/><use xlink:href="#g" x="485.389" y="336.84" width="100%" height="100%" transform="translate(-72 -275.52)"/><use xlink:href="#h" x="490.747" y="336.84" width="100%" height="100%" transform="translate(-72 -275.52)"/><use xlink:href="#i" x="495.356" y="336.84" width="100%" height="100%" transform="translate(-72 -275.52)"/><use xlink:href="#j" x="499.883" y="336.84" width="100%" height="100%" transform="translate(-72 -275.52)"/><use xlink:href="#k" x="502.396" y="336.84" width="100%" height="100%" transform="translate(-72 -275.52)"/><use xlink:href="#l" x="506.593" y="336.84" width="100%" height="100%" transform="translate(-72 -275.52)"/><use xlink:href="#j" x="510.743" y="336.84" width="100%" height="100%" transform="translate(-72 -275.52)"/><g clip-path="url(#az)" transform="translate(-72 -275.52)"><path d="M446.281 341.281H522" fill="none" stroke="#000" stroke-width=".6000000000000001" stroke-linecap="square" stroke-miterlimit="10"/></g><g clip-path="url(#aA)" transform="translate(-72 -275.52)"><path d="M446.281 347.16H522" fill="none" stroke="#000" stroke-width=".6000000000000001" stroke-linecap="square" stroke-miterlimit="10"/></g><use xlink:href="#K" x="449.04" y="357.12" width="100%" height="100%" transform="translate(-72 -275.52)"/><use xlink:href="#D" x="452.861" y="357.12" width="100%" height="100%" transform="translate(-72 -275.52)"/><use xlink:href="#M" x="456.724" y="357.12" width="100%" height="100%" transform="translate(-72 -275.52)"/><use xlink:href="#A" x="458.268" y="357.12" width="100%" height="100%" transform="translate(-72 -275.52)"/><use xlink:href="#O" x="461.741" y="357.12" width="100%" height="100%" transform="translate(-72 -275.52)"/><use xlink:href="#p" x="465.562" y="357.12" width="100%" height="100%" transform="translate(-72 -275.52)"/><use xlink:href="#L" x="469.425" y="357.12" width="100%" height="100%" transform="translate(-72 -275.52)"/><use xlink:href="#o" x="471.355" y="357.12" width="100%" height="100%" transform="translate(-72 -275.52)"/><use xlink:href="#S" x="474.829" y="357.12" width="100%" height="100%" transform="translate(-72 -275.52)"/><use xlink:href="#K" x="478.649" y="357.12" width="100%" height="100%" transform="translate(-72 -275.52)"/><use xlink:href="#o" x="482.47" y="357.12" width="100%" height="100%" transform="translate(-72 -275.52)"/><use xlink:href="#p" x="485.944" y="357.12" width="100%" height="100%" transform="translate(-72 -275.52)"/><use xlink:href="#q" x="489.764" y="357.12" width="100%" height="100%" transform="translate(-72 -275.52)"/><use xlink:href="#q" x="491.362" y="357.12" width="100%" height="100%" transform="translate(-72 -275.52)"/><use xlink:href="#A" x="492.905" y="357.12" width="100%" height="100%" transform="translate(-72 -275.52)"/><use xlink:href="#r" x="496.379" y="357.12" width="100%" height="100%" transform="translate(-72 -275.52)"/><use xlink:href="#B" x="498.692" y="357.12" width="100%" height="100%" transform="translate(-72 -275.52)"/><path d="M374.281 175.8H450v46.56h-75.719zm0 0" fill="#ffca00"/><path d="M373.68 175.2h.601v47.76h-.601zm0 0M374.281 175.2H450v.6h-75.719zm0 0" fill="#ff0"/><path d="M374.281 222.36h76.2v.6h-76.2zm0 0M450 175.2h.48v47.16H450zm0 0" fill="#b08c00"/><use xlink:href="#g" x="469.68" y="461.52" width="100%" height="100%" transform="translate(-72 -275.52)"/><use xlink:href="#ah" x="475.129" y="461.52" width="100%" height="100%" transform="translate(-72 -275.52)"/><use xlink:href="#ad" x="479.657" y="461.52" width="100%" height="100%" transform="translate(-72 -275.52)"/><use xlink:href="#i" x="483.807" y="461.52" width="100%" height="100%" transform="translate(-72 -275.52)"/><use xlink:href="#i" x="488.416" y="461.52" width="100%" height="100%" transform="translate(-72 -275.52)"/><use xlink:href="#k" x="492.943" y="461.52" width="100%" height="100%" transform="translate(-72 -275.52)"/><use xlink:href="#ai" x="497.14" y="461.52" width="100%" height="100%" transform="translate(-72 -275.52)"/><g clip-path="url(#aB)" transform="translate(-72 -275.52)"><path d="M446.281 465.84H522" fill="none" stroke="#000" stroke-width=".6000000000000001" stroke-linecap="square" stroke-miterlimit="10"/></g><use xlink:href="#aC" x="449.04" y="476.04" width="100%" height="100%" transform="translate(-72 -275.52)"/><use xlink:href="#aD" x="454.111" y="476.04" width="100%" height="100%" transform="translate(-72 -275.52)"/><use xlink:href="#aE" x="458.745" y="476.04" width="100%" height="100%" transform="translate(-72 -275.52)"/><use xlink:href="#aE" x="462.565" y="476.04" width="100%" height="100%" transform="translate(-72 -275.52)"/><use xlink:href="#K" x="466.429" y="476.04" width="100%" height="100%" transform="translate(-72 -275.52)"/><use xlink:href="#aF" x="470.25" y="476.04" width="100%" height="100%" transform="translate(-72 -275.52)"/><use xlink:href="#T" x="474.493" y="476.04" width="100%" height="100%" transform="translate(-72 -275.52)"/><use xlink:href="#aG" x="479.51" y="476.04" width="100%" height="100%" transform="translate(-72 -275.52)"/><use xlink:href="#aC" x="484.527" y="476.04" width="100%" height="100%" transform="translate(-72 -275.52)"/><use xlink:href="#R" x="489.543" y="476.04" width="100%" height="100%" transform="translate(-72 -275.52)"/><use xlink:href="#aH" x="493.85" y="476.04" width="100%" height="100%" transform="translate(-72 -275.52)"/><use xlink:href="#aI" x="495.656" y="476.04" width="100%" height="100%" transform="translate(-72 -275.52)"/><use xlink:href="#aG" x="501.06" y="476.04" width="100%" height="100%" transform="translate(-72 -275.52)"/><g clip-path="url(#aJ)" transform="translate(-72 -275.52)"><path d="M446.281 480.36H522" fill="none" stroke="#000" stroke-width=".6000000000000001" stroke-linecap="square" stroke-miterlimit="10"/></g><use xlink:href="#z" x="449.04" y="490.44" width="100%" height="100%" transform="translate(-72 -275.52)"/><use xlink:href="#C" x="452.861" y="490.44" width="100%" height="100%" transform="translate(-72 -275.52)"/><use xlink:href="#L" x="456.82" y="490.44" width="100%" height="100%" transform="translate(-72 -275.52)"/><use xlink:href="#r" x="458.75" y="490.44" width="100%" height="100%" transform="translate(-72 -275.52)"/><use xlink:href="#B" x="461.064" y="490.44" width="100%" height="100%" transform="translate(-72 -275.52)"/><path d="M222.121 175.8h23.277v47.759h-23.277zm0 0" fill="#30caca"/><use xlink:href="#aK" x="308.517" y="487.924" width="100%" height="100%" transform="translate(-72 -275.52)"/><use xlink:href="#aL" x="308.517" y="482.853" width="100%" height="100%" transform="translate(-72 -275.52)"/><use xlink:href="#aM" x="308.517" y="479.032" width="100%" height="100%" transform="translate(-72 -275.52)"/><use xlink:href="#aN" x="308.517" y="477.156" width="100%" height="100%" transform="translate(-72 -275.52)"/><use xlink:href="#aO" x="308.517" y="472.085" width="100%" height="100%" transform="translate(-72 -275.52)"/><use xlink:href="#aP" x="308.517" y="468.264" width="100%" height="100%" transform="translate(-72 -275.52)"/><use xlink:href="#aQ" x="308.517" y="465.972" width="100%" height="100%" transform="translate(-72 -275.52)"/><path d="M222.121 175.441h23.64v48.36H221.88v-48.36zm0 .598v-.238h.36v47.758h-.36v-.36h23.277v.36h-.238V175.8h.238v.238zm0 0M342.121 106.441l-4.8-5.039.359-.48 4.922 5.039zm0 0"/><path d="M334.32 97.8l2.758 7.079.844-3.36 3.36-.718zm0 0M311.879 97.8v73.321h-.598v-73.32zm0 0"/><path d="M311.52 175.8l3-6.96-3 1.68-2.88-1.68zm0 0M329.762 175.559l13.918-18.118.48.36-14.039 18.12zm0 0"/><path d="M346.8 153.96l-6.6 3.72 3.359.36 1.203 3.241zm0 0M311.281 175.8v-73.32h.598v73.32zm0 0"/><path d="M311.52 97.8l-2.88 6.962 2.88-1.801 3 1.8zm0 0M381.719 153.84l12.12 17.64-.48.36-12.12-17.758zm0 0"/><path d="M396.238 175.441l-1.558-7.32-1.442 3-3.36.238zm0 0M412.32 175.441V103.2h.48v72.242zm0 0"/><path d="M412.559 98.52l-2.88 6.96 2.88-1.8 2.882 1.8zm0 0M273.121 213.96h-23.043v-.6h23.043zm0 0"/><path d="M245.398 213.602l6.961 2.878-1.68-2.878 1.68-2.883zm0 0M268.441 185.402h-23.043v-.601h23.043zm0 0"/><path d="M273.121 185.04l-6.96-2.88 1.679 2.88-1.68 3zm0 0M222.121 214.32h-22.8v-.601h22.8zm0 0"/><path d="M194.762 213.96l6.957 3-1.797-3 1.797-2.878zm0 0M217.441 186.719h-22.68v-.598h22.68zm0 0"/><path d="M222.121 186.36l-6.96-2.88 1.679 2.88-1.68 2.882zm0 0"/></svg>