<?xml version='1.0' encoding='UTF-8'?>
<svg xmlns="http://www.w3.org/2000/svg" width="277.66" height="375.01" viewBox="0 0 277.66 375.01"><path d="M242.35 373.34l-2.15-1.67-2.94-5.73-2.94-5.74-.66-5.85-.66-5.85.82-3.27.82-3.26 6.91-4.44 6.91-4.43 6.8.1 6.8.1 4.23 2.18 4.21 2.18 2.09 2.97 2.08 2.97v11.54l-1.88 3.6-1.89 3.6-3.78 3.52-3.79 3.52-5.61 2.81-5.61 2.82h-7.6l-2.16-1.67zm-80.5-24l-6.44-4.33-3.93-6.39-3.92-6.38v-7.8l4.76-7.17 4.76-7.17 4.66-2.21 4.66-2.22h16.39l3.18 3.18 3.18 3.18 1.57 5.82 1.57 5.82-1.48 6.46-1.49 6.45-4.26 5.94-4.26 5.93-4.22 2.61-4.23 2.61h-4.05zm81.1-28.3l-5.7-1.78-1.96-1.62-1.96-1.63v-11.2l2.12-6.22 2.13-6.23 3.91-4.2 3.92-4.18 7.75.7 7.74.7 4.24 2.2 4.25 2.19 3.97 5.48 3.97 5.49v8.27l-2.54 4.15-2.53 4.15-5.88 2.85-5.89 2.85-5.91-.1-5.91-.08-5.71-1.78zM81 305.75l-5-.98-2.62-2.37-2.62-2.38-2.05-7.04-2.04-7.04v-8.34l1.83-4.39 1.83-4.39 4.27-4.86 4.27-4.86 4.48-.84 4.48-.84 4.9 1.62 4.9 1.62 5.18 5.33 5.18 5.34 2 6.75 2.01 6.75v13.02l-1.36 2.54-1.35 2.54-6.89 2.04-6.88 2.05-4.76-.16-4.76-.15zm165.45-31.43l-6.22-3.24-3.05-4.28-3.05-4.28-.53-7.43-.54-7.44 3.65-3.64 3.65-3.65 5.36-1.45 5.37-1.44 4.73.88 4.72.89 4.73 2.43 4.73 2.44 3.83 4.03 3.83 4.03-.84 4.43-.84 4.42-4.74 5.96-4.75 5.96-3.58 2.36-3.58 2.37-3.33-.06-3.33-.05-6.22-3.24zM162 257.17l-6.67-3.14-2.93-3.2-2.94-3.2-2.06-4.93-2.07-4.94v-9.33l4.03-4.58 4.03-4.59 6.48-1.55 6.48-1.56 5.82 1.57 5.83 1.57 3.43 1.77 3.44 1.77 4.23 3.96 4.23 3.95v7.07l-2.14 4.26-2.15 4.27-4.85 5.11-4.86 5.11-3.6 1.89-3.6 1.89-1.73-.01-1.73-.02-6.67-3.14zm82.67-32.53l-6.67-3.63-3-5.95-3-5.95v-10.94l3.77-3.6 3.76-3.62 4.56-1.3 4.56-1.31 3.34.01 3.34.02 7 3.25 7 3.26 3.34 3.34 3.33 3.33v7.67l-4.17 6.3-4.17 6.29-4.8 3.27-4.81 3.26-3.36-.03-3.36-.03-6.66-3.64zM8.33 211.36l-3.73-4-2.3-7.29-2.3-7.3v-14.6l3.67-3.43 3.66-3.44 5.62-2.81 5.61-2.82 7.05.03 7.06.03 5.64 2.56 5.63 2.56 2.7 4.41 2.68 4.41v4.74l.01 4.74-3.36 6.75-3.36 6.75-2.3 2.03L38 206.7l-7.06 3.65-7.06 3.65-5.91.67-5.92.67-3.72-4zm240.25-34.43l-4.09-2.02-4.86-4-4.87-4.02-1.37-4.94L232 157v-5.52l-.01-5.52 2.55-3.15 2.55-3.15 11.78.06 11.79.06 6.06 2.75 6.06 2.75 1.6 5.34 1.6 5.35v7.28l-2.86 4.03-2.87 4.03-6.06 3.85-6.06 3.84-2.74-.03-2.73-.03-4.1-2.02zm-85.35-22.48l-4.1-1.79-4.97-4.36-4.96-4.36-1.75-3.46-1.75-3.47-.82-5.39-.82-5.38 1.36-4.93 1.36-4.94 2.52-1.35 2.52-1.35 11.1.06 11.08.06 6.67 2.28 6.66 2.27 2.33 4.67 2.34 4.66v12.47l-3.64 4.32-3.64 4.33-5.95 3.77-5.96 3.78-2.74-.05-2.73-.05-4.1-1.8zm93.44-24.04l-1.34-.52-4.96-.83-4.96-.83-4.1-3.44-4.1-3.45-2.6-5.11-2.61-5.12v-6.31l3-2.74 3-2.75 5.37-2.7 5.36-2.68 8.13-1.6 8.13-1.6 2.78 1.49 2.79 1.49 3.54 4.65 3.55 4.64-.08 5.41-.07 5.41-2.78 5.75-2.79 5.75-2.47 2.23-2.46 2.24-4.5.56-4.5.57zm-180-16.8L71.33 111 69 108.2l-2.33-2.81V101l3.9-8.23 3.88-8.23 6.72-6.96 6.71-6.97 6.66.79 6.65.79 4.18 2.16 4.17 2.16 2.54 5.58 2.53 5.57.03 8.09.03 8.08-3.67 3.5-3.67 3.51-6 2.72-6 2.71-6.66-.02-6.67-.03-5.33-2.62zm166.98-28.5l-5-1.8-2.2-1.82-2.2-1.82-1.79-4.29-1.8-4.29V56.13l3.81-3.8 3.8-3.8 7.67-2.23 7.67-2.23 5.99 1.68 5.99 1.67 4.54 4.29 4.54 4.28v5.82l-2.15 4.14-2.14 4.14-6.15 6.58-6.15 6.57-3.64 1.88-3.64 1.89-1.07-.06-1.06-.06zm-82.98-21.48l-5.34-1.92-.3-.02-.3-.02-4.7-6.98-4.7-6.98V36.38l5-3.31 5-3.31 7.88-2.71 7.87-2.71h12.73l2.11 2.12 2.12 2.11 3.5 4.58 3.48 4.57-.82 6-.82 6-2.18 4.31-2.17 4.31-3.43 3.67-3.43 3.66-8.09-.06-8.08-.05-5.33-1.93zM252 37.76l-3.33-1.02-5.53-2.82-5.53-2.82-2.89-5.97-2.89-5.97-.07-5.65-.08-5.64 2.47-1.8 2.47-1.81 6.6-1.96 6.6-1.96h17.94l3.42 4.06 3.42 4.06 1.52 5.08 1.52 5.08-2.44 5.15-2.44 5.15-5.05 5.04-5.04 5.05-3.67-.12-3.67-.11-3.33-1.02z" fill="#f2dde0"/><path d="M240.82 370.94l-3.42-4.06-2.03-6.85-2.04-6.84v-6.36l1.43-2.67 1.43-2.67 6.17-3.9 6.16-3.92h12.92l5.02 2.56 5.01 2.56 1.6 3.5 1.6 3.5-.03 3.61-.03 3.6-2.5 5.5-2.49 5.48-4.57 3.49-4.57 3.48-5.74 2.03-5.74 2.03h-4.76l-3.42-4.07zm13.47-2.1l-.83-.82 1.95-1.95 1.95-1.94-.77-1.25-.77-1.25-1.35.83-1.35.84-4.18-3.81-4.17-3.82 1.69 2.23 1.69 2.22-2.4 1.4-2.42 1.4 1.4.05 1.4.04 1.27-1.24 1.27-1.24 3.03 2.47 3.02 2.48-1.38.86-1.38.85.76 1.24.77 1.24h1.62l-.82-.82zm4.89-2.57l.79-2.07-1.32.82-1.32.81v2.51h1.05zm-8.51-1.18v-.6l-1.34-.82-1.33-.82v2.82h2.67zm12.66-2.08l-2.41-2.67-2.13.08-2.12.09 2.86 1.15 2.86 1.16.89 1.43.88 1.42h1.59l-2.42-2.66zm1.07-3.2l-2.4-3.2-.55.52-.54.53 2.42 2.67 2.42 2.68h1.04zm-20.46-7.35l1.36-2.55-1.95.29-1.94.29-.93.92-.92.93h3.26l-.82 1.33-.82 1.34h1.4zm.67-5.36l.77-1.24-1.14-.7-1.13-.7v3.88h.73zm14.8-.8l-2.59-1.96-1.4.04-1.42.04 2.59 1.96 2.59 1.96 1.4-.04 1.42-.04zm-9.37-1.7l-.75-.75-1.65 1.66-1.64 1.65 2.4-.9 2.38-.92zm.63-2.1v-.5l-2.03-1.69-2.03-1.68.84 2.19.84 2.19h2.38zM166 351.57l-4-2.07-3.18-2.92-3.18-2.9-3.82-5.2-3.82-5.2v-4.8l.01-4.8 5.02-6.67 5.02-6.67 4.64-2.33 4.64-2.33h13.96l4.03 3.66 4.04 3.66 1.06 6 1.06 6-1.16 5.7-1.15 5.7-1.24-.77-1.23-.76.72 1.9.73 1.88-6.4 6.76-6.42 6.75-2.66.74-2.67.74-4-2.07zm5.64-9.37l-.8-.8-1.76.7-1.75.7 2.56.1 2.55.1-.8-.8zm-8.25-3.1l-.88-1.43h-2.62l1.72 1.87 1.72 1.86.47-.44.47-.44zm10.9-.86l2.1-2.1.92 1.5.93 1.5 1.56-1.89 1.56-1.88-3.01.36-3.02.36-4 2.11-4 2.12 2.43.01 2.43.01 2.1-2.1zm-7.03-2.46l-2.59-1.89-.63.63-.63.63 1.96 1.24 1.96 1.24 1.26.02 1.25.02-2.58-1.89zm17.06-7.2l-.8-2.1-.65 1.93-.64 1.93-2.11 1.69-2.12 1.69 3.56-1.52 3.56-1.53zm-21.97 1.08l-1.67-2.68-.5 1.5-.5 1.5 1.82 1.16 1.83 1.16.35.02.34.02-1.67-2.68zm18.23-4.32l-.93-3-2.16-1.3-2.16-1.3-1.22-.03-1.22-.04-.62-1.85-.62-1.85 1.51.93 1.5.93v-3.05l-1.66.56-1.67.55-.4 2.07-.4 2.07 3.94 1.38 3.95 1.37.88 2.78.88 2.78h1.33l-.93-3zm-15.86-3.76l.88-1.42-.61-.6-.61-.62-1.69 2.03-1.68 2.04h2.83zm4.04-3.76v-2.51l-1.63.63-1.63.62.73 1.89.72 1.89h1.81zm75.47 3.28l-5.78-1.88-2.56-2.31-2.56-2.32.02-5.46.01-5.46 3.15-6.77 3.16-6.77 3.83-3.02 3.83-3.02 6.56.87 6.56.86 4.42 1.85 4.43 1.85 4.02 6.34 4.01 6.34v5.75l-3 4.45-3 4.46-4.2 2.46-4.2 2.45-6.47.6-6.46.6-5.77-1.87zm1.65-9.43l-2.19-3.33h-.94l.85 2.22.85 2.22-1.76-1.1-1.77-1.09.97 1.57.96 1.56L244 313l1.15-.71.84 1.35.83 1.36h1.24zm.79-7.1v-2.45h-3.75l1.53 2.44 1.52 2.45h.7zm1.99-5.55l.81-1.32-2.07.8-2.07.8v1.04h2.51zm-1.33-2.68l.83-1.33h-2.83v2.66h1.18zm10.81-3.37l.3-1.96h-3.62l-.83 1.33-.82 1.33h4.32l-.96 1.67-.96 1.67 1.14-1.04 1.14-1.04zM84 305.7l-6-.82-2.88-1.59-2.89-1.59-2.38-6.24-2.38-6.24-.07-6.87-.07-6.88 4.03-6.56 4.02-6.57 4.9-2.4 4.9-2.41 5.72 1.54 5.72 1.54 5.54 5.54 5.54 5.54 2.15 7.24 2.15 7.23v10.92l-2 2.86-2 2.86-4.34 1.32-4.33 1.31-4.66.54-4.67.54zm20.67-9.36l-.83-1.33-1.59.02-1.58.02 2 1.29 2 1.3.4.01.42.02zm2.5-18.07l.8-2.07-1.32.82-1.32.81v2.51h1.05zm-23.14-1.3l1.68-2.02-2.4.92-2.41.92 1.09-1.76 1.09-1.77-1.48.92-1.48.91.75 1.96.75 1.96h.72zm5.97-3.3l-.82-1.33H86.5l.82 1.33.83 1.34h2.66zm6.7-2.4l-.74-.75-1.65 1.65-1.64 1.66 2.39-.9 2.39-.92zm149.88 2.72l-7.05-3.69-3.1-5.86-3.1-5.85v-10.05l3.31-3.93 3.31-3.93 5.28-1.34 5.27-1.34 5.2.95 5.2.95 5.77 3.22 5.76 3.22 2.6 3.52 2.6 3.52-1.52 4.62-1.52 4.62-4.76 5.56-4.76 5.56-3.8 1.97-3.8 1.96h-3.83zm14.12-6.73l-.74-.74-1.65 1.65-1.64 1.66 2.39-.9 2.39-.92zm-9.49-.59l-.94-1.66-2.7-3-2.7-3h-2.8l3.1 2.17 3.1 2.17-1.8 1.29-1.8 1.28 2.33-.75 2.33-.75v3.92h2.82zm8.18-2.42l.88-1.43 1.73.67 1.74.67-.29-1.95-.28-1.94-.92.03-.92.04-2.66 2.67-2.67 2.66h2.51zm9-3.47l-.68-1.77h-.76l-.68 1.77-.68 1.78h3.49zm-21.26-6.67l2.43-2.9-2.44.46-2.45.47-1.67.1-1.67.1v2.82l1.34-.82 1.33-.82v4.6l.35-.56.35-.55zm15.54-1.77v-1.33h-2.82l.82 1.33.82 1.33h1.18zm-7.82-5.05l-1.75-.58-1.4 1.4-1.42 1.41 3.16-.82 3.16-.83zm-4.8-1.7l.88-1.43-.46-.44-.47-.44-1.72 1.86-1.72 1.87h2.62zm-90.26 10.06l-6.2-3.23-2.72-3.46-2.72-3.45-1.56-7.01-1.57-7.01 2.22-4.3 2.22-4.3 4.27-2.6 4.27-2.6h14.67l6.72 3.14 6.72 3.13 3.73 4.43 3.73 4.44-.76 3.82-.77 3.82-4.06 5.9-4.05 5.89-4.43 3.37-4.42 3.38-4.54-.07-4.54-.06-6.2-3.23zm11.58-4.39l-.75-.74-1.64 1.65-1.65 1.66 2.4-.9 2.39-.92zm4.63-9.35v-.65l-2.44 2.2-2.44 2.21h-4.45v2.23l.79.79.79.78 3.87-3.45 3.88-3.45zm-12 3.76l-1.43-2.66h-1.33l1.43 2.66 1.42 2.67h1.34zm-2.67-6.4v-1.97l-2.2-1.6-2.2-1.62 1.74-1.08 1.74-1.07-.95 1.54-.95 1.54h2.66l-.2-2.58-.19-2.57-1.06.65-1.05.65-.02-1.74-.02-1.75-1.72 3.34-1.72 3.33 2.47 1.79 2.47 1.78-1.38 1.66-1.37 1.66h3.95v-1.97zm23.58-1.85l-.7-1.75-.1 2.56-.11 2.55.8-.8.81-.8-.7-1.76zm-7.41-5.44l-1.66-1.64.91 2.4.91 2.38.75-.74.75-.75zm-4.47-10.56l-.53-1.58-1.62-.32-1.61-.31 1.51.72 1.52.73-1.82 1.15-1.81 1.16 2.44.02 2.45.02-.53-1.59zm72.97 3.43l-6.67-3.43-2.3-3.09-2.31-3.09-1.63-6.09-1.63-6.08 1.29-3.66 1.29-3.65 4.64-3.16 4.65-3.16 8.95.5 8.94.48 5.7 4 5.7 4.01 1.95 3.49 1.96 3.48-2.4 5.33-2.4 5.33-5.56 5.44-5.54 5.45-3.98.67-3.98.66zm11.33-3.18l-2-1.29h-2.66l2 1.3 2 1.29h2.66zm-7-6.9l-1.66-1.06H246l1.86 1.18 1.86 1.18-.86 2.47-.87 2.47 2-2.6 2.01-2.58zm10.89-3.76l-.07-2-1.15 2.66-1.15 2.67-.07 1.33-.07 1.34 1.29-2 1.3-2-.08-2zm-14.55-.26v-1.27l-2 2-2 2v1.85l2-1.66 2-1.66zm18.66.26v-1.34h-2.82l.82 1.34.83 1.33h1.17zM247 205l.6-3.16-.9-1.49-.93-1.48-1.73 2.1-1.74 2.09 2.2-.85 2.2-.84-.88 2.48-.9 2.48-1.3 1.7-1.32 1.7 2.05-.8 2.05-.78zm15.25.41l-.7-1.75-.1 2.56-.1 2.55.8-.8.8-.8-.7-1.76zm5.53 1.2l1.43-1.72-2.93-.15-2.94-.14 1.68.65 1.67.64-.75 1.22-.75 1.22h1.16zm-5.64-7.92l2.54-2.98-2.13 1.63-2.12 1.63-.65-.65-.66-.66v4h.48zm-7.65-1.91l.49-.3-2.82.2-2.82.22v3.76l2.34-1.79 2.33-1.79zM8.84 211.49l-3.51-3.52-2.67-8.62L0 190.73V179.6l2.1-3 2.1-2.99 7.86-3.97 7.86-3.97h11.6l7.24 3.67 7.24 3.67 1.9 5.47 1.89 5.48-1.83 6.52-1.82 6.52-6.15 6.14-6.15 6.15-7.64 2.86-7.63 2.86h-6.2zM26.36 201l.28-3.34-2.32.1-2.32.11 1.82.73 1.82.72-1.82 1.17-1.82 1.17 2 1.32 2 1.3.04.03.05.02.27-3.33zm11.6.6l-.86-1.39 1.71-2.27 1.71-2.28-2.42 2.2-2.42 2.21.9 1.47.91 1.46h1.33zm-17.24-3.85l-.88-1.42h-2.83l1.68 2.03 1.69 2.03.61-.6.61-.62zM30 199l.82-1.34H28v2.67h1.18zm-14-4.6v-.58l-1.33-.82-1.34-.83V195H16zm22.67-3.4v-1.34h-2.82l.82 1.34.82 1.33h1.18zM36 187v-1.34h-2.67v2.67H36zm-1.33-4v-1.34h-1.18l-.82 1.34-.83 1.33h2.83zm-15.28-1.43l.88-1.42-.47-.44-.47-.44-1.72 1.86-1.72 1.87h2.61zm10.04-2.4l-1.34-2.49.56-.56.56-.55H24.3l.75 1.94.75 1.95-2.57-.98-2.56-.97 1.33 1.3 1.33 1.3 3.34.6 3.33.59.38.18.38.18zm219.9-2.3l-4.66-2-5.03-4.9-5.03-4.9-1.42-5.28-1.42-5.27.86-5.76.87-5.76 2.91-1.6 2.92-1.6 10 .18 10 .19 5.28 1.86 5.27 1.86 2.63 3.52 2.63 3.52.1 6.63.1 6.64-5.23 5.35-5.23 5.36-4.3 2.04-4.32 2.05-1.13-.06-1.13-.05-4.67-2.01zm8.9-6.48v-1.94l-1.14.7-1.13.7.76 1.24.77 1.24h.73zm-3.56 0v-.44l-1.96-.75-1.96-.75-.61 1-.62 1 2.57.19 2.58.2zm-6.93-5.43l-.74-.75-.91 2.4-.91 2.39 1.65-1.65 1.66-1.64zm14.8-3.87l-.64-.64-1.77 2.94-1.76 2.94 2.4-2.3 2.4-2.3zm-23.87-4.17v-2.08l-1.36.84-1.35.83.76 1.25.77 1.24h1.18zm6.25-2.9l-.61-2.36-.05 4-.05 4 .66-1.64.67-1.64-.62-2.36zm16.05-3.18l-2.36-1.34.95-1.59.95-1.58-2.24 1.82-2.24 1.82.55.89.55.89 3.1.22 3.1.21zm-10.3-1.99v-.52h-4v2.58l2-.76 2-.77zm8-4v-.52h-5.49l.78 1.28.8 1.27 1.95-.75 1.96-.75zM245.33 143v-1.34h-2.82l.82 1.34.83 1.33h1.17zm-82 10.8l-5.33-2.4-4.51-3.8-4.52-3.81-1.82-4.36-1.82-4.35v-14.86l3.28-3.27 3.27-3.28 10.4.06 10.39.06 6.55 2.28 6.56 2.27 2.6 3.51 2.58 3.52.7 6.16.69 6.16-3.62 5.22-3.61 5.22-4.9 3.22-4.89 3.22-3.33.83-3.33.82zm-7.18-9.96l-1.52-1.82 1.9-1.58 1.9-1.57.86 1.4.87 1.4h2.97l-2.55-2.43-2.55-2.42-2.23 2.75-2.24 2.76 1.39 1.67 1.38 1.66h1.33zm6.52.27v-1.56l-.88.88-.88.88-2.12-1.66-2.12-1.65 1.83 2.33 1.83 2.33h2.34zm-11.54-4.5l-.8-2.06-.63.63-.63.64.88 1.42.87 1.42h1.1zm27.54-2.27v-1.01h-.92l-2.54 2.86-2.54 2.85 3-1.84 3-1.84zM153.22 131l-.07-2-1.15 2.66-1.15 2.67-.07 1.33-.07 1.34 1.29-2 1.3-2-.08-2zm28.11 4.14v-1.2l-2.19-.83-2.18-.84 1.68 2.03 1.69 2.03h1zm-22.96-3.55l.28-3.4-1.35.83-1.34.83.76 1.24.77 1.24-1.74.02-1.75.02 2 1.3 2 1.29.04.02.04.02.29-3.41zm18.96-3.12v-1.19l-2.19-.84-2.18-.84 1.68 2.03 1.69 2.03h1zm-19.47-2.58l.69-1.12h-3.77l.7 1.12.68 1.1h1.02zm4.98-1.23l1.83-2.33-2.34 1.83L160 126v1h1zm-10.14-5.4l-.74-.75-1.65 1.65-1.64 1.66 2.39-.9 2.39-.92zm93.05 7.81l-5.57-2.53-3.34-5.1-3.34-5.11-.9-3.68-.9-3.67 2.06-3.14 2.05-3.13 6.43-3.07 6.43-3.07 6.66-1.57 6.67-1.57 3.64 1 3.64.99 1.75 1.79 1.75 1.79 2.27 3.3 2.28 3.29-.03 4.7-.03 4.7-2.51 5.56-2.52 5.54-2.79 2.79-2.78 2.78-7.67-.03-7.67-.03-5.58-2.53zm4.57-3.06l.23-2.98-1.19 1.92-1.18 1.92.65 1.06.66 1.07h.6zm-2.25-2.75l1.41-2.93-1.74 2.05-1.74 2.05-2.36-.25-2.36-.25 2.04.64 2.05.63-.9 1.44-.88 1.44 1.53-.95 1.53-.95zm9.26 3.07V123h-1.18l-.82 1.33-.82 1.33h2.82zm-9.84-10.03l-2.16-2.16v-1.32l1.37-2.55 1.37-2.56 3.63-2.07 3.63-2.07-3.16.85-3.17.86 1.04-1.68 1.04-1.68-1.56.96-1.56.97.76 1.24.77 1.24h-2.4l-1.59 3.5-1.6 3.5 2.16 3.28 2.15 3.28.72-.71.72-.72zm22.74-1.51l-.87-.88 1.65-2.12 1.66-2.13-2.32 1.82-2.32 1.82.73 1.18.73 1.18h1.62zm-29.63-4.57l-.78-1.27-1.27.78-1.26.78.78 1.27.78 1.26 1.26-.78 1.27-.78zm.36-2.31l1.82 1.5 1.61-1.62 1.61-1.62-2.32.89-2.32.88-.81-2.1-.8-2.1-1.88 1.86-1.87 1.87v2.06l1.57-1.57 1.57-1.57zm24.37-2.91v-1.34h-2.82l.82 1.34.83 1.33h1.17zm-7.33-1.34l.82-1.33H256V103h1.18zm-.67-4v-1.33h-2.66V99h2.66zM77.9 113.81l-5.44-2.47-2.81-3.57-2.81-3.57 1.85-6.17 1.86-6.16 5-7.26 5-7.26 5.02-3.33 5.03-3.32 5.03.93 5.04.93 4.2 1.98 4.21 1.99 2.8 6.48 2.79 6.5v13.85l-4.61 4.34-4.6 4.35-6.3 2.14-6.3 2.15-4.76-.03-4.77-.03zm9.42-1.45l.82-1.32-2.07.8-2.07.79v1.04h2.51zm8.14-1.56l.95-1.54-1.54.95-1.54.95v-1.27l-.77-2-.77-2.01 1.77.27 1.77.27 1.58.98 1.57.98.9-1.44.89-1.45 1.93.74 1.94.75-.85-1.38-.85-1.37-2.55.81-2.56.81v-3.38l-1.46 1.47-1.47 1.47-4-1.15-4-1.14-1.9-1.58-1.9-1.58-.64.64-.64.64 4.57 2.47 4.58 2.46 1.4 3.09 1.4 3.08h1.24zm-15.9-1.73v-1.95l-1.14.7-1.13.7.77 1.25.76 1.24h.74zm-2.77-2.3l2.54-2.89-1.55.9-1.55.91-.5-1.49-.5-1.49-1.8 2.18-1.8 2.18 2.51-.95 2.53-.95-1.83 2.25-1.83 2.25h1.24zm-4.12-3.76l.82-1.34h-2.82v2.67h1.18zm11.05-13.12l-.39-2-1.59-.53-1.59-.52.2 2.53.18 2.53h3.58zm5-4.97l-3.38-1.75-1.67-.85-1.67-.84 2.47 2 2.46 2.02-.76 1.23-.76 1.22 3.35-.63 3.34-.64zm9.01-2.8l-.68-1.78h-2.17l-2.1-.8-2.11-.82v3.11l1.56-.96 1.56-.97-.84 2.19-.84 2.18 2.26 1.27 2.27 1.26.89-1.44.89-1.44zm8.94 2.74v-.36l-1.24-.77-1.25-.77-.7 1.14-.7 1.13h3.89zm133.6-1.42l-4.4-2.17-1.96-3.77-1.95-3.78-.8-5.86-.81-5.85 1.64-4.98 1.64-4.98 7.22-3.3 7.2-3.3h11.65l3.82 2 3.81 1.99 3.84 4.03L275 57.5l-.82 3.25-.81 3.25-4.47 6.5-4.47 6.5-5.65 4.34-5.65 4.33-4.23-.03-4.23-.03zm9.57-6.5l.8-2.07-1.32.81-1.32.82V79h1.05zm-6.68-.89l-.65-1.04h-3.84v2.09h5.13zm14.17-.3v-.59l-1.33-.82-1.33-.82v2.82h2.66zm-4.36-2.88l-.8-.8-1.75.7-1.75.7 2.55.1 2.56.1-.8-.8zm10.73-2.35l2.3.74-1.82-1.3-1.83-1.3-1.3-1.83-1.3-1.82.75 2.33.75 2.33H256v2.45l1.67.58 1.66.58 1.04-1.75 1.03-1.75zm-21.86-13.58l.8-2.07-1.32.81-1.32.82V59h1.05zm24.83.22v-.5l-2.67-.7-2.67-.7.75 1.2.74 1.21h3.85zm-14.58-3.31l-1.33-2.5.95-1.12.96-1.14-2.67 1.92-2.67 1.9-.66.6-.67.59 2.52-.91 2.52-.91-1.68 2.03-1.69 2.03h5.76zm12.35-1.66l-2.81-2.81-2.48 1.58-2.48 1.58 2.2-.67 2.2-.68 2.47 1.87 2.46 1.86.63.04.63.05-2.82-2.82zm-8.44.9v-.6l-1.33-.82-1.34-.82v2.82H256zm-5.33-5.51v-.67L248 48.34l-2.67 1.43v1.33l2.67-1.43 2.67-1.42zm-86.3 16.8l-4.3-1.02-3.45-2.26-3.45-2.26-3.92-6.18-3.92-6.18v-8.34l3-2.82 3.01-2.83 7.74-3.54 7.74-3.54 8-.73 8-.72 4.56 4.43 4.57 4.42 1.46 4.42 1.45 4.42-2.1 7.26-2.12 7.27-4.48 4.75-4.47 4.74-6.51-.13-6.51-.14zm15.1-12.7l.3-2.02-1.24.77-1.24.76.77 1.24.76 1.24H176v3.2l1.59-1.58 1.58-1.59zm-16.53-1.98l-2.27-3.97-.45 1.32-.45 1.3-1.22-.75-1.22-.75v2.82h4.09l.76 2 .77 2h2.26zm-5.6 2.05v-.59l-1.34-.82-1.33-.82v2.82h2.66zm27.74-4.11l-.75-.75-.91 2.4-.91 2.38 1.66-1.64 1.65-1.65zm-32.69-2.1l-1.42-1.43-1.03 1.65-1.02 1.66 1.54-.95 1.54-.95v3.26l.91-.9.91-.92zM158.4 44l-.38-1.67 1.17-.22 1.18-.22.81-1.23.82-1.22 2.67-1.66 2.66-1.65-2.66.9-2.67.89-1.89.76-1.88.77.9-1.47.91-1.47-1.18-.72-1.17-.73.15 2.97L158 41l-1.68-.34-1.68-.34L156.3 43l1.66 2.67h.81zm26.56-1.62l1.04-1.14-1.67.95-1.66.96V39h-4v2.82l1.56-.96 1.56-.97-.8 2.09-.8 2.09 1.86-.28 1.87-.27zm-31.15-8.57l-.41-.53-2.03 1.69-2.04 1.69V39l2.45-2.34 2.44-2.33zm19.16 1.71l-.8-.8-1.75.7-1.75.7 2.55.1 2.56.11-.8-.8zm1.34-4l-.81-.8-1.75.7-1.75.7 2.56.1 2.55.11-.8-.8zm75.35 4.97l-7-2.42-2.85-2.54-2.85-2.53-2.45-5.34-2.45-5.33-.03-4.8-.03-4.79 2.37-2.14 2.37-2.15 7.91-2.06 7.91-2.06h12.95l2.46 1.32 2.46 1.31 2.78 4.51 2.79 4.5v10.3l-4.24 6.22-4.24 6.22-3.63 2.14-3.63 2.15-1.8-.05-1.8-.04zm1.58-5.62l.65-.65-2.59-.2-2.58-.19-.77 1.26-.78 1.25 2.71-.42 2.72-.41zm4.76-2.54V27l-2.33.02-2.34.02 2 1.29 2 1.3.34.01.33.02zm4.17-1.69L258.51 25l.9 2.39.92 2.39.75-.75.74-.74zm-11.4-2l-2.41-2.31 1.6 3.11 1.59 3.12.81-.81.81-.82zm-4.34-1.22l-1.57-.58 1.39-4.26 1.38-4.25L248.3 12l2.66-2.34h-2.76l-2.1 2.1-2.09 2.1v3.96l-1.48-.91-1.47-.91.86 2.72.87 2.72-1.46.9-1.45.9 1.6 1.93 1.62 1.94 1.45-1.56 1.46-1.55zm19.15-4.67l-.7-1.75-.1 2.55-.11 2.56.8-.8.8-.81zM262 13.67l-2.41-2.66h-2.55l3.15 2.62 3.14 2.62.54.05.54.04zm-22.67 0l.83-1.33h-2.67l-.82 1.33-.83 1.34h2.67zm-1.83-5.69l-1.66-1.64.91 2.4.91 2.38.75-.74.75-.75zm19.83-.97l-1.92-1.2-.67.68-.66.66L256 8.34l1.92 1.19.67-.67.67-.66zM248 7l2-1.3h-2.67l-2 1.3-2 1.29H246z" fill="#f0dbdd"/><path d="M241.63 371.99l-2.84-3.02-1.93-4.65-1.94-4.65-.92-6.18-.92-6.18 1.55-2.9 1.56-2.92 6.17-3.9 6.16-3.92h12.92l5.02 2.56 5.01 2.56 1.6 3.5 1.6 3.5v7.05l-2.8 5.78-2.8 5.78-5.54 3.77-5.53 3.76-4.53 1.54-4.53 1.55h-4.48zm12.78-2.21l1.75-.1-.65-1.05-.64-1.04 3.57.21 3.56.2 3.6-3.35 3.62-3.37-1.21-2.26-1.22-2.27 1.6-1.7 1.61-1.71-1.67-.61-1.66-.61V346l-3-2.23-3-2.22 1.87.93 1.87.94-.96-1.56-.97-1.56-1.3.8-1.3.8-1.6-1.27-1.61-1.27-3.67-.66-3.67-.66v2.46l-1.39-.86-1.39-.86-1.93 1.6-1.92 1.6.75 1.21.75 1.22-1.66-.37-1.66-.37-1.72 3.32-1.72 3.31.84 3.34.84 3.34 1.87 1.87 1.87 1.88-1.76 1.12-1.77 1.12 1.34.17 1.33.18 1.14-.2 1.14-.2 1.88 1.55 1.87 1.56-1.54 1.85-1.53 1.85 2.4-.92 2.41-.92-.9 1.44-.88 1.44 2.34-.44 2.34-.45 1.74-.1zm6.56-4.91l-.97-.97v-1.66l2.67-.2 2.66-.2v2.66l-1.22-.76-1.22-.75-.47 1.43-.48 1.42zm-15.43-3.04l-1.8-1.14.46-2.16.47-2.16 1.54 3.32 1.54 3.32-.2-.02-.22-.02-1.8-1.14zm10.5.46l-.04-1.38-2.77-.21-2.78-.21-1.89-1.57-1.9-1.57-.01-2.84-.02-2.84-1.3 2-1.29 2-.02-2.33-.02-2.33h2.82l-.7-1.14-.7-1.13 3.28-1.75 3.27-1.75 5.42 1.78 5.41 1.8.8 1.3.81 1.3-1.54-.95-1.54-.95v10.98l-1.25-.78-1.25-.77-1.37 2.36-1.38 2.36-.04-1.38zm-10.7-16.47v-1.2l2.18-.83 2.2-.84-1.7 2.03-1.68 2.03h-1zm.57 19.71l-.73-1.19h-2.51v3.92l1.99-.77 2-.76zm-80.29-14.09l-4.38-2.14-5.91-6.58-5.91-6.57-.89-4.72-.88-4.72 2.01-4.22 2.02-4.23 3.76-4.47 3.77-4.48 4.35-1.82 4.35-1.82h12.83l2.97 2.08 2.97 2.09 2 3.85 1.99 3.85v13.96l-2.65 5.46-2.64 5.46-5.02 4.82-5.03 4.81-2.66.77-2.67.77zm9.68-5.74l2.39-2.63 1.15.71 1.16.72v-2.83h3.92l-.84-2.33-.84-2.33 1.1.99 1.08.98 1.8-1.48L188 336v-6.2l-2.33-1.36-2.34-1.36 1.68-.04 1.68-.04-1.68-3-1.68-2.98-2.45-3.35-2.45-3.34-6.48-.13-6.48-.14.09.8.09.8-.24 2-.25 2-1.23-3.07-1.23-3.08-3.02 3.12-3.01 3.12-2.4 4.68-2.4 4.69.92 2.38.91 2.39 1.13-1.78 1.13-1.78.02 3 .02 3h2.67l-.33 1-.32 1 1.99 2.8 1.99 2.79 4 2.15 4 2.15 1.46.06 1.46.05 2.38-2.64zm-4.88.4l1.75-.7.8.8.8.8-2.55-.1-2.55-.1 1.75-.7zm-8.55-4.74l-2.54-2.97 2.59 1.97 2.58 1.98-.89-2.36-.88-2.37 2.72 1.46 2.72 1.46-1.58 1.9-1.58 1.91h-.6zm12.19.4l-.77-1.24 1.35-.83 1.36-.84V343h-1.18zm-12.25-6.49l-1.45-.93-.91-3.33-.91-3.34 1.46 2.34 1.47 2.33h2.84l-2.26-3.45-2.26-3.45.77-.77.77-.77v2.37l2.08-2.97 2.07-2.96h8.12l3.75 4.02 3.75 4.01.68-1.68.68-1.68.1 2.85.1 2.86 2 .77 2 .77v2.94l-2.09-2.1-2.1-2.1h-3.8v2.83l1.66-1 1.67-1-1.83 2.25-1.83 2.26h-1.16l.82-1.33.82-1.34h-2.66l-.83 1.34-.82 1.33h-7.69l-.9-1.48-.92-1.47-.87 1.4-.87 1.4-1.45-.92zM245 321.19l-6.33-1.77-2.82-2.54-2.81-2.54.7-6.83.7-6.83 2.74-5.38 2.75-5.37 3.65-2.88 3.66-2.88 6.72.89 6.7.89 4.52 2.1 4.51 2.1 3.82 6.02 3.82 6.03v5.75l-3 4.45-3 4.46-4.12 2.4-4.1 2.4-5.9.65-5.88.65zm11.33-.4l-1.66-.67-1.67.67-1.67.67H258zm9.74-8.68l.79-2.48 1.04.65 1.05.65-.63-3.63-.63-3.63-2.18-1.83-2.18-1.83 2.98.7 2.98.7-1.6-2.87-1.59-2.87.34-1.16.33-1.15-4.1.6-4.09.6 1.38-1.38 1.37-1.37v-2.29l-1.33.82-1.33.82v-2.15l-6 .1-6 .11-.9.9-.9.91 2.56 2.06 2.57 2.06-2.92-1.4-2.92-1.42-.82 1.34-.83 1.34.74 1.19.73 1.2-1.8.69-1.8.69-.82 3.78-.83 3.78-.85 3-.86 3h6.16l-2.6 1.96-2.58 1.96 3.59.04 3.59.04.81 1.32.82 1.32 5.26-.2 5.27-.21.9.9.9.9 3.07-2.9 3.08-2.89.78-2.47zm-19.88-.61l-3.52-3.52.02-1.49.02-1.48 1.24 1.96 1.24 1.96.88-2.29.88-2.29.2-3.23.18-3.22.67.15.67.15 3.07-1.04 3.07-1.04-1.57-1.9-1.57-1.88h1.57l4.13 4.03 4.12 4.03-.41 4.84-.41 4.83-2.67 1.47-2.67 1.47-.98 1.33-.98 1.33-.02-1.83-.02-1.83-1.8 1.5-1.82 1.51zm2.67-1.16l-2-2H245l1.66 2 1.66 2h2.54zm-172.3-6.56l-4.1-1.79-1.52-3.82-1.52-3.83-1.56-6.43-1.56-6.43 1.5-5.02 1.51-5.02 3.97-5.48 3.96-5.47 4.71-1.3 4.72-1.3 5 1.38 4.99 1.38 5.52 5.52 5.52 5.52 2.15 7.24 2.15 7.23v10.36l-1.44 2.69-1.44 2.69-4.52 1.89-4.51 1.88-9.71-.05-9.71-.05zm22.1-5.43l2.4-2.17.47 1.37.47 1.37 2-1.31 2-1.32-2.59-1.98-2.59-1.97h2.02l2.75 1.47 2.75 1.47-.6-4.1-.6-4.1 1.42-.48 1.42-.47-2.33-2.33-2.32-2.32v-1.3l1.38.85 1.38.86-.68-3.77-.69-3.77-2.36-1.76-2.36-1.75-3.65-.75-3.64-.74.81-1.32.81-1.3-3 .94-3 .96-.98-1.6-1-1.6-2.84 1.77-2.84 1.78v3.28l1.66-.41 1.67-.4-1 .55-1 .56-.1 2.22-.11 2.23-.68-1.68-.67-1.67-1.43.88-1.42.88.9-1.46.9-1.46-2.9.22-2.9.22-.61 2.35-.62 2.35-1.16-.72-1.17-.72.75 1.97.76 1.96-1.44 2.7-1.44 2.68 1.4.86 1.38.86-.76 2.4-.76 2.4 2.18.83 2.18.84-.74 1.92-.74 1.92 1.93-.74 1.94-.75v4.1l3 .46 3 .45 5.8-.27 5.79-.27zm-14.24-8l-2.87-2-.6 1.66-.6 1.66.13-6.89.13-6.89.94.58.93.58 1.76-2.35 1.76-2.36 7.2-.2 7.18-.2-1.8 1.11-1.79 1.11-1.4-.78-1.39-.79 3.5 3.88 3.5 3.87-2.43 3.91-2.43 3.9.47.77.47.75-4.9.35-4.9.34zm14.75.15l.3-2.08.84-.83.82-.83-.3 2.09-.3 2.08-.84.83-.82.82zm4.94-5.6l.1-2.56.7 1.75.7 1.75-.8.8-.81.81zm-5.44-7.3v-1.42l1.33.83 1.33.82v1.18h-2.66zm148.1-3.62l-7.23-3.64-3.1-5.88-3.1-5.87v-9.66l2.07-2.97 2.09-2.97 3.85-2 3.85-1.98h12.99l7.17 3.66 7.17 3.67 2.55 3.52 2.56 3.52-1.53 4.62-1.52 4.62-4.76 5.56-4.76 5.56-3.8 1.97-3.8 1.96-1.74-.02-1.73-.02-7.23-3.65zm10.56-3.05l-2-1.38 4 .4 4 .39-.2-2.42-.2-2.43 1.77.68 1.77.68 1.2-1.59 1.2-1.59 1.61-5.64 1.61-5.64-2.26-3.46-2.27-3.45-2.6.68-2.59.67-.7-2.65-.69-2.66-1.9.73-1.89.73.82-1.32.81-1.32h-5.33l-.84 1.36-.83 1.35-1.25-.77-1.24-.76v4.15H252v2.69l-2.48-1.55-2.48-1.55-3.19 2.3-3.18 2.3 2.04-.43 2.04-.42v2.66l-1.71-.39-1.7-.39v5.45H244v2.58l-1.94-.74-1.94-.75 1.2 4.18 1.2 4.18 3.07 2.56 3.08 2.57 1.08.04 1.07.05-.8-1.67-.79-1.67 1.71 2.34 1.71 2.33 3.34-.02 3.34-.02-2-1.37zm-7.21-8.4l-4.88-4.47 2.38-4.23 2.38-4.23 2.67-.65 2.66-.65 4 1.24 4 1.24-1.74.11-1.75.12.98 1.57.97 1.58.22 3.7.22 3.7-1.34-.83-1.34-.83.87 2.3.88 2.28-1.32-.82-1.31-.81-1.48.91-1.47.91 1.8 1.15 1.81 1.15-2.16.02-2.17.02-4.88-4.48zm16.65-6.97l.1-2.55.7 1.75.7 1.75-.8.8-.8.8.1-2.55zm-106.98.1l-6.2-3.24-2.72-3.46-2.72-3.45-1.56-7.01-1.57-7.01 2.22-4.3 2.22-4.3 4.27-2.6 4.27-2.6h14.67l6.72 3.14 6.72 3.13 3.61 4.3 3.61 4.28v2.24l-.02 2.23-3.93 6.86-3.94 6.85-5.02 4.15-5.03 4.14-4.7-.07-4.69-.06-6.2-3.23zm15.27-2.32l3.59-1.67v-1.1l.02-1.09 1.66-1.75 1.67-1.76 2.43-2.94 2.43-2.94-.68-.68-.68-.68 1.18-3.08 1.17-3.08-2.42-2.78-2.4-2.78-1.85-.02-1.85-.02 2-1.3 2-1.29-2.06-.02-2.07-.02-1.6 1.6-1.6 1.6v-4.53l-1.67-.02-1.66-.02 1.79-1.14 1.8-1.14-3.48-.87-3.47-.87-3.99 2.06-3.99 2.07v2.75l-1.33-.82-1.33-.83v3.65l-2.1 2.59-2.1 2.59.84-1.67.85-1.67h-2.83v6.82l1.47-.9 1.47-.9-1.47 2.73-1.47 2.74v3l1-.6 1-.6 1.96 2.1 1.96 2.12-2.3-.88-2.28-.88v2.16l3.4 1.55 3.41 1.55-.95 1.54-.95 1.54 2.65-.7 2.65-.68 2.48 1.81 2.48 1.82h1.62l3.6-1.67zm-9.88-6l-.16-1 .11-.87.12-.88-1.96-.75-1.96-.75-.02 1.63-.02 1.62-1.29-2-1.3-2-.01-1.08-.02-1.08 1.33.83 1.33.82v-9.08l2.34-2.02 2.33-2.02 4.25-.8 4.24-.8 1.35 4.28 1.34 4.28-.28 4.24-.27 4.25-1.2 1.09-1.19 1.09.86-2.4.86-2.4-2.94 2.07-2.95 2.06h-4.89l.82 1.34.82 1.33h-1.49l-.15-1zm.15-24.86v-.52l2.07-.8 2.07-.79-.81 1.32-.82 1.32h-2.51zm80.71 2.16l-6.62-3.63-3.01-4.49-3.01-4.48-.89-4.72-.88-4.72 1.2-3.42 1.2-3.42 4.65-3.16 4.65-3.16 8.67.51 8.67.5 5.63 3.61 5.63 3.6 2.16 3.3 2.15 3.28-1.5 4.52-1.49 4.53-4.76 5.56-4.76 5.56-3.8 1.97-3.8 1.96-1.73-.03-1.73-.03-6.63-3.64zm16.08-4.63l3.17-3 .02-1.23.02-1.23 2.06-2.27 2.06-2.28.65-3.6.66-3.6-1.37.84-1.37.84-2.34-1.46-2.35-1.47 2.9.78 2.88.79.76-1.24.77-1.24-1.99-1.65-1.98-1.64-2.22 1.83-2.22 1.83 1.58-2.97 1.59-2.97-2.25.86-2.25.86.96-1.56.96-1.56h-4.15v-2.66h-5.34v2.66h-5.18l-.76 1.24-.77 1.25 1.38.85 1.38.85-.91 1.47-.9 1.46 2.21-.89 2.22-.9 2-.8 2-.81v3.11l1.33-.83 1.34-.82v2.99l1.12-.7 1.12-.7.17 4.66.18 4.65-2.63 2.63L256 215l-2.33-.02-2.34-.02-2.8-.75-2.82-.76.48-4.23.48-4.22.65-1.74.65-1.74-1.45.9-1.45.9 1.44-2.7 1.44-2.69-1.96-.75-1.96-.75.32 1.55.32 1.56-1.56.06-1.55.06-1.12 1.22-1.1 1.21 1.66-.96 1.67-.96v2.7l-2.26 1.26-2.25 1.27 1.65 5.5 1.65 5.52 1.26-.78 1.25-.77-.76 1.97-.75 1.96 2.44 1.26 2.43 1.25 1.55-.55 1.54-.56.87 1.4.87 1.4h6.8l3.16-3zm-15.17-3.14l-1.72-1.86h2.61l.88 1.42.88 1.42-.47.44-.46.45zm8.15-.07l.54-.54 2.85-.55 2.84-.55v2.18h-6.77zm-15-7.96l-.1-1.5 1.78-1.48 1.78-1.48v3.84l-1-.61-1-.62-.67 1.68-.68 1.67-.1-1.5zM9.59 211.68l-4.2-3.54-2.69-8.7-2.7-8.72V179.6l2.1-3 2.1-2.99 7.86-3.97 7.86-3.97h11.6l7.24 3.67 7.24 3.67 1.73 5.3 1.73 5.29-1.5 6.25-1.5 6.25-4.6 5.37-4.6 5.37-6.96 3.35-6.97 3.34-4.77.85-4.77.84zm5.28-4.67h1.3l-.83 1.33-.82 1.33h9.65l-.83-1.33-.82-1.33 5.74-.02 5.75-.02 1.73-1.1 1.74-1.1 1.93-6.43 1.93-6.42-.02-4.13-.02-4.12-1.43 2-1.42 2 .71-3.23.72-3.23-2.8-2.44-2.81-2.43h-3.32l-.78-2.03-.78-2.03-2.56 1.6-2.56 1.6.67 1.76.68 1.77h-2.8l-.87-1.42-.87-1.41-1.77 2.41-1.76 2.41-1.1-1.18-1.12-1.18 1.67-.6 1.67-.59v-3.2l3.56-.29 3.56-.3.66-.66.66-.66h-8.44l-1 .33-1 .34.31.95.32.95-2.12-.81-2.12-.82-1.15 1.87-1.15 1.86H7.74l-1.56 3.8-1.56 3.82.51 5.35.51 5.35 1.3-1.83 1.3-1.83-.67 3-.65 3 1.3.8 1.3.8-.75 1.94-.74 1.94 1.18-.73 1.18-.73L11.4 204l1.02 2.33-.17 2-.17 2 .74-1.67.74-1.66zm4.44-10.72l-.86-1.4-2.89.72-2.88.7 1.55-.72 1.55-.73-1.1-3.86-1.11-3.86 3.51-3.51 3.52-3.51 5 .47 5 .48.51-1.37.52-1.36-.35 2.33-.35 2.33 1.2.75 1.21.75v5.33l1.43-.88 1.42-.88-.71-1.86-.72-1.87h2.58l-.04 1.67-.05 1.66-1.9 3.34-1.91 3.33-.05-1-.05-1-2.66 2.67-2.67 2.66h-7.84zm230.5-19.2l-4.19-1.84-5.4-4.87-5.4-4.88-1.57-7.05-1.58-7.05 1.59-4.8 1.58-4.8 2.92-.92 2.91-.93 9.24.17 9.25.17 4.76 1.53 4.76 1.52 2.22 1.95 2.23 1.94 1.5 6.29 1.52 6.28-1.29 3.4-1.29 3.38-6.3 5.55-6.3 5.54h-3.4l-1.78.62-1.78.62zm9.64-5.62l-.64-1.66 1.69.64 1.68.65 2.58-3.02 2.58-3.03-2.33 1.81-2.33 1.8v-3.14l-1.54.95-1.54.95.82-1.33.82-1.33 4 .24 3.99.24.93-2.12.94-2.11-.09-.67-.09-.67-.68-4.4-.69-4.4-1.6-1.93-1.6-1.93-3.5.02-3.5.02-2 1.37-2 1.37 3 2.1 3 2.1v9.1l-2 .76-2 .77.67 1.07.66 1.07-2.67-.7-2.67-.7v2.98h-3.84l-.92 1.48-.91 1.48 1.48.92 1.49.92h9.45l-.64-1.67zm-10.6-6.46l-2.84-1.34-.43-4.9-.42-4.9 2.76-2.77 2.76-2.76h-3.87l-1.2 2.15-1.2 2.14-.82-2.13-.82-2.13 3.38-.85 3.39-.85 1.5 1.5 1.5 1.5h2.05l-.68-1.78-.68-1.77 2.92.1 2.92.12.54-1.53.53-1.53-5.06.52-5.07.51 2.67-1.22 2.66-1.23-7.37-.1-7.37-.09-2.96 2.08-2.96 2.07v5.99l1.66 1.8 1.67 1.79-1.67-.94-1.66-.94v7l1.54 2.88 1.54 2.89 1.47 1.46 1.47 1.47 1.66-.55 1.65-.55v4.42l3.84-3.1 3.83-3.1-2.83-1.33zm-7.24-4.6l1.63-2.62.42.42.41.42-.84 2.19-.84 2.19h-2.4zM236 151v-1.34h2.67v2.67H236zm-74.1 1.9l-6.57-3.47-3.17-2.88-3.17-2.89-1.83-4.29-1.83-4.29v-14.45l2.56-3.15 2.55-3.15 13.11.08 13.12.08 4.9 2.14 4.89 2.14 2.1 3.2 2.09 3.2.86 6.25.85 6.24-3.75 5.42-3.76 5.42-5.42 3.1-5.43 3.12-2.77.82-2.77.82-6.56-3.46zm13.84-6.99l1.74-2.25 2.06.43 2.05.42 2.56-2.32 2.55-2.3-.74-2.34-.74-2.33 1.46-.9 1.45-.9-1.27-1.54-1.27-1.55-.46-2.67-.46-2.66-1.57-1.67-1.58-1.67h-3.01l.76-1.23.77-1.24-2.35-.64-2.36-.64-3.78-.84-3.77-.85.85 1.39.86 1.39h-3.01l-2-2-2-2h-7.66l-.83 1.35-.84 1.36-1.28-.8-1.27-.78.37 1.77.36 1.76-1.56-.3-1.56-.3.45 4.87.45 4.86-1.27-1.9-1.26-1.9.81 5.94.82 5.94 1.93 3.73 1.93 3.73h4.09l-.95 1.54-.96 1.54 1.45-.9 1.45-.89.9 1.45.89 1.44 1.82-.7 1.82-.7.86 1.4.87 1.4 4.84-.88 4.85-.87zm-13.25-5.45l-3.43-1.92-.11-4.01-.12-4.02 1.19-2.22 1.19-2.22-1.27-1.54-1.27-1.53 1.36 1.1 1.37 1.1 3.95-.59 3.96-.58-.76-1.52-.75-1.51 1.77 2.11 1.76 2.12 1.71-.57 1.71-.58-.27 1.13-.28 1.12 1.78 3.67 1.78 3.66-1.48 3.25-1.48 3.24.94.54.93.54-1.54-.36-1.54-.36-.8.81-.8.8-3.04.14-3.02.13-3.44-1.93zm-7.3.18l-1.5-.98.95-2.63.94-2.63.69 3.63.7 3.63-.15-.02-.15-.02-1.49-.98zm7.14-18.53l1.67-.67 1.67.67 1.66.68h-6.66zm83.42 4.96l-5.57-2.53-3.4-5.13-3.39-5.12-.85-4.25-.85-4.25 4.2-3.83 4.2-3.83 8.29-2.92 8.29-2.9h5.5l5.52.02 4.82 5.34 4.82 5.33-.03 5-.03 5-2.47 5.33-2.48 5.33-2.88 3-2.88 3-7.61-.03-7.62-.03-5.58-2.53zm15.45-2.36l3.2-.77-1.07 1.73-1.08 1.74 1.57-.97 1.56-.96-.77-1.24-.77-1.24H268v-3.41l-2.57-2.2-2.58-2.2-2.32 3.57-2.33 3.57 2.45-2 2.45-2-.68 2-.67 2-3.88-.1-3.87-.1-2-.57-2-.56-.96-1.34-.96-1.33-2.7 1.68-2.71 1.68v-1.4l1.59-2.54 1.58-2.54 3.26 2.56 3.26 2.56 2.15-.08 2.16-.09-2.86-1.15-2.86-1.16-2.14-3.05-2.14-3.06v-4.68l3.28-2.15 3.27-2.15 4.06.9 4.05.88 2.17 2.9 2.16 2.89-.77-2.3-.77-2.28 1.27-.79 1.28-.79v13.49h3.66l.74-3.66.74-3.67 1.02-2.67 1.02-2.66-2.53 2.5-2.53 2.52-.58-1.73-.58-1.73 2.19-1.6 2.18-1.6v-1.85l-1.33.82-1.34.82-.02-1.74-.02-1.75-1.29 2-1.3 2-.01-3.74-.02-3.75-1.34.83-1.33.82v-2.99l-1.56.97-1.56.97-6.1-.07-6.11-.07L243 99.3l-5.66 2.66.74 1.19.73 1.19-2.4.04-2.42.04 2.16 1.65 2.15 1.64-1.83 1.7-1.82 1.71 2 3.87 2 3.87 3 3.2 3 3.2 2 .81 2 .81 4.67-.7 4.67-.69zm-10.89-.55l1.65-1.65.74.74.75.75-2.4.91-2.38.91zm-12.36-9.25l-.88-1.42.63-.64.64-.63.79 2.05.79 2.06h-1.1zm3.98-.03l-.9-1.45 1.42-1.41 1.41-1.42-.21 2.86-.22 2.87h-.6zm3.4-11.14v-2.08H248v2.51l-1.33.83-1.34.82zm14.67-.28l-3.33-1.76h4l1.96 1.24 1.96 1.25-.63.51-.63.52zm-9.23-1.38l-.1-1.6 1.06-.65 1.06-.66 1.94 1.37 1.94 1.37-2.25-.71-2.25-.72-.65 1.6-.64 1.58-.1-1.58zm-172.9 11.63l-5.45-2.43-2.8-3.54-2.78-3.55 1.8-6.01 1.82-6.01 5.1-7.44 5.1-7.45 4.91-3.25 4.9-3.26 7.39 1.53 7.38 1.53 3.33 3.96 3.33 3.96 1.37 4.95 1.38 4.96v5.85l.02 5.84-4.61 4.34-4.6 4.35-6.3 2.14-6.3 2.15-4.77-.1-4.76-.09zm17.76-.44l1.63-.42.8-.8.8-.8.36-2.4.35-2.38 1.88-.5 1.88-.51-1.8 1.27-1.81 1.27 1.3.8 1.29.8 1.98-2.3 1.97-2.3 1.08-1.88 1.07-1.87-1.45.9-1.44.89-.97-1.56-.96-1.56 1.47.9 1.47.92 1.3-2.42 1.3-2.42-.65-5.28-.63-5.29-.14-2-.13-2-2.66-2.33-2.66-2.34h-3.6v2.67h-5.6l.77-2 .76-2h-3.91v2.82l-1.23-.75-1.23-.76-1.77 1.75-1.77 1.76-2.31.87-2.32.88.75 1.93.74 1.93-2.74.86-2.74.87.31.92.3.92-1.33.51-1.33.52-1.74 2.48-1.75 2.5-.56 2.9-.55 2.9 1.63 2.01 1.64 2.03-2-1.14-2-1.14 3.32 3.64 3.32 3.64 3.06-.58 3.06-.58-.76.75-.75.75 3.04 1.75 3.04 1.75 4-.67 4-.67zm-9.63-7.6l-.82-1.34 1.07.02 1.08.02 2 1.3 2 1.29-2.25.02-2.26.02zm11.9-1.19l.99-1.59-3.47.87-3.47.87-3.98-1.64-3.97-1.65V99l-2.33-.02-2.34-.02 1.86-1.18 1.87-1.18-.82-2.14-.82-2.13H84v-5.18l1.32-.81 1.32-.82-.85 2.2-.85 2.21L88.81 88l3.86-1.95 2 .66 2 .65 2.37 2.07 2.37 2.07-.3 5.1-.3 5.08h-2.3l.77 1.24.76 1.25-1.56.96-1.56.97zM72 99.67l-1.66-2h2.71l.77 2 .76 2h-.92zm2.22-2.89l-.89-.88v-1.78h3.75l-.68 1.78-.69 1.77h-.6zm24.2-12.02l1.75-.7.8.8.8.81-2.55-.1-2.55-.1zm-8.47-1.84l-.88-1.42.63-.64.64-.63.79 2.05.79 2.06h-1.1zm149.98.13l-4.74-2.5-1.59-3.48-1.58-3.48-.8-5.02-.8-5 1.53-5.72 1.54-5.7 6.92-3.23 6.92-3.22 5.71-.01 5.71-.02 4.3 1.84 4.28 1.83 3.84 4.08L275 57.5l-.82 3.25-.81 3.25-4.47 6.5-4.47 6.5-5.65 4.34-5.65 4.33-4.23-.06-4.23-.05-4.74-2.51zm14.76-5.04l.02-2.34 1.29 2 1.3 2 .01-1.62.02-1.63 2.22.86 2.22.85-.94-1.53-.94-1.52-6.79-2.02-6.78-2.01-1.82-1.52-1.83-1.52v-6.43l2.03-3.1 2.02-3.1 3.64.58 3.64.58 2.87 1.4 2.88 1.38.6 3.13.6 3.14-2.53 2.7-2.52 2.72-1.62.1-1.61.1 4.66 1.8 4.67 1.8 1.25.1 1.26.1-2.59-2.1-2.59-2.1 2.9.61 2.89.61 3.05-3.5 3.06-3.52.25-3.67.25-3.67-2.2-.1-2.2-.1 1.66-.68 1.65-.66-1.89-1.9-1.9-1.89h-2.44L262 49.67l-2.41-2.66h-8.8l-3.4 1.54L244 50.1v2.4l-1.18-.73-1.18-.73-1.38 1.65-1.37 1.65-.24 1.33-.25 1.34-1.02-.28-1.01-.27.48 6.27.49 6.28-1.42-2-1.42-2 .9 4.66.9 4.67 1.97 2.24 1.98 2.25 1.74-.67 1.74-.67.88 1.43.88 1.42h9.18l.02-2.33zm-8-.56l-.02-2.22-3.67-2.7-3.67-2.69 2.04.29 2.03.28 2.81 2.8 2.8 2.82-1.15 1.82-1.15 1.82-.02-2.22zm-9.25-4.55l.1-2.56.7 1.75.7 1.75-.8.8-.8.81.1-2.55zm2.6-10.64l.04-1.25 1.96-2.6 1.96-2.58-.04 1.26-.04 1.25-1.96 2.59-1.96 2.59zM244 54.5V54l2.33-1.83 2.34-1.83-1.83 2.33-1.83 2.34H244zm12.53-1.05l-.69-1.11h4l.69 1.11.69 1.11h-4zm-92.16 10.93l-4.3-1.02-3.37-2.21-3.37-2.2-3.45-5.21-3.44-5.2-.7-5.2-.7-5.19 4.13-3.47 4.12-3.47 7.69-2.89 7.69-2.88 7.07-.75 7.07-.74 4.57 4.43 4.57 4.43 1.43 4.35 1.44 4.34-1.54 5.7-1.53 5.7-3.83 5.56-3.83 5.56-2.15.83-2.16.82-5.56-.13-5.55-.14zm12.72-5.06l2.01-.77-.95 1.55-.96 1.54 2.07-.8 2.07-.79v-3.3l2.62-2.36 2.62-2.37 1.5-4.58 1.52-4.57-.84-3.35-.84-3.35-4.29-1.86-4.29-1.87 1.83-.05 1.83-.05-1.38-1.67-1.38-1.66-6.45.18-6.45.18-1.62.15-1.63.15.75 2.34.75 2.33-1.35-1.9-1.35-1.92-5.28 1.58-5.28 1.59-1.32 1.66-1.3 1.66-.71 5.57-.71 5.57 2.03 2.9 2.03 2.9 1.29-1.8 1.29-1.81-.75 2.33-.75 2.34.8 2.1.82 2.12 2.81 1.2 2.82 1.2 7.2-.77 7.21-.76zM168 56.37v-1.14l1.67-.67 1.66-.68-2.28-.1-2.28-.1-2.72-2.92-2.72-2.92V40.4l3-1.9 3-1.92 5.64-.6 5.63-.62-.72 1.18-.73 1.18-1.58-.8-1.57-.8 3.33 3.11 3.34 3.11-.08 2-.07 2-2.87 5.33-2.87 5.34-.05-1.67-.06-1.67h-2.96l.67 1.73.66 1.73-2.52.19-2.52.19zm-8.35-3.62l-2.35-.61.76-1.23.76-1.24h2.22l.78 2 .76 2-.29-.15-.29-.16zm23.02-.25v-1.34l1.33-.82 1.33-.82v2.66l-1.33.83-1.33.82zm-32.58-3.77l-.91-2.39 1.65 1.64 1.66 1.65-.75.75-.74.74zm8.68-3.83l.1-2.56.7 1.75.7 1.75-.8.8-.8.81.1-2.55zm-6.1-3.32v-3.65l1 .62 1 .61v-2.6l-1.6-.53-1.6-.53 2-.77 2-.77.16 5.64.16 5.63h-3.12zm30-1.24v-1.33h2.66v2.66h-2.66zM160 37.67v-1.33h2.82l-.82 1.33-.82 1.34H160zm95.33.42l-2.66-.6-5.72-2.11-5.72-2.1L238 29.4l-3.25-3.86-1.49-4.96-1.49-4.96.45-3.98.46-3.98 6-2.96 6-2.96 7.55-.88 7.55-.87 4.77.9 4.78.9 3.34 4.9 3.34 4.93V22.6l-3.86 5.32-3.85 5.32-3.66 2.88-3.66 2.88-1.48-.16-1.49-.15zm-1.4-4.3l.74-1.2 2.33.6 2.33.61 2.67-2.16 2.67-2.16-1.65.83-1.66.84.8-2.07.79-2.06 1.05.65 1.05.65.8-2.07.8-2.08 1.15.71 1.14.71 1.53-3.35 1.53-3.36v-3.91l-1.67-2.83-1.66-2.83-2.76-2.82-2.75-2.82-3-.43-2.99-.43-1.8 1.5-1.8 1.5-.8-1.29-.78-1.28-5.66.63-5.66.64-3.3 2.15-3.32 2.14 1.64.55 1.64.55v3.78h-2.44l-.64-1.67-.64-1.67.14 2.9.14 2.92 1.04-.65 1.05-.65-.17 3.07-.18 3.08 1.49 3.66 1.48 3.67h2.9l-.73 1.18-.73 1.18 2.98.97 2.99.96 1.57-.18 1.56-.18.85 1.37.84 1.37h2.36zM246 28.35l.82-1.33H248v2.66h-2.82zm-7.23-3.44l.1-2.56.7 1.75.7 1.75-.8.8-.8.81.1-2.55zm10.64-.12l-3.19-2.23 1.15 1.9 1.14 1.89-2.25-1.83-2.26-1.83.02-2.17.02-2.17 1.4 2 1.4 2-.83-2.95-.82-2.95 1.53-2.87 1.54-2.88 5.91.67 5.9.66-.77-2.84-.77-2.84 2.07 2.59 2.07 2.59-1.48.9-1.47.92 1.47.91 1.48.91v7.7l-2.97 2.07-2.96 2.08h-4.15l-3.18-2.23zm14.7-2.55l.1-2.56.7 1.75.7 1.75-.8.8-.81.81.1-2.55zM244 11.1V9.77l2.33-1.21 2.34-1.22 2.97.25 2.97.25.92.92.91.91h-7.28l-2.58 1.38-2.58 1.38z" fill="#edd5d8"/><path d="M240.77 370.67l-1.97-3-1.9-4.66-1.9-4.67-.79-5.33-.79-5.34 1.13 3.34 1.13 3.33 1.79 5.92 1.79 5.91 3.15 3.75 3.16 3.75h-2.84zm9.65 2.1l1.75-.7.8.8.8.8-2.55-.1-2.55-.1 1.75-.7zm17.58-9.68v-1.26l1.32-.81 1.32-.82-.8 2.07-.8 2.07H268zm-19-4.19l-2.33-1.36v-7.68l2.1-2.1 2.09-2.09h4.95l2.1 2.1 2.09 2.09.81 3.26.82 3.25-1.64 1.99-1.65 1.98-3.5-.04-3.5-.04-2.34-1.36zm23-3.89l1.28-4.48-2.85-5.7-2.85-5.72-1.03.64-1.03.63-.85-1.37-.85-1.38-1.45.9-1.45.89.91-1.47.91-1.48-4.59-.86-4.58-.86-3.12.94-3.12.93-5.7 3.27-5.7 3.27.73 1.16.72 1.17-1.36.84-1.35.83v-4.21l6.33-4.03 6.33-4.02 3.02-.76 3.02-.76 6.23.93 6.24.94 4.58 4.58 4.59 4.58-.69 6.08-.69 6.08-1.46 1.46-1.46 1.46zm-110.24-6.51l-5.3-3.84-4.23-6.39-4.23-6.39v-5.58l2.77-5.31 2.78-5.32 4.72-4.2 4.72-4.2 4-.8 4.01-.8h9.18l2.46 1.32 2.46 1.32 2.78 4.5 2.79 4.51-.2 7.18-.2 7.17-.9-7.33-.92-7.33-.92-2-.92-2-5.22-2.2-5.23-2.2-6.7.22-6.7.22-4.66 4.53-4.66 4.52-2.2 4.64-2.21 4.65 1.5 4.8 1.5 4.82 3 3.33 3.02 3.33 4.4 3.67 4.42 3.67h8l5.46-5.67 5.45-5.67-1.53 2.86-1.52 2.86-4.14 3.47-4.13 3.48h-7.4zm3.63-15.08l-2.72-2.92v-5.97l2.1-2.1 2.09-2.09h5.88l2.96 2.08 2.97 2.07v7.7l-2.97 2.07-2.96 2.08h-4.64zm96.92-13.25l1.65-1.65.74.74.75.75-2.4.91-2.38.91zm-26.44-3.96l-2.8-2.8.93-6.17.92-6.17 2.57-5.03 2.56-5.03h1.34l-2.52 5-2.52 5-.84 6-.84 6 1 1.44 1 1.45 2.66 1.51 2.67 1.52-1.67.04-1.66.04zm33.97-.95l3.85-4.1-.63-6.55-.63-6.55-3.87-5.07-3.86-5.07 2.88 1.8 2.89 1.8 3.02 5.39 3.03 5.38-.3 4-.3 3.99-1.96 2.98-1.96 2.99-3 1.55-3 1.55zm-19.45-4.59l-2.12-1.66-.88-2.98-.89-2.98 3.36-3.35 3.35-3.36H256l2.67 2.67 2.66 2.66v6.48l-2.1 2.1-2.09 2.09h-4.63zM79.8 304.81l-3.53-.62-2.47-2.8-2.48-2.8 3.5 2.25 3.5 2.25 6.7.8 6.71.8 6.37-.96 6.37-.96 3.64-3.9 3.64-3.88-.73 2.76-.72 2.76-3.27 2.14-3.26 2.14-10.23.32-10.22.32zm-10.97-14.14l-.8-3-.02-5.8-.02-5.8 2.2-4.62 2.2-4.63 3.9-3.9 3.9-3.91h10.57l4.95 2.52 4.95 2.53 2.66 3.1 2.67 3.11-4.78-3.53-4.77-3.53-4.57-.86-4.57-.85-3.7 1.4-3.68 1.4-5.44 5.69-5.44 5.68.63 9 .63 9h-.67zm42.04.34v-3.34l.67 1.67.67 1.67-.67 1.66-.67 1.67zm-25.17-.12l-2.87-1.07-1.51-2.83-1.52-2.83 2.17-3.3 2.16-3.3 3.26-1.5 3.27-1.48 3.3 1.5 3.29 1.5.88 3.5.87 3.5-2.65 3.54-2.65 3.55-2.56.14-2.57.14zm157.26-3.32l2.3-2.4.64.63.64.64-2.94 1.77-2.94 1.76zm-133.43-3.23v-3.33l.68 1.66.67 1.67-.67 1.67-.68 1.66zm142.14 1.72l3.02-.58 2.32.61 2.31.6-5.33-.02-5.33-.03 3.01-.58zm1.99-10.64l2.33-.6 2.33.6 2.34.61h-9.34zm10.06-3.06l3.07-2.55 2.56-3.07 2.55-3.07.05.96.04.95-4.14 4.71-4.14 4.72-1.52-.05-1.53-.04 3.06-2.56zm-23.83-3.56l-3.23-3.55 4.33 3.13 4.33 3.13v.83h-2.2zm-5.1-8.66l-1.47-4.2v-7.24l2.7-3.42 2.68-3.41 4.63-1.53 4.64-1.53 2.34.6 2.35.62-3.07.16-3.07.15-4.05 2.1-4.06 2.1.78.78.78.77-1.14 1.46-1.13 1.46-.84 4.44-.85 4.44 1.33 2.48 1.32 2.47-1.2.75-1.21.75zm14.8 2.6l-1.6-1.6v-8.27l1.6-1.6 1.6-1.6h6.93l1.6 1.6 1.6 1.6v7.32l-2.96 2.07-2.96 2.08h-4.21zm23.15-1.46l.91-2.39.75.75.75.74-1.66 1.65-1.66 1.64zm-107.35-3.54l-1.93-1.22 5.43.73 5.42.73 5.5-4.98 5.51-4.97v2.51l-3 2.73-3 2.74-2.9 1.5-2.92 1.5-3.09-.02-3.09-.02-1.93-1.23zm-9.55-4.72l-4.82-3.15-2.23-5.58-2.23-5.57-.15-4.19-.15-4.19.94-2.97.95-2.96 3.93-2.8 3.93-2.8 7.66-.5 7.65-.5-6 1.04-6 1.04-3.66 1.77-3.67 1.77-.06.8-.06.78-1.78 6.66-1.78 6.67 1.36 1.7 1.37 1.7-.81.8-.81.82 1.35 2.53 1.36 2.53 5.46 3.96 5.47 3.96-1.2-.08-1.2-.08-4.82-3.15zm118.82.26v-2.17l-3.67-3.53-3.67-3.53 3.62 2.26 3.61 2.27.84 2.65.84 2.64-.78.8-.8.78zm-87.68-8.6l2.08-2.34 1.4-5.13 1.39-5.13-2.93-2.87-2.93-2.87-3.33-2.4-3.34-2.38 4.48 2.39 4.47 2.39 2.39 3 2.38 3-.98 4.34-.98 4.35-1.86 2.99-1.87 2.99h-2.44zm-22.7-1.08l-2.96-2.08v-7.34l2.72-2.92 2.72-2.92h3.3l2.97 2.08 2.96 2.07v9.11l-3.93 2.04-3.94 2.03h-.87zm95.04-18.84l4-2.15 4.4-4.8 4.4-4.8-1.28 2.66-1.27 2.67-3.12 2.83-3.13 2.84-2.9 1.5-2.92 1.5-1.09-.06-1.09-.05 4-2.14zm-19.22-3.87l-4.1-3.45-2.17-7.47-2.18-7.47 2.49-4.61 2.49-4.62 4.3-1.8 4.3-1.8 3.72.1 3.7.11-1.33.4-1.33.4-5.62 1.7-5.62 1.7.7 1.13.7 1.13h-2.5l-1.43 5.61-1.42 5.62 1.25 1.5 1.25 1.52-.76.75-.76.76 1.85 3.53 1.84 3.52 3.93 2.58 3.92 2.6h-1.56l-1.57.01-4.1-3.45zm8.89-7.32l-2.33-1.36v-9.14l3.33-2.19 3.33-2.18 3.34 2.18 3.33 2.19v7.79l-2.96 2.07-2.97 2.08-1.37-.04-1.37-.04-2.33-1.36zM9.04 211.34l-2.03-2.33-1.7-3.28-1.7-3.27-1.79-6.73-1.79-6.72-.01-3.67-.02-3.67h2.58l-.73 1.92-.74 1.92 1.6 7.75 1.6 7.75 2.53 4.98 2.53 4.97 3.32.84 3.33.83 4.75-.89 4.75-.89 2.24-.6 2.24-.62-4 1.96-4 1.96-5.46.06-5.46.06zm262.96.42v-.58l1.3-3.41 1.3-3.42-4.3-4.9-4.3-4.9 2.99 1.6 2.98 1.6 2.01 3.89 2.01 3.88-1.3 3.41-1.3 3.41H272zm-233.33-7.92v-.5L41 201.5l2.33-1.83-1.83 2.34-1.83 2.33h-1zm6.16-10.18l2.14-5.36-.64-2.98-.63-2.98-.52-1.93-.51-1.93-3.61-3.14-3.61-3.14-.58.4-.59.4-2.47-2.17-2.48-2.17-2.91-.9-2.91-.88-7.43 2.16-7.43 2.16L6 175.6l-4.66 4.39v-2.32l2.44-2.43 2.44-2.44 6.56-3.23 6.56-3.23h13.34l6.19 3.05 6.2 3.05 1.68 4.07 1.68 4.07-.17 4.49-.16 4.48-1.98 4.73-1.97 4.73H42.7zm-26.65 1.25l-3.51-2.76v-6.28l3.51-2.77 3.51-2.76h7.32l1.39 1.67 1.39 1.68.9 3.59.9 3.6-3.4 3.4-3.4 3.4h-5.1zm235.15-18.16l3.34-.56 4.34-1.37 4.35-1.36-.76-1.23-.76-1.22h3.98l2.82-3.96 2.82-3.97-.3-6.37-.3-6.37-4.72-4.52-4.72-4.52 4.03 2.09 4.03 2.08 1.6 3.5 1.59 3.5v11.78l-4.2 4.78-4.2 4.78-3.74 1.93-3.73 1.93-4.4-.18-4.4-.18zm-13.5-6.74l-1.83-2.34 2.33 1.83 2.34 1.83v1.01h-1.01zm8.17-7l-2.67-2.67v-6.25l2.44-2.21 2.44-2.2h4.1l3.51 2.76 3.51 2.76v6.06l-2.43 2.2-2.44 2.21h-5.8zm-85.67-10.1l-3.66-1.99v-1.32l4.2 2.18 4.2 2.18 4.65-.76 4.65-.75 6.81-5.62 6.82-5.62-4.67 5.01-4.66 5.01-3.6 1.89-3.6 1.89-3.74-.06-3.73-.05-3.67-1.99zm71.1-6.07l-.1-2.17 2.34-1.83L238 141l-1.49 2-1.49 2-.74 2-.74 2-.1-2.17zm-71.35-8.13l-2.08-2.96v-8.21l1.6-1.6 1.6-1.6h5.77l3.52 2.76 3.51 2.77v7.61l-2.1 2.1-2.09 2.1h-7.66zm91.61 2.04l2.36-.62 1.64.67 1.64.66-4-.05-4-.05 2.36-.61zm-64.15-6.38l-.25-6.52-2.37-4.09-2.38-4.09-6.6-2.31-6.6-2.32 4.66.78 4.67.78 4 2.28 4 2.27 1.86 6.94 1.86 6.95-1.3 2.92-1.3 2.92zm70.46-5.9l6-.87 1.69-1.05 1.68-1.06 2.54-4.97 2.53-4.97.83-4.6.82-4.61-2.7-4.33-2.68-4.34h-2.87l.8-1.3.8-1.29-3.05-.67-3.06-.67-4-.5-4-.5 6.09-.2 6.08-.2 3.42 3.67 3.42 3.66 1.62 3.14 1.62 3.14-.9 4.82-.9 4.81-2.05 4.05-2.04 4.04-2.75 3-2.74 3-6.1-.17-6.1-.18zM145.54 123v-3.34l.68 1.67.67 1.67-.67 1.66-.68 1.67zm104.67-6.44l-2.21-2.44v-6.59l1.6-1.6 1.6-1.6h8.61l2.1 2.1 2.09 2.1v6.05l-2.44 2.21-2.44 2.2h-6.71zm-148.24-4.51l2.63-1.72 4.52-4.35 4.52-4.35-.96-7.65-.95-7.65-1.78-3.43-1.77-3.43-2.23-1.85-2.22-1.84-2.2-.46-2.2-.46-5.74-.78-5.75-.78-4.92 4.51L78 82.34l4.6-5 4.59-5h6.74l6.74.01 4.41 2.7 4.41 2.68 1.8 4.3 1.78 4.31.95 7.67.95 7.66-1.97 3-1.97 3-5.85 3.05-5.85 3.05zm-17.2-11.6l-2.42-2.68.85-3.37.84-3.37 3.23-2.11 3.22-2.12 3.72.43 3.7.43 2.05 3.67L102 95l-2.04 3.66-2.04 3.67-5.36.4-5.36.4zM74.67 86.5V86L77 84.17l2.33-1.83-1.83 2.33-1.83 2.34h-1zm168-2.32l-3.34-1.33-3-2.82-3-2.82v-2.56l2.77 3.51 2.76 3.51h4.98l.92 1.48.91 1.48 4.83-.77 4.83-.78-2 1.28-2 1.27-2.66-.06-2.67-.07-3.33-1.32zm15.2-3.65l2.54-2.86h.92v2.02l-3 1.85-3 1.84zM232.13 65l-.09-9.34 1.15-1.8 1.14-1.81-.6 9.8-.61 9.81-.45 1.34-.46 1.33-.08-9.33zm14.99 6l-2.89-1.15-.82-2.6-.83-2.6 1.55-3.39 1.54-3.38 3.09-.78 3.09-.77 3.44 1.57 3.44 1.56.81 3.23.81 3.23-2.5 2.4-2.52 2.4-2.66.72-2.67.7zm-74.79-6.25l2.34-.6 2.33.6 2.33.61H170zm-7.25-1.32l1.75-.7.8.8.81.81-2.55-.1-2.56-.11 1.75-.7zm16.53-.95l1.72-1.86 1 .6 1 .61v-4.16h2.01l1.81-4.07 1.8-4.08.63.62.62.62-2.17 4.2-2.17 4.19-2.6 2.6-2.6 2.59h-2.76zm88.26-9.14l-2.54-3 3 2.54 3 2.54v.92h-.92zM164.1 50.16l-2.77-3.51v-4.79l2.1-2.1 2.1-2.09h9.14l2.66 2.67 2.67 2.67v3.64l-2.76 3.51-2.77 3.51h-7.61zm73.82.25l2.59-2.07h2.6l-.55.49-.56.48-3.33 1.59-3.34 1.59zm-91.76-4.12l-.83-2.17.14-2.89.14-2.89 1.1 4.66 1.09 4.66-.4.4-.4.4zm45.59-3.03l.48-5.08-4.5-5.92-4.52-5.92-4.6-.82-4.61-.83 4.04-.17 4.03-.18 2.86 2 2.85 2 2.78 4.49 2.77 4.5v11.01h-2.07zm59.14-6.76l-1.78-1.12 6.44.6 6.45.62 3.83-3.02 3.84-3.03 2.47-5.44 2.47-5.44.03-3.2.03-3.21-3.6-4.8-3.6-4.79-1.4-.98-1.4-.98h2.66l1.5.98 1.5.98 2.83 4.67 2.83 4.67v3.72l.01 3.72-2.6 5.1-2.62 5.12-4.16 3.5-4.16 3.5-4.9-.02-4.9-.02zM166 27l2.67-1.14 2.66.04 2.67.04-3.33 1.07-3.34 1.06-2 .04-2 .04zm86-1.07l-2-.69-1.62-2.12-1.63-2.11-.04-3.4-.04-3.4 1.6-1.6 1.6-1.6h7.46l2.67 2.66 2.67 2.67v4.92l-2.34 2-2.33 2-2 .68-2 .67zm-19.9-10.37l.11-2.55.7 1.75.7 1.75-.8.8-.81.8.1-2.55zM257 .8l1.67-.67 1.66.67 1.67.67h-6.67z" fill="#e7bdc5"/><path d="M249.4 358.43l-1.58-1.92.42-4.42.43-4.42 4.25-.4 4.25-.42 2.23 3.41 2.24 3.41-2.18 3.34-2.19 3.33H251zm-84-25.34l-1.58-1.9.42-4.43.43-4.42 4.45-.43 4.46-.42 2.54 2.3 2.55 2.3v4.5l-2.44 2.21-2.44 2.2h-6.8zm84.26-23.62L248 307.8v-5.72l2.44-2.21 2.44-2.2h3.86l2.48 2.88 2.47 2.9-1.2 3.44-1.2 3.44-3.99.4-3.98.39zM84.3 288.93l-2.97-2.07v-4.68l2.72-2.92 2.72-2.92h7.36l1.6 1.6 1.6 1.6v7.28l-2.1 2.1-2.09 2.09h-5.88zm165.3-27.52l-1.6-1.6.04-2.74.04-2.73 1.78-2.33 1.77-2.34h5.29l2.2 2.44 2.21 2.44v4.83l-2.33 1.77-2.33 1.77-2.74.04-2.73.05-1.6-1.6zm-85.35-18.22l-1.75-1.11-.12-4.16-.12-4.15 1.7-2.05 1.7-2.05h6.15l2.1 2.1 2.09 2.1v6.32l-2.96 2.07-2.97 2.08-2.03-.02-2.04-.02-1.75-1.11zm84.2-31.18l-1.04-1.67-.3-2-.3-2 1.95-3 1.97-3h5.08l2.1 2.1 2.09 2.1v5.51l-2.33 1.77-2.34 1.77-2.92.04-2.92.04-1.04-1.66zM21.33 195.87l-4.66-1.53-.41-4.19-.4-4.19 3.73-2.63 3.74-2.63 2.63.41 2.63.41 1.7 2.33 1.71 2.33-.02 2.75-.02 2.74-.98 1.34-.98 1.33-2 1.53-2 1.52-4.67-1.52zm228.3-32.27l-2.96-2.08v-8.75l3-1.37 3-1.37 2.91 1.08 2.91 1.08 1.35 2.53 1.36 2.52-.71 2.72-.72 2.72-3.28 1.5-3.28 1.5h-.62zm-85.22-23.29l-2.93-1.16-.93-4.97-.93-4.97 2.9-2.35 2.9-2.35 3.98 1.39 3.99 1.39 1.3 2.44 1.31 2.43-.04 1.76-.04 1.75-1.63 2.14-1.63 2.14-2.67.77-2.66.76-2.92-1.17zm86.23-24.67l-2.97-3.15.84-3.35.84-3.35 4.9-.92 4.88-.91 2.44 3 2.43 3v2.08l-2.33 2.85-2.34 2.84-2.86.54-2.86.53zm-163.68-14.7L84 98.85v-6.33l3.4-2.67 3.4-2.67 2.74.52 2.73.53 1.87 1.55 1.86 1.54v7.26l-2.44 2.21-2.44 2.2h-5.2zM245.6 69.4l-1.6-1.6v-7.4l3.24-2.13 3.25-2.13 3.09 1.63 3.09 1.63.98 1.46.98 1.47.02 2.52.02 2.52-2.34 1.77-2.33 1.77-3.4.04-3.4.05zm-80.07-18.86l-2.86-3.05v-6.63l1.6-1.6 1.6-1.6h8.39l2.2 2.44 2.2 2.44v5.82l-2.6 2.22-2.6 2.23-2.53.39-2.54.39zm83.21-27.84l-2.07-2.96v-4.33l2.43-2.2 2.44-2.21h3.87l2.96 2.07 2.96 2.08v7.75l-2.58 1.38-2.57 1.38h-5.36z" fill="#d799a8"/><path d="M250.42 358.95l-2.24-1.3.11-4 .12-3.99 1.53-1.27 1.53-1.27 2.92.76 2.91.76-.72 1.17-.72 1.17 2.07-.8 2.07-.8v7.33l-2.33 1.77-2.34 1.78h-2.66l-2.25-1.31zm2.25-5.28l.82-1.33h-2.82v2.67h1.18zm-86.43-19.66l-.6-1-.92-4.33-.93-4.33 3.44-1.3 3.44-1.31L174 323l3.33 1.26v7.54l-1.6 1.6-1.6 1.6h-7.31zm8.94-3.74l.79-2.07-1.32.82-1.32.81v2.51h1.05zm-5.24-.5l.77-1.25-1.35-.83-1.36-.84V331h1.18zm3.9-3.5l.8-2.07-1.32.82-1.32.81v2.51h1.05zm75.22-18.66l-1.54-3.4 3.65-3.6 3.65-3.6 3.2 3.68 3.22 3.69-.86 2.31-.85 2.32-1.43.98-1.43.98-3.03.02-3.03.02-1.55-3.4zm9.25-1.4l-.81-.81-1.75.7-1.75.7 2.56.1 2.55.1-.8-.8zM86.67 289.23l-3.34-1.72.38-4.52.37-4.52.33-.33.34-.34 4.21-.74 4.22-.74 2.07 2.97 2.08 2.97v4.32l-2.43 2.21-2.44 2.2-1.23-.01-1.23-.02zm4-3.57v-1.33H88V287h2.67zm.46-4.72l-.8-2.06-.63.64-.63.63.88 1.42.87 1.43h1.1zm158.45-21.28l-1.52-3.33h2.76l-.86-1.4-.86-1.38 1.62-1.95 1.6-1.94H256l2.67 2.67 2.66 2.67v2.56l-2.91 2.72-2.92 2.72h-4.4zm-85.53-19.24l-1.38-2.58v-1.67l1.66.94 1.67.94-1.6-1.73-1.6-1.73 1.3-2.46 1.33-2.47h4.73l2.4 1.77 2.42 1.76.4 3.65.4 3.64-3.3 1.26-3.32 1.26h-3.73zm7.59-2.23l-.8-.8-1.76.7-1.75.7 2.56.1 2.55.1-.8-.8zm77.15-27.86l-2.18-3.33h2.43l-.19-2.15-.18-2.15 2.2-1.43 2.2-1.42 3.46 2.27 3.47 2.27v4.98l-3.29 2.15-3.28 2.15h-2.46zm7.21-1.25v-.6l-1.33-.82-1.34-.82v2.82H256zM20.33 194.35L16 192.47v-2.83l1.67-2.98 1.66-2.99 1.34-.98 1.33-.98 2.97-.02 2.97-.02 2.22 3.4 2.22 3.38-1.56 3.4-1.55 3.42-2.04-.78-2.04-.79.82 1.32.81 1.32-1.07-.05-1.08-.05zm5-3.12v-1.11l-.85-.85-.85-.86-1.17.73-1.17.72.77 1.24.76 1.24h2.51zm2.84-5.91l-1.66-1.65.9 2.4.92 2.39.75-.75.74-.75zm221.66-22l-1.5-.98-.9-4.2-.92-4.21 1.08-.61 1.08-.61 3.69-.88 3.69-.89-.65 3.7-.65 3.7 1.28 2 1.28 2-.49-4.39-.48-4.39 1.5.5 1.5.49.43 2.97.43 2.97-1.6 1.92-1.6 1.93-2.83-.02-2.84-.02-1.5-.98zm2.78-4.22l.77-1.24-1.36-.84-1.35-.84v4.16h1.18zm-89.7-19.88l-1.76-1.15.42-5.15.43-5.15 4.42-.9 4.42-.9-.69 1.79-.68 1.78 2.26-.71 2.27-.7-2.33 1.91-2.34 1.93v1.73l2.6-1.63 2.62-1.63.84.85.85.85-1.8 3.77-1.8 3.76-3.98.35-4 .35zm4.62-3.55l-.2-3.33h-2v2.45l.81 2.1.81 2.12h.77zm5.8-.66v-1.34h-1.18l-.82 1.34-.82 1.33h2.82zm77.55-20.73l-1.55-3.4v-3.68l3-1.01 3-1.01 1.67-.3 1.66-.3-.47 2.89-.47 2.88.59-1.74.58-1.74 1.56.51 1.55.51.44 2.97.43 2.97-1.6 1.93-1.6 1.92h-7.24zm5.12-1.94v-1.33h-2.67v2.66H256zM88.83 100.56l-3.84-2.26.23-1.31.23-1.32.74-2.95.74-2.95 2.63-.84 2.63-.83 3.22.8 3.22.81.8 3.2.8 3.18-1.55 2.9-1.55 2.89-1.97-.75-1.97-.76.82 1.32.81 1.32-1.07-.1-1.08-.1zm4.5-2.66v-1.12l-.85-.85-.85-.85-1.17.72-1.17.72.77 1.25.76 1.24h2.51zM246.1 68.44l-2.1-2.31v-4.04l2.44-2.21 2.44-2.2h3.95l2.92 2.71 2.92 2.72-.05.95-.04.95-1.9 2.5-1.9 2.52-3.3.36-3.3.36-2.09-2.3zm7.24-5.43v-1.34h-2.82l.82 1.34.83 1.33h1.17zm-86.66-12.5v-1.84l-2-1.66-2-1.66v-1.5l.01-1.51 4.15-2.36 4.14-2.36-.85 2.22-.85 2.21 1.86-1.54 1.86-1.55 2.12.81 2.12.82.83 2.6.83 2.61-2.14 3.27-2.14 3.27h-7.94zm4.38-3.5l-.7-2.67H168v3.78l1.67.67 1.66.67.21.1.21.11-.7-2.66zm4.53-1.59l-.7-1.75-.1 2.56-.11 2.55.8-.8.8-.8-.7-1.76zm-2.67-2.66l-.7-1.75-.1 2.55-.11 2.56.8-.8.81-.81-.7-1.75zm78.04-18.21l-1.71-1.1-.76-4.7-.77-4.7 3.15-.83 3.14-.84 1.08-.02 1.08-.02-.94 1.67-.94 1.66 1.7-1.58 1.72-1.58 1.81 1.82 1.82 1.82v5.33l-2.1 2.1-2.09 2.1-2.24-.03-2.23-.02zm1.96-5.8l-.7-1.74-.1 2.55-.11 2.56.8-.8.81-.81-.7-1.75z" fill="#cd748c"/><path d="M250.67 356.93v-2.08l-1.14.7-1.14.7.63-3.3.63-3.32 1.23-.75 1.23-.76-.87 3.46-.87 3.46 2.78-.43 2.78-.42.92-.93.93-.92h-5.7l.8-2.07.79-2.06 2.16.48 2.17.48-.33 1.58-.34 1.59H260v2.67h-4.08l-.77 2-.77 2h-3.71zm-81.34-23.48v-1.55l-.88.88-.88.88-1.57-3-1.57-2.99 1.08-2.16 1.07-2.17 2.61-.68 2.61-.68-.82 2.18-.81 2.18 2.58-2 2.58-2-1.77 2.27-1.78 2.27.95 2.98.94 2.98 1.83-2.5 1.83-2.51v2.99l-2.1 2.1-2.09 2.09h-3.8zm1.8-3.5l-.77-2.94H168v2.78l1.67 1.8 1.66 1.81.28-.25.28-.26zm2.2-1.48v-1.3l1.43-.88 1.42-.88.44.46.44.47-1.86 1.72-1.87 1.72zm77.7-19.13l-1.28-1.67-.79-2.2-.78-2.21 2.35-2.13 2.35-2.12h5.05l-2.97 2.07-2.96 2.08v2.51h2.67v-3.43l2.98-.22 2.98-.23-1.8 1.11-1.8 1.12 1.15.6 1.15.62-1.62-.4-1.62-.38-.8 1.27-.78 1.28h4.16v2.76l-2.59-1.39-2.58-1.38-.77 1.24-.76 1.23 2.35.61 2.35.62-2.17.15-2.17.16zm-163.7-20.08l-2.66-1.59-.97-1.33-.97-1.33.78-2.67.79-2.67 1.1-1.17 1.08-1.18-.31 2.14-.32 2.14-.92.92-.93.93v2.38l1.24-.77 1.24-.76.84 1.35.84 1.36h6.66l-.83-1.36-.84-1.35-1.15.7-1.15.72-.85-1.38-.85-1.38-1.3.8-1.29.8.9-3.77.92-3.78.47-.56.48-.55v7.1h2.72l-.88-3.51-.88-3.5 1.86.6 1.85.62 1.55 3.08 1.55 3.1-1.06 2.8-1.06 2.8-2.3-.42-2.28-.42.88 1.42.88 1.43-1.08-.08-1.08-.08-2.67-1.59zm7.72-7.59l-.7-2.66h-2.1l.7 2.66.7 2.67h2.1zM253.33 260l3.34-1.5.55-.4.54-.4-3.76-3.24-3.76-3.23 4.44.23 4.44.22.55 1.67.55 1.67h-2.89v-2.67l-1.66.04-1.67.05 3.06 2.55 3.06 2.55.04 1.02.04 1.02-2.43.96-2.44.96H250l3.33-1.5zm-2.94-1.88l1.72-.7-1.72-2.2-1.72-2.2 2.33 1.83 2.33 1.83V259l-2.33-.1-2.33-.11 1.72-.7zm-85.87-17l-.73-1.9-.36-2.43-.37-2.44 2.52-2.2 2.51-2.2 2.62.7 2.62.68v1.33l-2.37-.62-2.37-.62-1.7 1.81-1.7 1.82 2 .76 1.97.76-.72 1.89-.73 1.89h2.51l.9-.9.89-.88-2.06-2.28-2.06-2.27 3.72.02 3.72.03-1.66.58-1.67.59v2.6l1.37-.84 1.36-.85-.36 1.77-.37 1.76-2.67 1.62-2.66 1.62-1.71.05-1.71.05-.73-1.9zm86.08-30.04l1.94-1.22 1.07.66 1.08.67.8-2.09.8-2.08h2.38l-.34 1.66-.33 1.67-2 .9-2 .91-2.67.08-2.66.07 1.93-1.23zm-2.09-2.98l-.92-1.5 1.27.79 1.27.78 1.93-1.19 1.93-1.2-2.66-2-2.66-2.01 1.58-.04 1.6-.05.82 1.34.82 1.33 2.26-.02 2.25-.02-2-1.42-2-1.41 1.92.52 1.91.52.44 1.32.45 1.33-4.64 2.2-4.65 2.22-.92-1.5zM22.07 194.6l-2.6-1.58-1.51-1.28-1.52-1.28 1.31-3.47 1.31-3.48 3.35 3.1 3.34 3.1.57-.57.56-.56-1.5-2.82-1.51-2.82-1.27.78-1.27.79v-2.67l3.64.28 3.64.28 1.58 3.17 1.58 3.17-1.07 2.8-1.07 2.81-2.13-.18-2.14-.19.73 1.19.73 1.18-1.07-.08-1.08-.08-2.6-1.59zm6.67-3.47l-.76-1.22 1.25-.45 1.25-.44-1.99-3.34-1.98-3.33.75 3.58.75 3.59-1.25.77-1.24.77-.85-1.38-.85-1.37-1.25.76-1.24.77v2.51h8.16zm221.95-29.11l.02-2.34 1.14 1.81 1.15 1.81v-6.95h-1.82l-1.45 3.67-1.45 3.66-.14-5.66-.14-5.67 3.67.1 3.66.09-2.66 1.26-2.67 1.27 4.67-.67 4.66-.67-2.33 1.38-2.33 1.37v2.86l2.03-1.68 2.03-1.69.86.86.86.86-1.78 3.33-1.79 3.33h-6.21l.02-2.33zm7.98-3.33v-1.33l-2 1.66-2 1.66v2.66l2-1.66 2-1.66zm-93.5-19.34l-.15-1 .21-1.16.21-1.17-1.77.68-1.76.68.17-3.52.17-3.51.2-1.67.22-1.66 3.66.02 3.67.02 1.96 1.24 1.97 1.24-2.3.88-2.3.88.04 2.2.04 2.18 1.36-2.33 1.36-2.33h2.54l-.05 2.33-.04 2.33-1.77 2.34-1.77 2.33h-5.71l-.15-1zm4.14-1.84l.02 1.83 2-1.66 2-1.66v-2.66l-1.98 1.64-1.99 1.65-.82-2.15-.83-2.15H164v1.37l1.62 2.6 1.62 2.59 1.03-1.61 1.02-1.62.02 1.83zm-2.64-7.83v-1.33h-2.82l.82 1.33.82 1.34h1.18zm84.71-14.88l-.99-3.12-.4-1.6-.4-1.6 3.16-2.07 3.17-2.07-.88 2.34-.87 2.34 2.1-1.72 2.11-1.7 2.15 2.13 2.14 2.14-.02 1.58-.02 1.57-1.1-1.73-1.1-1.73-1.71 2.06-1.71 2.06 1.16.16 1.16.16 1-.16 1-.16v2.38l-2.1.81-2.11.81h-2.45v-2.58l2.13.82 2.13.82-1.79-2.86-1.78-2.86h-3.69l1.42 1.7 1.42 1.72-1.07 1.73-1.07 1.74zm7.29-5.86v-2.08l-1.34.82-1.33.83V111h2.67zM89.65 101.2l-3-1.5-.7-2.14-.67-2.16 1.27-3.19 1.28-3.2.09 1.82.08 1.8 2-.76 2-.77v3.76l-1.36.84-1.35.83.77 1.25.76 1.24h6.67l-.84-1.36-.83-1.35-1.15.7-1.15.72-.84-1.36-.84-1.35h2.88l-.84-3.34-.84-3.33h2.9l2.12 3.24 2.13 3.25-1.48 2.75-1.47 2.76h-4.06l.82 1.33.82 1.34-1.07-.17-1.08-.16zm-.98-6.2l.82-1.34h-2.82v2.67h1.18zm8.66-2.67l-1.55-2.9-.66.67-.67.67 1.55 2.9 1.55 2.89.67-.67.66-.66zm148.12-25.67l-1.13-3 1.27-2.43 1.28-2.44 1.9.73 1.9.73v-2.6l3 1.67 3 1.68.87 1.21.88 1.21-1.5 2.42-1.51 2.4-3.04-1.98-3.04-2v5.4h-2.75zM248.5 64l.88-3.67h-2.87l.82 1.33.83 1.34h-2.58l.71 2.72.72 2.72.3-.39.31-.39zm7.5.38V63.1l-2.67-1.43-2.66-1.42v4.38l2-.77 2-.77v2.58H256zm-90.33-15.7L164 45.15v-3.16l3.54-2.32 3.54-2.32-.9 2.36-.9 2.35 2.02-1.68 2.03-1.69v3l1.67-.34 1.67-.33.4 4.24.42 4.25-2.83 1.51-2.83 1.52-1.79-1.49-1.78-1.48-.46 1.35-.47 1.34zm7.66.98v-1.33h-2.66l.04-2.33.05-2.34 2.62 3.15 2.62 3.15-.02-3.82-.02-3.81-1.3 2-1.29 2-.02-2.6-.02-2.6-1.6 1.6-1.6 1.6h-3.62l.82-1.33.83-1.34h-2.83v2.44l3 3.43 3 3.42 1 .02 1 .03zm79.27-25.44l-.89-1.44 4.13-4.03 4.13-4.04.79 2.04.78 2.04-1.48 2.77-1.49 2.77H256v-2.67h-2.58l.76 2 .77 2h-1.46zm7.38-5.72l.02-1.16-1.99 1.64-1.98 1.65.82 1.33.82 1.32 1.14-1.8 1.15-1.82.02-1.16zm-11.12 1.8l-.85-4.24.64-1.04.64-1.03 2.7-.7 2.68-.71-.89 1.43-.88 1.44 2.4-.92 2.41-.93-1.68 2.03-1.69 2.03h-3.96l.69 1.8.68 1.78-1.02 1.65-1.02 1.66z" fill="#bb6081"/><path d="M250.67 356.93v-2.08l-1.14.7-1.14.7.63-3.3.63-3.32 1.23-.75 1.23-.76-.92 3.66-.92 3.67 1.92-.74 1.93-.74.2 2.52.18 2.52h-3.83zm6.66-3.26v-1.33H260v2.67h-2.67zm-4.48-3.33l.77-2h1.94v4h-3.48zm-83.52-16.89v-1.55l-.88.88-.88.88-1.56-3-1.55-2.99.55-1.58.54-1.58 2.11.8 2.11.82-.88-1.42-.87-1.42 1.82-.7 1.83-.7-.05 1.56-.04 1.56.25 2.66.25 2.67 1.36-2.33 1.36-2.34h2.72l-2.1 2.1-2.09 2.1v2.63l1.34-.83 1.33-.82v2.54l-2.1.8-2.12.82h-2.45v-1.56zm1.93-2.78l-.92-3-.42-.46-.4-.47-1.52.93-1.52.94 2.43 2.45 2.42 2.45.43.08.42.08-.92-3zm79.28-22l-1.79-2.33 1.12.94 1.11.93 1.85-1.84 1.84-1.84v-2.86h-2.38l-.8 2.09-.8 2.08-1.53-.94-1.52-.94 3.18-2.45 3.18-2.44 1-.03 1-.03-.33 1.66-.34 1.67 1.77-.37 1.76-.36-.77 1.25-.77 1.25 1 .56 1.01.57-1.54-.36-1.54-.36-2.2 2.44-2.21 2.44 1.75.7 1.74.7-1.5.1-1.5.1-1.79-2.33zm6.13-.33l-.83-1.33h2.83v2.66h-1.18zM88 289.29l-3.33-1.54-.98-1.37-.98-1.37v-2.67l1.14 1.8 1.15 1.82 1-1.63 1-1.62-1.83-1.31-1.84-1.31 2.25.72 2.25.72.57-2.93.57-2.93.18 3.67.18 3.67h2.85l-.85-2.67-.84-2.67h2.48l-.32 3-.31 3-.17 1.17L92 286l-1.79-1.49-1.79-1.48-.88.88-.87.87V287h8.15l-.82-1.33-.82-1.33h2.57l-.57-3-.57-3 1.16 2.65 1.15 2.64-.62 2.36-.61 2.35H90.5l.82 1.33.83 1.34-.41-.1-.42-.08zm165.67-29.35l3.66-1.45v-2.15H260l-.33 1.67-.34 1.66-2 .91-2 .9-2.66-.04-2.67-.05 3.67-1.45zm-2.57-1.81l.88-.88-1.66-2.12-1.65-2.12 2.33 1.83 2.33 1.83V259h-3.11zm6.23-4.54v-1.4l1.34.82 1.33.82v1.18h-2.67zm-6-1.25l-.82-1.33h2.82v2.66h-1.18zm-86.52-10.43l-.67-1.09-.58-3.24-.59-3.24 1.78-1.65 1.78-1.66.81 1.32.82 1.32h-2.58l1.55 3.33 1.54 3.32.92.01.92.01.77-1.24.76-1.24-1.35-.84-1.36-.84v-1.94l3-.15 3-.14-1.66.64-1.67.64v2.6l1.37-.84 1.36-.85-.36 1.77-.37 1.76-2.67 1.62-2.66 1.62-1.6.05-1.58.05-.68-1.1zm85.8-30.84l1.93-1.22 1.07.66 1.08.67.8-2.09.8-2.08h2.38l-.34 1.66-.33 1.67-2 .9-2 .91-2.67.08-2.66.07 1.93-1.23zm1.1-4.04l3.04-2.87 2.15.42 2.15.43-5.2 2.44-5.18 2.45zM22.06 194.59l-2.61-1.58-1.66-1.5-1.66-1.51 1.72-2.35 1.72-2.35 2.39 1.34 2.38 1.33-1.5.93-1.5.93v2.51h8.32l-1.66 2-1.66 2-.84-.08-.83-.08zm4.02-5.04l.67-1.1 1.86.72 1.86.71-.76-3.1-.77-3.1.74.66.73.67.46 2.64.46 2.64-2.96.18-2.97.17zm-1.26-4.63l-.8-2.08-1.34.83-1.35.83v-2.66l2.67.2 2.67.2v4.77h-1.05zm226.29-22.7l-.81-2.1-1.13 1.77-1.13 1.78-.02-5.66-.02-5.67 3.67.1 3.66.09-2.66 1.26-2.67 1.27 4.67-.67 4.66-.67-2.33 1.38-2.33 1.37v3.07l1.6-1.6 1.6-1.6H260v2.67l-1.62-.34-1.62-.33-1.36 3-1.37 3h-2.11l-.81-2.11zm2.22-2.55v-3.33h-3.94l1.52 3.33 1.52 3.34h.9zm-85.44-21.66l-.1-2.34-.67 1.67-.68 1.67h-2.6l.97-1.56.96-1.56-1.88.72-1.89.72.17-3.83.16-3.83.17-1.33.17-1.33h6.32l.04 4.33.04 4.33.13 1.83.13 1.83 2.34-1.83 2.33-1.83-1.83 2.34-1.83 2.33H168zm-.76-6.7l-.77-2.97h-1.92l-.1 2.33-.12 2.34.6 1.89.6 1.89 1.25-1.25 1.24-1.25-.78-2.97zm4.01.14l-.2-3.11h2.55l-.82 1.33-.83 1.34h2.83v3.55h-3.34zm80.22-16.66l-1-3.12-.18-1.98-.18-1.98 2.26-.43 2.25-.44 2.14 4.13 2.13 4.12 1.61-.96 1.61-.97-1.83 2.26-1.83 2.25h-3.67v-2.58l2.13.82 2.13.82-1.79-2.86-1.78-2.86h-3.69l1.42 1.7 1.42 1.72-1.07 1.73-1.07 1.74zm8.07-5.88l-2.1-2.1v-1.05l1.9.72 1.9.73.73 1.9.72 1.9h-1.06zm-166.76-7.24l-.83-1.33h-5L86 97.69l-.84-2.66.83-1.34.83-1.35h4.96l.44 1.32.45 1.32 3.56.3 3.56.3-1.27 2.38-1.28 2.38h-4.06l.82 1.33.82 1.34H93.5zm3.98-4.02l-.83-1.35-1.15.7-1.15.72-.85-1.38-.85-1.38-1.27.78-1.26.78.77 1.25.76 1.24h6.67zm-7.98-2.64l.82-1.34h-2.82v2.67h1.18zm5.55-2.23l-.89-.88v-3.56h2.1v5.33h-.32zm151.11-26.44v-2l.34-1 .33-1 1.76.2 1.76.2-.75-1.94-.74-1.93 1.32.81 1.32.82v-2.58l3.32 1.55 3.32 1.54.01 1.55.01 1.56-.8 2.09-.8 2.08-2.86-1.6-2.87-1.58-1 .28-1 .28v-2.66h-2.42l.7 2.66.7 2.67h-1.65zm9.36-3.97l-1.68-2.03h-2.34v4.29l2-.77 2-.77v3.03l.85-.86.86-.86zm-89.04-13.73l-1.65-3.5v-3.16l3.3-2.16 3.29-2.16-.77 2-.77 2.01H172l.02-1.66.02-1.67 1.13 1.78 1.13 1.78 1.18-.45 1.19-.44.23 4.66.23 4.67-1.08-4-1.07-4-.18 1.33-.17 1.34-1.15-1.81-1.15-1.81-.84 1.37-.85 1.37 2.14 2.14 2.15 2.14-.76 1.96-.75 1.97h-2.6l-.9-1.48-.92-1.47-.85 1.37-.85 1.38zm7.68 1.03v-1.33h-2.66v-4h-4.16l.82-1.33.83-1.34h-2.83v2.44l3 3.43 3 3.42 1 .02 1 .03zM252 22.93v-1.41l-1.2.73-1.18.74-.85-3.39-.85-3.38.69-1.11.68-1.11 2.42-.64 2.42-.63.18 2.47.2 2.47h-3.84v2.23l.87.87.88.88 1.63-1.36 1.64-1.35.9 2.33.89 2.33 1.24-1.96 1.24-1.97.02 1.6.02 1.58-1.59.98-1.59.98-.52-1.57-.52-1.57h-2.6l.82 1.34.82 1.33H252zm5.66-5.58l.4-1.21h2.54l.4 1.21.4 1.21h-4.14z" fill="#c45a7c"/><path d="M249.05 352.76l.6-3.13.84-.52.84-.52v7.31h-2.88zm-81.9-20.12l.9-1.45-1.36-.84-1.36-.83.16-2.93.15-2.92.66 2.67.65 2.67 1.26 1.54 1.25 1.55-1.6 1-1.6.99zm4.3-1.16l-.84-2.18 2.36 1.8 2.36 1.82.56.38.55.37h-4.15zm-3-6.42v-1.94l1.49-.57 1.49-.57V327h-2.99zm83.05-15.12l-.66-1.06 1.19-1.92 1.19-1.92-.23 2.98-.22 2.99h-.61zm3.17-7.08v-1.47l-2 .77-2 .76v-1.15l2.68-1.44 2.69-1.44-.35 1.73-.36 1.72 1.77-.37 1.76-.36-.84 1.36-.84 1.37h-2.51zM88.4 289.23l-2.92-1.46.25-3.54.26-3.55 1.7.65 1.7.65-1.61 1.95-1.62 1.95 1.8 1.1 1.79 1.11 1.45-.32 1.46-.33-1.01.57-1.01.56.75 1.22.76 1.22-.41-.17-.42-.16zm5.68-3.42l-.74-1.2 1.92-.73 1.93-.74-.74 1.93-.75 1.94h-.89zm156.9-24.9l.76-.76 4.46-.55 4.46-.54-2.67 1.21-2.67 1.22-2.55.09-2.56.1.77-.77zm.34-8.57l-.82-1.33h2.82v2.66h-1.18zm-83.29-10.38l.04-.95 3.07-2.23 3.07-2.23v3.67l-1.1-.68-1.12-.7v2.55l-2 .77-2 .76zm-4.54-4.01l-.65-1.06 2.58-.19 2.57-.2v2.51h-3.84zm88.5-27.02v-1.7l.9.9.88.88 2.22-2 2.22-2.01v4h-2l-2.11.82-2.11.8zM22.67 194.34l-1.66-2h1.85l2 2 2 2h-2.53zm-4.57-2.88l-.83-2.17.7-.7.7-.7.04 1.9.04 1.88 1.95-2.57 1.94-2.57.56.57.57.57-2.42 2.98-2.41 2.98-.84-2.17zm7.98-1.65l.64-.64 2.58-.19 2.58-.19-.63 1.03-.64 1.02-2.58-.2-2.58-.2zm-.64-6.25l.1-2.55.7 1.75.7 1.75-.8.8-.8.8.1-2.55zm222.69-23.89l-.09-4 1.3-2 1.29-2 .02 1.57.02 1.57 2.33.61 2.33.61-3 .16-3 .15v2.51l1.34.82 1.33.83-.02 1.59-.02 1.58-1.15-1.81-1.15-1.82-.73 1.82-.72 1.81-.08-4zm8.85-2.16l1.64-1.66.75.75.75.74-2.4.91-2.39.91zM168 137.67l-1.43-2.66h1.34l1.42 2.66 1.43 2.67h-1.33zm-5.81-3.82l.26-3.51.1-1.22.12-1.22.9.9.9.9.14 3.29.14 3.29-1.41.54-1.41.54.26-3.5zm9.35-.91l.75-1.93h2.38v2.38l-1.94.74-1.93.74zm-4.87-1.93v-1.34h2.66v2.67h-2.66zm84.68-16.34l-.96-3-.4-1.57-.4-1.58 1.87.72 1.87.72v-3.11l1.54.95 1.53.95-2.13 1.56-2.14 1.56.76 2.9.75 2.9h-1.33zm-158.68-13l-.83-1.33h-4.89l-.8-2.1-.82-2.12V94.5l1.78 2.43 1.78 2.43.02-2.51.02-2.51-1.47-.98-1.46-.98h2.67l1.8 1.15 1.81 1.14-1.5.93-1.49.92.77 1.25.76 1.24h6.67l-.74-1.2-.73-1.2 2.02-.77 2.02-.77-1.4 2.63-1.42 2.64h-4.06l.82 1.33.82 1.34H93.5zm.66-11.33v-2h2.59l-.77 2-.77 2h-1.05zM252 65.75V64.5l1.42-.88 1.42-.88-2.42-2.72L250 57.3l2.97 1.82 2.98 1.83.7 1.82.7 1.81-.76 1.21-.75 1.22H252zm4-1.41v-1.33h-1.18l-.82 1.33-.82 1.33H256zm-11.28.1l-.76-1.25 1.44-.9 1.44-.88.8.8.8.8h-3.26l.82 1.33.82 1.33h-1.33zM165.67 48.7L164 45.14l.05-2.07.06-2.06 2.04 3.77 2.05 3.77 1.61-.62 1.62-.62v4.88l-1.59-1.31-1.58-1.32-.46 1.35-.47 1.34-1.66-3.55zm2.93-5.58l.75-1.22-1.38-.68-1.37-.68 1.62.32 1.61.31.53 1.59.53 1.58h-3.05zm81.94-21.91l-2.12-2.87.54-1.6.55-1.58 2.13.81 2.13.82-.9-1.46-.91-1.47 1.07-.67 1.08-.67.2 2.58.2 2.57h-3.84v2.14l1.57 1.57 1.58 1.58-.58.56-.57.56zm7.46-4.87l.82-1.33H260v2.66h-2.82z" fill="#b54c75"/><path d="M46.02 152.12l16.06-22.45-2.42-1.72 6.95-1.25 1.08 6.96-2.39-1.7-16.05 22.45zm0 76.1l16.06 22.45-2.42 1.71 6.95 1.25 1.08-6.95-2.39 1.7-16.05-22.46zm70.14 37.48l19.55-12.64-1.36-2.1 5.83 1.17-1.32 5.8-1.34-2.07-19.55 12.65zm1.78 39.17l19.55 12.65-1.36 2.1 5.83-1.17-1.32-5.8-1.34 2.07-19.55-12.65zM116.16 75.6l19.55-12.65-1.36-2.1 5.83 1.17-1.32 5.8-1.34-2.07-19.55 12.65zm1.78 39.16l19.55 12.65-1.36 2.1 5.83-1.17-1.32-5.8-1.34 2.07-19.55-12.65zm80.02-82.7l21.26-9.5-1.02-2.28 5.58 2.06-2.19 5.53-1-2.26-21.27 9.5zm-.19 22.81l21.27 9.5-1.02 2.28 5.57-2.06-2.19-5.53-1 2.26-21.27-9.5zm.83 67.1l21.26-9.5-1.02-2.28 5.58 2.06-2.19 5.52-1-2.25-21.27 9.5zm-.19 22.81l21.27 9.49-1.02 2.28 5.57-2.05-2.19-5.53-1 2.25-21.27-9.5zm.5 76.68l21.27-9.5-1.02-2.28 5.58 2.06-2.2 5.52-1-2.25-21.27 9.5zm-.19 22.8l21.27 9.5-1.02 2.28 5.58-2.05-2.2-5.53-1 2.25-21.27-9.5zm-.42 75.95l21.27-9.5-1.02-2.27 5.57 2.05-2.19 5.53-1-2.25-21.27 9.5zm-.19 22.81l21.27 9.5-1.02 2.28 5.58-2.06-2.2-5.52-1 2.25-21.27-9.5z"/></svg>